<svg width="393" height="224" viewBox="0 0 393 224" fill="none" xmlns="http://www.w3.org/2000/svg">
<path d="M54.3468 198.228C54.2841 198.139 54.2334 197.992 54.1534 197.972C53.9281 197.916 53.6428 197.816 53.4628 197.904C51.2428 198.99 49.7267 200.727 48.8334 203.02C48.7867 203.134 48.756 203.263 48.7614 203.383C48.772 203.627 48.7334 204.02 48.8534 204.082C49.1494 204.234 49.6054 204.392 49.8507 204.267C52.204 203.066 53.5214 201.008 54.3721 198.595C54.4094 198.49 54.3575 198.351 54.3468 198.228ZM47.9521 208.486C48.4281 211.235 49.5121 212.839 51.9814 214.44C52.2854 214.638 52.908 214.595 52.9894 214.355C53.0667 214.127 53.1841 213.859 53.1308 213.647C52.5361 211.26 51.2321 209.351 49.1987 207.951C49.0987 207.882 48.9801 207.814 48.8641 207.8C48.6241 207.774 48.3094 207.692 48.1588 207.808C48.0068 207.924 48.0135 208.251 47.9521 208.486ZM56.7041 204.223C55.9948 204.567 55.108 204.991 54.228 205.43C53.9347 205.575 53.9054 206.14 54.1174 206.383C54.6254 206.971 55.2934 207.284 56.0067 207.514C58.868 208.438 61.36 207.59 63.6614 205.879C63.752 205.811 63.8614 205.646 63.8361 205.568C63.7721 205.379 63.6734 205.111 63.5201 205.054C61.3948 204.25 59.1774 204.146 56.7041 204.223ZM55.9827 203.234C59.3907 202.307 62.6348 203.052 65.8295 204.252C65.9428 204.295 66.0308 204.398 66.1361 204.463C66.5041 204.691 66.6267 205.508 66.3441 205.804C66.2601 205.892 66.2214 206.031 66.1254 206.1C64.1948 207.506 62.1468 208.71 59.7534 209.084C56.4161 209.604 53.5787 208.786 51.712 205.726C51.4574 205.31 51.0881 205.33 50.7547 205.495C50.4387 205.652 50.1735 205.923 49.9081 206.17C49.8388 206.236 49.7948 206.459 49.8415 206.503C50.3788 207.022 50.9494 207.506 51.484 208.024C53.4534 209.928 54.4975 212.256 54.6694 214.99C54.7414 216.156 53.8307 216.823 52.6987 216.378C52.2374 216.196 51.7574 216.026 51.3441 215.759C48.5921 213.982 46.7721 211.575 46.3694 208.236C46.2054 206.882 45.9547 205.542 46.9174 204.316C47.204 203.952 47.2014 203.371 47.3641 202.902C48.6468 199.224 51.3321 196.964 54.8348 195.54C54.9428 195.496 55.0774 195.526 55.1974 195.502C55.7468 195.39 56.4601 196.09 56.3961 196.658C56.2348 198.04 55.7547 199.319 55.1267 200.542C54.7294 201.316 54.2361 202.04 53.8321 202.81C53.7334 202.998 53.8028 203.28 53.8295 203.516C53.8335 203.546 54.0455 203.584 54.1521 203.567C54.7628 203.464 55.3721 203.346 55.9827 203.234Z" fill="#917492"/>
<path d="M103.991 166.76C103.924 166.548 103.856 166.331 103.788 166.115C103.591 166.176 103.335 166.18 103.205 166.31C101.979 167.544 101.199 169.05 100.644 170.68C100.569 170.902 100.584 171.162 100.601 171.4C100.608 171.496 100.716 171.615 100.808 171.666C100.892 171.712 101.048 171.727 101.12 171.679C102.884 170.514 103.509 168.682 103.991 166.76ZM106.401 181.107C106.493 181.066 106.617 181.046 106.667 180.975C106.731 180.884 106.791 180.726 106.755 180.639C105.928 178.7 104.879 176.912 103.22 175.552C103.029 175.396 102.829 175.21 102.604 175.154C102.295 175.075 101.953 175.078 101.64 175.127C101.59 175.134 101.528 175.603 101.608 175.806C102.481 178.056 103.923 179.836 106.047 181.03C106.147 181.087 106.283 181.083 106.401 181.107ZM111.259 174.626C112.993 174.35 114.564 173.596 116.165 172.944C116.341 172.874 116.525 172.591 116.529 172.403C116.533 172.212 116.363 171.911 116.192 171.839C112.548 170.308 108.964 170.508 105.445 172.266C105.132 172.422 105.064 172.962 105.325 173.168C107.081 174.566 109.081 174.956 111.259 174.626ZM107.704 169.982C110.997 168.935 114.403 169.356 117.727 170.755C118.171 170.942 118.552 171.283 118.945 171.578C119.248 171.804 119.236 172.698 118.953 172.955C118.772 173.12 118.621 173.34 118.415 173.459C115.891 174.915 113.141 175.682 110.269 176.044C109.269 176.17 108.283 176.083 107.299 175.839C106.957 175.754 106.48 175.71 106.373 176.166C106.298 176.48 106.383 176.892 106.536 177.187C107.111 178.292 107.779 179.348 108.336 180.462C108.551 180.888 108.587 181.414 108.659 181.902C108.744 182.488 108.04 183.158 107.465 183.038C106.983 182.936 106.472 182.862 106.04 182.644C103.752 181.486 101.96 179.808 100.817 177.479C100.216 176.252 99.5718 175.047 98.9892 173.814C98.8398 173.494 98.7545 173.09 98.7945 172.742C99.1825 169.386 100.609 166.546 103.157 164.312C103.508 164.004 104.038 163.896 104.489 163.704C104.708 163.61 105.397 163.964 105.417 164.179C105.473 164.794 105.633 165.434 105.523 166.02C105.272 167.362 104.869 168.674 104.557 170.004C104.485 170.311 104.673 170.528 104.933 170.487C105.788 170.35 106.64 170.179 107.704 169.982Z" fill="#917492"/>
<path d="M54.1172 162.564C54.4225 162.451 54.7972 162.374 55.1052 162.187C56.9279 161.082 58.4412 159.671 59.3666 157.71C59.4186 157.602 59.4559 157.374 59.4306 157.363C59.2253 157.275 58.9506 157.11 58.7932 157.182C56.5159 158.223 54.6093 159.698 53.4026 161.954C53.352 162.047 53.3586 162.275 53.4133 162.306C53.6146 162.416 53.8452 162.471 54.1172 162.564ZM49.952 161.326C49.7786 160.887 49.6226 160.27 49.3093 159.751C48.3973 158.243 47.1946 156.991 45.6813 156.071C45.3893 155.892 44.9986 155.875 44.652 155.783C44.6386 156.139 44.5026 156.548 44.6306 156.843C45.4346 158.686 46.5573 160.31 48.1347 161.584C48.4213 161.815 48.7492 162.011 49.0892 162.152C49.2999 162.24 49.6506 162.299 49.7853 162.187C49.928 162.071 49.888 161.732 49.952 161.326ZM51.7492 161.115C52.5279 160.295 53.1852 159.554 53.8945 158.863C55.6905 157.107 57.7706 155.762 60.0759 154.778C60.3973 154.64 60.836 154.564 61.1466 154.672C61.444 154.774 61.704 155.12 61.868 155.42C61.9666 155.602 61.916 155.927 61.824 156.14C60.5773 159.058 58.8013 161.539 56.0573 163.258C53.3453 164.956 50.5693 164.967 47.9919 163.227C44.9986 161.207 43.152 158.295 42.5186 154.687C42.4786 154.462 42.5359 154.18 42.6439 153.976C42.7466 153.784 42.9652 153.548 43.1546 153.528C43.5079 153.492 43.9146 153.511 44.2293 153.658C46.9906 154.956 49.3079 156.759 50.7653 159.522C51.0426 160.048 51.3906 160.538 51.7492 161.115Z" fill="#917492"/>
<path d="M84.0587 181.13C82.2453 181.942 80.8213 183.214 79.9106 185.044C79.7413 185.386 79.7986 185.976 80.0439 186.012C80.2666 186.046 80.532 186.09 80.7213 186.002C82.5866 185.139 83.8146 183.658 84.6373 181.819C84.7013 181.676 84.536 181.408 84.432 181.227C84.3933 181.159 84.2227 181.168 84.0587 181.13ZM86.8014 195.534C85.8627 192.414 83.9546 190.059 80.4986 189.174C80.3933 189.146 80.188 189.188 80.1533 189.259C80.052 189.467 79.8973 189.751 79.9666 189.928C81.0719 192.804 82.952 195 85.7587 196.344C85.9586 196.439 86.2813 196.454 86.4653 196.355C86.6133 196.276 86.6374 195.967 86.8014 195.534ZM85.7627 190.222C86.524 191.787 87.3493 193.324 88.0146 194.93C88.2866 195.587 88.2627 196.386 88.2853 197.124C88.3013 197.676 87.5 198.235 86.9546 198.175C85.808 198.048 84.7853 197.619 83.8426 196.972C81.2933 195.223 79.6013 192.868 78.4253 189.992C77.4013 187.492 77.9079 185.384 79.2773 183.29C79.3439 183.186 79.4133 183.08 79.4893 182.982C81.0746 180.938 83.156 179.643 85.6213 178.943C86.2106 178.775 86.8894 179.475 86.7574 180.064C86.2854 182.191 85.2933 184.038 83.7493 185.572C83.2199 186.098 82.6187 186.551 82.0587 187.047C81.608 187.446 81.6759 187.831 82.2893 188.176C83.1559 188.662 84.0387 189.118 84.9133 189.586C85.1973 189.798 85.48 190.011 85.7627 190.222Z" fill="#917492"/>
<path d="M47.1933 171.302C46.5866 168.792 45.9306 167.714 44.008 166.066C43.6813 165.787 43.0946 165.684 43.0172 165.902C42.9386 166.126 42.836 166.391 42.8907 166.602C43.3893 168.539 44.22 170.304 45.7146 171.688C45.9773 171.932 46.3053 172.111 46.62 172.29C46.712 172.34 46.876 172.315 46.9813 172.268C47.0666 172.23 47.1612 172.114 47.1732 172.022C47.2026 171.786 47.1893 171.543 47.1933 171.302ZM57.0039 168.654C55.3813 169.324 53.8892 170.195 52.5279 171.278C51.9519 171.736 51.4133 172.252 50.9026 172.786C50.7626 172.932 50.6933 173.263 50.7586 173.452C50.808 173.598 51.1239 173.74 51.3172 173.732C54.2199 173.615 56.0106 171.798 57.5586 169.614C57.8493 169.202 57.9227 168.704 57.68 168.664C57.4547 168.627 57.2199 168.654 57.0039 168.654ZM41.4106 166.048C41.3839 165.543 41.3359 164.804 41.3106 164.064C41.2946 163.602 41.9613 163.208 42.3986 163.403C42.6239 163.502 42.8679 163.566 43.0773 163.688C45.5226 165.114 47.3706 167.05 48.2706 169.792C48.464 170.383 48.6586 170.972 48.864 171.559C48.9853 171.907 49.448 172 49.7586 171.739C50.1386 171.42 50.5066 171.086 50.8826 170.762C53.0773 168.876 55.6187 167.582 58.2747 166.5C58.608 166.364 59.0039 166.378 59.3732 166.344C59.7479 166.311 60.3133 167.019 60.2306 167.388C60.204 167.507 60.2346 167.646 60.1892 167.752C59.2399 169.958 57.8999 171.908 56.0146 173.387C53.3506 175.474 50.4866 175.912 47.308 174.379C44.408 172.979 42.6293 170.788 41.82 167.731C41.692 167.251 41.5839 166.766 41.4106 166.048Z" fill="#917492"/>
<path d="M75.4239 182.026C75.3612 181.951 75.3132 181.848 75.2319 181.81C75.1265 181.76 74.9799 181.715 74.8799 181.75C73.0066 182.416 71.6732 183.614 71.1985 185.607C71.1505 185.81 71.2186 186.132 71.3586 186.26C71.4865 186.375 71.8439 186.392 72.0026 186.295C73.4106 185.42 74.5132 184.251 75.2292 182.743C75.3332 182.522 75.3612 182.266 75.4239 182.026ZM71.3932 190.891C72.0972 193.843 73.6719 196.095 76.2306 197.624C76.4066 197.73 76.7346 197.735 76.9132 197.639C77.0812 197.55 77.2305 197.271 77.2425 197.067C77.3452 195.411 76.8078 193.88 76.0105 192.498C75.1345 190.979 73.8252 189.855 72.0985 189.308C71.7945 189.212 71.3239 189.543 71.3425 189.855C71.3652 190.219 71.3785 190.584 71.3932 190.891ZM69.8052 190.658C69.5932 189.039 69.4052 187.831 69.5306 186.566C69.7546 184.299 70.8105 182.568 72.6171 181.284C73.7305 180.491 74.9266 179.818 76.3586 179.758C76.7439 179.74 77.3691 180.296 77.3118 180.679C77.2411 181.164 77.1798 181.659 77.0332 182.124C76.3718 184.21 74.9998 185.786 73.3665 187.178C72.8705 187.6 72.9318 187.892 73.5332 188.324C74.1372 188.759 74.7825 189.143 75.3532 189.616C76.8305 190.84 77.8012 192.399 78.2852 194.259C78.6639 195.706 78.9305 197.166 78.8451 198.671C78.8051 199.399 77.9252 199.994 77.2306 199.758C76.8812 199.639 76.5079 199.554 76.1919 199.371C72.6665 197.316 70.4958 194.295 69.8052 190.658Z" fill="#917492"/>
<path d="M44.2855 198.635C44.0642 198.586 43.7815 198.423 43.6295 198.504C41.8802 199.438 40.7801 200.884 40.4321 202.844C40.3481 203.315 40.4681 203.824 40.5228 204.314C40.5641 204.674 41.1108 204.939 41.3601 204.734C41.7415 204.422 42.1868 204.15 42.4695 203.762C43.5068 202.334 44.1668 200.735 44.3948 198.974C44.4068 198.867 44.3228 198.748 44.2855 198.635ZM41.1881 210.214C41.6188 212.144 42.3282 213.968 44.2855 214.983C44.4695 215.078 44.7549 215.007 44.9855 214.968C45.0389 214.96 45.0908 214.768 45.0935 214.659C45.1335 213.395 44.8975 212.16 44.3708 211.032C43.9548 210.146 43.3428 209.344 42.7695 208.542C42.4175 208.051 41.6402 207.799 41.4962 208.058C41.3309 208.352 41.2095 208.692 41.1642 209.026C41.1148 209.39 41.1748 209.768 41.1881 210.214ZM39.7228 209.695C39.7614 210.055 39.6362 209.556 39.6695 209.068C39.7695 207.578 39.7948 206.136 39.1308 204.712C38.7015 203.792 38.9055 202.7 39.2148 201.776C40.0481 199.288 41.6108 197.444 44.2721 196.756C44.3894 196.726 44.5174 196.739 44.6401 196.723C45.3601 196.628 46.1188 197.382 46.0161 198.12C45.6508 200.75 44.8228 203.182 43.0815 205.26C42.3788 206.1 42.4002 206.186 43.2975 207.06C45.6762 209.382 46.6001 212.246 46.5375 215.491C46.5121 216.811 45.3495 217.402 44.1748 216.72C41.7762 215.33 40.2334 213.34 39.7228 209.695Z" fill="#917492"/>
<path d="M95.1786 172.588C95.3773 172.451 95.6373 172.354 95.7613 172.167C96.5799 170.92 97.1266 169.551 97.4666 168.103C97.5479 167.756 97.5266 167.367 97.4653 167.012C97.4293 166.804 97.2279 166.619 97.0719 166.45C97.0519 166.427 96.8506 166.536 96.76 166.614C95.584 167.61 94.9467 168.939 94.6027 170.392C94.468 170.962 94.604 171.606 94.6867 172.207C94.708 172.354 95.0079 172.463 95.1786 172.588ZM99.3133 180.571C99.0067 178.847 98.2173 177.335 97.0133 176.038C96.8547 175.864 96.6187 175.722 96.392 175.666C96.1747 175.611 95.9186 175.663 95.6933 175.722C95.6266 175.739 95.5812 175.939 95.5732 176.058C95.4332 178.418 96.7347 179.983 98.492 181.278C98.6507 181.395 99.0452 181.411 99.1732 181.296C99.3119 181.171 99.2707 180.842 99.3133 180.571ZM98.9266 165.255C99.244 166.902 98.9439 168.484 98.3439 170.012C97.9813 170.938 97.5159 171.824 97.0946 172.726C96.6986 173.57 96.6572 173.81 97.3173 174.351C98.7213 175.503 99.4973 177.059 100.241 178.635C100.831 179.883 101.157 181.214 101.151 182.614C101.147 183.368 100.271 184.016 99.5893 183.73C99.2466 183.586 98.8826 183.463 98.5839 183.252C96.0533 181.458 94.1507 179.262 93.864 175.987C93.788 175.128 93.5213 174.28 93.292 173.442C92.7333 171.391 93.1413 169.49 94.1452 167.68C94.9412 166.248 95.8973 164.96 97.4146 164.195C97.9733 163.914 98.7427 164.268 98.8587 164.888C98.8813 165.011 98.904 165.132 98.9266 165.255Z" fill="#917492"/>
<path d="M41.7318 176.366C39.6838 176.712 38.0758 177.739 37.0865 179.651C37.0332 179.755 37.0039 179.88 37.0012 179.998C36.9972 180.12 37.0052 180.27 37.0705 180.358C37.1385 180.444 37.2999 180.535 37.3972 180.515C39.4132 180.103 41.0919 179.16 42.2252 177.386C42.2905 177.283 42.3372 177.159 42.3572 177.039C42.3785 176.92 42.4038 176.732 42.3425 176.683C42.1798 176.554 41.9705 176.483 41.7318 176.366ZM32.9331 180.998C33.6878 180.852 33.8998 180.343 33.7705 180.067C33.4438 179.372 32.9105 178.879 32.2878 178.472C31.0398 177.655 29.6612 177.163 28.1972 176.895C27.8972 176.84 27.6985 176.944 27.6412 177.246C27.6199 177.354 27.6438 177.495 27.6998 177.588C28.6865 179.232 30.1185 180.336 31.9252 180.924C32.3665 181.068 32.8785 180.995 32.9331 180.998ZM36.0852 182.146C35.3465 182.248 34.6038 182.323 33.8718 182.458C32.5851 182.695 31.3891 182.41 30.2718 181.815C28.2438 180.732 26.6531 179.195 25.7158 177.068C25.5851 176.775 25.6772 176.348 25.7639 176.007C25.8679 175.59 26.5305 175.244 26.9585 175.287C30.0252 175.586 32.7558 176.615 34.9092 178.92C35.2092 179.24 35.5372 179.171 35.7985 178.836C36.1051 178.446 36.3879 178.036 36.7012 177.652C37.8492 176.252 39.3904 175.478 41.0784 174.962C41.7998 174.74 42.5372 174.74 43.2852 174.926C44.0545 175.115 44.5625 175.932 44.2852 176.62C43.7199 178.039 42.8465 179.22 41.6132 180.131C40.0452 181.29 38.5599 181.843 36.0852 182.146Z" fill="#917492"/>
<path d="M79.4439 168.004C79.1453 166.931 79.1252 165.912 78.4172 165.159C78.2746 165.008 78.0053 164.959 77.7826 164.911C77.7306 164.9 77.584 165.082 77.5706 165.186C77.476 165.903 77.332 166.623 77.3426 167.34C77.3573 168.224 77.8026 168.975 78.3999 169.606C78.5346 169.748 78.8306 169.768 79.0559 169.786C79.3599 169.81 79.4866 169.624 79.4719 169.31C79.4506 168.827 79.4506 168.343 79.4439 168.004ZM86.1226 172.676C86.9132 172.444 87.7973 172.315 88.4026 171.618C88.54 171.462 88.5919 171.215 88.6279 171.002C88.6386 170.946 88.4573 170.822 88.3467 170.786C86.2747 170.136 84.212 170.23 82.164 170.903C82.0506 170.94 81.9173 171.008 81.8573 171.102C81.7413 171.286 81.6412 171.491 81.5946 171.7C81.5786 171.772 81.7239 171.91 81.8226 171.976C83.1372 172.848 84.5732 173.006 86.1226 172.676ZM76.1146 168.02C75.8253 166.371 75.8933 165.019 76.4866 163.738C76.7453 163.18 77.0479 162.626 77.7213 162.436C78.1239 162.323 78.8159 162.742 79.1599 163.406C79.8413 164.726 80.6026 166.015 80.8599 167.518C80.9439 168 81.0946 168.484 81.2986 168.928C81.3826 169.11 81.6972 169.307 81.8946 169.295C82.7586 169.239 83.6172 169.098 84.4786 169.007C86.4892 168.796 88.4386 169.076 90.3279 169.787C90.8652 169.99 91.1186 170.902 90.776 171.363C88.6226 174.258 84.6879 175.148 81.4493 173.424C80.4653 172.902 79.5666 172.223 78.604 171.66C77.0919 170.778 76.32 169.435 76.1146 168.02Z" fill="#917492"/>
<path d="M27.9682 184.48C27.7215 184.666 27.6814 184.888 27.8548 185.146C28.6828 186.366 29.9254 186.868 31.3054 187.12C31.4161 187.14 31.5642 187.102 31.6575 187.038C31.9242 186.856 31.9215 186.64 31.7255 186.391C30.8375 185.276 29.7134 184.564 28.2894 184.368C28.1894 184.355 28.0762 184.44 27.9682 184.48ZM36.7641 187.072C38.2708 186.884 39.5855 186.316 40.4761 184.988C40.5388 184.895 40.5934 184.704 40.5454 184.646C40.4201 184.492 40.2227 184.267 40.0774 184.283C38.5481 184.45 37.2695 185.112 36.3135 186.339C36.2468 186.424 36.2054 186.626 36.2561 186.683C36.3854 186.832 36.5721 186.932 36.7641 187.072ZM36.7682 188.632C35.1988 188.638 33.4414 188.8 31.7227 188.614C28.8001 188.295 26.5735 186.863 25.4868 183.984C25.3415 183.599 25.7348 182.892 26.1761 182.827C26.6628 182.754 27.1681 182.64 27.6441 182.703C29.4134 182.934 31.0001 183.608 32.3081 184.858C32.7561 185.286 33.1881 185.73 33.6374 186.156C33.8721 186.379 34.3788 186.34 34.6095 186.048C36.4188 183.756 38.8468 182.672 41.6921 182.379C42.4761 182.298 43.0641 183.136 42.7614 183.899C41.7054 186.562 39.7135 188.05 36.7682 188.632Z" fill="#917492"/>
<path d="M104.376 96.2856C104.393 97.4229 104.403 99.1656 104.459 100.907C104.469 101.26 104.644 101.611 104.766 101.956C104.777 101.986 105.003 101.999 105.041 101.951C105.269 101.668 105.527 101.391 105.675 101.066C106.649 98.9069 107.583 96.7296 108.569 94.5762C108.824 94.0216 109.194 93.5149 109.572 93.0309C109.644 92.9389 110.003 93.0403 110.215 93.1016C110.293 93.1243 110.401 93.3002 110.384 93.3789C110.272 93.8562 110.176 94.3469 109.987 94.7936C109.057 96.9696 108.098 99.1349 107.15 101.304C107.02 101.602 107.104 101.815 107.415 101.9C107.507 101.926 107.654 101.883 107.728 101.818C109.013 100.64 110.28 99.4402 111.58 98.2789C111.94 97.9576 112.379 97.7016 112.82 97.5056C112.984 97.4322 113.27 97.5989 113.482 97.6976C113.521 97.7163 113.508 97.9536 113.452 98.0509C113.273 98.3682 113.109 98.7149 112.856 98.9669C110.562 101.258 108.253 103.532 105.94 105.802C105.676 106.06 105.355 106.26 105.052 106.475C104.736 106.7 104.004 106.62 103.675 106.272C103.429 106.011 103.095 105.675 103.091 105.368C103.051 102.135 103.066 98.9003 103.076 95.6656C103.076 95.5469 103.117 95.4016 103.193 95.3162C103.345 95.1429 103.529 94.8922 103.715 94.8802C103.864 94.8709 104.053 95.1469 104.188 95.3242C104.256 95.4122 104.241 95.5629 104.376 96.2856Z" fill="#917492"/>
<path d="M102.655 136.662C103.893 136.084 105.124 135.491 106.373 134.94C106.699 134.798 107.08 134.768 107.44 134.727C107.532 134.716 107.707 134.839 107.731 134.931C107.788 135.138 107.805 135.367 107.78 135.579C107.768 135.675 107.631 135.782 107.527 135.835C104.987 137.142 102.439 138.435 99.9001 139.747C99.2054 140.106 98.5201 140.244 97.7588 139.963C96.7721 139.598 96.3801 138.776 96.8934 137.927C98.5654 135.162 100.263 132.41 101.959 129.658C102.087 129.452 102.256 129.243 102.457 129.123C102.641 129.014 102.941 128.928 103.107 129.007C103.275 129.086 103.485 129.455 103.428 129.568C102.692 131.004 101.917 132.42 101.137 133.832C100.965 134.144 100.992 134.32 101.315 134.378C101.421 134.396 101.577 134.39 101.647 134.326C102.824 133.224 103.983 132.102 105.167 131.008C105.803 130.419 106.464 129.852 107.151 129.324C107.287 129.218 107.605 129.276 107.809 129.347C108.121 129.454 108.135 129.99 107.843 130.288C107.324 130.822 106.795 131.346 106.268 131.871C104.859 133.274 103.444 134.671 102.051 136.09C101.935 136.208 101.969 136.474 101.936 136.671C102.175 136.668 102.415 136.664 102.655 136.662Z" fill="#917492"/>
<path d="M86.508 102.154C86.6093 104.143 86.696 106.135 86.824 108.124C86.8453 108.479 86.9986 108.839 87.1546 109.166C87.2292 109.319 87.8092 108.611 87.9399 108.036C88.1599 107.066 88.3613 106.09 88.5306 105.108C88.6786 104.251 88.7413 103.378 88.908 102.523C88.9746 102.179 89.2053 101.862 89.3906 101.55C89.4453 101.456 89.6053 101.36 89.7026 101.374C89.7986 101.386 89.9053 101.522 89.9573 101.627C90.0653 101.844 90.2252 102.082 90.2159 102.304C90.0959 105.448 89.5772 108.503 88.0732 111.316C87.7812 111.863 87.4199 112.378 87.0533 112.879C86.3759 113.807 85.7253 113.794 85.0479 112.846C82.9959 109.97 81.3719 106.924 81.3199 103.268C81.3146 102.934 81.4893 102.798 81.7919 102.871C81.9026 102.898 82.048 102.904 82.1133 102.978C82.2746 103.159 82.4599 103.356 82.5279 103.579C82.7799 104.415 83.0199 105.256 83.2039 106.108C83.4973 107.471 84.0799 108.703 84.7999 109.879C84.8599 109.978 84.9906 110.058 85.1039 110.084C85.1479 110.095 85.2786 109.95 85.2933 109.862C85.5906 108.248 85.4227 106.642 85.268 105.026C85.1013 103.294 85.0373 101.551 84.9693 99.8109C84.9626 99.6363 85.2066 99.3736 85.3932 99.299C85.5079 99.2536 85.8239 99.4456 85.8946 99.6016C86.0466 99.935 86.1186 100.311 86.1853 100.676C86.2746 101.167 86.3293 101.663 86.3973 102.158C86.4346 102.156 86.4706 102.155 86.508 102.154Z" fill="#917492"/>
<path d="M91.7307 164.666C91.6987 164.566 91.6681 164.379 91.6348 164.379C90.0228 164.367 88.4827 164.619 87.176 165.666C87.1094 165.719 87.0547 165.867 87.0801 165.942C87.1187 166.047 87.2227 166.186 87.3187 166.206C87.7907 166.307 88.2854 166.49 88.7427 166.428C89.848 166.283 90.8067 165.754 91.6294 165C91.7041 164.934 91.6987 164.779 91.7307 164.666ZM82.2587 162.199C82.392 162.93 82.632 163.612 83.228 164.099C83.4 164.24 83.7574 164.43 83.8374 164.364C84.0934 164.15 84.4294 163.831 84.4348 163.547C84.4588 162.07 84.208 160.647 83.192 159.475C83.1161 159.387 82.944 159.256 82.904 159.282C82.736 159.391 82.5414 159.526 82.4681 159.698C82.1321 160.503 82.1054 161.346 82.2587 162.199ZM90.0907 163.116C91.4467 162.986 92.8 162.838 94.1587 162.739C94.364 162.724 94.728 162.891 94.7707 163.043C94.8614 163.367 94.9253 163.831 94.7613 164.072C93.8307 165.431 92.54 166.414 91.0733 167.114C87.6413 168.754 83.0494 167.267 81.4348 163.984C80.2988 161.679 80.6386 159.423 81.928 157.268C82.1653 156.874 82.9361 156.756 83.2467 157.086C83.6681 157.53 84.1587 157.956 84.4254 158.487C85.204 160.042 85.8267 161.66 86.0053 163.416C86.0373 163.739 86.4934 163.999 86.8361 163.935C87.9321 163.734 89.028 163.53 90.1226 163.326C90.1133 163.256 90.1014 163.186 90.0907 163.116Z" fill="#917492"/>
<path d="M9.65475 208.294C12.2921 207.923 14.0934 206.419 14.8374 203.783C15.2028 202.487 15.3681 201.131 15.5814 199.796C15.6134 199.606 15.4601 199.308 15.2988 199.187C15.1414 199.07 14.8054 199.015 14.6454 199.104C12.9174 200.082 11.3508 201.286 10.0588 202.791C9.42545 203.528 8.89209 204.379 8.46009 205.251C8.20409 205.772 8.18005 206.434 8.15071 207.035C8.10938 207.862 8.80941 208.45 9.65475 208.294ZM9.92675 209.754C9.60942 209.779 9.24013 209.816 8.86946 209.836C8.04413 209.88 7.10675 209.266 6.88808 208.444C6.73075 207.856 6.59604 207.226 6.64003 206.628C6.73203 205.376 7.15873 204.2 7.9054 203.182C9.84673 200.534 12.3428 198.546 15.2934 197.126C15.5054 197.023 15.7761 197.048 16.0148 196.999C16.2588 196.948 16.8561 197.3 16.9161 197.528C16.9801 197.766 17.1002 198.007 17.0908 198.242C17.0175 200.351 16.7494 202.428 16.1054 204.45C15.1414 207.472 13.0201 209.132 9.92675 209.754Z" fill="#917492"/>
<path d="M94.8159 189.368C94.9493 189.324 95.8893 189.038 96.808 188.695C96.992 188.626 97.1879 188.356 97.2119 188.159C97.2332 187.971 97.0933 187.656 96.932 187.57C94.5853 186.319 92.0346 185.975 89.4226 186.01C88.2866 186.024 87.272 186.479 86.3413 187.132C85.892 187.45 85.8547 187.988 86.2294 188.359C86.868 188.994 87.6574 189.32 88.496 189.527C90.3214 189.98 92.1586 189.95 94.8159 189.368ZM85.7627 190.223C85.48 190.011 85.1973 189.798 84.9133 189.586C84.7693 189.244 84.6067 188.908 84.48 188.559C84.0907 187.483 84.2666 186.848 85.0119 186.263C86.1186 185.399 87.3892 184.851 88.7452 184.708C92.5652 184.306 96.1306 185.179 99.4146 187.172C100.052 187.558 100.004 188.672 99.3467 189.059C95.6413 191.236 91.7173 191.879 87.5413 190.723C86.948 190.559 86.3547 190.39 85.7627 190.223Z" fill="#917492"/>
<path d="M54.9386 147.522C54.5639 145.862 54.4185 144.607 53.4785 143.663C53.2639 143.447 53.0559 143.434 52.8439 143.683C51.7812 144.951 51.2719 146.492 50.7919 148.03C50.1013 150.239 50.2093 152.447 51.0347 154.612C51.2107 155.075 51.432 155.503 51.9306 155.735C52.3346 155.923 52.952 155.587 53.452 154.931C54.1466 154.019 54.6066 152.994 54.7906 151.886C55.0573 150.292 55.2519 148.679 54.9386 147.522ZM49.0253 152.726C48.7866 151.56 48.8759 150.454 49.0639 149.338C49.5106 146.712 50.5012 144.323 52.0826 142.18C52.2279 141.984 52.4332 141.832 52.6052 141.656C53.0226 141.228 53.8999 141.304 54.2492 141.835C55.2879 143.414 55.9546 145.16 56.2479 147.01C56.5426 148.862 56.4919 150.731 56.0599 152.575C55.5839 154.596 54.5132 156.219 52.8559 157.464C52.3625 157.834 51.5946 157.756 51.1546 157.33C49.8399 156.051 49.2319 154.455 49.0253 152.726Z" fill="#917492"/>
<path d="M35.5321 169.106C35.2868 168.211 35.0655 167.376 34.8321 166.546C34.4921 165.342 33.8348 164.3 33.1082 163.304C32.9855 163.136 32.6748 163.003 32.4721 163.027C32.2908 163.05 32.0668 163.282 31.9868 163.474C30.8108 166.251 31.0175 169.014 32.1682 171.736C32.5095 172.547 33.1268 173.155 33.9428 173.542C34.2108 173.668 34.7534 173.551 34.9281 173.303C35.3614 172.686 35.6948 172.019 35.6868 171.258C35.6788 170.52 35.5841 169.784 35.5321 169.106ZM36.9668 169.004C37.4854 171.118 37.0361 173.104 35.5935 174.867C35.2255 175.316 34.4242 175.486 33.8975 175.252C32.2002 174.499 31.0508 173.192 30.4695 171.49C29.2855 168.014 29.5882 164.614 31.3189 161.359C31.7962 160.462 32.8295 160.351 33.4321 161.154C35.1748 163.476 36.4508 166.018 36.9668 169.004Z" fill="#917492"/>
<path d="M88.6868 160.442C88.9308 160.396 89.1974 160.406 89.4067 160.298C90.6747 159.655 91.5135 158.59 92.1695 157.368C92.8761 156.048 93.3921 154.654 93.6614 153.178C93.6987 152.971 93.6241 152.74 93.5827 152.524C93.5427 152.314 92.8761 152.351 92.5428 152.568C91.3908 153.318 90.3775 154.22 89.5081 155.286C88.7095 156.266 88.1254 157.362 87.928 158.61C87.8547 159.072 87.9881 159.587 88.1214 160.051C88.1721 160.223 88.4934 160.316 88.6868 160.442ZM88.4628 162.099C88.0948 161.904 87.5895 161.758 87.2575 161.434C86.7121 160.9 86.4428 160.176 86.4521 159.402C86.4721 158.136 86.7627 156.928 87.4174 155.835C88.7987 153.532 90.6948 151.779 93.1321 150.647C93.5641 150.447 94.092 150.451 94.5787 150.382C94.8094 150.35 95.3267 150.844 95.3494 151.079C95.3747 151.324 95.4695 151.58 95.4295 151.812C95.0655 153.907 94.4855 155.943 93.5188 157.84C92.6535 159.539 91.48 160.972 89.6454 161.72C89.3054 161.858 88.9468 161.946 88.4628 162.099Z" fill="#917492"/>
<path d="M27.184 219.758C27.2133 219.878 27.2467 219.995 27.2707 220.116C27.5561 221.602 28.8961 222.454 30.1574 222.534C31.4228 222.614 32.684 221.608 33.0827 220.18C33.18 219.828 33.2254 219.455 33.2374 219.09C33.3067 217.17 31.6588 215.859 29.7854 216.364C29.3174 216.491 28.8628 216.712 28.4414 216.956C27.3601 217.582 26.9493 218.539 27.184 219.758ZM30.1961 214.9C30.8561 214.791 31.8267 214.888 32.7334 215.398C33.768 215.979 34.4414 216.827 34.6188 218.016C34.6894 218.506 34.744 219.007 34.7173 219.498C34.6027 221.523 33.2121 223.266 31.2587 223.887C29.9987 224.288 27.8094 223.58 26.8854 222.407C25.8428 221.083 25.2068 219.626 25.8694 217.915C26.5694 216.107 28.0081 215.252 30.1961 214.9Z" fill="#917492"/>
<path d="M66.6772 132.183C65.1985 132.483 64.2879 133.747 64.5266 135.172C64.8066 136.848 66.4652 138.04 68.0612 137.71C69.6705 137.376 70.696 135.9 70.3466 134.423C69.9293 132.654 68.5399 131.806 66.6772 132.183ZM68.4533 138.986C66.0333 139.458 63.7719 138.103 63.1306 135.827C62.6813 134.227 63.2199 132.854 64.3746 131.752C65.9306 130.268 68.5893 130.118 70.2133 131.543C71.4746 132.651 72.1253 134.122 71.696 135.899C71.264 137.687 70.0706 138.623 68.4533 138.986Z" fill="#917492"/>
<path d="M20.7946 78.9696C19.3172 79.2696 18.4066 80.5336 18.6452 81.9589C18.9252 83.6336 20.5839 84.8256 22.1786 84.4949C23.7879 84.1616 24.8146 82.6869 24.4653 81.2095C24.0479 79.4389 22.6586 78.5909 20.7946 78.9696ZM22.5719 85.7709C20.1519 86.2429 17.8906 84.8895 17.2493 82.6122C16.7999 81.0135 17.3386 79.6402 18.4933 78.5389C20.0493 77.0549 22.7079 76.9029 24.3319 78.3296C25.5933 79.4362 26.2439 80.9069 25.8146 82.6855C25.3813 84.4735 24.1892 85.4082 22.5719 85.7709Z" fill="#917492"/>
<path d="M119.041 115.128C119.059 115.759 119.74 116.408 120.496 116.515C121.209 116.615 121.932 115.971 121.932 115.235C121.932 114.627 121.465 114.019 120.915 113.911C120.16 113.764 119.377 114.139 119.125 114.776C119.083 114.888 119.068 115.011 119.041 115.128ZM117.552 115.219C117.584 114.612 117.719 114.003 118.153 113.516C119.136 112.416 120.608 112.086 121.904 112.7C123.047 113.242 123.529 114.214 123.499 115.442C123.475 116.412 122.904 117.043 122.1 117.504C120.185 118.602 117.852 117.379 117.552 115.219Z" fill="#917492"/>
<path d="M38.2053 29.4549C38.224 30.0843 38.9053 30.7349 39.66 30.8416C40.3733 30.9403 41.096 30.2963 41.0974 29.5603C41.0974 28.9523 40.6293 28.3442 40.0786 28.2376C39.3239 28.0896 38.5427 28.4656 38.2907 29.1029C38.2467 29.2136 38.2333 29.3376 38.2053 29.4549ZM36.7173 29.5456C36.748 28.9376 36.884 28.3296 37.3187 27.8429C38.3 26.7429 39.7734 26.4123 41.0694 27.0269C42.212 27.5669 42.6934 28.5403 42.664 29.7683C42.64 30.7389 42.068 31.3683 41.2653 31.8296C39.3493 32.9269 37.0173 31.7056 36.7173 29.5456Z" fill="#917492"/>
<path d="M13.3507 183.026C13.368 183.656 14.0507 184.306 14.804 184.412C15.5174 184.512 16.2414 183.868 16.2414 183.131C16.2414 182.523 15.7747 181.915 15.2254 181.808C14.4681 181.66 13.6867 182.036 13.4361 182.674C13.3921 182.786 13.3787 182.908 13.3507 183.026ZM11.8613 183.116C11.8933 182.51 12.0281 181.9 12.4628 181.414C13.4454 180.314 14.9174 179.983 16.2147 180.598C17.356 181.138 17.8387 182.111 17.8081 183.339C17.7854 184.31 17.2147 184.939 16.4094 185.4C14.4947 186.498 12.1627 185.276 11.8613 183.116Z" fill="#917492"/>
<path d="M96.0347 2.89492C96.052 3.52559 96.7332 4.17624 97.4892 4.28157C98.2025 4.38157 98.9253 3.73759 98.9253 3.00159C98.9266 2.39359 98.4586 1.78557 97.908 1.6789C97.1533 1.5309 96.3706 1.9069 96.1199 2.54424C96.0759 2.6549 96.0627 2.77759 96.0347 2.89492ZM94.5466 2.98691C94.5773 2.37891 94.712 1.76958 95.1466 1.28291C96.1293 0.184242 97.6012 -0.147741 98.8986 0.466926C100.04 1.00826 100.523 1.98023 100.493 3.20823C100.468 4.1789 99.8972 4.80956 99.0932 5.2709C97.1786 6.36823 94.8453 5.14558 94.5466 2.98691Z" fill="#917492"/>
<path d="M77.9385 209.256C77.9545 209.886 78.6373 210.538 79.3919 210.643C80.1053 210.743 80.828 210.099 80.8293 209.363C80.8293 208.754 80.3612 208.147 79.8119 208.039C79.0559 207.892 78.2745 208.267 78.0225 208.906C77.9785 209.016 77.9652 209.139 77.9385 209.256ZM76.4492 209.347C76.4799 208.74 76.6159 208.131 77.0505 207.644C78.0319 206.546 79.5053 206.214 80.8013 206.828C81.944 207.37 82.4253 208.342 82.396 209.57C82.372 210.54 81.8013 211.17 80.9973 211.631C79.0813 212.73 76.7492 211.507 76.4492 209.347Z" fill="#917492"/>
<path d="M103.363 139.166C104.548 138.807 105.539 138.602 106.452 138.215C109.951 136.734 112.151 134.275 112.268 130.283C112.344 127.692 110.537 125.692 107.937 125.675C107.08 125.67 106.192 125.815 105.372 126.068C102.924 126.823 100.936 128.306 99.2359 130.196C97.5346 132.09 96.9373 134.283 97.3973 136.788C97.6679 138.258 98.3306 139.018 99.8573 139.154C101.089 139.262 102.339 139.168 103.363 139.166ZM116.68 91.8189C116.6 91.5549 116.501 91.1949 116.383 90.8416C115.504 88.2402 113.528 87.0296 110.864 87.6856C106.352 88.7962 103.037 91.3296 101.496 95.9003C100.387 99.1896 101.173 102.016 103.429 104.511C103.74 104.854 104.248 105.048 104.697 105.232C105.415 105.527 106.173 105.45 106.9 105.26C110.677 104.278 113.697 102.251 115.616 98.7749C116.8 96.6269 117.143 94.3282 116.68 91.8189ZM78.3532 104.546C78.5092 105.134 78.6466 105.876 78.9039 106.574C79.7119 108.758 81.0452 110.479 83.2319 111.475C84.7279 112.156 86.1492 112.086 87.4986 111.21C88.1146 110.808 88.704 110.304 89.1626 109.732C90.6613 107.858 91.7039 105.726 92.2332 103.39C92.9652 100.163 92.4279 97.1989 90.1306 94.6776C89.0106 93.4482 87.6799 92.5549 86.0639 92.1456C84.6573 91.7896 83.2986 92.0069 82.1746 92.9203C81.4133 93.5389 80.7066 94.2856 80.1599 95.0989C78.2586 97.9309 77.8252 101.083 78.3532 104.546ZM87.7919 176.399C82.4893 177.622 77.8318 178.574 73.2398 179.782C67.1865 181.372 61.3839 183.688 55.7266 186.36C55.2852 186.568 54.9093 186.915 54.5186 187.216C54.4573 187.263 54.4373 187.422 54.4639 187.507C54.4999 187.618 54.5945 187.786 54.6772 187.795C55.1679 187.847 55.6705 187.928 56.1545 187.878C61.3812 187.328 66.6252 187.219 71.8719 187.148C75.4945 187.1 79.1159 187.06 82.7359 187.02C83.3639 187.015 83.9839 187.066 84.4945 187.491C84.5839 187.566 84.6626 187.703 84.668 187.815C84.672 187.911 84.5839 188.078 84.5052 188.102C84.0425 188.24 83.5706 188.439 83.1013 188.444C79.6053 188.48 76.1053 188.386 72.6133 188.504C66.8706 188.698 61.1319 189.016 55.3932 189.295C54.7706 189.324 54.1506 189.434 53.5319 189.518C49.9772 190.003 49.9732 189.999 47.1212 192.2C39.8866 197.788 32.2159 202.702 24.1812 207.054C23.9866 207.16 23.8492 207.383 23.7065 207.567C23.6905 207.587 23.8079 207.776 23.8652 207.776C24.3559 207.782 24.8653 207.842 25.3359 207.739C30.1079 206.69 34.9573 206.174 39.796 205.594C43.7666 205.118 47.7612 204.97 51.7612 205.087C51.9292 205.092 52.1386 205.36 52.2426 205.554C52.3906 205.826 52.0039 206.283 51.6413 206.314C51.3946 206.335 51.1479 206.376 50.8986 206.386C49.9012 206.423 48.9012 206.491 47.9039 206.478C44.2679 206.435 40.6599 206.872 37.0693 207.294C30.9879 208.007 24.9373 208.984 19.068 210.834C16.3293 211.698 13.4933 212.243 10.8573 213.443C5.15062 216.04 -0.877462 217.706 -6.86146 219.492C-7.21746 219.6 -7.5961 219.636 -7.96543 219.699C-8.5321 219.795 -9.20679 219.434 -9.15079 219.083C-9.08412 218.656 -8.7708 218.499 -8.42813 218.406C-7.58413 218.176 -6.73608 217.956 -5.88275 217.767C-2.25075 216.959 0.863937 215.179 3.5746 212.676C4.6746 211.66 5.68259 210.546 6.73059 209.475C7.2226 208.974 7.82791 208.843 8.00924 209.194C8.30391 209.758 7.93453 210.147 7.62786 210.5C6.73053 211.539 5.78388 212.535 4.88255 213.571C4.79055 213.678 4.86396 213.944 4.9013 214.128C4.90797 214.158 5.14795 214.186 5.25195 214.143C7.33728 213.307 9.43193 212.492 11.4973 211.611C16.2106 209.599 20.7505 207.232 25.2612 204.802C26.5119 204.127 27.5252 203.264 28.2279 202.04C32.1599 195.195 34.488 187.907 34.324 179.934C34.292 178.435 34.2452 176.936 34.2505 175.439C34.2519 175.251 34.5292 175.064 34.6785 174.878C34.8412 175.056 35.0959 175.21 35.1546 175.418C35.6665 177.235 35.7958 179.102 35.7732 180.982C35.7092 186.294 34.5426 191.38 32.6146 196.311C32.2066 197.352 31.8186 198.404 31.4346 199.455C31.3173 199.776 31.4305 199.86 31.7105 199.686C31.9132 199.56 32.1626 199.478 32.3146 199.307C33.3132 198.191 34.3652 197.112 35.2652 195.919C38.7306 191.32 41.8773 186.512 44.5359 181.395C47.9666 174.79 50.2852 167.839 51.1199 160.419C51.2186 159.554 51.3666 158.691 51.5466 157.84C51.5879 157.643 51.8546 157.494 52.0186 157.323C52.2173 157.598 52.5279 157.85 52.5853 158.151C52.6786 158.631 52.6439 159.148 52.5932 159.643C52.0412 165.014 50.8399 170.224 48.8693 175.264C46.6253 181 43.6292 186.327 40.2319 191.44C38.9879 193.314 37.6865 195.15 36.4225 197.008C36.2292 197.295 36.3038 197.499 36.5785 197.551C36.6945 197.574 36.8373 197.61 36.9306 197.564C37.2639 197.402 37.5946 197.226 37.9026 197.02C43.7386 193.136 49.2345 188.818 54.4452 184.13C58.1732 180.776 61.5452 177.092 64.6839 173.192C65.4665 172.22 66.2172 171.21 66.8546 170.14C68.3266 167.671 69.8266 165.21 71.1253 162.648C75.6026 153.831 79.5425 144.791 82.0172 135.175C83.7025 128.627 84.7959 121.986 85.1693 115.23C85.1813 114.98 85.2665 114.7 85.1825 114.488C85.0546 114.164 84.8746 113.758 84.5986 113.615C83.8252 113.215 82.9746 112.968 82.1853 112.595C80.6746 111.88 79.4479 110.79 78.6466 109.343C75.7919 104.184 75.9719 99.0722 79.0945 94.0802C79.7612 93.0149 80.6559 92.1429 81.7253 91.4469C83.0546 90.5802 84.4639 90.3016 86.0105 90.6536C89.9412 91.5456 93.0718 94.8749 93.7065 98.9429C94.0158 100.935 93.9879 102.935 93.2853 104.866C92.1186 108.083 90.6492 111.095 87.5319 112.922C86.7986 113.351 86.5893 114.019 86.5519 114.808C85.9746 126.908 83.2625 138.526 78.6398 149.71C77.7825 151.786 76.9146 153.858 76.0626 155.936C76.0266 156.02 76.0706 156.178 76.1346 156.255C76.304 156.46 76.4933 156.394 76.6746 156.102C78.6413 152.911 80.7306 149.791 82.5586 146.523C88.5973 135.723 94.6772 124.943 100.065 113.794C100.773 112.331 101.363 110.804 102.159 109.394C103.124 107.68 103.2 106.25 101.724 104.71C100.508 103.442 99.7945 101.795 99.5785 100.004C99.5038 99.3896 99.4292 98.7496 99.5159 98.1442C100.508 91.3109 105.092 87.3816 110.837 86.2203C114.247 85.5322 116.972 87.3696 117.901 90.7896C118.845 94.2683 118.197 97.4976 116.255 100.455C114.488 103.146 112.067 105.072 108.953 106.024C107.884 106.352 106.777 106.567 105.68 106.81C105.143 106.928 104.825 107.29 104.559 107.718C104.427 107.928 104.331 108.162 104.229 108.39C100.008 117.879 95.0638 126.999 90.0732 136.098C86.7078 142.235 83.3719 148.388 79.6759 154.339C79.4159 154.759 79.2306 155.226 79.0306 155.682C79.0066 155.738 79.0946 155.883 79.168 155.934C79.2546 155.991 79.4132 156.046 79.4866 156.006C79.6999 155.884 79.9066 155.738 80.0799 155.563C84.6679 150.96 89.2506 146.352 93.8346 141.744C94.2746 141.302 94.6932 140.838 95.1426 140.403C95.9106 139.66 96.2665 138.838 96.0546 137.716C95.8706 136.744 95.9146 135.731 95.8652 134.735C95.7892 133.166 96.3133 131.751 97.196 130.516C99.708 127.006 103.001 124.744 107.4 124.238C109.991 123.939 113 125.782 113.492 128.646C114.035 131.807 113.305 134.648 110.991 136.895C108.051 139.746 104.429 140.892 100.363 140.644C99.7426 140.607 99.1105 140.507 98.5212 140.319C97.6626 140.043 97.0906 140.419 96.5372 140.978C94.1639 143.376 91.7839 145.768 89.4092 148.166C86.7719 150.831 84.1332 153.496 81.5065 156.17C78.9625 158.755 76.5332 161.44 74.2398 164.255C70.8452 168.419 67.1999 172.37 63.8199 176.548C62.2506 178.488 60.4626 180.251 58.7799 182.096C58.3906 182.522 57.7893 182.815 57.8626 183.536C58.4133 183.72 58.8039 183.328 59.2546 183.154C61.8146 182.155 64.3479 181.079 66.9439 180.186C68.5145 179.643 69.8626 178.822 71.168 177.831C76.7773 173.572 81.6465 168.571 86.0732 163.118C86.5465 162.536 87.0026 161.942 87.4759 161.362C87.7719 160.998 88.2786 160.959 88.4466 161.244C88.6613 161.611 88.5906 161.971 88.3853 162.262C87.736 163.179 87.0746 164.09 86.3639 164.96C83.1146 168.935 79.5586 172.618 75.7039 176.012C75.2466 176.414 74.8492 176.884 74.4452 177.342C74.3972 177.394 74.4612 177.651 74.4999 177.658C74.7412 177.698 75.0026 177.744 75.2359 177.696C78.2986 177.074 81.3479 176.388 84.4199 175.81C90.3159 174.7 96.2225 173.647 102.128 172.584C102.485 172.519 102.865 172.574 103.233 172.598C103.328 172.604 103.503 172.724 103.493 172.754C103.436 172.978 103.401 173.27 103.244 173.391C102.956 173.614 102.604 173.796 102.251 173.882C101.16 174.148 100.063 174.402 98.9532 174.586C95.0092 175.243 91.0613 175.871 87.7919 176.399Z" fill="#917492"/>
<path d="M86.2986 50.6883C86.4812 51.4563 87.2333 52.0283 87.9133 51.9163C88.9333 51.7496 89.7813 50.7403 89.6639 49.8349C89.5413 48.8923 88.3986 48.2896 87.3413 48.6056C86.4693 48.8682 86.0599 49.6869 86.2986 50.6883ZM87.9813 53.2536C86.4333 53.4723 85.06 52.4469 84.7853 50.8709C84.4626 49.0149 85.5812 47.3509 87.3719 47.0203C89.1692 46.6896 90.7653 47.8909 91.0533 49.7936C91.3093 51.4776 89.9813 52.9736 87.9813 53.2536Z" fill="#917492"/>
<path d="M32.9654 58.9709C34.2468 58.5029 34.7468 61.1829 34.8028 62.3869C34.9361 65.3349 34.6787 68.3003 34.5774 71.2563C34.5774 71.2589 34.5774 71.2603 34.5774 71.2616C34.6707 71.3016 34.7642 71.3349 34.7015 71.3096C34.7668 71.3309 34.6748 71.3043 34.5814 71.2736C34.5801 71.2696 34.5787 71.2669 34.5774 71.2629C34.5774 71.2629 34.5774 71.2629 34.5761 71.2616C34.5761 71.2603 34.5774 71.2589 34.5774 71.2563C33.7054 67.2349 30.5174 59.8669 32.9654 58.9709ZM36.4855 71.8749L36.5975 71.9203L36.4934 72.0136L36.4855 71.8749ZM42.4947 84.7869C44.7734 86.7883 37.1201 91.6576 34.1774 94.4683C35.8547 90.5429 38.4547 81.2429 42.4947 84.7869ZM28.0855 107.91C28.0748 107.907 28.0628 107.903 28.0521 107.9C28.0455 107.924 28.0402 107.948 28.0348 107.972C28.0082 107.939 27.9801 107.906 27.9521 107.872C27.9828 107.88 28.0175 107.891 28.0521 107.9C28.0588 107.879 28.0615 107.856 28.0641 107.836C25.1788 103.751 20.7828 95.8163 23.0028 94.2256C24.5908 93.0883 27.5255 102.935 28.0855 107.91ZM35.8801 109.023C36.7055 111.284 29.0761 119.172 29.0761 119.172C29.2081 116.159 35.0588 106.762 35.8801 109.023ZM19.3161 133.02C17.9867 129.063 16.7495 121.607 17.9534 121.307C22.3414 120.215 20.1814 128.926 19.3161 133.02ZM24.9387 130.498C21.8467 144.632 17.1028 158.056 8.04811 169.623C13.3948 156.46 15.6867 141.98 24.9387 130.498ZM31.0387 142.444C33.0054 144.186 26.4361 148.482 22.7801 150.412C24.7015 146.619 29.3161 140.916 31.0387 142.444ZM41.0481 114.446C41.0534 114.438 41.0814 114.375 41.1214 114.275C40.7081 111.704 40.9014 99.9069 44.0374 102.01C45.6174 103.068 41.7134 112.88 41.1214 114.275C41.1241 114.29 41.1267 114.312 41.1281 114.324L41.0481 114.446ZM53.1081 112.007C58.8935 109.504 67.1587 109.32 67.4827 111.004C68.1094 114.271 57.7241 113.579 53.1081 112.007ZM73.9761 85.1923L74.1441 85.1936C78.2787 81.1589 83.2801 81.6229 82.4107 83.6589C81.5481 85.6989 74.1441 85.1936 73.9761 85.1923ZM73.7894 82.9683L73.9321 82.8789C75.2521 77.2563 79.7174 74.9589 80.0827 77.1429C80.4494 79.3269 73.9321 82.8789 73.7894 82.9683ZM73.1721 81.9363L73.1975 81.8069C70.6721 77.9736 71.7855 74.1389 73.2468 75.1216C74.7068 76.1043 73.1974 81.8069 73.1721 81.9363ZM72.9441 85.0429L72.8708 84.8923C67.4188 82.9776 65.6188 78.2923 67.8295 78.1629C70.0375 78.0323 72.8707 84.8923 72.9441 85.0429ZM61.5188 97.6989C61.5361 97.7096 61.4201 97.6402 61.3028 97.5709C61.3201 97.5456 61.3374 97.5123 61.3534 97.4869C60.7934 93.7349 59.9947 86.9509 61.94 86.3523C64.5267 85.5576 63.2468 94.7363 61.3534 97.4869C61.3561 97.5109 61.3615 97.5403 61.3641 97.5643C61.4561 97.6443 61.5495 97.7243 61.5188 97.6989ZM45.956 59.9349C46.04 60.0043 46.1294 60.0683 46.2161 60.1336C46.2494 60.1243 46.2841 60.1149 46.3161 60.1069C48.7014 56.4829 59.5294 53.6509 59.5481 55.7763C59.5588 57.0043 57.5894 56.9576 56.6227 57.2456C53.2081 58.2669 49.7601 59.1802 46.3161 60.1069C46.2974 60.1349 46.2708 60.1589 46.2534 60.1869C46.1548 60.1029 46.0574 60.0189 45.956 59.9349ZM66.9614 35.3789C66.9614 35.3789 63.7361 27.9536 66.4761 24.7056C69.2148 21.4589 67.5401 33.2016 66.9614 35.3789ZM68.6855 33.4029C69.3241 31.6496 73.7387 22.8789 74.0787 26.3722C74.4187 29.8669 68.6855 33.4029 68.6855 33.4029ZM69.1748 35.6669C70.5455 34.4029 78.4974 28.6403 77.1934 31.9003C75.8894 35.1576 69.1748 35.6669 69.1748 35.6669ZM68.6468 37.1136C70.4401 36.6029 80.1335 35.0456 77.5028 37.3669C74.8681 39.6883 68.6468 37.1136 68.6468 37.1136ZM51.7081 45.6576C51.7081 45.6629 51.7081 45.6669 51.7081 45.6722L51.8334 45.7283L51.7054 45.7109C51.7067 45.6976 51.7068 45.6856 51.7081 45.6722L51.6975 45.6669C51.7028 45.6643 51.7055 45.6616 51.7081 45.6576C52.0815 41.5109 50.7535 37.1309 53.2028 33.0616C55.7335 36.4349 54.9268 42.4629 51.7081 45.6576ZM30.8321 62.0296C31.4361 65.2163 32.308 68.3803 33.4067 71.4323C34.4614 74.3523 34.6854 77.0736 34.0214 80.1923C32.3747 87.9189 31.1988 95.7456 29.8188 103.532C29.7028 104.186 29.5268 104.827 29.3695 105.474C29.3788 105.539 29.3894 105.591 29.3988 105.658C29.3868 105.718 29.3774 105.776 29.3667 105.838C29.3481 105.784 29.3347 105.73 29.3174 105.674C29.3334 105.606 29.3521 105.54 29.3695 105.474C28.5535 100.346 27.7854 98.7203 26.3614 95.2469C25.9347 94.2096 24.1241 92.7096 22.7921 92.3963C22.4521 92.5683 22.1121 92.7443 21.7708 92.9176C20.8441 93.8523 21.4774 96.5749 21.9548 98.6082C23.0201 103.152 25.0841 104.97 27.1428 109.159C28.1001 111.108 28.7281 112.839 28.1894 115.064C27.4107 118.299 27.4134 121.783 26.2561 124.85C25.2374 127.55 23.0867 129.823 21.1281 132.743C20.9894 127.938 23.8134 121.027 19.0454 119.386C18.236 119.11 17.0735 119.434 16.7575 120.012C15.2455 122.735 16.0068 127.366 17.1188 130.612C18.4441 134.471 18.2668 137.746 16.7094 141.575C13.4281 149.644 10.5161 157.898 8.04408 166.248C5.85741 173.635 1.24143 179.054 -4.72923 183.234C-10.9279 187.567 -17.6546 191.154 -24.2092 194.963C-25.5026 195.714 -27.0666 195.996 -28.5039 196.496C-28.4492 196.736 -28.3932 196.983 -28.3399 197.224C-27.0479 196.952 -25.6639 196.89 -24.4786 196.371C-13.1292 191.416 -2.67324 185.083 5.49342 175.592C10.9174 169.284 15.4975 162.363 18.9348 154.726C19.3362 153.83 20.3588 153.006 21.2868 152.599C25.3934 150.804 29.2054 148.659 31.6894 144.767C32.2481 143.894 32.9348 142.886 32.8415 141.971C32.5775 139.391 29.8175 140.386 28.6028 141.44C26.1321 143.576 23.8681 145.951 22.1721 147.594C23.7387 141.7 25.5042 134.884 27.3962 128.107C27.6695 127.131 28.4375 126.212 29.1748 125.46C33.5588 120.975 38.9587 118.011 44.54 115.326C45.7427 114.747 46.92 114.12 48.2787 113.426C54.8854 113.338 61.8175 115.703 68.5081 112.544C70.9668 110.535 66.9948 108.592 65.0962 108.651C61.2135 108.778 57.3428 109.251 53.8908 109.546C60.8735 103.118 68.6428 96.5016 72.8801 86.8976C76.9308 86.4243 83.1267 87.7109 83.9934 83.0483C84.0654 82.6563 83.7054 81.6069 83.4107 81.3402C82.1241 80.1749 79.9388 81.1923 78.5374 81.1296C78.9894 79.5523 81.6508 78.6909 81.4962 76.6363C81.2855 73.8776 79.6682 73.9629 78.5962 74.5643C77.3935 75.7683 76.2534 76.9083 75.1161 78.0469C75.1187 78.0643 75.1187 78.0856 75.1214 78.1029C75.1187 78.1616 75.1161 78.2149 75.1148 78.2563C75.1174 78.2656 75.1175 78.2643 75.1188 78.2696C75.1375 78.3109 75.1375 78.3163 75.1188 78.2696C75.1188 78.2669 75.1174 78.2629 75.1148 78.2563C75.1108 78.3256 75.1108 78.3536 75.1148 78.2563C75.0988 78.2189 75.0761 78.1656 75.0521 78.1083C75.0721 78.0869 75.0921 78.0656 75.1161 78.0469C74.7094 75.9976 76.0867 72.4123 73.4268 72.0989C70.6281 71.7683 70.3654 74.2989 71.1148 79.0416C71.1254 79.0536 71.1401 79.0723 71.1534 79.0829C71.1428 79.0896 71.132 79.0949 71.1227 79.1016C71.1254 79.1269 71.1294 79.1509 71.1334 79.1763C71.0894 79.1696 71.0401 79.1683 70.9934 79.1696C71.0361 79.1469 71.0787 79.1229 71.1227 79.1016C71.1187 79.0803 71.1174 79.0616 71.1148 79.0416C70.1214 78.0869 69.4774 76.4029 68.0921 76.2229C67.1748 76.1029 66.5067 76.7429 66.1174 77.2883C63.336 81.1683 68.9947 83.7656 71.8001 86.1856C70.3867 88.5296 69.5201 90.1723 67.9947 92.4256C66.4507 94.7096 64.6934 96.8496 62.812 99.3429C63.364 96.4549 64.0668 93.9842 64.2521 91.4722C64.4295 89.0829 65.4548 84.3869 62.1348 84.6589C58.4748 84.9603 59.2921 89.9309 59.4107 92.8456C59.4881 94.7643 59.8174 96.6803 60.1334 98.5789C60.4654 100.548 59.9481 101.906 58.4148 103.41C54.0294 107.716 49.2747 111.418 43.7387 114.092C43.4507 114.231 43.1401 114.322 42.6268 114.515C43.5574 111.955 44.7308 109.654 45.1695 107.22C45.5548 105.099 47.7641 100.607 43.9428 100.318C37.8708 99.8563 41.2227 111.576 38.8734 116.2C35.1747 118.912 31.7708 121.414 28.3628 123.916C28.2575 123.87 28.1521 123.819 28.0468 123.771C28.5401 122.939 28.9588 122.051 29.5415 121.288C31.7921 118.324 34.2734 115.518 36.3214 112.423C37.9041 110.035 37.6721 106.171 35.0588 106.762C32.2388 107.399 31.8214 111.588 30.1227 114.12C30.0854 113.839 29.9974 113.534 30.0094 113.232C30.0241 112.819 30.1108 112.406 30.1695 111.994C30.7268 108.196 31.0908 104.356 31.9295 100.626C32.2948 98.9883 33.3761 97.3256 34.5641 96.0976C36.7588 93.8403 39.3535 91.9749 41.6308 89.7883C43.2521 88.2309 45.5295 85.1269 43.1242 83.5909C38.5722 80.6829 35.5254 87.8896 33.2441 91.9803C33.4054 90.8589 33.5495 89.7363 33.7295 88.6176C33.9148 87.4656 33.9961 86.2709 34.3614 85.1776C36.7014 78.1616 39.04 71.1456 41.5734 64.1989C41.928 63.2283 43.248 62.2736 44.3174 61.9563C48.2467 60.7723 52.2841 59.9389 56.2361 58.8083C57.7908 58.3629 59.5974 57.9669 60.4787 56.9003C62.0347 55.0096 60.1361 53.2496 58.3415 53.5336C55.3468 54.0096 52.3961 54.8843 49.5028 55.8296C48.2321 56.2456 47.1547 57.2416 45.8507 57.8069C51.4014 49.5269 57.4374 41.7723 67.1988 37.4696C70.2841 39.1536 73.7415 40.3589 77.3975 38.3896C78.1708 37.9749 79.1081 37.3856 79.3748 36.5163C79.4708 36.2003 79.4081 35.7803 79.1748 35.5509C78.2468 34.6443 76.6268 35.0763 75.3521 34.8443C75.3468 34.8469 75.3388 34.8496 75.3361 34.8523C75.3321 34.8456 75.3281 34.8389 75.3254 34.8309C75.1974 34.5736 75.2548 34.6909 75.3254 34.8309C75.3308 34.8349 75.3361 34.8389 75.3415 34.8429C75.3455 34.8429 75.3495 34.8443 75.3521 34.8443C75.5148 34.7216 76.7627 34.4469 78.084 33.0016C78.6827 32.3509 79.5147 31.5016 79.312 30.4722C78.7147 27.4469 74.8414 30.9776 72.6588 31.6403C74.5628 29.7869 78.3254 26.3803 75.8107 24.2203C72.7347 21.5749 69.9495 27.3603 69.1135 29.7896C68.8481 27.1629 71.0201 22.3256 67.0148 22.3763C66.3414 22.3829 65.5787 22.5736 65.1734 23.2776C63.1747 27.7403 64.2387 31.8883 66.056 35.7603C61.9827 38.5803 58.1841 41.2056 54.9001 43.4789C55.1894 41.9056 55.9614 39.6083 55.9548 37.3136C55.9427 33.3803 54.552 30.6296 52.3174 31.3283C49.5574 32.1963 49.0654 38.0496 49.5174 40.4909C50.828 47.5563 48.5921 51.3749 44.5774 56.6856C41.6054 60.6203 39.8108 65.4429 37.4855 69.8696C37.2988 70.2189 37.0735 70.5509 36.6521 71.2509C36.4468 66.5163 37.42 61.9203 34.3507 58.1669C33.9374 57.6576 32.7108 56.5349 31.5188 57.2909C29.9748 58.2669 30.5708 60.6496 30.8321 62.0296Z" fill="#917492"/>
<path d="M338.628 198.595C339.478 201.008 340.796 203.066 343.149 204.267C343.396 204.392 343.852 204.234 344.147 204.082C344.267 204.02 344.228 203.627 344.239 203.383C344.244 203.263 344.213 203.134 344.168 203.02C343.273 200.727 341.757 198.99 339.537 197.904C339.357 197.816 339.072 197.916 338.847 197.972C338.767 197.992 338.717 198.139 338.655 198.228C338.644 198.351 338.59 198.49 338.628 198.595ZM344.841 207.808C344.691 207.692 344.376 207.774 344.136 207.8C344.02 207.814 343.901 207.882 343.801 207.951C341.768 209.351 340.464 211.26 339.869 213.647C339.817 213.859 339.933 214.127 340.011 214.355C340.092 214.595 340.717 214.638 341.019 214.44C343.488 212.839 344.572 211.235 345.048 208.486C344.986 208.251 344.995 207.924 344.841 207.808ZM329.48 205.054C329.328 205.111 329.228 205.379 329.164 205.568C329.138 205.646 329.248 205.811 329.339 205.879C331.64 207.59 334.132 208.438 336.994 207.514C337.706 207.284 338.374 206.971 338.884 206.383C339.094 206.14 339.065 205.575 338.773 205.43C337.892 204.991 337.005 204.567 336.296 204.223C333.823 204.146 331.607 204.25 329.48 205.054ZM338.849 203.567C338.956 203.584 339.168 203.546 339.171 203.516C339.197 203.28 339.267 202.998 339.168 202.81C338.764 202.04 338.272 201.316 337.873 200.542C337.245 199.319 336.765 198.04 336.605 196.658C336.54 196.09 337.253 195.39 337.802 195.502C337.923 195.526 338.057 195.496 338.165 195.54C341.668 196.964 344.353 199.224 345.636 202.902C345.8 203.371 345.797 203.952 346.083 204.316C347.045 205.542 346.795 206.882 346.632 208.236C346.229 211.575 344.409 213.982 341.657 215.759C341.243 216.026 340.764 216.196 340.301 216.378C339.169 216.823 338.258 216.156 338.33 214.99C338.502 212.256 339.547 209.928 341.516 208.024C342.052 207.506 342.621 207.022 343.158 206.503C343.205 206.459 343.161 206.236 343.092 206.17C342.828 205.923 342.563 205.652 342.245 205.495C341.912 205.33 341.543 205.31 341.288 205.726C339.421 208.786 336.584 209.604 333.247 209.084C330.853 208.71 328.805 207.506 326.875 206.1C326.778 206.031 326.74 205.892 326.656 205.804C326.373 205.508 326.497 204.691 326.864 204.463C326.969 204.398 327.057 204.295 327.171 204.252C330.365 203.052 333.609 202.307 337.017 203.234C337.628 203.346 338.237 203.464 338.849 203.567Z" fill="#917492"/>
<path d="M291.88 171.679C291.952 171.727 292.108 171.712 292.192 171.666C292.284 171.615 292.392 171.496 292.398 171.4C292.416 171.162 292.432 170.902 292.356 170.68C291.801 169.05 291.021 167.544 289.794 166.31C289.665 166.18 289.409 166.176 289.212 166.115C289.144 166.331 289.076 166.548 289.009 166.76C289.492 168.682 290.116 170.514 291.88 171.679ZM286.954 181.03C289.077 179.836 290.518 178.056 291.392 175.806C291.472 175.603 291.409 175.134 291.36 175.127C291.046 175.078 290.705 175.075 290.396 175.154C290.17 175.21 289.97 175.396 289.781 175.552C288.122 176.912 287.072 178.7 286.245 180.639C286.209 180.726 286.27 180.884 286.333 180.975C286.384 181.046 286.506 181.066 286.598 181.107C286.717 181.083 286.853 181.087 286.954 181.03ZM287.674 173.168C287.936 172.962 287.868 172.422 287.554 172.266C284.037 170.508 280.452 170.308 276.808 171.839C276.637 171.911 276.466 172.212 276.47 172.403C276.474 172.591 276.66 172.874 276.834 172.944C278.437 173.596 280.006 174.35 281.741 174.626C283.918 174.956 285.918 174.566 287.674 173.168ZM288.066 170.487C288.328 170.528 288.516 170.311 288.442 170.004C288.13 168.674 287.729 167.362 287.477 166.02C287.366 165.434 287.526 164.794 287.584 164.179C287.604 163.964 288.292 163.61 288.51 163.704C288.961 163.896 289.492 164.004 289.842 164.312C292.39 166.546 293.817 169.386 294.205 172.742C294.245 173.09 294.161 173.494 294.01 173.814C293.428 175.047 292.784 176.252 292.182 177.479C291.04 179.808 289.248 181.486 286.96 182.644C286.529 182.862 286.017 182.936 285.534 183.038C284.961 183.158 284.256 182.488 284.341 181.902C284.413 181.414 284.449 180.888 284.664 180.462C285.221 179.348 285.889 178.292 286.465 177.187C286.617 176.892 286.701 176.48 286.626 176.166C286.52 175.71 286.042 175.754 285.701 175.839C284.717 176.083 283.73 176.17 282.73 176.044C279.858 175.682 277.109 174.915 274.585 173.459C274.378 173.34 274.229 173.12 274.048 172.955C273.764 172.698 273.752 171.804 274.054 171.578C274.448 171.283 274.83 170.942 275.273 170.755C278.597 169.356 282.002 168.935 285.296 169.982C286.361 170.179 287.212 170.35 288.066 170.487Z" fill="#917492"/>
<path d="M339.586 162.306C339.641 162.275 339.648 162.047 339.597 161.954C338.392 159.698 336.484 158.223 334.207 157.182C334.051 157.11 333.774 157.275 333.569 157.363C333.545 157.374 333.582 157.602 333.633 157.71C334.56 159.671 336.072 161.082 337.894 162.187C338.202 162.374 338.577 162.451 338.884 162.564C339.154 162.471 339.385 162.416 339.586 162.306ZM343.214 162.187C343.349 162.299 343.7 162.24 343.912 162.152C344.251 162.011 344.579 161.815 344.865 161.584C346.443 160.31 347.565 158.686 348.369 156.843C348.497 156.548 348.361 156.139 348.348 155.783C348.001 155.875 347.61 155.892 347.318 156.071C345.805 156.991 344.604 158.243 343.69 159.751C343.377 160.27 343.221 160.887 343.048 161.326C343.112 161.732 343.072 162.071 343.214 162.187ZM342.235 159.522C343.692 156.759 346.009 154.956 348.772 153.658C349.085 153.511 349.493 153.492 349.845 153.528C350.035 153.548 350.253 153.784 350.356 153.976C350.464 154.18 350.521 154.462 350.481 154.687C349.848 158.295 348.001 161.207 345.008 163.227C342.43 164.967 339.655 164.956 336.943 163.258C334.2 161.539 332.423 159.058 331.176 156.14C331.084 155.927 331.033 155.602 331.132 155.42C331.296 155.12 331.556 154.774 331.853 154.672C332.164 154.564 332.602 154.64 332.924 154.778C335.23 155.762 337.309 157.107 339.107 158.863C339.815 159.554 340.473 160.295 341.25 161.115C341.609 160.538 341.957 160.048 342.235 159.522Z" fill="#917492"/>
<path d="M308.568 181.227C308.464 181.408 308.299 181.676 308.363 181.819C309.185 183.658 310.413 185.139 312.28 186.002C312.468 186.09 312.733 186.046 312.956 186.012C313.201 185.976 313.258 185.386 313.089 185.044C312.178 183.214 310.755 181.942 308.943 181.13C308.777 181.168 308.607 181.159 308.568 181.227ZM306.535 196.355C306.719 196.454 307.041 196.439 307.241 196.344C310.048 195 311.928 192.804 313.035 189.928C313.103 189.751 312.948 189.467 312.847 189.259C312.813 189.188 312.607 189.146 312.501 189.174C309.045 190.059 307.137 192.414 306.199 195.534C306.363 195.967 306.387 196.276 306.535 196.355ZM308.086 189.586C308.961 189.118 309.844 188.662 310.711 188.176C311.325 187.831 311.392 187.446 310.941 187.047C310.383 186.551 309.78 186.098 309.25 185.572C307.706 184.038 306.716 182.191 306.243 180.064C306.111 179.475 306.789 178.775 307.379 178.943C309.845 179.643 311.925 180.938 313.511 182.982C313.587 183.08 313.656 183.186 313.724 183.29C315.092 185.384 315.599 187.492 314.575 189.992C313.399 192.868 311.707 195.223 309.157 196.972C308.216 197.619 307.192 198.048 306.045 198.175C305.5 198.235 304.699 197.676 304.716 197.124C304.737 196.386 304.713 195.587 304.985 194.93C305.652 193.324 306.477 191.787 307.237 190.222C307.52 190.011 307.804 189.798 308.086 189.586Z" fill="#917492"/>
<path d="M345.828 172.022C345.839 172.114 345.933 172.23 346.019 172.268C346.124 172.315 346.288 172.34 346.38 172.29C346.695 172.111 347.023 171.932 347.285 171.688C348.78 170.304 349.611 168.539 350.111 166.602C350.164 166.391 350.061 166.126 349.983 165.902C349.907 165.684 349.319 165.787 348.993 166.066C347.069 167.714 346.413 168.792 345.807 171.302C345.811 171.543 345.797 171.786 345.828 172.022ZM335.32 168.664C335.077 168.704 335.151 169.202 335.441 169.614C336.989 171.798 338.78 173.615 341.683 173.732C341.876 173.74 342.192 173.598 342.241 173.452C342.307 173.263 342.237 172.932 342.097 172.786C341.587 172.252 341.049 171.736 340.472 171.278C339.111 170.195 337.619 169.324 335.996 168.654C335.78 168.654 335.545 168.627 335.32 168.664ZM351.18 167.731C350.371 170.788 348.593 172.979 345.692 174.379C342.515 175.912 339.649 175.474 336.985 173.387C335.1 171.908 333.761 169.958 332.812 167.752C332.765 167.646 332.797 167.507 332.771 167.388C332.687 167.019 333.253 166.311 333.627 166.344C333.996 166.378 334.392 166.364 334.725 166.5C337.383 167.582 339.923 168.876 342.117 170.762C342.495 171.086 342.861 171.42 343.241 171.739C343.552 172 344.015 171.907 344.136 171.559C344.341 170.972 344.537 170.383 344.729 169.792C345.629 167.05 347.479 165.114 349.923 163.688C350.133 163.566 350.377 163.502 350.601 163.403C351.039 163.208 351.705 163.602 351.689 164.064C351.664 164.804 351.616 165.543 351.591 166.048C351.416 166.766 351.308 167.251 351.18 167.731Z" fill="#917492"/>
<path d="M317.773 182.743C318.488 184.251 319.589 185.42 320.997 186.295C321.156 186.392 321.513 186.375 321.641 186.26C321.781 186.132 321.849 185.81 321.801 185.607C321.328 183.614 319.994 182.416 318.12 181.75C318.021 181.715 317.873 181.76 317.768 181.81C317.688 181.848 317.639 181.951 317.576 182.026C317.639 182.266 317.667 182.522 317.773 182.743ZM321.658 189.855C321.677 189.543 321.205 189.212 320.901 189.308C319.175 189.855 317.865 190.979 316.989 192.498C316.192 193.88 315.655 195.411 315.757 197.067C315.771 197.271 315.918 197.55 316.086 197.639C316.266 197.735 316.593 197.73 316.769 197.624C319.328 196.095 320.903 193.843 321.607 190.891C321.621 190.584 321.634 190.219 321.658 189.855ZM316.808 199.371C316.493 199.554 316.118 199.639 315.769 199.758C315.074 199.994 314.195 199.399 314.155 198.671C314.071 197.166 314.336 195.706 314.714 194.259C315.2 192.399 316.169 190.84 317.648 189.616C318.217 189.143 318.862 188.759 319.466 188.324C320.068 187.892 320.129 187.6 319.633 187.178C318 185.786 316.628 184.21 315.966 182.124C315.82 181.659 315.759 181.164 315.688 180.679C315.632 180.296 316.256 179.74 316.641 179.758C318.073 179.818 319.269 180.491 320.384 181.284C322.19 182.568 323.245 184.299 323.469 186.566C323.594 187.831 323.407 189.039 323.196 190.658C322.504 194.295 320.333 197.316 316.808 199.371Z" fill="#917492"/>
<path d="M348.606 198.974C348.834 200.735 349.494 202.334 350.53 203.762C350.813 204.15 351.258 204.422 351.64 204.734C351.89 204.939 352.437 204.674 352.477 204.314C352.532 203.824 352.652 203.315 352.568 202.844C352.22 200.884 351.12 199.438 349.37 198.504C349.218 198.423 348.937 198.586 348.716 198.635C348.677 198.748 348.593 198.867 348.606 198.974ZM351.836 209.026C351.79 208.692 351.669 208.352 351.504 208.058C351.36 207.799 350.582 208.051 350.23 208.542C349.657 209.344 349.045 210.146 348.629 211.032C348.102 212.16 347.866 213.395 347.906 214.659C347.909 214.768 347.961 214.96 348.014 214.968C348.245 215.007 348.53 215.078 348.716 214.983C350.672 213.968 351.381 212.144 351.812 210.214C351.826 209.768 351.885 209.39 351.836 209.026ZM348.828 216.72C347.65 217.402 346.488 216.811 346.462 215.491C346.4 212.246 347.324 209.382 349.702 207.06C350.6 206.186 350.621 206.1 349.918 205.26C348.177 203.182 347.349 200.75 346.985 198.12C346.882 197.382 347.64 196.628 348.36 196.723C348.482 196.739 348.61 196.726 348.728 196.756C351.389 197.444 352.952 199.288 353.785 201.776C354.094 202.7 354.298 203.792 353.87 204.712C353.205 206.136 353.23 207.578 353.33 209.068C353.364 209.556 353.24 210.055 353.277 209.695C352.766 213.34 351.224 215.33 348.828 216.72Z" fill="#917492"/>
<path d="M298.313 172.207C298.396 171.606 298.532 170.962 298.397 170.392C298.053 168.939 297.416 167.61 296.24 166.614C296.149 166.536 295.948 166.427 295.928 166.45C295.773 166.619 295.571 166.804 295.535 167.012C295.473 167.367 295.452 167.756 295.535 168.103C295.873 169.551 296.42 170.92 297.239 172.167C297.363 172.354 297.623 172.451 297.821 172.588C297.993 172.463 298.292 172.354 298.313 172.207ZM293.828 181.296C293.955 181.411 294.349 181.395 294.508 181.278C296.265 179.983 297.567 178.418 297.427 176.058C297.419 175.939 297.373 175.739 297.307 175.722C297.083 175.663 296.827 175.611 296.608 175.666C296.383 175.722 296.145 175.864 295.987 176.038C294.784 177.335 293.995 178.847 293.687 180.571C293.729 180.842 293.688 181.171 293.828 181.296ZM294.141 164.888C294.257 164.268 295.028 163.914 295.585 164.195C297.103 164.96 298.059 166.248 298.855 167.68C299.859 169.49 300.267 171.391 299.708 173.442C299.479 174.28 299.212 175.128 299.137 175.987C298.849 179.262 296.947 181.458 294.417 183.252C294.117 183.463 293.753 183.586 293.412 183.73C292.729 184.016 291.853 183.368 291.849 182.614C291.843 181.214 292.169 179.883 292.76 178.635C293.503 177.059 294.279 175.503 295.683 174.351C296.343 173.81 296.301 173.57 295.907 172.726C295.484 171.824 295.019 170.938 294.656 170.012C294.056 168.484 293.756 166.902 294.073 165.255C294.096 165.132 294.119 165.011 294.141 164.888Z" fill="#917492"/>
<path d="M350.657 176.683C350.596 176.732 350.621 176.92 350.642 177.039C350.664 177.159 350.71 177.283 350.774 177.386C351.909 179.16 353.588 180.103 355.604 180.515C355.701 180.535 355.861 180.444 355.929 180.358C355.996 180.27 356.002 180.12 355.998 179.998C355.996 179.88 355.966 179.755 355.913 179.651C354.924 177.739 353.316 176.712 351.268 176.366C351.029 176.483 350.82 176.554 350.657 176.683ZM361.074 180.924C362.884 180.336 364.313 179.232 365.3 177.588C365.357 177.495 365.38 177.354 365.36 177.246C365.301 176.944 365.104 176.84 364.802 176.895C363.338 177.163 361.961 177.655 360.712 178.472C360.089 178.879 359.557 179.372 359.229 180.067C359.1 180.343 359.312 180.852 360.066 180.998C360.121 180.995 360.633 181.068 361.074 180.924ZM351.386 180.131C350.153 179.22 349.28 178.039 348.714 176.62C348.44 175.932 348.945 175.115 349.714 174.926C350.462 174.74 351.2 174.74 351.921 174.962C353.609 175.478 355.152 176.252 356.298 177.652C356.612 178.036 356.894 178.446 357.201 178.836C357.462 179.171 357.79 179.24 358.09 178.92C360.244 176.615 362.974 175.586 366.041 175.287C366.469 175.244 367.132 175.59 367.236 176.007C367.322 176.348 367.414 176.775 367.285 177.068C366.346 179.195 364.756 180.732 362.728 181.815C361.61 182.41 360.414 182.695 359.128 182.458C358.396 182.323 357.653 182.248 356.914 182.146C354.44 181.843 352.954 181.29 351.386 180.131Z" fill="#917492"/>
<path d="M313.528 169.31C313.513 169.624 313.64 169.81 313.945 169.786C314.171 169.768 314.465 169.748 314.6 169.606C315.197 168.975 315.643 168.224 315.657 167.34C315.668 166.623 315.525 165.903 315.429 165.186C315.416 165.082 315.269 164.9 315.217 164.911C314.995 164.959 314.725 165.008 314.584 165.159C313.875 165.912 313.855 166.931 313.556 168.004C313.551 168.343 313.551 168.827 313.528 169.31ZM311.177 171.976C311.276 171.91 311.421 171.772 311.405 171.7C311.359 171.491 311.259 171.286 311.143 171.102C311.083 171.008 310.951 170.94 310.836 170.903C308.788 170.23 306.725 170.136 304.653 170.786C304.543 170.822 304.361 170.946 304.372 171.002C304.409 171.215 304.461 171.462 304.597 171.618C305.203 172.315 306.087 172.444 306.877 172.676C308.428 173.006 309.864 172.848 311.177 171.976ZM314.396 171.66C313.433 172.223 312.535 172.902 311.551 173.424C308.313 175.148 304.377 174.258 302.225 171.363C301.883 170.902 302.135 169.99 302.672 169.787C304.561 169.076 306.511 168.796 308.523 169.007C309.384 169.098 310.243 169.239 311.107 169.295C311.303 169.307 311.617 169.11 311.701 168.928C311.905 168.484 312.056 168 312.14 167.518C312.397 166.015 313.159 164.726 313.84 163.406C314.184 162.742 314.877 162.323 315.279 162.436C315.952 162.626 316.256 163.18 316.513 163.738C317.107 165.019 317.175 166.371 316.885 168.02C316.68 169.435 315.908 170.778 314.396 171.66Z" fill="#917492"/>
<path d="M364.712 184.368C363.286 184.564 362.162 185.276 361.274 186.391C361.078 186.64 361.076 186.856 361.342 187.038C361.437 187.102 361.585 187.14 361.694 187.12C363.074 186.868 364.317 186.366 365.145 185.146C365.318 184.888 365.278 184.666 365.032 184.48C364.925 184.44 364.81 184.355 364.712 184.368ZM356.744 186.683C356.794 186.626 356.753 186.424 356.686 186.339C355.73 185.112 354.453 184.45 352.922 184.283C352.777 184.267 352.58 184.492 352.454 184.646C352.408 184.704 352.461 184.895 352.524 184.988C353.416 186.316 354.729 186.884 356.236 187.072C356.428 186.932 356.614 186.832 356.744 186.683ZM350.238 183.899C349.936 183.136 350.524 182.298 351.308 182.379C354.153 182.672 356.581 183.756 358.39 186.048C358.621 186.34 359.128 186.379 359.362 186.156C359.812 185.73 360.244 185.286 360.692 184.858C362 183.608 363.586 182.934 365.356 182.703C365.832 182.64 366.337 182.754 366.824 182.827C367.265 182.892 367.66 183.599 367.513 183.984C366.426 186.863 364.2 188.295 361.278 188.614C359.558 188.8 357.801 188.638 356.232 188.632C353.286 188.05 351.294 186.562 350.238 183.899Z" fill="#917492"/>
<path d="M288.625 96.2855C288.607 97.4229 288.597 99.1655 288.541 100.907C288.531 101.26 288.356 101.611 288.235 101.956C288.223 101.986 287.997 101.999 287.959 101.951C287.731 101.668 287.473 101.391 287.327 101.066C286.351 98.9069 285.417 96.7295 284.431 94.5762C284.176 94.0215 283.805 93.5149 283.428 93.0309C283.356 92.9389 282.997 93.0402 282.785 93.1016C282.707 93.1242 282.599 93.3002 282.617 93.3789C282.728 93.8562 282.824 94.3469 283.013 94.7936C283.943 96.9696 284.901 99.1349 285.849 101.304C285.98 101.602 285.896 101.815 285.585 101.9C285.495 101.926 285.345 101.883 285.273 101.818C283.988 100.64 282.72 99.4402 281.421 98.2789C281.06 97.9575 280.623 97.7015 280.18 97.5055C280.016 97.4322 279.729 97.5989 279.517 97.6976C279.479 97.7162 279.492 97.9535 279.548 98.0509C279.727 98.3682 279.891 98.7149 280.144 98.9669C282.439 101.258 284.747 103.532 287.06 105.802C287.324 106.06 287.645 106.26 287.948 106.475C288.264 106.7 288.996 106.62 289.327 106.272C289.572 106.011 289.905 105.675 289.909 105.368C289.949 102.135 289.933 98.9002 289.924 95.6656C289.924 95.5469 289.884 95.4015 289.807 95.3162C289.655 95.1429 289.471 94.8922 289.285 94.8802C289.136 94.8709 288.947 95.1469 288.812 95.3242C288.744 95.4122 288.759 95.5629 288.625 96.2855Z" fill="#917492"/>
<path d="M290.345 136.662C289.107 136.084 287.876 135.491 286.627 134.94C286.301 134.798 285.92 134.768 285.56 134.727C285.468 134.716 285.293 134.839 285.269 134.931C285.212 135.138 285.194 135.367 285.22 135.579C285.232 135.675 285.369 135.782 285.473 135.835C288.015 137.142 290.561 138.435 293.1 139.747C293.795 140.106 294.48 140.244 295.241 139.963C296.228 139.598 296.621 138.776 296.107 137.927C294.435 135.162 292.737 132.41 291.041 129.658C290.913 129.452 290.744 129.243 290.543 129.123C290.359 129.014 290.06 128.928 289.893 129.007C289.727 129.086 289.515 129.455 289.572 129.568C290.308 131.004 291.083 132.42 291.863 133.832C292.036 134.144 292.009 134.32 291.685 134.378C291.579 134.396 291.422 134.39 291.353 134.326C290.176 133.224 289.017 132.102 287.833 131.008C287.197 130.419 286.536 129.852 285.849 129.324C285.713 129.218 285.395 129.276 285.191 129.347C284.879 129.454 284.865 129.99 285.157 130.288C285.676 130.822 286.205 131.346 286.732 131.871C288.141 133.274 289.556 134.671 290.949 136.09C291.065 136.208 291.031 136.474 291.064 136.671C290.825 136.668 290.585 136.664 290.345 136.662Z" fill="#917492"/>
<path d="M306.493 102.154C306.392 104.143 306.304 106.135 306.176 108.124C306.155 108.479 306.001 108.839 305.845 109.166C305.773 109.319 305.191 108.611 305.06 108.036C304.84 107.066 304.64 106.09 304.469 105.108C304.321 104.251 304.259 103.378 304.092 102.523C304.025 102.179 303.795 101.862 303.609 101.55C303.555 101.456 303.395 101.36 303.297 101.374C303.201 101.386 303.095 101.522 303.043 101.627C302.935 101.844 302.776 102.082 302.784 102.304C302.904 105.448 303.423 108.503 304.927 111.316C305.219 111.863 305.58 112.378 305.947 112.879C306.624 113.807 307.275 113.794 307.952 112.846C310.004 109.97 311.628 106.924 311.68 103.268C311.685 102.934 311.511 102.798 311.208 102.871C311.097 102.898 310.952 102.904 310.887 102.978C310.725 103.159 310.54 103.356 310.472 103.579C310.22 104.415 309.98 105.256 309.796 106.108C309.503 107.471 308.92 108.703 308.2 109.879C308.14 109.978 308.009 110.058 307.896 110.084C307.852 110.095 307.721 109.95 307.707 109.862C307.409 108.248 307.579 106.642 307.733 105.026C307.899 103.294 307.963 101.551 308.031 99.8109C308.037 99.6362 307.793 99.3736 307.607 99.2989C307.492 99.2536 307.177 99.4456 307.107 99.6016C306.955 99.9349 306.883 100.311 306.816 100.676C306.725 101.167 306.671 101.663 306.603 102.158C306.565 102.156 306.529 102.155 306.493 102.154Z" fill="#917492"/>
<path d="M301.37 165C302.193 165.754 303.152 166.283 304.257 166.428C304.716 166.49 305.209 166.307 305.681 166.206C305.778 166.186 305.882 166.047 305.92 165.942C305.945 165.867 305.89 165.719 305.824 165.666C304.518 164.619 302.977 164.367 301.366 164.379C301.332 164.379 301.301 164.566 301.269 164.666C301.301 164.779 301.296 164.934 301.37 165ZM310.532 159.698C310.458 159.526 310.264 159.391 310.096 159.282C310.057 159.256 309.884 159.387 309.808 159.475C308.792 160.647 308.541 162.07 308.565 163.547C308.57 163.831 308.906 164.15 309.164 164.364C309.242 164.43 309.6 164.24 309.773 164.099C310.368 163.612 310.608 162.93 310.741 162.199C310.896 161.346 310.868 160.503 310.532 159.698ZM302.877 163.326C303.973 163.53 305.068 163.734 306.164 163.935C306.506 163.999 306.962 163.739 306.994 163.416C307.173 161.66 307.796 160.042 308.574 158.487C308.841 157.956 309.333 157.53 309.754 157.086C310.064 156.756 310.836 156.874 311.072 157.268C312.361 159.423 312.701 161.679 311.566 163.984C309.95 167.267 305.358 168.754 301.926 167.114C300.46 166.414 299.169 165.431 298.24 164.072C298.074 163.831 298.138 163.367 298.229 163.043C298.273 162.891 298.636 162.724 298.841 162.739C300.2 162.838 301.553 162.986 302.909 163.116C302.898 163.186 302.886 163.256 302.877 163.326Z" fill="#917492"/>
<path d="M384.849 207.035C384.82 206.434 384.796 205.772 384.54 205.251C384.108 204.379 383.575 203.528 382.941 202.791C381.651 201.286 380.083 200.082 378.355 199.104C378.195 199.015 377.859 199.07 377.701 199.187C377.54 199.308 377.387 199.606 377.419 199.796C377.633 201.131 377.797 202.487 378.163 203.783C378.907 206.419 380.708 207.923 383.345 208.294C384.191 208.45 384.891 207.862 384.849 207.035ZM376.894 204.45C376.25 202.428 375.983 200.351 375.909 198.242C375.9 198.007 376.02 197.766 376.084 197.528C376.144 197.3 376.743 196.948 376.985 196.999C377.224 197.048 377.495 197.023 377.707 197.126C380.659 198.546 383.153 200.534 385.094 203.182C385.842 204.2 386.268 205.376 386.36 206.628C386.404 207.226 386.271 207.856 386.112 208.444C385.893 209.266 384.956 209.88 384.13 209.836C383.761 209.816 383.391 209.779 383.073 209.754C379.98 209.132 377.86 207.472 376.894 204.45Z" fill="#917492"/>
<path d="M304.504 189.527C305.342 189.32 306.132 188.994 306.772 188.359C307.145 187.988 307.109 187.45 306.66 187.132C305.728 186.479 304.713 186.024 303.577 186.01C300.965 185.975 298.414 186.319 296.068 187.57C295.906 187.656 295.766 187.971 295.788 188.159C295.812 188.356 296.008 188.626 296.192 188.695C297.11 189.038 298.05 189.324 298.185 189.368C300.841 189.95 302.678 189.98 304.504 189.527ZM305.46 190.723C301.282 191.879 297.358 191.236 293.654 189.059C292.996 188.672 292.948 187.558 293.585 187.172C296.87 185.179 300.434 184.306 304.254 184.708C305.61 184.851 306.882 185.399 307.988 186.263C308.733 186.848 308.909 187.483 308.52 188.559C308.393 188.908 308.232 189.244 308.086 189.586C307.804 189.798 307.52 190.011 307.237 190.223C306.645 190.39 306.052 190.559 305.46 190.723Z" fill="#917492"/>
<path d="M338.209 151.886C338.393 152.994 338.853 154.019 339.549 154.931C340.049 155.587 340.665 155.923 341.069 155.735C341.568 155.503 341.789 155.075 341.966 154.612C342.79 152.447 342.898 150.239 342.208 148.03C341.728 146.492 341.218 144.951 340.156 143.683C339.944 143.434 339.736 143.447 339.521 143.663C338.581 144.607 338.437 145.862 338.061 147.522C337.748 148.679 337.942 150.292 338.209 151.886ZM341.845 157.33C341.405 157.756 340.637 157.834 340.144 157.464C338.486 156.219 337.416 154.596 336.94 152.575C336.508 150.731 336.457 148.862 336.752 147.01C337.045 145.16 337.712 143.414 338.75 141.835C339.101 141.304 339.977 141.228 340.394 141.656C340.566 141.832 340.773 141.984 340.918 142.18C342.498 144.323 343.489 146.712 343.936 149.338C344.125 150.454 344.214 151.56 343.974 152.726C343.769 154.455 343.161 156.051 341.845 157.33Z" fill="#917492"/>
<path d="M357.313 171.258C357.305 172.019 357.639 172.686 358.072 173.303C358.247 173.551 358.791 173.668 359.057 173.542C359.873 173.155 360.491 172.547 360.832 171.736C361.983 169.014 362.189 166.251 361.013 163.474C360.933 163.282 360.709 163.05 360.528 163.027C360.326 163.003 360.014 163.136 359.892 163.304C359.165 164.3 358.508 165.342 358.168 166.546C357.935 167.376 357.713 168.211 357.468 169.106C357.416 169.784 357.321 170.52 357.313 171.258ZM359.568 161.154C360.171 160.351 361.205 160.462 361.681 161.359C363.412 164.614 363.715 168.014 362.531 171.49C361.951 173.192 360.8 174.499 359.103 175.252C358.577 175.486 357.775 175.316 357.407 174.867C355.964 173.104 355.516 171.118 356.033 169.004C356.551 166.018 357.825 163.476 359.568 161.154Z" fill="#917492"/>
<path d="M304.879 160.051C305.012 159.587 305.145 159.072 305.072 158.61C304.874 157.362 304.291 156.266 303.493 155.286C302.624 154.22 301.609 153.318 300.457 152.568C300.124 152.351 299.457 152.314 299.417 152.524C299.376 152.74 299.302 152.971 299.338 153.178C299.608 154.654 300.124 156.048 300.83 157.368C301.488 158.59 302.327 159.655 303.593 160.298C303.803 160.406 304.069 160.396 304.314 160.442C304.506 160.316 304.829 160.223 304.879 160.051ZM303.355 161.72C301.52 160.972 300.346 159.539 299.481 157.84C298.514 155.943 297.935 153.907 297.571 151.812C297.531 151.58 297.625 151.324 297.65 151.079C297.674 150.844 298.191 150.35 298.421 150.382C298.908 150.451 299.437 150.447 299.868 150.647C302.305 151.779 304.201 153.532 305.583 155.835C306.238 156.928 306.528 158.136 306.548 159.402C306.557 160.176 306.288 160.9 305.743 161.434C305.411 161.758 304.905 161.904 304.537 162.099C304.053 161.946 303.695 161.858 303.355 161.72Z" fill="#917492"/>
<path d="M364.558 216.956C364.137 216.712 363.683 216.491 363.216 216.364C361.341 215.859 359.693 217.17 359.763 219.09C359.775 219.455 359.82 219.828 359.917 220.18C360.316 221.608 361.577 222.614 362.843 222.534C364.107 222.454 365.444 221.602 365.729 220.116C365.753 219.995 365.786 219.878 365.816 219.758C366.05 218.539 365.64 217.582 364.558 216.956ZM367.13 217.915C367.793 219.626 367.157 221.083 366.114 222.407C365.19 223.58 363.001 224.288 361.743 223.887C359.788 223.266 358.397 221.523 358.283 219.498C358.256 219.007 358.31 218.506 358.384 218.016C358.558 216.827 359.232 215.979 360.266 215.398C361.174 214.888 362.144 214.791 362.804 214.9C364.993 215.252 366.43 216.107 367.13 217.915Z" fill="#917492"/>
<path d="M322.653 134.423C322.304 135.9 323.329 137.376 324.94 137.71C326.535 138.04 328.193 136.848 328.473 135.172C328.712 133.747 327.801 132.483 326.324 132.183C324.46 131.806 323.07 132.654 322.653 134.423ZM321.304 135.899C320.875 134.122 321.525 132.651 322.786 131.543C324.41 130.118 327.069 130.268 328.625 131.752C329.78 132.854 330.318 134.227 329.869 135.827C329.228 138.103 326.966 139.458 324.546 138.986C322.929 138.623 321.737 137.687 321.304 135.899Z" fill="#917492"/>
<path d="M368.535 81.2095C368.185 82.6868 369.212 84.1615 370.821 84.4949C372.416 84.8255 374.076 83.6335 374.354 81.9589C374.593 80.5335 373.684 79.2695 372.205 78.9695C370.341 78.5909 368.952 79.4388 368.535 81.2095ZM367.186 82.6855C366.756 80.9069 367.407 79.4362 368.668 78.3295C370.293 76.9029 372.952 77.0548 374.507 78.5388C375.661 79.6402 376.2 81.0135 375.75 82.6122C375.109 84.8895 372.848 86.2428 370.428 85.7708C368.81 85.4082 367.618 84.4735 367.186 82.6855Z" fill="#917492"/>
<path d="M273.875 114.776C273.623 114.139 272.84 113.764 272.085 113.911C271.536 114.019 271.068 114.627 271.068 115.235C271.068 115.971 271.791 116.615 272.505 116.515C273.26 116.408 273.941 115.759 273.959 115.128C273.932 115.011 273.917 114.888 273.875 114.776ZM270.9 117.504C270.096 117.043 269.525 116.412 269.501 115.442C269.472 114.214 269.953 113.242 271.096 112.7C272.392 112.086 273.865 112.416 274.847 113.516C275.281 114.003 275.416 114.612 275.448 115.219C275.148 117.379 272.815 118.602 270.9 117.504Z" fill="#917492"/>
<path d="M354.709 29.1029C354.459 28.4656 353.676 28.0896 352.921 28.2376C352.371 28.3442 351.903 28.9522 351.904 29.5602C351.904 30.2962 352.627 30.9402 353.34 30.8416C354.095 30.7349 354.777 30.0842 354.795 29.4549C354.767 29.3376 354.753 29.2136 354.709 29.1029ZM351.736 31.8296C350.932 31.3682 350.361 30.7389 350.336 29.7682C350.307 28.5402 350.788 27.5669 351.931 27.0269C353.227 26.4122 354.7 26.7429 355.681 27.8429C356.116 28.3296 356.252 28.9376 356.283 29.5456C355.983 31.7056 353.651 32.9269 351.736 31.8296Z" fill="#917492"/>
<path d="M379.564 182.674C379.313 182.036 378.532 181.66 377.776 181.808C377.225 181.915 376.758 182.523 376.758 183.131C376.758 183.868 377.483 184.512 378.196 184.412C378.949 184.306 379.632 183.656 379.65 183.026C379.621 182.908 379.608 182.786 379.564 182.674ZM376.59 185.4C375.786 184.939 375.216 184.31 375.192 183.339C375.161 182.111 375.644 181.138 376.785 180.598C378.082 179.983 379.555 180.314 380.537 181.414C380.972 181.9 381.106 182.51 381.138 183.116C380.837 185.276 378.505 186.498 376.59 185.4Z" fill="#917492"/>
<path d="M296.881 2.54424C296.629 1.9069 295.847 1.5309 295.092 1.6789C294.541 1.78557 294.075 2.39359 294.075 3.00159C294.075 3.73759 294.797 4.38157 295.511 4.28157C296.267 4.17624 296.948 3.52559 296.965 2.89492C296.939 2.77759 296.924 2.6549 296.881 2.54424ZM293.907 5.2709C293.103 4.80956 292.532 4.1789 292.507 3.20823C292.477 1.98023 292.96 1.00826 294.103 0.466926C295.399 -0.147741 296.871 0.184242 297.853 1.28291C298.288 1.76958 298.423 2.37891 298.453 2.98691C298.155 5.14558 295.821 6.36823 293.907 5.2709Z" fill="#917492"/>
<path d="M314.977 208.906C314.725 208.267 313.944 207.892 313.189 208.039C312.638 208.147 312.17 208.754 312.17 209.363C312.172 210.099 312.894 210.743 313.608 210.643C314.362 210.538 315.045 209.886 315.062 209.256C315.034 209.139 315.021 209.016 314.977 208.906ZM312.002 211.631C311.2 211.17 310.628 210.54 310.605 209.57C310.574 208.342 311.056 207.37 312.198 206.828C313.494 206.214 314.968 206.546 315.949 207.644C316.384 208.131 316.52 208.74 316.55 209.347C316.25 211.507 313.918 212.73 312.002 211.631Z" fill="#917492"/>
<path d="M293.144 139.154C294.669 139.018 295.332 138.258 295.602 136.788C296.062 134.283 295.465 132.09 293.764 130.196C292.064 128.306 290.077 126.823 287.628 126.068C286.809 125.815 285.92 125.67 285.062 125.675C282.462 125.692 280.656 127.692 280.732 130.283C280.849 134.275 283.05 136.734 286.549 138.215C287.461 138.602 288.452 138.807 289.637 139.166C290.661 139.168 291.912 139.262 293.144 139.154ZM277.384 98.7749C279.302 102.251 282.322 104.278 286.1 105.26C286.828 105.45 287.585 105.527 288.304 105.232C288.752 105.048 289.26 104.854 289.571 104.511C291.828 102.016 292.613 99.1896 291.504 95.9002C289.963 91.3296 286.648 88.7962 282.136 87.6856C279.472 87.0296 277.496 88.2402 276.617 90.8415C276.498 91.1949 276.4 91.5549 276.321 91.8189C275.857 94.3282 276.2 96.6269 277.384 98.7749ZM312.84 95.0989C312.293 94.2856 311.586 93.5389 310.825 92.9202C309.701 92.0069 308.343 91.7895 306.937 92.1455C305.32 92.5549 303.989 93.4482 302.869 94.6775C300.572 97.1989 300.034 100.163 300.766 103.39C301.296 105.726 302.339 107.858 303.837 109.732C304.296 110.304 304.885 110.808 305.502 111.21C306.85 112.086 308.273 112.156 309.768 111.475C311.955 110.479 313.288 108.758 314.096 106.574C314.354 105.876 314.49 105.134 314.646 104.546C315.174 101.083 314.741 97.9309 312.84 95.0989ZM294.046 174.586C292.94 174.402 291.84 174.148 290.749 173.882C290.396 173.796 290.044 173.614 289.756 173.391C289.6 173.27 289.564 172.978 289.507 172.754C289.499 172.724 289.672 172.604 289.766 172.598C290.134 172.574 290.514 172.519 290.872 172.584C296.777 173.647 302.684 174.7 308.581 175.81C311.652 176.388 314.701 177.074 317.764 177.696C317.997 177.744 318.258 177.698 318.5 177.658C318.538 177.651 318.604 177.394 318.556 177.342C318.15 176.884 317.753 176.414 317.297 176.012C313.441 172.618 309.885 168.935 306.636 164.96C305.925 164.09 305.264 163.179 304.614 162.262C304.409 161.971 304.338 161.611 304.553 161.244C304.721 160.959 305.228 160.998 305.525 161.362C305.997 161.942 306.453 162.536 306.926 163.118C311.353 168.571 316.222 173.572 321.832 177.831C323.137 178.822 324.485 179.643 326.056 180.186C328.653 181.079 331.185 182.155 333.745 183.154C334.196 183.328 334.588 183.72 335.137 183.536C335.211 182.815 334.609 182.522 334.221 182.096C332.537 180.251 330.749 178.488 329.18 176.548C325.8 172.37 322.154 168.419 318.761 164.255C316.466 161.44 314.037 158.755 311.494 156.17C308.866 153.496 306.228 150.831 303.59 148.166C301.217 145.768 298.836 143.376 296.463 140.978C295.909 140.419 295.337 140.043 294.479 140.319C293.889 140.507 293.257 140.607 292.637 140.644C288.571 140.892 284.949 139.746 282.009 136.895C279.695 134.648 278.965 131.807 279.508 128.646C280 125.782 283.011 123.939 285.601 124.238C290 124.744 293.292 127.006 295.804 130.516C296.687 131.751 297.212 133.166 297.135 134.735C297.087 135.731 297.129 136.744 296.945 137.716C296.735 138.838 297.089 139.66 297.857 140.403C298.306 140.838 298.725 141.302 299.166 141.744C303.749 146.352 308.332 150.96 312.92 155.563C313.093 155.738 313.3 155.884 313.513 156.006C313.586 156.046 313.745 155.991 313.832 155.934C313.906 155.883 313.994 155.738 313.969 155.682C313.77 155.226 313.584 154.759 313.324 154.339C309.629 148.388 306.292 142.235 302.926 136.098C297.937 126.999 292.993 117.879 288.772 108.39C288.669 108.162 288.573 107.928 288.441 107.718C288.174 107.29 287.858 106.928 287.32 106.81C286.222 106.567 285.116 106.352 284.046 106.024C280.933 105.072 278.512 103.146 276.745 100.455C274.803 97.4976 274.154 94.2682 275.1 90.7896C276.028 87.3696 278.755 85.5322 282.163 86.2202C287.908 87.3816 292.493 91.3109 293.484 98.1442C293.57 98.7495 293.496 99.3895 293.421 100.004C293.205 101.795 292.492 103.442 291.276 104.71C289.8 106.25 289.877 107.68 290.841 109.394C291.637 110.804 292.227 112.331 292.935 113.794C298.323 124.943 304.402 135.723 310.441 146.523C312.269 149.791 314.358 152.911 316.326 156.102C316.506 156.394 316.696 156.46 316.866 156.255C316.929 156.178 316.973 156.02 316.938 155.936C316.086 153.858 315.217 151.786 314.36 149.71C309.737 138.526 307.025 126.908 306.448 114.808C306.41 114.019 306.201 113.351 305.469 112.922C302.35 111.095 300.884 108.083 299.714 104.866C299.012 102.935 298.984 100.935 299.293 98.9429C299.928 94.8749 303.058 91.5456 306.989 90.6536C308.537 90.3016 309.945 90.5802 311.274 91.4469C312.344 92.1429 313.238 93.0149 313.905 94.0802C317.028 99.0722 317.209 104.184 314.353 109.343C313.553 110.79 312.325 111.88 310.814 112.595C310.026 112.968 309.175 113.215 308.401 113.615C308.125 113.758 307.945 114.164 307.817 114.488C307.733 114.7 307.819 114.98 307.832 115.23C308.204 121.986 309.297 128.627 310.982 135.175C313.457 144.791 317.397 153.831 321.874 162.648C323.174 165.21 324.673 167.671 326.145 170.14C326.783 171.21 327.533 172.22 328.316 173.192C331.454 177.092 334.828 180.776 338.554 184.13C343.766 188.818 349.261 193.136 355.097 197.02C355.405 197.226 355.736 197.402 356.069 197.564C356.162 197.61 356.305 197.574 356.421 197.551C356.696 197.499 356.773 197.295 356.577 197.008C355.313 195.15 354.012 193.314 352.769 191.44C349.37 186.327 346.374 181 344.13 175.264C342.161 170.224 340.958 165.014 340.408 159.643C340.357 159.148 340.321 158.631 340.414 158.151C340.472 157.85 340.782 157.598 340.981 157.323C341.145 157.494 341.412 157.643 341.453 157.84C341.633 158.691 341.781 159.554 341.88 160.419C342.716 167.839 345.033 174.79 348.464 181.395C351.122 186.512 354.27 191.32 357.736 195.919C358.634 197.112 359.686 198.191 360.685 199.307C360.837 199.478 361.086 199.56 361.289 199.686C361.569 199.86 361.682 199.776 361.565 199.455C361.181 198.404 360.793 197.352 360.385 196.311C358.457 191.38 357.29 186.294 357.226 180.982C357.204 179.102 357.333 177.235 357.845 175.418C357.904 175.21 358.158 175.056 358.321 174.878C358.47 175.064 358.748 175.251 358.749 175.439C358.754 176.936 358.708 178.435 358.676 179.934C358.512 187.907 360.84 195.195 364.773 202.04C365.476 203.264 366.488 204.127 367.738 204.802C372.249 207.232 376.789 209.599 381.502 211.611C383.569 212.492 385.662 213.307 387.748 214.143C387.852 214.186 388.092 214.158 388.098 214.128C388.136 213.944 388.21 213.678 388.117 213.571C387.217 212.535 386.27 211.539 385.372 210.5C385.065 210.147 384.696 209.758 384.99 209.194C385.172 208.843 385.777 208.974 386.269 209.475C387.318 210.546 388.325 211.66 389.425 212.676C392.136 215.179 395.25 216.959 398.884 217.767C399.736 217.956 400.584 218.176 401.429 218.406C401.773 218.499 402.084 218.656 402.152 219.083C402.206 219.434 401.532 219.795 400.965 219.699C400.596 219.636 400.217 219.6 399.861 219.492C393.877 217.706 387.849 216.04 382.144 213.443C379.506 212.243 376.671 211.698 373.932 210.834C368.062 208.984 362.012 208.007 355.93 207.294C352.34 206.872 348.732 206.435 345.096 206.478C344.099 206.491 343.1 206.423 342.101 206.386C341.853 206.376 341.606 206.335 341.358 206.314C340.996 206.283 340.609 205.826 340.757 205.554C340.861 205.36 341.07 205.092 341.238 205.087C345.238 204.97 349.235 205.118 353.204 205.594C358.043 206.174 362.892 206.69 367.664 207.739C368.136 207.842 368.645 207.782 369.136 207.776C369.192 207.776 369.309 207.587 369.293 207.567C369.15 207.383 369.013 207.16 368.818 207.054C360.784 202.702 353.113 197.788 345.879 192.2C343.027 189.999 343.022 190.003 339.468 189.518C338.849 189.434 338.229 189.324 337.607 189.295C331.868 189.016 326.129 188.698 320.386 188.504C316.894 188.386 313.395 188.48 309.899 188.444C309.429 188.439 308.957 188.24 308.496 188.102C308.416 188.078 308.328 187.911 308.332 187.815C308.337 187.703 308.416 187.566 308.505 187.491C309.016 187.066 309.636 187.015 310.264 187.02C313.884 187.06 317.505 187.1 321.128 187.148C326.374 187.219 331.62 187.328 336.845 187.878C337.329 187.928 337.832 187.847 338.322 187.795C338.406 187.786 338.5 187.618 338.536 187.507C338.562 187.422 338.542 187.263 338.481 187.216C338.09 186.915 337.715 186.568 337.273 186.36C331.616 183.688 325.813 181.372 319.76 179.782C315.168 178.574 310.51 177.622 305.208 176.399C301.94 175.871 297.992 175.243 294.046 174.586Z" fill="#917492"/>
<path d="M305.66 48.6056C304.601 48.2896 303.459 48.8923 303.336 49.8349C303.219 50.7402 304.067 51.7496 305.087 51.9162C305.767 52.0282 306.519 51.4562 306.703 50.6882C306.94 49.6869 306.531 48.8682 305.66 48.6056ZM301.947 49.7936C302.236 47.8909 303.831 46.6896 305.628 47.0202C307.42 47.3509 308.537 49.0149 308.215 50.8709C307.94 52.4469 306.567 53.4722 305.02 53.2536C303.019 52.9736 301.691 51.4776 301.947 49.7936Z" fill="#917492"/>
<path d="M358.422 71.2562C358.422 71.2589 358.424 71.2602 358.424 71.2616C358.422 71.2629 358.422 71.2629 358.422 71.2629C358.421 71.2669 358.42 71.2696 358.418 71.2736C358.325 71.3042 358.233 71.3309 358.298 71.3096C358.236 71.3349 358.329 71.3016 358.422 71.2616C358.422 71.2602 358.422 71.2589 358.422 71.2562C358.321 68.3002 358.064 65.3349 358.197 62.3869C358.253 61.1829 358.753 58.5029 360.034 58.9709C362.484 59.8669 359.294 67.2349 358.422 71.2562ZM356.506 72.0136L356.402 71.9202L356.514 71.8749L356.506 72.0136ZM358.822 94.4682C355.881 91.6576 348.226 86.7882 350.506 84.7869C354.546 81.2429 357.145 90.5429 358.822 94.4682ZM369.997 94.2256C372.218 95.8162 367.821 103.751 364.936 107.836C364.94 107.856 364.941 107.879 364.948 107.9C364.984 107.891 365.017 107.88 365.049 107.872C365.02 107.906 364.994 107.939 364.965 107.972C364.96 107.948 364.954 107.924 364.948 107.9C364.938 107.903 364.925 107.907 364.914 107.91C365.474 102.935 368.409 93.0882 369.997 94.2256ZM363.924 119.172C363.924 119.172 356.296 111.284 357.12 109.023C357.941 106.762 363.792 116.159 363.924 119.172ZM375.046 121.307C376.25 121.607 375.013 129.063 373.684 133.02C372.818 128.926 370.66 120.215 375.046 121.307ZM384.952 169.623C375.897 158.056 371.153 144.632 368.061 130.498C377.313 141.98 379.606 156.46 384.952 169.623ZM370.22 150.412C366.565 148.482 359.994 144.186 361.961 142.444C363.685 140.916 368.298 146.619 370.22 150.412ZM351.872 114.324C351.873 114.312 351.876 114.29 351.878 114.275C351.288 112.88 347.384 103.068 348.962 102.01C352.098 99.9069 352.292 111.704 351.878 114.275C351.918 114.375 351.948 114.438 351.952 114.446L351.872 114.324ZM325.517 111.004C325.841 109.32 334.106 109.504 339.892 112.007C335.276 113.579 324.89 114.271 325.517 111.004ZM310.589 83.6589C309.72 81.6229 314.721 81.1589 318.856 85.1936L319.024 85.1922C318.856 85.1936 311.452 85.6989 310.589 83.6589ZM312.918 77.1429C313.282 74.9589 317.748 77.2562 319.068 82.8789L319.21 82.9682C319.068 82.8789 312.55 79.3269 312.918 77.1429ZM319.754 75.1216C321.216 74.1389 322.328 77.9735 319.802 81.8069L319.828 81.9362C319.802 81.8069 318.293 76.1042 319.754 75.1216ZM325.17 78.1629C327.382 78.2922 325.581 82.9776 320.129 84.8922L320.056 85.0429C320.129 84.8922 322.962 78.0322 325.17 78.1629ZM331.636 97.5642C331.638 97.5402 331.644 97.5109 331.646 97.4869C329.753 94.7362 328.474 85.5576 331.06 86.3522C333.005 86.9509 332.206 93.7349 331.646 97.4869C331.662 97.5122 331.68 97.5455 331.698 97.5709C331.58 97.6402 331.464 97.7096 331.481 97.6989C331.452 97.7242 331.544 97.6442 331.636 97.5642ZM346.746 60.1869C346.729 60.1589 346.702 60.1349 346.684 60.1069C343.241 59.1802 339.792 58.2669 336.377 57.2456C335.41 56.9576 333.441 57.0042 333.452 55.7762C333.472 53.6509 344.298 56.4829 346.684 60.1069C346.717 60.1149 346.75 60.1242 346.784 60.1336C346.872 60.0682 346.96 60.0042 347.044 59.9349C346.944 60.0189 346.845 60.1029 346.746 60.1869ZM326.524 24.7056C329.264 27.9536 326.038 35.3789 326.038 35.3789C325.46 33.2016 323.785 21.4589 326.524 24.7056ZM318.922 26.3722C319.261 22.8789 323.676 31.6496 324.314 33.4029C324.314 33.4029 318.581 29.8669 318.922 26.3722ZM315.806 31.9002C314.502 28.6402 322.454 34.4029 323.826 35.6669C323.826 35.6669 317.11 35.1576 315.806 31.9002ZM315.497 37.3669C312.866 35.0456 322.56 36.6029 324.353 37.1136C324.353 37.1136 318.132 39.6882 315.497 37.3669ZM339.797 33.0616C342.246 37.1309 340.918 41.5109 341.293 45.6576C341.294 45.6616 341.297 45.6642 341.302 45.6669L341.293 45.6722C341.293 45.6856 341.293 45.6976 341.294 45.7109L341.166 45.7282L341.293 45.6722C341.293 45.6669 341.293 45.6629 341.293 45.6576C338.073 42.4629 337.266 36.4349 339.797 33.0616ZM361.481 57.2909C360.289 56.5349 359.062 57.6576 358.649 58.1669C355.58 61.9202 356.553 66.5162 356.348 71.2509C355.926 70.5509 355.701 70.2189 355.514 69.8696C353.19 65.4429 351.396 60.6202 348.422 56.6856C344.408 51.3749 342.172 47.5562 343.482 40.4909C343.934 38.0496 343.442 32.1962 340.682 31.3282C338.448 30.6296 337.057 33.3802 337.045 37.3136C337.04 39.6082 337.81 41.9056 338.1 43.4789C334.816 41.2056 331.018 38.5802 326.944 35.7602C328.761 31.8882 329.825 27.7402 327.828 23.2776C327.421 22.5736 326.658 22.3829 325.985 22.3762C321.98 22.3256 324.152 27.1629 323.886 29.7896C323.05 27.3602 320.265 21.5749 317.189 24.2202C314.676 26.3802 318.438 29.7869 320.342 31.6402C318.16 30.9776 314.285 27.4469 313.688 30.4722C313.485 31.5016 314.317 32.3509 314.916 33.0016C316.237 34.4469 317.485 34.7216 317.648 34.8442C317.65 34.8442 317.656 34.8429 317.658 34.8429C317.664 34.8389 317.669 34.8349 317.674 34.8309C317.745 34.6909 317.804 34.5736 317.674 34.8309C317.672 34.8389 317.668 34.8456 317.664 34.8522C317.661 34.8496 317.653 34.8469 317.648 34.8442C316.373 35.0762 314.753 34.6442 313.826 35.5509C313.592 35.7802 313.529 36.2002 313.625 36.5162C313.893 37.3856 314.829 37.9749 315.604 38.3896C319.258 40.3589 322.717 39.1536 325.801 37.4696C335.564 41.7722 341.598 49.5269 347.15 57.8069C345.846 57.2416 344.768 56.2456 343.497 55.8296C340.605 54.8842 337.653 54.0096 334.658 53.5336C332.864 53.2496 330.966 55.0096 332.521 56.9002C333.402 57.9669 335.209 58.3629 336.764 58.8082C340.717 59.9389 344.753 60.7722 348.684 61.9562C349.752 62.2736 351.073 63.2282 351.426 64.1989C353.961 71.1456 356.298 78.1616 358.638 85.1776C359.004 86.2709 359.085 87.4656 359.272 88.6176C359.45 89.7362 359.594 90.8589 359.756 91.9802C357.474 87.8896 354.429 80.6829 349.876 83.5909C347.47 85.1269 349.748 88.2309 351.369 89.7882C353.648 91.9749 356.241 93.8402 358.437 96.0976C359.624 97.3256 360.705 98.9882 361.07 100.626C361.909 104.356 362.274 108.196 362.83 111.994C362.889 112.406 362.976 112.819 362.99 113.232C363.002 113.534 362.914 113.839 362.877 114.12C361.178 111.588 360.762 107.399 357.941 106.762C355.328 106.171 355.096 110.035 356.678 112.423C358.728 115.518 361.208 118.324 363.458 121.288C364.041 122.051 364.46 122.939 364.953 123.771C364.848 123.819 364.742 123.87 364.637 123.916C361.229 121.414 357.825 118.912 354.126 116.2C351.778 111.576 355.129 99.8562 349.057 100.318C345.236 100.607 347.445 105.099 347.83 107.22C348.27 109.654 349.442 111.955 350.373 114.515C349.86 114.322 349.55 114.231 349.262 114.092C343.725 111.418 338.972 107.716 334.585 103.41C333.052 101.906 332.534 100.548 332.866 98.5789C333.184 96.6802 333.512 94.7642 333.589 92.8456C333.708 89.9309 334.526 84.9602 330.866 84.6589C327.545 84.3869 328.57 89.0829 328.748 91.4722C328.933 93.9842 329.636 96.4549 330.189 99.3429C328.306 96.8496 326.55 94.7096 325.005 92.4256C323.48 90.1722 322.613 88.5296 321.201 86.1856C324.005 83.7656 329.664 81.1682 326.884 77.2882C326.494 76.7429 325.828 76.1029 324.908 76.2229C323.522 76.4029 322.878 78.0869 321.886 79.0415C321.884 79.0615 321.882 79.0802 321.877 79.1016C321.921 79.1229 321.964 79.1469 322.006 79.1696C321.961 79.1682 321.91 79.1696 321.866 79.1762C321.87 79.1509 321.874 79.1269 321.877 79.1016C321.868 79.0949 321.857 79.0896 321.846 79.0829C321.86 79.0722 321.874 79.0536 321.886 79.0415C322.634 74.2989 322.372 71.7682 319.573 72.0989C316.913 72.4122 318.29 75.9976 317.884 78.0469C317.908 78.0656 317.928 78.0869 317.948 78.1082C317.925 78.1656 317.901 78.2189 317.885 78.2562C317.889 78.3256 317.89 78.3536 317.885 78.2562C317.884 78.2629 317.882 78.2669 317.882 78.2696C317.862 78.3109 317.862 78.3162 317.882 78.2696C317.884 78.2642 317.884 78.2656 317.885 78.2562C317.884 78.2149 317.881 78.1616 317.878 78.1029C317.881 78.0856 317.882 78.0642 317.884 78.0469C316.748 76.9082 315.608 75.7682 314.404 74.5642C313.332 73.9629 311.716 73.8776 311.504 76.6362C311.35 78.6909 314.012 79.5522 314.462 81.1296C313.061 81.1922 310.876 80.1749 309.589 81.3402C309.296 81.6069 308.934 82.6562 309.006 83.0482C309.874 87.7109 316.069 86.4242 320.121 86.8976C324.357 96.5016 332.126 103.118 339.109 109.546C335.657 109.251 331.786 108.778 327.904 108.651C326.005 108.592 322.033 110.535 324.492 112.544C331.182 115.703 338.114 113.338 344.721 113.426C346.08 114.12 347.257 114.747 348.46 115.326C354.041 118.011 359.441 120.975 363.826 125.46C364.562 126.212 365.33 127.131 365.605 128.107C367.496 134.884 369.261 141.7 370.828 147.594C369.132 145.951 366.869 143.576 364.397 141.44C363.182 140.386 360.422 139.391 360.16 141.971C360.065 142.886 360.752 143.894 361.31 144.767C363.794 148.659 367.606 150.804 371.713 152.599C372.641 153.006 373.664 153.83 374.065 154.726C377.502 162.363 382.082 169.284 387.508 175.592C395.674 185.083 406.129 191.416 417.478 196.371C418.664 196.89 420.048 196.952 421.341 197.224C421.393 196.983 421.449 196.736 421.504 196.496C420.066 195.996 418.502 195.714 417.209 194.963C410.654 191.154 403.928 187.567 397.729 183.234C391.758 179.054 387.142 173.635 384.956 166.248C382.484 157.898 379.572 149.644 376.292 141.575C374.733 137.746 374.556 134.471 375.882 130.612C376.994 127.366 377.754 122.735 376.244 120.012C375.926 119.434 374.764 119.11 373.954 119.386C369.186 121.027 372.01 127.938 371.872 132.743C369.913 129.823 367.762 127.55 366.745 124.85C365.586 121.783 365.589 118.299 364.81 115.064C364.273 112.839 364.9 111.108 365.857 109.159C367.916 104.97 369.98 103.152 371.045 98.6082C371.522 96.5749 372.156 93.8522 371.229 92.9176C370.888 92.7442 370.549 92.5682 370.209 92.3962C368.876 92.7096 367.065 94.2096 366.638 95.2469C365.214 98.7202 364.448 100.346 363.632 105.474C363.648 105.54 363.666 105.606 363.682 105.674C363.665 105.73 363.652 105.784 363.633 105.838C363.624 105.776 363.613 105.718 363.601 105.658C363.61 105.591 363.621 105.539 363.632 105.474C363.473 104.827 363.297 104.186 363.181 103.532C361.802 95.7456 360.625 87.9189 358.978 80.1922C358.314 77.0736 358.538 74.3522 359.593 71.4322C360.692 68.3802 361.564 65.2162 362.168 62.0296C362.429 60.6496 363.025 58.2669 361.481 57.2909Z" fill="#917492"/>
</svg>
