<svg width="243" height="73" viewBox="0 0 243 73" fill="none" xmlns="http://www.w3.org/2000/svg">
<path d="M20.8 15.184C20.0533 15.2267 19.4987 15.344 19.136 15.536C18.7733 15.7067 18.528 16.0053 18.4 16.432C18.272 16.8373 18.208 17.4453 18.208 18.256V34.16H17.472L4.672 16.432V30.288C4.672 31.12 4.736 31.7387 4.864 32.144C5.01333 32.5493 5.29067 32.848 5.696 33.04C6.10133 33.2107 6.73067 33.3173 7.584 33.36V34C6.816 33.936 5.728 33.904 4.32 33.904C3.04 33.904 2.048 33.936 1.344 34V33.36C2.09067 33.3173 2.64533 33.2107 3.008 33.04C3.37067 32.848 3.616 32.5493 3.744 32.144C3.872 31.7173 3.936 31.0987 3.936 30.288V17.936C3.936 17.1253 3.872 16.5387 3.744 16.176C3.616 15.8133 3.37067 15.568 3.008 15.44C2.66667 15.312 2.112 15.2267 1.344 15.184V14.544C2.048 14.608 3.04 14.64 4.32 14.64C5.472 14.64 6.45333 14.608 7.264 14.544L17.472 28.752V18.256C17.472 17.424 17.3973 16.8053 17.248 16.4C17.12 15.9947 16.8533 15.7067 16.448 15.536C16.0427 15.344 15.4133 15.2267 14.56 15.184V14.544C15.328 14.608 16.416 14.64 17.824 14.64C19.104 14.64 20.096 14.608 20.8 14.544V15.184ZM36.2833 14.096C38.2459 14.096 39.9633 14.4907 41.4353 15.28C42.9286 16.048 44.0806 17.1893 44.8913 18.704C45.7019 20.1973 46.1073 21.9893 46.1073 24.08C46.1073 26.128 45.6806 27.9413 44.8273 29.52C43.9953 31.0773 42.8326 32.2933 41.3393 33.168C39.8459 34.0213 38.1499 34.448 36.2513 34.448C34.2886 34.448 32.5606 34.064 31.0673 33.296C29.5953 32.5067 28.4539 31.3653 27.6433 29.872C26.8326 28.3573 26.4273 26.5547 26.4273 24.464C26.4273 22.416 26.8433 20.6133 27.6753 19.056C28.5286 17.4773 29.7019 16.2613 31.1953 15.408C32.6886 14.5333 34.3846 14.096 36.2833 14.096ZM36.1553 14.672C34.8539 14.672 33.7019 15.088 32.6993 15.92C31.7179 16.7307 30.9606 17.872 30.4273 19.344C29.8939 20.7947 29.6273 22.4587 29.6273 24.336C29.6273 26.2347 29.9259 27.9093 30.5233 29.36C31.1206 30.8107 31.9313 31.9307 32.9553 32.72C33.9793 33.488 35.1206 33.872 36.3793 33.872C37.6806 33.872 38.8219 33.4667 39.8033 32.656C40.8059 31.824 41.5739 30.6827 42.1073 29.232C42.6406 27.76 42.9073 26.0853 42.9073 24.208C42.9073 22.3093 42.6086 20.6347 42.0113 19.184C41.4139 17.7333 40.6033 16.624 39.5793 15.856C38.5553 15.0667 37.4139 14.672 36.1553 14.672ZM68.2515 14.64C69.1475 14.64 69.8622 14.608 70.3955 14.544V15.184C69.7982 15.3333 69.3182 15.632 68.9555 16.08C68.5928 16.5067 68.1768 17.2533 67.7075 18.32L60.6995 34.16H60.1875L52.6995 17.232C52.1235 15.9093 51.3875 15.2267 50.4915 15.184V14.544C51.3662 14.608 52.5075 14.64 53.9155 14.64C55.7502 14.64 57.1155 14.608 58.0115 14.544V15.184C57.2222 15.2267 56.6355 15.3333 56.2515 15.504C55.8888 15.6747 55.7075 15.9627 55.7075 16.368C55.7075 16.7093 55.8568 17.2107 56.1555 17.872L61.6595 30.288L66.4275 19.664C66.9608 18.512 67.2275 17.6053 67.2275 16.944C67.2275 16.3467 67.0142 15.92 66.5875 15.664C66.1822 15.3867 65.5528 15.2267 64.6995 15.184V14.544C65.3395 14.608 66.5235 14.64 68.2515 14.64Z" fill="#DDD2DA"/>
<path d="M82.9254 22.5C82.9254 23.5853 82.0467 24.4626 80.9613 24.4626C79.8787 24.4626 79 23.5853 79 22.5C79 21.416 79.8787 20.5373 80.9613 20.5373C82.0467 20.5373 82.9254 21.416 82.9254 22.5Z" fill="#DDD2DA"/>
<path d="M107.117 33.408C107.117 35.4133 107.565 36.8 108.461 37.568C109.4 38.2933 111 38.656 113.261 38.656V40C108.653 39.8293 105.709 39.744 104.429 39.744C103.235 39.744 100.461 39.808 96.1093 39.936L94.5733 40V38.656C96.8346 38.656 98.52 38.272 99.6293 37.504C100.781 36.736 101.357 35.3707 101.357 33.408V17.92C101.357 15.872 101.144 14.3787 100.717 13.44C100.291 12.4587 99.5653 11.8187 98.5413 11.52C97.56 11.1787 96.024 11.008 93.9333 11.008V9.6C97.048 9.51466 99.608 9.23733 101.613 8.768C103.661 8.29867 105.496 7.488 107.117 6.336V33.408ZM142.005 8.448C141.365 9.94133 140.255 12.224 138.677 15.296C137.013 18.496 135.669 21.2693 134.645 23.616C133.621 25.92 132.746 28.5867 132.021 31.616C131.295 34.6027 130.933 37.7813 130.933 41.152C130.933 42.0053 130.975 43.0293 131.061 44.224C131.146 45.1627 131.189 45.824 131.189 46.208C131.189 47.1893 130.911 47.9787 130.357 48.576C129.802 49.1733 129.077 49.472 128.181 49.472C127.242 49.472 126.517 49.1307 126.005 48.448C125.535 47.7653 125.301 46.912 125.301 45.888C125.301 42.6027 125.791 39.36 126.773 36.16C127.797 32.96 129.013 30.016 130.421 27.328C131.871 24.5973 133.749 21.3333 136.053 17.536L139.061 12.48H123.893C122.741 12.48 121.866 12.5867 121.269 12.8C120.714 12.9707 120.33 13.2907 120.117 13.76C119.903 14.1867 119.733 14.848 119.605 15.744H118.517C118.517 11.52 118.431 8.53333 118.261 6.784C119.242 6.99733 122.421 7.104 127.797 7.104H142.005V8.448Z" fill="#917492"/>
<path d="M158.851 22.5C158.851 23.5853 157.972 24.4626 156.887 24.4626C155.804 24.4626 154.925 23.5853 154.925 22.5C154.925 21.416 155.804 20.5373 156.887 20.5373C157.972 20.5373 158.851 21.416 158.851 22.5Z" fill="#DDD2DA"/>
<path d="M174.659 17.072C176.152 17.072 177.325 17.424 178.179 18.128C179.032 18.832 179.459 19.824 179.459 21.104C179.459 21.9787 179.224 22.832 178.755 23.664C178.307 24.4747 177.752 25.2213 177.091 25.904C176.451 26.5867 175.597 27.408 174.531 28.368C173.656 29.1787 173.005 29.7973 172.579 30.224C172.152 30.6293 171.768 31.0667 171.427 31.536H177.923C178.499 31.536 178.925 31.4933 179.203 31.408C179.501 31.3013 179.704 31.1413 179.811 30.928C179.917 30.6933 180.003 30.352 180.067 29.904H180.611C180.611 31.8667 180.653 33.2853 180.739 34.16C180.269 34.0533 178.68 34 175.971 34H168.483V33.456C168.845 33.072 169.464 32.464 170.339 31.632C171.555 30.5013 172.568 29.488 173.379 28.592C174.189 27.6747 174.883 26.64 175.459 25.488C176.056 24.336 176.355 23.1093 176.355 21.808C176.355 19.504 175.288 18.352 173.155 18.352C171.405 18.352 169.976 19.3547 168.867 21.36L168.355 21.072C168.909 19.92 169.699 18.9707 170.723 18.224C171.747 17.456 173.059 17.072 174.659 17.072ZM195.123 17.072C196.616 17.072 197.95 17.424 199.123 18.128C200.296 18.8107 201.214 19.792 201.875 21.072C202.536 22.352 202.867 23.824 202.867 25.488C202.867 27.1947 202.526 28.7307 201.843 30.096C201.16 31.44 200.2 32.5067 198.963 33.296C197.747 34.064 196.35 34.448 194.771 34.448C193.299 34.448 191.976 34.1067 190.803 33.424C189.63 32.72 188.702 31.728 188.019 30.448C187.358 29.168 187.027 27.6853 187.027 26C187.027 24.3147 187.358 22.8 188.019 21.456C188.702 20.0907 189.651 19.024 190.867 18.256C192.104 17.4667 193.523 17.072 195.123 17.072ZM194.835 17.648C193.918 17.648 193.096 17.9787 192.371 18.64C191.667 19.28 191.112 20.2293 190.707 21.488C190.323 22.7253 190.131 24.1973 190.131 25.904C190.131 28.6133 190.59 30.6187 191.507 31.92C192.424 33.2213 193.608 33.872 195.059 33.872C195.976 33.872 196.787 33.5413 197.491 32.88C198.216 32.2187 198.771 31.2693 199.155 30.032C199.56 28.7733 199.763 27.2907 199.763 25.584C199.763 22.896 199.304 20.9013 198.387 19.6C197.47 18.2987 196.286 17.648 194.835 17.648ZM215.559 17.072C217.052 17.072 218.225 17.424 219.079 18.128C219.932 18.832 220.359 19.824 220.359 21.104C220.359 21.9787 220.124 22.832 219.655 23.664C219.207 24.4747 218.652 25.2213 217.991 25.904C217.351 26.5867 216.497 27.408 215.431 28.368C214.556 29.1787 213.905 29.7973 213.479 30.224C213.052 30.6293 212.668 31.0667 212.327 31.536H218.823C219.399 31.536 219.825 31.4933 220.103 31.408C220.401 31.3013 220.604 31.1413 220.711 30.928C220.817 30.6933 220.903 30.352 220.967 29.904H221.511C221.511 31.8667 221.553 33.2853 221.639 34.16C221.169 34.0533 219.58 34 216.871 34H209.383V33.456C209.745 33.072 210.364 32.464 211.239 31.632C212.455 30.5013 213.468 29.488 214.279 28.592C215.089 27.6747 215.783 26.64 216.359 25.488C216.956 24.336 217.255 23.1093 217.255 21.808C217.255 19.504 216.188 18.352 214.055 18.352C212.305 18.352 210.876 19.3547 209.767 21.36L209.255 21.072C209.809 19.92 210.599 18.9707 211.623 18.224C212.647 17.456 213.959 17.072 215.559 17.072ZM240.919 32.432C240.642 32.368 239.575 32.3147 237.719 32.272V38.512H235.159V32.272H226.807V31.6L237.207 17.072H237.719V30.128H238.103C238.679 30.128 239.106 30.0853 239.383 30C239.682 29.8933 239.884 29.7333 239.991 29.52C240.098 29.2853 240.183 28.944 240.247 28.496H240.791C240.791 30.288 240.834 31.6 240.919 32.432ZM235.159 30.128V20.976L228.695 30.128H235.159Z" fill="#DDD2DA"/>
<path d="M88.5185 67.976H94.6785V69H86.8225V68.184L91.4785 63.624C92.7425 62.376 92.9825 61.624 92.9825 60.856C92.9825 59.56 92.0705 58.76 90.3585 58.76C89.0465 58.76 88.0385 59.16 87.3025 60.008L86.4865 59.304C87.3505 58.28 88.7425 57.704 90.4545 57.704C92.7265 57.704 94.1665 58.856 94.1665 60.728C94.1665 61.8 93.8305 62.76 92.3265 64.232L88.5185 67.976ZM97.4683 62.264C97.0043 62.264 96.6203 61.88 96.6203 61.384C96.6203 60.888 97.0043 60.52 97.4683 60.52C97.9323 60.52 98.3323 60.888 98.3323 61.384C98.3323 61.88 97.9323 62.264 97.4683 62.264ZM97.4683 69.08C97.0043 69.08 96.6203 68.696 96.6203 68.2C96.6203 67.704 97.0043 67.336 97.4683 67.336C97.9323 67.336 98.3323 67.704 98.3323 68.2C98.3323 68.696 97.9323 69.08 97.4683 69.08ZM104.283 62.6C106.683 62.728 107.883 63.992 107.883 65.784C107.883 67.656 106.523 69.096 103.819 69.096C102.203 69.096 100.651 68.536 99.7869 67.656L100.347 66.744C101.067 67.496 102.363 68.04 103.819 68.04C105.675 68.04 106.699 67.176 106.699 65.784C106.699 64.44 105.755 63.56 103.675 63.56H102.875V62.712L105.979 58.824H100.251V57.8H107.451V58.616L104.283 62.6ZM114.45 69.096C111.858 69.096 109.986 66.968 109.986 63.4C109.986 59.832 111.858 57.704 114.45 57.704C117.042 57.704 118.93 59.832 118.93 63.4C118.93 66.968 117.042 69.096 114.45 69.096ZM114.45 68.04C116.402 68.04 117.746 66.392 117.746 63.4C117.746 60.408 116.402 58.76 114.45 58.76C112.498 58.76 111.154 60.408 111.154 63.4C111.154 66.392 112.498 68.04 114.45 68.04ZM130.911 57.8C133.759 57.8 135.487 59.24 135.487 61.64C135.487 64.024 133.759 65.464 130.911 65.464H127.903V69H126.719V57.8H130.911ZM130.879 64.424C133.119 64.424 134.303 63.4 134.303 61.64C134.303 59.848 133.119 58.824 130.879 58.824H127.903V64.424H130.879ZM149.184 57.8H150.16V69H149.024V60.04L144.624 67.576H144.064L139.664 60.088V69H138.528V57.8H139.504L144.368 66.104L149.184 57.8Z" fill="#DDD2DA"/>
</svg>
