<svg width="119" height="38" viewBox="0 0 119 38" fill="none" xmlns="http://www.w3.org/2000/svg">
<path d="M33.7148 32.6792C33.7286 32.7288 33.7276 32.8039 33.7606 32.824C34.4685 33.2701 35.2296 33.5725 36.0758 33.6211C36.1621 33.6264 36.277 33.656 36.309 33.5207C35.666 32.8081 34.5408 32.4994 33.7148 32.6792ZM38.5167 26.8731C38.5284 27.7844 38.5667 28.5846 38.9798 29.312C39.0873 29.5023 39.166 29.7338 39.413 29.8343C39.6557 28.8109 39.3268 27.6681 38.5167 26.8731ZM23.7309 15.9047C23.8012 15.8582 23.8714 15.8275 23.9193 15.7768C24.1642 15.5177 24.3558 15.2228 24.4803 14.8876C24.7156 14.2544 24.8007 13.5989 24.7869 12.9276C24.7858 12.899 24.7475 12.8716 24.7251 12.8441C24.4218 13.1063 24.1429 13.655 23.8416 14.5758C23.6309 15.2217 23.6138 15.4194 23.7309 15.9047ZM9.67862 21.9857C10.4546 21.7319 11.5968 21.0986 12.0492 20.7001C12.3335 20.4485 12.5613 20.1525 12.7412 19.8216C12.7699 19.7687 12.7518 19.6905 12.7592 19.5721C11.5468 20.1482 10.5206 20.8555 9.67862 21.9857ZM30.7821 26.0992C30.9706 25.0758 30.0455 23.4562 28.9065 22.9022C29.0843 23.6148 29.3664 24.2301 29.7049 24.821C30.0529 25.4268 30.4191 25.8507 30.7821 26.0992ZM35.3009 22.5333C35.2838 22.4667 35.286 22.399 35.254 22.3588C34.9432 21.9761 34.643 21.5807 34.3056 21.2202C33.8798 20.7625 33.3337 20.476 32.7482 20.2688C32.6258 20.2254 32.4927 20.1747 32.3448 20.3058C32.8664 20.9697 33.3784 21.6188 34.0405 22.1305C34.2119 22.2616 34.4056 22.3726 34.6047 22.4561C34.8186 22.5449 35.0465 22.6274 35.3009 22.5333ZM21.4987 27.1416C21.6062 27.2515 21.6509 27.3118 21.7084 27.3562C22.2172 27.7431 22.7814 28.0286 23.4095 28.148C23.9694 28.2559 24.5421 28.3034 25.1095 28.3732C25.1318 28.3753 25.1606 28.333 25.185 28.3108C24.3803 27.298 22.7495 26.9407 21.4987 27.1416ZM14.8765 11.346C14.4603 12.4582 14.8754 14.5631 15.6557 15.1953C15.8878 14.4944 15.9186 13.8051 15.7473 13.0989C15.5716 12.3757 15.2203 11.6526 14.8765 11.346ZM16.9235 27.4027C16.9448 27.3435 16.9587 27.3245 16.9555 27.3086C16.9427 27.2515 16.9342 27.1902 16.9086 27.1405C16.6893 26.7293 16.371 26.4089 15.9804 26.1605C15.1831 25.6541 14.3049 25.4596 13.3681 25.5103C12.6804 25.5484 12.0375 25.727 11.4659 26.1214C11.4137 26.1594 11.3796 26.226 11.3126 26.3085C13.7641 26.0442 14.505 26.151 16.9235 27.4027ZM29.8613 35.9501C29.509 36.0939 29.2758 36.206 29.0321 36.2831C28.7883 36.3614 28.5361 36.4185 28.2827 36.4607C28.0294 36.503 27.7717 36.5305 27.5152 36.5369C27.2586 36.5432 27 36.5274 26.7445 36.4988C26.4901 36.4713 26.2346 36.4269 25.9855 36.3667C25.7364 36.3075 25.4937 36.2186 25.2478 36.1446C25.0083 36.0749 24.8199 35.8793 24.5219 35.8338C24.5762 36.1626 24.7486 36.3741 24.9349 36.5696C25.1925 36.8413 25.4607 37.1109 25.8205 37.2494C26.7913 37.6226 27.7558 37.6194 28.7053 37.1744C29.1449 36.9682 29.5111 36.6732 29.7602 36.2525C29.7953 36.1922 29.806 36.1182 29.8613 35.9501ZM32.4661 16.2789C32.4661 16.2387 32.4736 16.2123 32.464 16.2017C32.3725 16.1024 32.2841 15.9977 32.1819 15.911C31.3431 15.1974 30.8055 14.2988 30.4968 13.2532C30.3521 12.7574 30.2882 12.2531 30.2733 11.7393C30.269 11.5902 30.2914 11.4349 30.2339 11.2583C30.1498 11.3069 30.0902 11.3228 30.0604 11.3608C29.741 11.7816 29.5462 12.2647 29.5441 12.7817C29.5377 14.0673 30.0551 15.1107 31.1334 15.8476C31.5294 16.1193 31.9733 16.2757 32.4661 16.2789ZM24.4378 34.8157C24.6219 34.7227 24.6975 34.6942 24.7624 34.6508C25.3756 34.2396 26.0633 34.0873 26.7903 34.0493C27.7643 33.9996 28.685 34.1962 29.5643 34.6043C29.6612 34.6487 29.7592 34.7555 29.8773 34.6381C29.6953 34.211 29.5707 34.0324 29.2758 33.7776C28.1837 32.8378 26.3102 32.8028 25.1839 33.7025C24.855 33.9658 24.6049 34.284 24.4378 34.8157ZM34.0597 15.5579C34.4301 15.1424 34.5036 15.0124 34.6153 14.6223C35.0528 13.1094 34.1874 11.2985 32.7323 10.6747C32.4374 10.5479 32.1298 10.4728 31.8072 10.4802C31.7157 10.4823 31.6007 10.458 31.5826 10.6219C31.9925 10.8619 32.3224 11.2012 32.6173 11.5786C32.9601 12.0184 33.2283 12.4984 33.421 13.0228C33.7169 13.8178 33.9352 14.6318 34.0597 15.5579ZM24.6102 35.3232C24.9221 35.56 25.2393 35.7228 25.5778 35.8381C26.4401 36.132 27.3268 36.1816 28.2231 36.0643C28.7192 35.9998 29.1843 35.8243 29.6165 35.5727C29.7102 35.5188 29.7794 35.4226 29.8603 35.3454C29.278 34.7809 28.0528 34.4098 26.8935 34.4521C26.0451 34.4838 25.2617 34.7047 24.6102 35.3232ZM1.49052 13.5767C2.621 13.545 3.59182 13.8801 4.54879 14.2586C5.53025 14.6477 6.4266 15.1847 7.28565 15.9628C7.25903 15.7313 7.2622 15.5981 7.22707 15.4765C6.79595 14.0017 5.34082 12.8029 3.79518 12.658C3.01171 12.5851 2.29319 12.7563 1.6992 13.3018C1.63214 13.3621 1.58845 13.4456 1.49052 13.5767ZM10.5462 27.5951C10.5568 28.4557 11.0635 29.3067 11.8022 29.6757C13.0786 30.3142 14.3889 30.3724 15.7079 29.8015C16.1901 29.5932 16.5925 29.276 16.8597 28.8141C16.8927 28.757 16.898 28.6851 16.9331 28.5603C16.5318 28.6809 16.1965 28.7855 15.858 28.8838C15.2991 29.0477 14.7318 29.1016 14.1516 29.016C12.9392 28.8363 11.8012 28.4673 10.7995 27.74C10.7388 27.6955 10.6675 27.6628 10.5462 27.5951ZM20.2138 9.62071C19.9903 9.48222 19.8849 9.41138 19.7721 9.349C18.9641 8.89652 18.285 8.31295 17.7868 7.52217C17.1598 6.52841 16.6893 5.47438 16.4349 4.32627C16.4115 4.21527 16.3636 4.1106 16.3104 3.95202C16.2039 4.07571 16.1156 4.15395 16.0581 4.25016C15.6823 4.88025 15.6355 5.57799 15.8058 6.25459C16.1603 7.66489 17.0065 8.72209 18.3286 9.37755C18.8705 9.64713 19.4474 9.76343 20.2138 9.62071ZM17.5388 3.31876C17.5558 3.40334 17.5526 3.42976 17.5633 3.43927C17.6346 3.50482 17.7102 3.5672 17.7847 3.63063C18.8087 4.4933 19.6678 5.48813 20.2373 6.70602C20.546 7.36571 20.8217 8.0402 21.008 8.74747C21.0292 8.82887 21.0942 8.89758 21.1559 9.00224C21.6083 8.48633 21.7276 7.90805 21.6616 7.31285C21.471 5.59385 20.5598 4.35482 19.0046 3.58941C18.5575 3.36951 18.0753 3.26062 17.5388 3.31876ZM10.7069 27.0253C10.7708 27.1215 10.7974 27.2008 10.8538 27.242C11.1253 27.4397 11.3903 27.6501 11.683 27.8108C12.31 28.1565 12.9966 28.351 13.6917 28.5181C14.7285 28.7654 15.6962 28.5381 16.6446 28.1385C16.6947 28.1184 16.7287 28.0624 16.7851 28.0095C16.6255 27.7886 16.3987 27.667 16.1741 27.556C15.5354 27.241 14.8787 26.9587 14.1804 26.798C13.7375 26.6955 13.2872 26.613 12.8263 26.6627C12.5112 26.6954 12.1929 26.7081 11.88 26.7568C11.4978 26.817 11.1018 26.8392 10.7069 27.0253ZM5.93372 1.32383C6.10191 1.46232 6.18917 1.53634 6.27859 1.60611C8.27664 3.15596 9.64665 5.09485 10.0661 7.62471C10.0799 7.704 10.1374 7.77589 10.2172 7.93552C10.3396 7.65536 10.4408 7.46614 10.5068 7.26422C10.6824 6.72611 10.6782 6.17002 10.5792 5.62345C10.3471 4.34002 9.73925 3.25004 8.78014 2.35882C8.35648 1.96449 7.87749 1.6484 7.32822 1.44965C6.91626 1.30059 6.49684 1.20013 5.93372 1.32383ZM30.763 10.8629C30.7342 10.9697 30.7065 11.0246 30.7055 11.0796C30.665 12.269 30.9077 13.3949 31.5209 14.4225C31.8903 15.0409 32.3863 15.5505 33.0048 15.9322C33.1506 16.022 33.3146 16.1616 33.4945 16.0305C33.6435 15.9226 33.5817 15.7419 33.5689 15.5886C33.4827 14.5345 33.1527 13.545 32.7174 12.5904C32.5023 12.1199 32.1713 11.7235 31.7997 11.3619C31.524 11.0923 31.1983 10.9232 30.763 10.8629ZM1.44904 14.2026C1.50439 14.2945 1.5342 14.3675 1.58423 14.4257C2.75836 15.7863 4.2284 16.6743 5.97629 17.093C6.31586 17.1744 6.68524 17.1384 7.04078 17.1395C7.17278 17.1405 7.24728 17.0401 7.26324 16.9058C7.28028 16.7663 7.28774 16.6341 7.16958 16.5231C6.77998 16.1594 6.40531 15.7778 5.95077 15.4881C4.88415 14.8094 3.72279 14.3665 2.48905 14.1117C2.23996 14.0609 1.97594 14.0694 1.72046 14.0736C1.63637 14.0747 1.55442 14.1497 1.44904 14.2026ZM6.91094 17.5909C5.72723 17.575 4.69573 17.1902 3.70682 16.668C2.71471 16.1436 1.87802 15.4289 1.09882 14.5208C1.05517 14.728 0.998742 14.8549 1.00619 14.9786C1.04984 15.7408 1.24252 16.4512 1.75986 17.0485C2.22079 17.5803 2.76045 18.0011 3.4066 18.2844C4.01974 18.554 4.66057 18.6513 5.32481 18.5688C5.89538 18.498 6.38825 18.2654 6.77679 17.8362C6.82576 17.7822 6.84814 17.7072 6.91094 17.5909ZM16.7702 3.5873C16.7702 3.7353 16.7521 3.8516 16.7734 3.96049C17.0044 5.19846 17.4898 6.33388 18.1796 7.38896C18.6022 8.03385 19.1664 8.51804 19.8168 8.91554C19.9339 8.98743 20.0638 9.04346 20.1905 9.09844C20.3267 9.15658 20.4555 9.25492 20.6524 9.2232C20.629 9.0826 20.6173 8.96734 20.5886 8.85739C20.3703 8.03384 20.0499 7.24413 19.6507 6.49458C19.1345 5.52513 18.4149 4.70686 17.5697 4.00277C17.4036 3.86427 17.2088 3.75854 17.0215 3.64859C16.9608 3.61159 16.8767 3.61161 16.7702 3.5873ZM8.99096 8.60791C8.81851 8.42396 8.70034 8.29602 8.57899 8.1681C8.04994 7.60884 7.49105 7.07497 6.99712 6.48611C5.98266 5.27668 5.2663 3.90446 4.85541 2.37893C4.83838 2.31127 4.78622 2.25311 4.72661 2.15162C4.29123 2.86945 4.20927 3.62853 4.35617 4.35693C4.67126 5.92264 5.50687 7.18915 6.8492 8.09834C7.29735 8.40175 7.79126 8.59944 8.33096 8.67556C8.52469 8.70304 8.71739 8.72737 8.99096 8.60791ZM9.51998 8.46095C9.58598 8.37531 9.63176 8.34361 9.62856 8.31612C9.58066 7.86576 9.57427 7.40482 9.46463 6.97032C8.9739 5.03036 7.88068 3.46676 6.34143 2.2013C6.11363 2.01418 5.85387 1.86301 5.59946 1.71289C5.50685 1.65686 5.38442 1.65156 5.27159 1.6209C5.20452 2.13681 5.22795 2.37151 5.43979 2.91279C5.94755 4.2068 6.6118 5.41411 7.55281 6.45228C8.09676 7.0517 8.66522 7.63107 9.22621 8.21569C9.30605 8.30027 9.40396 8.3658 9.51998 8.46095ZM23.0891 21.6272C23.6107 19.3659 23.4275 17.1839 22.7708 15.0314C22.2428 13.3029 21.3848 11.7245 20.4768 10.1472C20.3501 10.1556 20.233 10.1556 20.1181 10.1747C19.3825 10.2973 18.6884 10.1514 18.0402 9.81416C16.6446 9.08469 15.7526 7.95455 15.3758 6.4269C15.2757 6.01883 15.2342 5.61076 15.2597 5.19423C15.2938 4.60431 15.4886 4.07572 15.8675 3.61796C15.9538 3.51329 16.0421 3.40968 16.1433 3.29022C16.0847 3.17498 16.0293 3.07243 15.9804 2.96777C15.8431 2.67175 15.8527 2.5153 16.0059 2.4487C16.1486 2.38738 16.2571 2.4487 16.4243 2.68656C16.4903 2.78171 16.5552 2.87792 16.6255 2.98153C16.7234 2.96038 16.8 2.95087 16.8724 2.92761C17.7144 2.66331 18.5298 2.75634 19.3048 3.1401C20.8877 3.92454 21.8404 5.19741 22.1608 6.92169C22.2513 7.41011 22.2215 7.90593 22.081 8.38906C21.9287 8.9166 21.6594 9.36485 21.2209 9.70844C21.1304 9.77927 21.042 9.85539 20.9281 9.94948C21.9128 11.457 22.6931 13.0439 23.3073 14.8189C23.402 14.5673 23.4584 14.4235 23.5116 14.2787C23.7575 13.6105 24.0471 12.9614 24.4367 12.3599C24.5218 12.2288 24.6155 12.0977 24.7241 11.9856C24.8636 11.8429 25.0988 11.9127 25.1509 12.0998C25.1563 12.1189 25.1616 12.1379 25.1637 12.1569C25.2723 13.2109 25.234 14.2491 24.8125 15.2418C24.6645 15.5917 24.4548 15.9025 24.178 16.1647C24.0343 16.3001 23.8821 16.4269 23.7224 16.5665C24.0705 18.3859 24.0609 20.1662 23.5074 21.9518C23.584 22.0237 23.6586 22.1136 23.7522 22.177C25.6183 23.4551 27.5067 24.7005 29.4739 25.818C29.6048 25.893 29.7453 25.9522 29.9124 26.0337C29.9411 25.8275 29.8145 25.745 29.7389 25.6456C29.1609 24.876 28.7692 24.0186 28.4967 23.1031C28.4573 22.9709 28.4232 22.8356 28.404 22.6993C28.3817 22.5438 28.3625 22.3758 28.5307 22.2753C28.6659 22.196 28.8001 22.2436 28.9235 22.3144C29.0268 22.3736 29.1332 22.4297 29.228 22.5005C29.9657 23.0597 30.5586 23.7427 30.9769 24.5694C31.2302 25.0716 31.3378 25.6118 31.357 26.17C31.3633 26.3666 31.358 26.5622 31.358 26.7314C31.8423 27.0803 33.851 28.0085 34.5579 28.2189C35.0454 27.3541 35.5457 24.2364 35.3797 23.0598C35.2892 23.045 35.1923 23.0196 35.0965 23.0154C34.5323 22.9942 34.0565 22.7595 33.6392 22.4064C33.3539 22.1633 33.0868 21.8947 32.8292 21.622C32.4481 21.2192 32.0829 20.8026 31.7103 20.3914C31.671 20.348 31.6284 20.3058 31.5932 20.2582C31.4101 20.0161 31.5028 19.7803 31.8019 19.7528C32.283 19.7084 32.7493 19.7455 33.1996 19.9548C33.8574 20.2603 34.4439 20.6515 34.9155 21.2065C35.0113 21.3185 35.121 21.4179 35.2849 21.585C35.0763 19.7772 34.4227 18.2241 33.6019 16.6859C33.4689 16.7166 33.339 16.7451 33.2092 16.7769C32.4363 16.9682 31.6976 16.853 31.027 16.4481C29.6495 15.616 29.0097 14.3844 29.0672 12.7796C29.0981 11.9275 29.4058 11.2097 30.0083 10.6092C30.0221 10.5954 30.0274 10.5743 30.0466 10.532C30.0136 10.4601 29.9731 10.3734 29.9337 10.2846C29.8858 10.1757 29.8326 10.07 29.7954 9.95795C29.7389 9.79725 29.7815 9.65557 29.8975 9.59637C30.02 9.53294 30.1307 9.56995 30.2233 9.65558C30.2967 9.72218 30.3617 9.79725 30.4277 9.87125C30.5043 9.959 30.5777 10.051 30.665 10.1525C30.7875 10.1292 30.9024 10.1123 31.0163 10.0859C31.8264 9.89346 32.5939 10.0013 33.3166 10.4146C34.6143 11.1557 35.6149 12.9149 35.1774 14.6889C35.0316 15.2767 34.7527 15.7926 34.2917 16.2007C34.1885 16.2905 34.0895 16.3846 33.9745 16.4904C36.2557 20.3037 36.6081 24.2914 35.1188 28.4863C36.2632 29.0086 37.4288 29.4463 38.587 29.8755C38.719 29.7613 38.6306 29.6799 38.5827 29.6027C38.2602 29.0868 38.1282 28.5117 38.0749 27.9176C38.0302 27.426 38.0111 26.9322 37.9834 26.4385C37.9781 26.3603 37.977 26.281 37.9844 26.2028C37.9983 26.0812 38.0409 25.9681 38.1676 25.9216C38.2932 25.8751 38.4049 25.9184 38.4912 26.0104C39.2416 26.8033 39.7941 27.7061 39.9708 28.795C40.0208 29.1016 39.9857 29.4241 39.9729 29.738C39.9655 29.9135 39.9218 30.0859 39.8974 30.2455C40.0155 30.4379 40.2124 30.4464 40.3753 30.4918C41.6931 30.865 43.012 31.235 44.3363 31.585C45.6041 31.9201 46.8783 32.2256 48.1472 32.5534C48.4143 32.6221 48.6741 32.7246 48.9327 32.8229C48.9711 32.8378 49.0073 32.9244 48.9987 32.9709C48.9913 33.0196 48.9327 33.0957 48.8923 33.0978C48.7358 33.1041 48.5751 33.1073 48.4228 33.0735C47.0284 32.7606 45.6328 32.4508 44.2415 32.1188C43.0057 31.8239 41.7772 31.5004 40.5339 31.1864C40.4945 31.215 40.436 31.2393 40.4009 31.2837C39.0415 32.9604 37.3277 34.1265 35.2583 34.7671C33.966 35.1667 32.6556 35.4881 31.2931 35.5484C31.0578 35.559 30.8226 35.5907 30.5862 35.6129C30.5394 35.7334 30.5 35.8233 30.4713 35.9152C30.2232 36.7229 29.6729 37.2695 28.9235 37.6226C28.024 38.0476 27.0841 38.1184 26.1377 37.8108C25.7439 37.6839 25.3617 37.501 25.0051 37.2907C24.5698 37.0338 24.2653 36.6394 24.0577 36.1764C23.9949 36.0336 23.9353 35.8888 23.8629 35.7207C23.6799 35.7207 23.5031 35.7281 23.3275 35.7175C23.2051 35.7101 23.105 35.5801 23.1231 35.4712C23.1412 35.3644 23.2093 35.2926 23.3168 35.2778C23.4722 35.2556 23.6287 35.245 23.8182 35.227C23.8416 35.1054 23.864 34.9944 23.8863 34.8834C24.0258 34.191 24.3962 33.6497 24.9636 33.2342C26.291 32.2637 28.304 32.3123 29.5792 33.3494C30.005 33.6951 30.3148 34.1212 30.4681 34.6519C30.5064 34.784 30.5426 34.9172 30.5788 35.0473C31.44 35.2428 34.2598 34.7174 35.5521 34.1222C35.567 34.0165 35.4914 33.9954 35.4127 33.9785C34.5856 33.7966 33.8415 33.4329 33.1421 32.9678C33.0431 32.9022 32.9324 32.8441 32.8558 32.7574C32.7983 32.6908 32.745 32.5745 32.7653 32.5016C32.7866 32.4265 32.8909 32.3419 32.9728 32.3229C33.8861 32.1093 34.7878 32.1189 35.6607 32.4973C36.1205 32.695 36.5463 32.9445 36.8902 33.3156C36.9423 33.3716 37.0094 33.4139 37.0615 33.4573C37.9876 33.0259 39.5918 31.6822 39.9687 31.0151C39.4087 30.7572 38.8137 30.605 38.2431 30.3861C37.6683 30.1673 37.0924 29.9516 36.5197 29.7254C35.947 29.4991 35.3775 29.2676 34.8102 29.0287C34.2428 28.7908 33.6786 28.5466 33.1155 28.296C32.5534 28.0455 31.9935 27.7918 31.4378 27.5264C30.8843 27.261 30.3371 26.9798 29.7591 26.6923C29.658 26.7779 29.5431 26.853 29.4558 26.9534C28.9512 27.5338 28.3274 27.9461 27.6248 28.2453C26.1165 28.887 24.5506 29.2877 22.9187 29.4875C21.1272 29.7074 19.3921 29.497 17.6761 28.9969C17.6399 28.9853 17.5984 28.9896 17.526 28.9843C17.4888 29.0234 17.4249 29.0699 17.3844 29.1312C16.8266 29.9749 16.0059 30.4295 15.0415 30.6303C13.7631 30.8946 12.5538 30.6948 11.4308 30.0119C11.1253 29.8269 10.8102 29.6619 10.5706 29.3881C10.1523 28.9113 9.87873 28.3785 9.88086 27.7304C9.88086 27.6131 9.88086 27.4947 9.88086 27.3985C9.63177 27.1543 9.18361 27.2314 9.07184 26.8308C9.37628 26.5189 9.73397 26.7853 10.0267 26.7166C10.0629 26.6923 10.0863 26.6849 10.0948 26.669C10.7622 25.5251 11.8331 25.0346 13.0924 24.8749C13.9759 24.7618 14.8403 24.8876 15.6589 25.2428C15.9655 25.3761 16.2635 25.5473 16.5307 25.7482C17.4196 26.4184 17.873 27.2896 17.6857 28.4546C18.17 28.6312 18.6821 28.6809 19.1802 28.7749C19.6667 28.8659 20.1585 28.9568 20.6513 28.9927C21.1666 29.0287 21.685 29.0075 22.2002 28.9959C22.6888 28.9843 23.171 28.9092 23.6501 28.8172C23.632 28.6354 23.5117 28.6523 23.4244 28.6364C22.4951 28.4694 21.7265 27.9905 21.0133 27.4048C20.9526 27.3551 20.894 27.3002 20.844 27.2399C20.6748 27.0359 20.7333 26.8033 20.9771 26.7198C21.0697 26.6881 21.1687 26.6595 21.2656 26.6521C22.5185 26.5548 23.7373 26.6627 24.8263 27.3541C25.2244 27.6078 25.5799 27.9271 25.9781 28.2337C27.1628 28.0412 28.4732 27.3319 29.2354 26.4375C29.1109 26.3497 28.9938 26.2546 28.8661 26.1795C25.3351 24.1053 21.9724 21.7922 18.7896 19.219C18.5288 19.0086 18.2701 18.7961 17.9944 18.572C17.2737 18.9208 16.5158 19.0857 15.7451 19.1376C14.9968 19.1883 14.2421 19.1481 13.4607 19.1481C13.4277 19.2739 13.3979 19.3828 13.3692 19.4928C13.2383 20.0066 12.9359 20.4252 12.5761 20.7952C12.3302 21.0479 12.0492 21.2826 11.7448 21.4613C11.0784 21.8535 10.3907 22.2098 9.70414 22.5671C9.55085 22.6475 9.37098 22.6897 9.19747 22.7172C9.02928 22.7447 8.87808 22.5808 8.9196 22.4191C8.95685 22.269 9.01114 22.1115 9.10162 21.9899C9.31239 21.7044 9.53807 21.4264 9.77971 21.1663C10.5036 20.3903 11.369 19.7973 12.2951 19.2866C12.4111 19.2232 12.5218 19.1502 12.7071 19.0382C12.0907 18.8352 11.5127 18.8067 10.9773 18.6227C10.4525 18.443 9.92239 18.2707 9.4125 18.0539C8.88557 17.8298 8.37994 17.556 7.84237 17.2938C7.76999 17.4207 7.70931 17.5179 7.65396 17.6194C7.12916 18.5931 6.28502 19.0689 5.20137 19.1608C4.47006 19.2221 3.77492 19.0731 3.11813 18.7612C2.19308 18.3214 1.49905 17.6459 0.97745 16.7673C0.464366 15.9025 0.335563 14.9986 0.551654 14.0102C0.419657 13.914 0.293002 13.8252 0.17165 13.73C0.00665395 13.5979 -0.0423396 13.4393 0.0374971 13.324C0.115205 13.213 0.275951 13.1951 0.471817 13.286C0.575073 13.3346 0.670892 13.398 0.77947 13.4615C0.850791 13.3811 0.906132 13.3262 0.952969 13.2649C1.66724 12.3261 2.65401 11.9687 3.78769 12.0861C5.46746 12.2594 6.71614 13.1274 7.52516 14.6022C7.83386 15.1678 7.97646 15.7799 7.96582 16.4259C7.96475 16.5231 7.96582 16.6204 7.96582 16.7494C8.05736 16.8065 8.15213 16.873 8.25325 16.9259C8.4108 17.0084 8.57896 17.0739 8.73544 17.1595C10.329 18.0349 12.0556 18.4536 13.8503 18.6491C14.9681 18.7697 16.073 18.683 17.1651 18.4229C17.279 18.3954 17.3887 18.3447 17.4973 18.3056C17.5409 18.0909 17.3642 18.0264 17.2578 17.9324C16.0666 16.8836 14.9308 15.7767 13.8418 14.6255C12.3015 12.9974 10.8613 11.2868 9.54769 9.47269C9.50085 9.40926 9.44865 9.34899 9.39649 9.2845C9.33688 9.2771 9.2773 9.25385 9.22195 9.26442C8.40016 9.41772 7.63372 9.23058 6.9269 8.83096C5.33655 7.93023 4.3721 6.55801 3.94311 4.80307C3.89627 4.61172 3.87714 4.41296 3.83988 4.21949C3.64827 3.21833 3.81327 2.2975 4.45622 1.4824C4.49348 1.43695 4.51687 1.38198 4.55945 1.30798C4.44448 1.02993 4.32102 0.74131 4.20606 0.450581C4.16028 0.333233 4.17626 0.216953 4.26568 0.119694C4.41683 -0.0452309 4.64783 -0.0431137 4.7777 0.147182C4.92247 0.35862 5.04062 0.588039 5.19284 0.84494C5.26842 0.831196 5.36315 0.82589 5.45044 0.796288C6.13917 0.563705 6.82044 0.617626 7.49532 0.854439C8.0265 1.03945 8.50342 1.32172 8.93348 1.68011C10.081 2.64005 10.841 3.84102 11.1593 5.301C11.3073 5.98289 11.3168 6.67217 11.1284 7.35406C10.9602 7.96301 10.6505 8.47786 10.1332 8.85951C10.0576 8.91554 9.99052 8.98216 9.89365 9.06568C11.2828 10.8534 12.6943 12.583 14.2357 14.2057C14.3527 14.3284 14.4826 14.4394 14.6647 14.6107C14.6615 14.3231 14.554 14.1529 14.4954 13.9711C14.2421 13.1676 14.1367 12.3525 14.3219 11.5194C14.374 11.29 14.4369 11.0574 14.5316 10.8428C14.6594 10.5521 14.934 10.5362 15.1426 10.7878C15.1554 10.8026 15.1671 10.8196 15.1788 10.8354C15.694 11.6399 16.1273 12.4751 16.2614 13.4403C16.353 14.0979 16.2912 14.7375 16.1241 15.374C16.09 15.5072 16.0496 15.6382 16.0134 15.763C16.0783 16.0611 16.2763 16.2557 16.486 16.4386C17.3089 17.1543 18.1126 17.8932 18.962 18.5741C20.1383 19.516 21.3497 20.4147 22.5493 21.326C22.7005 21.4423 22.8432 21.5881 23.0891 21.6272Z" fill="#DDD2DA"/>
<path d="M85.2852 32.6792C85.2714 32.7288 85.2724 32.8039 85.2394 32.824C84.5315 33.2701 83.7704 33.5725 82.9242 33.6211C82.8379 33.6264 82.723 33.656 82.691 33.5207C83.334 32.8081 84.4592 32.4994 85.2852 32.6792ZM80.4833 26.8731C80.4716 27.7844 80.4333 28.5846 80.0202 29.312C79.9127 29.5023 79.834 29.7338 79.587 29.8343C79.3443 28.8109 79.6732 27.6681 80.4833 26.8731ZM95.2691 15.9047C95.1988 15.8582 95.1286 15.8275 95.0807 15.7768C94.8358 15.5177 94.6442 15.2228 94.5197 14.8876C94.2844 14.2544 94.1993 13.5989 94.2131 12.9276C94.2142 12.899 94.2525 12.8716 94.2749 12.8441C94.5782 13.1063 94.8571 13.655 95.1584 14.5758C95.3691 15.2217 95.3862 15.4194 95.2691 15.9047ZM109.321 21.9857C108.545 21.7319 107.403 21.0986 106.951 20.7001C106.667 20.4485 106.439 20.1525 106.259 19.8216C106.23 19.7687 106.248 19.6905 106.241 19.5721C107.453 20.1482 108.479 20.8555 109.321 21.9857ZM88.2179 26.0992C88.0294 25.0758 88.9545 23.4562 90.0935 22.9022C89.9157 23.6148 89.6336 24.2301 89.2951 24.821C88.9471 25.4268 88.5809 25.8507 88.2179 26.0992ZM83.6991 22.5333C83.7162 22.4667 83.714 22.399 83.746 22.3588C84.0568 21.9761 84.357 21.5807 84.6944 21.2202C85.1202 20.7625 85.6663 20.476 86.2518 20.2688C86.3742 20.2254 86.5073 20.1747 86.6552 20.3058C86.1336 20.9697 85.6216 21.6188 84.9595 22.1305C84.7881 22.2616 84.5944 22.3726 84.3953 22.4561C84.1814 22.5449 83.9535 22.6274 83.6991 22.5333ZM97.5013 27.1416C97.3938 27.2515 97.3491 27.3118 97.2916 27.3562C96.7828 27.7431 96.2186 28.0286 95.5905 28.148C95.0306 28.2559 94.4579 28.3034 93.8905 28.3732C93.8682 28.3753 93.8394 28.333 93.815 28.3108C94.6197 27.298 96.2505 26.9407 97.5013 27.1416ZM104.124 11.346C104.54 12.4582 104.125 14.5631 103.344 15.1953C103.112 14.4944 103.081 13.8051 103.253 13.0989C103.428 12.3757 103.78 11.6526 104.124 11.346ZM102.077 27.4027C102.055 27.3435 102.041 27.3245 102.045 27.3086C102.057 27.2515 102.066 27.1902 102.091 27.1405C102.311 26.7293 102.629 26.4089 103.02 26.1605C103.817 25.6541 104.695 25.4596 105.632 25.5103C106.32 25.5484 106.962 25.727 107.534 26.1214C107.586 26.1594 107.62 26.226 107.687 26.3085C105.236 26.0442 104.495 26.151 102.077 27.4027ZM89.1387 35.9501C89.491 36.0939 89.7242 36.206 89.9679 36.2831C90.2117 36.3614 90.4639 36.4185 90.7173 36.4607C90.9706 36.503 91.2283 36.5305 91.4848 36.5369C91.7414 36.5432 92 36.5274 92.2555 36.4988C92.5099 36.4713 92.7654 36.4269 93.0145 36.3667C93.2636 36.3075 93.5063 36.2186 93.7522 36.1446C93.9917 36.0749 94.1801 35.8793 94.4781 35.8338C94.4238 36.1626 94.2514 36.3741 94.0651 36.5696C93.8075 36.8413 93.5393 37.1109 93.1795 37.2494C92.2087 37.6226 91.2442 37.6194 90.2947 37.1744C89.8551 36.9682 89.4889 36.6732 89.2398 36.2525C89.2047 36.1922 89.194 36.1182 89.1387 35.9501ZM86.5339 16.2789C86.5339 16.2387 86.5264 16.2123 86.536 16.2017C86.6275 16.1024 86.7159 15.9977 86.8181 15.911C87.6569 15.1974 88.1945 14.2988 88.5032 13.2532C88.6479 12.7574 88.7118 12.2531 88.7267 11.7393C88.731 11.5902 88.7086 11.4349 88.7661 11.2583C88.8502 11.3069 88.9098 11.3228 88.9396 11.3608C89.259 11.7816 89.4538 12.2647 89.4559 12.7817C89.4623 14.0673 88.9449 15.1107 87.8666 15.8476C87.4706 16.1193 87.0267 16.2757 86.5339 16.2789ZM94.5622 34.8157C94.3781 34.7227 94.3025 34.6942 94.2376 34.6508C93.6244 34.2396 92.9367 34.0873 92.2097 34.0493C91.2357 33.9996 90.315 34.1962 89.4357 34.6043C89.3388 34.6487 89.2408 34.7555 89.1227 34.6381C89.3047 34.211 89.4293 34.0324 89.7242 33.7776C90.8163 32.8378 92.6898 32.8028 93.8161 33.7025C94.145 33.9658 94.3951 34.284 94.5622 34.8157ZM84.9403 15.5579C84.5699 15.1424 84.4964 15.0124 84.3847 14.6223C83.9472 13.1094 84.8126 11.2985 86.2677 10.6747C86.5626 10.5479 86.8702 10.4728 87.1928 10.4802C87.2843 10.4823 87.3993 10.458 87.4174 10.6219C87.0075 10.8619 86.6776 11.2012 86.3827 11.5786C86.0399 12.0184 85.7717 12.4984 85.579 13.0228C85.2831 13.8178 85.0648 14.6318 84.9403 15.5579ZM94.3898 35.3232C94.0779 35.56 93.7607 35.7228 93.4222 35.8381C92.5599 36.132 91.6732 36.1816 90.7769 36.0643C90.2808 35.9998 89.8157 35.8243 89.3835 35.5727C89.2898 35.5188 89.2206 35.4226 89.1397 35.3454C89.722 34.7809 90.9472 34.4098 92.1065 34.4521C92.9549 34.4838 93.7383 34.7047 94.3898 35.3232ZM117.509 13.5767C116.379 13.545 115.408 13.8801 114.451 14.2586C113.47 14.6477 112.573 15.1847 111.714 15.9628C111.741 15.7313 111.738 15.5981 111.773 15.4765C112.204 14.0017 113.659 12.8029 115.205 12.658C115.988 12.5851 116.707 12.7563 117.301 13.3018C117.368 13.3621 117.412 13.4456 117.509 13.5767ZM108.454 27.5951C108.443 28.4557 107.937 29.3067 107.198 29.6757C105.921 30.3142 104.611 30.3724 103.292 29.8015C102.81 29.5932 102.408 29.276 102.14 28.8141C102.107 28.757 102.102 28.6851 102.067 28.5603C102.468 28.6809 102.804 28.7855 103.142 28.8838C103.701 29.0477 104.268 29.1016 104.848 29.016C106.061 28.8363 107.199 28.4673 108.2 27.74C108.261 27.6955 108.332 27.6628 108.454 27.5951ZM98.7862 9.62071C99.0097 9.48222 99.1151 9.41138 99.2279 9.349C100.036 8.89652 100.715 8.31295 101.213 7.52217C101.84 6.52841 102.311 5.47438 102.565 4.32627C102.589 4.21527 102.636 4.1106 102.69 3.95202C102.796 4.07571 102.884 4.15395 102.942 4.25016C103.318 4.88025 103.365 5.57799 103.194 6.25459C102.84 7.66489 101.993 8.72209 100.671 9.37755C100.13 9.64713 99.5526 9.76343 98.7862 9.62071ZM101.461 3.31876C101.444 3.40334 101.447 3.42976 101.437 3.43927C101.365 3.50482 101.29 3.5672 101.215 3.63063C100.191 4.4933 99.3322 5.48813 98.7627 6.70602C98.454 7.36571 98.1783 8.0402 97.992 8.74747C97.9708 8.82887 97.9058 8.89758 97.8441 9.00224C97.3917 8.48633 97.2724 7.90805 97.3384 7.31285C97.529 5.59385 98.4402 4.35482 99.9954 3.58941C100.442 3.36951 100.925 3.26062 101.461 3.31876ZM108.293 27.0253C108.229 27.1215 108.203 27.2008 108.146 27.242C107.875 27.4397 107.61 27.6501 107.317 27.8108C106.69 28.1565 106.003 28.351 105.308 28.5181C104.271 28.7654 103.304 28.5381 102.355 28.1385C102.305 28.1184 102.271 28.0624 102.215 28.0095C102.375 27.7886 102.601 27.667 102.826 27.556C103.465 27.241 104.121 26.9587 104.82 26.798C105.262 26.6955 105.713 26.613 106.174 26.6627C106.489 26.6954 106.807 26.7081 107.12 26.7568C107.502 26.817 107.898 26.8392 108.293 27.0253ZM113.066 1.32383C112.898 1.46232 112.811 1.53634 112.721 1.60611C110.723 3.15596 109.353 5.09485 108.934 7.62471C108.92 7.704 108.863 7.77589 108.783 7.93552C108.66 7.65536 108.559 7.46614 108.493 7.26422C108.318 6.72611 108.322 6.17002 108.421 5.62345C108.653 4.34002 109.261 3.25004 110.22 2.35882C110.644 1.96449 111.123 1.6484 111.672 1.44965C112.084 1.30059 112.503 1.20013 113.066 1.32383ZM88.237 10.8629C88.2658 10.9697 88.2935 11.0246 88.2945 11.0796C88.335 12.269 88.0923 13.3949 87.4791 14.4225C87.1097 15.0409 86.6137 15.5505 85.9952 15.9322C85.8494 16.022 85.6854 16.1616 85.5055 16.0305C85.3565 15.9226 85.4183 15.7419 85.4311 15.5886C85.5173 14.5345 85.8473 13.545 86.2826 12.5904C86.4977 12.1199 86.8287 11.7235 87.2003 11.3619C87.476 11.0923 87.8017 10.9232 88.237 10.8629ZM117.551 14.2026C117.496 14.2945 117.466 14.3675 117.416 14.4257C116.242 15.7863 114.772 16.6743 113.024 17.093C112.684 17.1744 112.315 17.1384 111.959 17.1395C111.827 17.1405 111.753 17.0401 111.737 16.9058C111.72 16.7663 111.712 16.6341 111.83 16.5231C112.22 16.1594 112.595 15.7778 113.049 15.4881C114.116 14.8094 115.277 14.3665 116.511 14.1117C116.76 14.0609 117.024 14.0694 117.28 14.0736C117.364 14.0747 117.446 14.1497 117.551 14.2026ZM112.089 17.5909C113.273 17.575 114.304 17.1902 115.293 16.668C116.285 16.1436 117.122 15.4289 117.901 14.5208C117.945 14.728 118.001 14.8549 117.994 14.9786C117.95 15.7408 117.757 16.4512 117.24 17.0485C116.779 17.5803 116.24 18.0011 115.593 18.2844C114.98 18.554 114.339 18.6513 113.675 18.5688C113.105 18.498 112.612 18.2654 112.223 17.8362C112.174 17.7822 112.152 17.7072 112.089 17.5909ZM102.23 3.5873C102.23 3.7353 102.248 3.8516 102.227 3.96049C101.996 5.19846 101.51 6.33388 100.82 7.38896C100.398 8.03385 99.8336 8.51804 99.1832 8.91554C99.0661 8.98743 98.9362 9.04346 98.8095 9.09844C98.6733 9.15658 98.5445 9.25492 98.3476 9.2232C98.371 9.0826 98.3827 8.96734 98.4114 8.85739C98.6297 8.03384 98.9501 7.24413 99.3493 6.49458C99.8655 5.52513 100.585 4.70686 101.43 4.00277C101.596 3.86427 101.791 3.75854 101.979 3.64859C102.039 3.61159 102.123 3.61161 102.23 3.5873ZM110.009 8.60791C110.181 8.42396 110.3 8.29602 110.421 8.1681C110.95 7.60884 111.509 7.07497 112.003 6.48611C113.017 5.27668 113.734 3.90446 114.145 2.37893C114.162 2.31127 114.214 2.25311 114.273 2.15162C114.709 2.86945 114.791 3.62853 114.644 4.35693C114.329 5.92264 113.493 7.18915 112.151 8.09834C111.703 8.40175 111.209 8.59944 110.669 8.67556C110.475 8.70304 110.283 8.72737 110.009 8.60791ZM109.48 8.46095C109.414 8.37531 109.368 8.34361 109.371 8.31612C109.419 7.86576 109.426 7.40482 109.535 6.97032C110.026 5.03036 111.119 3.46676 112.659 2.2013C112.886 2.01418 113.146 1.86301 113.401 1.71289C113.493 1.65686 113.616 1.65156 113.728 1.6209C113.795 2.13681 113.772 2.37151 113.56 2.91279C113.052 4.2068 112.388 5.41411 111.447 6.45228C110.903 7.0517 110.335 7.63107 109.774 8.21569C109.694 8.30027 109.596 8.3658 109.48 8.46095ZM95.9109 21.6272C95.3893 19.3659 95.5725 17.1839 96.2292 15.0314C96.7572 13.3029 97.6152 11.7245 98.5232 10.1472C98.6499 10.1556 98.767 10.1556 98.8819 10.1747C99.6175 10.2973 100.312 10.1514 100.96 9.81416C102.355 9.08469 103.247 7.95455 103.624 6.4269C103.724 6.01883 103.766 5.61076 103.74 5.19423C103.706 4.60431 103.511 4.07572 103.132 3.61796C103.046 3.51329 102.958 3.40968 102.857 3.29022C102.915 3.17498 102.971 3.07243 103.02 2.96777C103.157 2.67175 103.147 2.5153 102.994 2.4487C102.851 2.38738 102.743 2.4487 102.576 2.68656C102.51 2.78171 102.445 2.87792 102.375 2.98153C102.277 2.96038 102.2 2.95087 102.128 2.92761C101.286 2.66331 100.47 2.75634 99.6952 3.1401C98.1123 3.92454 97.1596 5.19741 96.8392 6.92169C96.7487 7.41011 96.7785 7.90593 96.919 8.38906C97.0713 8.9166 97.3406 9.36485 97.7791 9.70844C97.8696 9.77927 97.958 9.85539 98.0719 9.94948C97.0872 11.457 96.3069 13.0439 95.6927 14.8189C95.598 14.5673 95.5416 14.4235 95.4884 14.2787C95.2425 13.6105 94.9529 12.9614 94.5633 12.3599C94.4782 12.2288 94.3845 12.0977 94.2759 11.9856C94.1364 11.8429 93.9012 11.9127 93.8491 12.0998C93.8437 12.1189 93.8384 12.1379 93.8363 12.1569C93.7277 13.2109 93.766 14.2491 94.1875 15.2418C94.3355 15.5917 94.5452 15.9025 94.822 16.1647C94.9657 16.3001 95.1179 16.4269 95.2776 16.5665C94.9295 18.3859 94.9391 20.1662 95.4926 21.9518C95.416 22.0237 95.3414 22.1136 95.2478 22.177C93.3817 23.4551 91.4933 24.7005 89.5261 25.818C89.3952 25.893 89.2547 25.9522 89.0876 26.0337C89.0589 25.8275 89.1855 25.745 89.2611 25.6456C89.8391 24.876 90.2308 24.0186 90.5033 23.1031C90.5427 22.9709 90.5768 22.8356 90.596 22.6993C90.6183 22.5438 90.6375 22.3758 90.4693 22.2753C90.3341 22.196 90.1999 22.2436 90.0765 22.3144C89.9732 22.3736 89.8668 22.4297 89.772 22.5005C89.0343 23.0597 88.4414 23.7427 88.0231 24.5694C87.7698 25.0716 87.6622 25.6118 87.643 26.17C87.6367 26.3666 87.642 26.5622 87.642 26.7314C87.1577 27.0803 85.149 28.0085 84.4421 28.2189C83.9546 27.3541 83.4543 24.2364 83.6203 23.0598C83.7108 23.045 83.8077 23.0196 83.9035 23.0154C84.4677 22.9942 84.9435 22.7595 85.3608 22.4064C85.6461 22.1633 85.9132 21.8947 86.1708 21.622C86.5519 21.2192 86.9171 20.8026 87.2897 20.3914C87.329 20.348 87.3716 20.3058 87.4068 20.2582C87.5899 20.0161 87.4972 19.7803 87.1981 19.7528C86.717 19.7084 86.2507 19.7455 85.8004 19.9548C85.1426 20.2603 84.5561 20.6515 84.0845 21.2065C83.9887 21.3185 83.879 21.4179 83.7151 21.585C83.9237 19.7772 84.5773 18.2241 85.3981 16.6859C85.5311 16.7166 85.661 16.7451 85.7908 16.7769C86.5637 16.9682 87.3024 16.853 87.973 16.4481C89.3505 15.616 89.9903 14.3844 89.9328 12.7796C89.9019 11.9275 89.5942 11.2097 88.9917 10.6092C88.9779 10.5954 88.9726 10.5743 88.9534 10.532C88.9864 10.4601 89.0269 10.3734 89.0663 10.2846C89.1142 10.1757 89.1674 10.07 89.2046 9.95795C89.2611 9.79725 89.2185 9.65557 89.1025 9.59637C88.98 9.53294 88.8693 9.56995 88.7767 9.65558C88.7033 9.72218 88.6383 9.79725 88.5723 9.87125C88.4957 9.959 88.4223 10.051 88.335 10.1525C88.2125 10.1292 88.0976 10.1123 87.9837 10.0859C87.1736 9.89346 86.4061 10.0013 85.6834 10.4146C84.3857 11.1557 83.3851 12.9149 83.8226 14.6889C83.9684 15.2767 84.2473 15.7926 84.7083 16.2007C84.8115 16.2905 84.9105 16.3846 85.0255 16.4904C82.7443 20.3037 82.3919 24.2914 83.8812 28.4863C82.7368 29.0086 81.5712 29.4463 80.413 29.8755C80.281 29.7613 80.3694 29.6799 80.4173 29.6027C80.7398 29.0868 80.8718 28.5117 80.9251 27.9176C80.9698 27.426 80.9889 26.9322 81.0166 26.4385C81.0219 26.3603 81.023 26.281 81.0156 26.2028C81.0017 26.0812 80.9591 25.9681 80.8324 25.9216C80.7068 25.8751 80.5951 25.9184 80.5088 26.0104C79.7584 26.8033 79.2059 27.7061 79.0292 28.795C78.9792 29.1016 79.0143 29.4241 79.0271 29.738C79.0345 29.9135 79.0782 30.0859 79.1026 30.2455C78.9845 30.4379 78.7876 30.4464 78.6247 30.4918C77.3069 30.865 75.988 31.235 74.6637 31.585C73.3959 31.9201 72.1217 32.2256 70.8528 32.5534C70.5857 32.6221 70.3259 32.7246 70.0673 32.8229C70.0289 32.8378 69.9927 32.9244 70.0013 32.9709C70.0087 33.0196 70.0673 33.0957 70.1077 33.0978C70.2642 33.1041 70.4249 33.1073 70.5772 33.0735C71.9716 32.7606 73.3672 32.4508 74.7585 32.1188C75.9943 31.8239 77.2228 31.5004 78.4661 31.1864C78.5055 31.215 78.564 31.2393 78.5991 31.2837C79.9585 32.9604 81.6723 34.1265 83.7417 34.7671C85.034 35.1667 86.3444 35.4881 87.7069 35.5484C87.9422 35.559 88.1774 35.5907 88.4138 35.6129C88.4606 35.7334 88.5 35.8233 88.5287 35.9152C88.7768 36.7229 89.3271 37.2695 90.0765 37.6226C90.976 38.0476 91.9159 38.1184 92.8623 37.8108C93.2561 37.6839 93.6383 37.501 93.9949 37.2907C94.4302 37.0338 94.7347 36.6394 94.9423 36.1764C95.0051 36.0336 95.0647 35.8888 95.1371 35.7207C95.3201 35.7207 95.4969 35.7281 95.6725 35.7175C95.7949 35.7101 95.895 35.5801 95.8769 35.4712C95.8588 35.3644 95.7907 35.2926 95.6832 35.2778C95.5278 35.2556 95.3713 35.245 95.1818 35.227C95.1584 35.1054 95.136 34.9944 95.1137 34.8834C94.9742 34.191 94.6038 33.6497 94.0364 33.2342C92.709 32.2637 90.696 32.3123 89.4208 33.3494C88.995 33.6951 88.6852 34.1212 88.5319 34.6519C88.4936 34.784 88.4574 34.9172 88.4212 35.0473C87.56 35.2428 84.7402 34.7174 83.4479 34.1222C83.433 34.0165 83.5086 33.9954 83.5873 33.9785C84.4144 33.7966 85.1585 33.4329 85.8579 32.9678C85.9569 32.9022 86.0676 32.8441 86.1442 32.7574C86.2017 32.6908 86.255 32.5745 86.2347 32.5016C86.2134 32.4265 86.1091 32.3419 86.0272 32.3229C85.1139 32.1093 84.2122 32.1189 83.3393 32.4973C82.8795 32.695 82.4537 32.9445 82.1098 33.3156C82.0577 33.3716 81.9906 33.4139 81.9385 33.4573C81.0124 33.0259 79.4082 31.6822 79.0313 31.0151C79.5913 30.7572 80.1863 30.605 80.7569 30.3861C81.3317 30.1673 81.9076 29.9516 82.4803 29.7254C83.053 29.4991 83.6225 29.2676 84.1898 29.0287C84.7572 28.7908 85.3214 28.5466 85.8845 28.296C86.4466 28.0455 87.0065 27.7918 87.5622 27.5264C88.1157 27.261 88.6629 26.9798 89.2409 26.6923C89.342 26.7779 89.4569 26.853 89.5442 26.9534C90.0488 27.5338 90.6726 27.9461 91.3752 28.2453C92.8835 28.887 94.4494 29.2877 96.0813 29.4875C97.8728 29.7074 99.6079 29.497 101.324 28.9969C101.36 28.9853 101.402 28.9896 101.474 28.9843C101.511 29.0234 101.575 29.0699 101.616 29.1312C102.173 29.9749 102.994 30.4295 103.958 30.6303C105.237 30.8946 106.446 30.6948 107.569 30.0119C107.875 29.8269 108.19 29.6619 108.429 29.3881C108.848 28.9113 109.121 28.3785 109.119 27.7304C109.119 27.6131 109.119 27.4947 109.119 27.3985C109.368 27.1543 109.816 27.2314 109.928 26.8308C109.624 26.5189 109.266 26.7853 108.973 26.7166C108.937 26.6923 108.914 26.6849 108.905 26.669C108.238 25.5251 107.167 25.0346 105.908 24.8749C105.024 24.7618 104.16 24.8876 103.341 25.2428C103.035 25.3761 102.736 25.5473 102.469 25.7482C101.58 26.4184 101.127 27.2896 101.314 28.4546C100.83 28.6312 100.318 28.6809 99.8198 28.7749C99.3333 28.8659 98.8415 28.9568 98.3487 28.9927C97.8334 29.0287 97.315 29.0075 96.7998 28.9959C96.3112 28.9843 95.829 28.9092 95.3499 28.8172C95.368 28.6354 95.4883 28.6523 95.5756 28.6364C96.5049 28.4694 97.2735 27.9905 97.9867 27.4048C98.0474 27.3551 98.106 27.3002 98.156 27.2399C98.3252 27.0359 98.2667 26.8033 98.0229 26.7198C97.9303 26.6881 97.8313 26.6595 97.7344 26.6521C96.4815 26.5548 95.2627 26.6627 94.1737 27.3541C93.7756 27.6078 93.4201 27.9271 93.0219 28.2337C91.8372 28.0412 90.5268 27.3319 89.7646 26.4375C89.8891 26.3497 90.0062 26.2546 90.1339 26.1795C93.6649 24.1053 97.0276 21.7922 100.21 19.219C100.471 19.0086 100.73 18.7961 101.006 18.572C101.726 18.9208 102.484 19.0857 103.255 19.1376C104.003 19.1883 104.758 19.1481 105.539 19.1481C105.572 19.2739 105.602 19.3828 105.631 19.4928C105.762 20.0066 106.064 20.4252 106.424 20.7952C106.67 21.0479 106.951 21.2826 107.255 21.4613C107.922 21.8535 108.609 22.2098 109.296 22.5671C109.449 22.6475 109.629 22.6897 109.803 22.7172C109.971 22.7447 110.122 22.5808 110.08 22.4191C110.043 22.269 109.989 22.1115 109.898 21.9899C109.688 21.7044 109.462 21.4264 109.22 21.1663C108.496 20.3903 107.631 19.7973 106.705 19.2866C106.589 19.2232 106.478 19.1502 106.293 19.0382C106.909 18.8352 107.487 18.8067 108.023 18.6227C108.548 18.443 109.078 18.2707 109.588 18.0539C110.114 17.8298 110.62 17.556 111.158 17.2938C111.23 17.4207 111.291 17.5179 111.346 17.6194C111.871 18.5931 112.715 19.0689 113.799 19.1608C114.53 19.2221 115.225 19.0731 115.882 18.7612C116.807 18.3214 117.501 17.6459 118.023 16.7673C118.536 15.9025 118.664 14.9986 118.448 14.0102C118.58 13.914 118.707 13.8252 118.828 13.73C118.993 13.5979 119.042 13.4393 118.963 13.324C118.885 13.213 118.724 13.1951 118.528 13.286C118.425 13.3346 118.329 13.398 118.221 13.4615C118.149 13.3811 118.094 13.3262 118.047 13.2649C117.333 12.3261 116.346 11.9687 115.212 12.0861C113.533 12.2594 112.284 13.1274 111.475 14.6022C111.166 15.1678 111.024 15.7799 111.034 16.4259C111.035 16.5231 111.034 16.6204 111.034 16.7494C110.943 16.8065 110.848 16.873 110.747 16.9259C110.589 17.0084 110.421 17.0739 110.265 17.1595C108.671 18.0349 106.944 18.4536 105.15 18.6491C104.032 18.7697 102.927 18.683 101.835 18.4229C101.721 18.3954 101.611 18.3447 101.503 18.3056C101.459 18.0909 101.636 18.0264 101.742 17.9324C102.933 16.8836 104.069 15.7767 105.158 14.6255C106.698 12.9974 108.139 11.2868 109.452 9.47269C109.499 9.40926 109.551 9.34899 109.604 9.2845C109.663 9.2771 109.723 9.25385 109.778 9.26442C110.6 9.41772 111.366 9.23058 112.073 8.83096C113.663 7.93023 114.628 6.55801 115.057 4.80307C115.104 4.61172 115.123 4.41296 115.16 4.21949C115.352 3.21833 115.187 2.2975 114.544 1.4824C114.507 1.43695 114.483 1.38198 114.441 1.30798C114.556 1.02993 114.679 0.74131 114.794 0.450581C114.84 0.333233 114.824 0.216953 114.734 0.119694C114.583 -0.0452309 114.352 -0.0431137 114.222 0.147182C114.078 0.35862 113.959 0.588039 113.807 0.84494C113.732 0.831196 113.637 0.82589 113.55 0.796288C112.861 0.563705 112.18 0.617626 111.505 0.854439C110.973 1.03945 110.497 1.32172 110.067 1.68011C108.919 2.64005 108.159 3.84102 107.841 5.301C107.693 5.98289 107.683 6.67217 107.872 7.35406C108.04 7.96301 108.349 8.47786 108.867 8.85951C108.942 8.91554 109.009 8.98216 109.106 9.06568C107.717 10.8534 106.306 12.583 104.764 14.2057C104.647 14.3284 104.517 14.4394 104.335 14.6107C104.339 14.3231 104.446 14.1529 104.505 13.9711C104.758 13.1676 104.863 12.3525 104.678 11.5194C104.626 11.29 104.563 11.0574 104.468 10.8428C104.341 10.5521 104.066 10.5362 103.857 10.7878C103.845 10.8026 103.833 10.8196 103.821 10.8354C103.306 11.6399 102.873 12.4751 102.739 13.4403C102.647 14.0979 102.709 14.7375 102.876 15.374C102.91 15.5072 102.95 15.6382 102.987 15.763C102.922 16.0611 102.724 16.2557 102.514 16.4386C101.691 17.1543 100.887 17.8932 100.038 18.5741C98.8617 19.516 97.6503 20.4147 96.4507 21.326C96.2995 21.4423 96.1568 21.5881 95.9109 21.6272Z" fill="#DDD2DA"/>
</svg>
