<svg width="62" height="49" viewBox="0 0 62 49" fill="none" xmlns="http://www.w3.org/2000/svg">
<path d="M42.2646 41.9112C42.2819 41.9738 42.2806 42.0685 42.3219 42.0939C43.2086 42.6565 44.1619 43.0378 45.2219 43.0992C45.3299 43.1058 45.4739 43.1432 45.5139 42.9725C44.7086 42.0738 43.2992 41.6845 42.2646 41.9112ZM48.2792 34.5885C48.2939 35.7379 48.3419 36.7472 48.8592 37.6645C48.9939 37.9045 49.0925 38.1965 49.4019 38.3232C49.7059 37.0325 49.2939 35.5912 48.2792 34.5885ZM29.7592 20.7552C29.8472 20.6965 29.9352 20.6579 29.9952 20.5939C30.3019 20.2672 30.5419 19.8952 30.6979 19.4725C30.9926 18.6738 31.0992 17.8472 31.0819 17.0005C31.0805 16.9645 31.0325 16.9299 31.0045 16.8952C30.6245 17.2259 30.2752 17.9179 29.8979 19.0792C29.6339 19.8939 29.6126 20.1432 29.7592 20.7552ZM12.1579 28.4245C13.1299 28.1045 14.5606 27.3058 15.1273 26.8032C15.4833 26.4858 15.7686 26.1125 15.9939 25.6952C16.0299 25.6285 16.0072 25.5299 16.0166 25.3805C14.4979 26.1072 13.2126 26.9992 12.1579 28.4245ZM38.5913 33.6125C38.8273 32.3218 37.6686 30.2792 36.2419 29.5805C36.4646 30.4792 36.8179 31.2552 37.2419 32.0005C37.6779 32.7645 38.1366 33.2992 38.5913 33.6125ZM44.2512 29.1152C44.2299 29.0312 44.2326 28.9459 44.1926 28.8952C43.8032 28.4125 43.4272 27.9139 43.0045 27.4592C42.4712 26.8819 41.7872 26.5205 41.0539 26.2592C40.9006 26.2045 40.7339 26.1405 40.5485 26.3058C41.2019 27.1432 41.8432 27.9618 42.6726 28.6072C42.8872 28.7725 43.1299 28.9125 43.3792 29.0179C43.6472 29.1299 43.9325 29.2339 44.2512 29.1152ZM26.9633 34.9272C27.0979 35.0659 27.1539 35.1418 27.2259 35.1978C27.8632 35.6858 28.5699 36.0459 29.3566 36.1965C30.0579 36.3325 30.7752 36.3925 31.4859 36.4805C31.5139 36.4832 31.5499 36.4298 31.5806 36.4018C30.5726 35.1245 28.5299 34.6739 26.9633 34.9272ZM18.6685 15.0058C18.1472 16.4085 18.6672 19.0632 19.6446 19.8605C19.9352 18.9765 19.9739 18.1072 19.7592 17.2165C19.5392 16.3045 19.0992 15.3925 18.6685 15.0058ZM21.2325 35.2565C21.2592 35.1819 21.2766 35.1578 21.2726 35.1378C21.2566 35.0658 21.2459 34.9885 21.2139 34.9259C20.9392 34.4072 20.5405 34.0032 20.0512 33.6899C19.0525 33.0512 17.9525 32.8058 16.7792 32.8698C15.9179 32.9178 15.1126 33.1432 14.3966 33.6405C14.3313 33.6885 14.2885 33.7725 14.2045 33.8765C17.2752 33.5432 18.2032 33.6779 21.2325 35.2565ZM37.4379 46.0365C36.9965 46.2178 36.7045 46.3592 36.3992 46.4565C36.0939 46.5552 35.7779 46.6272 35.4606 46.6805C35.1433 46.7339 34.8205 46.7685 34.4992 46.7765C34.1779 46.7845 33.8539 46.7645 33.5339 46.7285C33.2152 46.6939 32.8952 46.6379 32.5832 46.5619C32.2712 46.4872 31.9672 46.3752 31.6592 46.2819C31.3592 46.1939 31.1232 45.9472 30.7499 45.8899C30.8179 46.3045 31.0339 46.5712 31.2672 46.8179C31.5899 47.1605 31.9259 47.5005 32.3765 47.6752C33.5925 48.1458 34.8006 48.1419 35.9899 47.5805C36.5406 47.3205 36.9992 46.9485 37.3112 46.4179C37.3552 46.3419 37.3685 46.2485 37.4379 46.0365ZM40.7006 21.2272C40.7006 21.1765 40.7099 21.1432 40.6979 21.1299C40.5832 21.0045 40.4726 20.8725 40.3446 20.7632C39.2939 19.8632 38.6206 18.7298 38.2339 17.4112C38.0526 16.7858 37.9725 16.1498 37.9539 15.5018C37.9486 15.3138 37.9765 15.1179 37.9045 14.8952C37.7992 14.9565 37.7246 14.9765 37.6872 15.0245C37.2872 15.5552 37.0432 16.1645 37.0405 16.8165C37.0325 18.4379 37.6806 19.7539 39.0312 20.6832C39.5272 21.0259 40.0832 21.2232 40.7006 21.2272ZM30.6446 44.6058C30.8752 44.4885 30.9699 44.4525 31.0512 44.3978C31.8192 43.8792 32.6806 43.6872 33.5913 43.6392C34.8113 43.5765 35.9645 43.8245 37.0659 44.3392C37.1872 44.3952 37.3099 44.5299 37.4579 44.3819C37.2299 43.8432 37.0739 43.6179 36.7045 43.2965C35.3365 42.1112 32.9899 42.0672 31.5792 43.2018C31.1672 43.5338 30.8539 43.9352 30.6446 44.6058ZM42.6966 20.3179C43.1606 19.7939 43.2526 19.6298 43.3926 19.1378C43.9406 17.2298 42.8566 14.9459 41.0339 14.1592C40.6646 13.9992 40.2792 13.9045 39.8752 13.9138C39.7606 13.9165 39.6166 13.8859 39.5939 14.0925C40.1073 14.3952 40.5206 14.8232 40.8899 15.2992C41.3192 15.8538 41.6553 16.4592 41.8966 17.1205C42.2673 18.1232 42.5406 19.1499 42.6966 20.3179ZM30.8606 45.2459C31.2513 45.5445 31.6486 45.7499 32.0726 45.8952C33.1526 46.2659 34.2632 46.3285 35.3859 46.1805C36.0072 46.0992 36.5899 45.8779 37.1312 45.5605C37.2486 45.4925 37.3352 45.3712 37.4366 45.2738C36.7072 44.5618 35.1726 44.0939 33.7205 44.1472C32.6579 44.1872 31.6766 44.4659 30.8606 45.2459ZM1.90187 17.8192C3.31787 17.7792 4.53386 18.2019 5.73253 18.6792C6.96186 19.1698 8.08459 19.8472 9.16059 20.8285C9.12726 20.5365 9.13122 20.3685 9.08722 20.2152C8.54722 18.3552 6.72458 16.8432 4.78858 16.6605C3.80725 16.5685 2.90726 16.7845 2.16326 17.4725C2.07926 17.5485 2.02453 17.6539 1.90187 17.8192ZM13.2446 35.4992C13.2579 36.5845 13.8925 37.6579 14.8179 38.1232C16.4165 38.9285 18.0579 39.0019 19.7099 38.2819C20.3139 38.0192 20.8179 37.6192 21.1526 37.0365C21.1939 36.9645 21.2006 36.8739 21.2446 36.7165C20.7419 36.8685 20.3219 37.0005 19.8979 37.1245C19.1979 37.3312 18.4873 37.3992 17.7606 37.2912C16.2419 37.0645 14.8166 36.5992 13.5619 35.6819C13.4859 35.6259 13.3966 35.5845 13.2446 35.4992ZM25.3539 12.8299C25.0739 12.6552 24.9419 12.5659 24.8006 12.4872C23.7886 11.9165 22.9379 11.1805 22.3139 10.1832C21.5286 8.92985 20.9392 7.60052 20.6206 6.15252C20.5912 6.01252 20.5312 5.88052 20.4646 5.68052C20.3312 5.83651 20.2205 5.93519 20.1485 6.05653C19.6779 6.85119 19.6192 7.73119 19.8325 8.58452C20.2765 10.3632 21.3366 11.6965 22.9926 12.5232C23.6712 12.8632 24.3939 13.0099 25.3539 12.8299ZM22.0032 4.88185C22.0246 4.98852 22.0206 5.02184 22.0339 5.03384C22.1232 5.1165 22.2179 5.19518 22.3112 5.27518C23.5939 6.36318 24.6699 7.61786 25.3832 9.15385C25.7699 9.98586 26.1152 10.8365 26.3485 11.7285C26.3752 11.8312 26.4566 11.9179 26.5339 12.0499C27.1006 11.3992 27.2499 10.6699 27.1672 9.91919C26.9286 7.75119 25.7872 6.18853 23.8392 5.22319C23.2792 4.94586 22.6752 4.80852 22.0032 4.88185ZM13.4459 34.7805C13.5259 34.9019 13.5593 35.0019 13.6299 35.0539C13.9699 35.3032 14.3019 35.5685 14.6685 35.7712C15.4539 36.2072 16.3139 36.4525 17.1845 36.6632C18.4832 36.9752 19.6952 36.6885 20.8832 36.1845C20.9459 36.1592 20.9886 36.0885 21.0592 36.0219C20.8592 35.7432 20.5753 35.5899 20.2939 35.4499C19.4939 35.0525 18.6713 34.6965 17.7966 34.4939C17.2419 34.3645 16.6779 34.2605 16.1006 34.3232C15.7059 34.3645 15.3072 34.3805 14.9152 34.4418C14.4365 34.5178 13.9405 34.5459 13.4459 34.7805ZM7.46723 2.36583C7.6779 2.5405 7.7872 2.63386 7.8992 2.72186C10.4019 4.67652 12.1179 7.12185 12.6432 10.3125C12.6605 10.4125 12.7325 10.5032 12.8325 10.7045C12.9859 10.3512 13.1126 10.1125 13.1952 9.85786C13.4152 9.17919 13.4099 8.47786 13.2859 7.78852C12.9952 6.16986 12.2339 4.79517 11.0325 3.67117C10.5019 3.17384 9.90191 2.77519 9.21391 2.52452C8.69791 2.33652 8.17256 2.20984 7.46723 2.36583ZM38.5672 14.3965C38.5312 14.5312 38.4966 14.6005 38.4952 14.6698C38.4446 16.1698 38.7486 17.5899 39.5166 18.8859C39.9792 19.6659 40.6006 20.3085 41.3752 20.7899C41.5579 20.9032 41.7633 21.0792 41.9886 20.9139C42.1753 20.7779 42.0979 20.5499 42.0819 20.3565C41.9739 19.0272 41.5605 17.7792 41.0152 16.5752C40.7459 15.9818 40.3312 15.4819 39.8659 15.0259C39.5205 14.6859 39.1126 14.4725 38.5672 14.3965ZM1.84991 18.6085C1.91925 18.7245 1.95658 18.8165 2.01925 18.8899C3.48992 20.6059 5.33122 21.7259 7.52055 22.2539C7.94588 22.3565 8.40855 22.3112 8.85388 22.3125C9.01922 22.3139 9.11253 22.1872 9.13253 22.0179C9.15386 21.8419 9.16321 21.6752 9.01521 21.5352C8.52721 21.0765 8.05792 20.5952 7.48858 20.2299C6.15258 19.3739 4.69792 18.8152 3.15258 18.4939C2.84058 18.4299 2.50989 18.4405 2.18989 18.4459C2.08455 18.4472 1.98191 18.5418 1.84991 18.6085ZM8.69125 22.8819C7.20859 22.8619 5.91657 22.3765 4.67791 21.7179C3.43524 21.0565 2.38724 20.1552 1.41124 19.0098C1.35657 19.2712 1.28589 19.4312 1.29523 19.5872C1.34989 20.5485 1.59124 21.4445 2.23924 22.1978C2.81657 22.8685 3.49253 23.3992 4.30187 23.7565C5.06987 24.0965 5.87254 24.2192 6.70454 24.1152C7.4192 24.0259 8.03655 23.7325 8.52322 23.1912C8.58455 23.1232 8.61259 23.0285 8.69125 22.8819ZM21.0405 5.22052C21.0405 5.40719 21.0179 5.55386 21.0446 5.69119C21.3339 7.25253 21.9419 8.68452 22.8059 10.0152C23.3352 10.8285 24.0419 11.4392 24.8566 11.9405C25.0032 12.0312 25.1659 12.1018 25.3246 12.1712C25.4953 12.2445 25.6566 12.3685 25.9032 12.3285C25.8739 12.1512 25.8592 12.0058 25.8232 11.8672C25.5499 10.8285 25.1485 9.83252 24.6485 8.88719C24.0019 7.66452 23.1006 6.63251 22.0419 5.74451C21.8339 5.56985 21.5899 5.4365 21.3552 5.29783C21.2792 5.25117 21.1739 5.25119 21.0405 5.22052ZM11.2966 11.5525C11.0806 11.3205 10.9326 11.1592 10.7806 10.9978C10.1179 10.2925 9.41786 9.61918 8.7992 8.87651C7.52853 7.35118 6.63125 5.62053 6.11658 3.69653C6.09525 3.6112 6.02992 3.53785 5.95525 3.40984C5.40992 4.31518 5.30725 5.27253 5.49125 6.19119C5.88592 8.16586 6.93258 9.76318 8.61391 10.9098C9.17524 11.2925 9.7939 11.5418 10.4699 11.6378C10.7126 11.6725 10.9539 11.7032 11.2966 11.5525ZM11.9592 11.3672C12.0419 11.2592 12.0992 11.2192 12.0952 11.1845C12.0352 10.6165 12.0272 10.0352 11.8899 9.48719C11.2752 7.04052 9.90591 5.06851 7.97791 3.47251C7.69257 3.23651 7.36721 3.04586 7.04855 2.85653C6.93255 2.78586 6.7792 2.77917 6.63787 2.74051C6.55387 3.39117 6.58321 3.68717 6.84855 4.36984C7.48455 6.00184 8.31656 7.5245 9.49523 8.83384C10.1766 9.58984 10.8886 10.3205 11.5913 11.0579C11.6913 11.1645 11.8139 11.2472 11.9592 11.3672ZM28.9552 27.9725C29.6086 25.1205 29.3792 22.3685 28.5566 19.6539C27.8952 17.4739 26.8206 15.4832 25.6832 13.4939C25.5246 13.5045 25.3779 13.5045 25.2339 13.5285C24.3126 13.6832 23.4432 13.4992 22.6312 13.0738C20.8832 12.1538 19.7659 10.7285 19.2939 8.80184C19.1686 8.28717 19.1165 7.77251 19.1485 7.24718C19.1912 6.50318 19.4352 5.83653 19.9099 5.25919C20.0179 5.12719 20.1286 4.99651 20.2552 4.84585C20.1819 4.70052 20.1125 4.57117 20.0512 4.43917C19.8792 4.06584 19.8912 3.86852 20.0832 3.78452C20.2619 3.70719 20.3979 3.78452 20.6072 4.08452C20.6899 4.20452 20.7712 4.32586 20.8592 4.45652C20.9819 4.42986 21.0779 4.41786 21.1685 4.38852C22.2232 4.05519 23.2445 4.17252 24.2152 4.65652C26.1979 5.64586 27.3912 7.25119 27.7926 9.42586C27.9059 10.0419 27.8686 10.6672 27.6926 11.2765C27.5019 11.9418 27.1645 12.5072 26.6152 12.9405C26.5019 13.0298 26.3912 13.1258 26.2485 13.2445C27.4819 15.1458 28.4592 17.1472 29.2286 19.3859C29.3472 19.0685 29.4179 18.8872 29.4845 18.7045C29.7925 17.8618 30.1552 17.0432 30.6432 16.2845C30.7499 16.1192 30.8672 15.9538 31.0032 15.8125C31.1779 15.6325 31.4725 15.7205 31.5379 15.9565C31.5445 15.9805 31.5512 16.0045 31.5539 16.0285C31.6899 17.3579 31.6419 18.6672 31.1139 19.9192C30.9286 20.3605 30.6659 20.7525 30.3192 21.0832C30.1392 21.2539 29.9485 21.4139 29.7485 21.5899C30.1845 23.8845 30.1725 26.1299 29.4792 28.3819C29.5752 28.4725 29.6686 28.5858 29.7859 28.6658C32.1232 30.2778 34.4886 31.8485 36.9526 33.2579C37.1166 33.3525 37.2925 33.4272 37.5019 33.5299C37.5379 33.2699 37.3792 33.1658 37.2845 33.0405C36.5605 32.0698 36.0699 30.9885 35.7286 29.8338C35.6792 29.6672 35.6365 29.4965 35.6125 29.3245C35.5845 29.1285 35.5605 28.9165 35.7712 28.7899C35.9405 28.6899 36.1086 28.7498 36.2633 28.8392C36.3926 28.9138 36.5259 28.9845 36.6446 29.0738C37.5686 29.7792 38.3112 30.6405 38.8352 31.6832C39.1525 32.3165 39.2872 32.9978 39.3112 33.7018C39.3192 33.9498 39.3125 34.1965 39.3125 34.4098C39.9192 34.8498 42.4352 36.0205 43.3205 36.2859C43.9312 35.1952 44.5579 31.2632 44.3499 29.7792C44.2366 29.7605 44.1152 29.7285 43.9952 29.7232C43.2886 29.6965 42.6926 29.4005 42.1699 28.9552C41.8126 28.6485 41.4779 28.3098 41.1553 27.9658C40.6779 27.4578 40.2206 26.9325 39.7539 26.4139C39.7046 26.3592 39.6512 26.3059 39.6072 26.2458C39.3779 25.9405 39.4939 25.6432 39.8685 25.6085C40.4712 25.5525 41.0552 25.5992 41.6192 25.8632C42.4432 26.2485 43.1779 26.7418 43.7685 27.4418C43.8885 27.5832 44.0259 27.7085 44.2312 27.9192C43.9699 25.6392 43.1512 23.6805 42.1232 21.7405C41.9566 21.7792 41.7939 21.8152 41.6312 21.8552C40.6632 22.0965 39.7379 21.9512 38.8979 21.4405C37.1726 20.3912 36.3712 18.8379 36.4432 16.8139C36.4819 15.7392 36.8673 14.8338 37.6219 14.0765C37.6393 14.0592 37.6459 14.0325 37.6699 13.9792C37.6286 13.8885 37.5779 13.7792 37.5286 13.6672C37.4686 13.5298 37.4019 13.3965 37.3553 13.2552C37.2846 13.0525 37.3379 12.8738 37.4832 12.7992C37.6366 12.7192 37.7753 12.7658 37.8913 12.8738C37.9833 12.9578 38.0646 13.0525 38.1472 13.1458C38.2432 13.2565 38.3352 13.3725 38.4446 13.5005C38.5979 13.4712 38.7419 13.4499 38.8845 13.4165C39.8992 13.1739 40.8605 13.3098 41.7659 13.8312C43.3912 14.7658 44.6446 16.9845 44.0966 19.2219C43.9139 19.9632 43.5645 20.6139 42.9872 21.1285C42.8579 21.2419 42.7339 21.3605 42.5899 21.4939C45.4472 26.3032 45.8886 31.3325 44.0232 36.6232C45.4566 37.2819 46.9166 37.8338 48.3672 38.3752C48.5326 38.2312 48.4219 38.1285 48.3619 38.0312C47.9579 37.3805 47.7926 36.6552 47.7259 35.9058C47.6699 35.2858 47.6459 34.6632 47.6112 34.0405C47.6046 33.9418 47.6032 33.8418 47.6125 33.7432C47.6299 33.5898 47.6832 33.4472 47.8419 33.3885C47.9992 33.3299 48.1392 33.3845 48.2472 33.5005C49.1872 34.5005 49.8792 35.6392 50.1006 37.0125C50.1632 37.3992 50.1192 37.8058 50.1032 38.2018C50.0939 38.4232 50.0392 38.6405 50.0086 38.8418C50.1566 39.0845 50.4032 39.0952 50.6072 39.1525C52.2579 39.6232 53.9099 40.0898 55.5685 40.5312C57.1565 40.9538 58.7526 41.3392 60.3419 41.7525C60.6766 41.8392 61.0019 41.9685 61.3259 42.0925C61.3739 42.1112 61.4192 42.2205 61.4086 42.2792C61.3992 42.3405 61.3259 42.4365 61.2752 42.4392C61.0792 42.4472 60.8779 42.4512 60.6872 42.4085C58.9405 42.0138 57.1926 41.6232 55.4499 41.2045C53.9019 40.8325 52.3632 40.4245 50.8059 40.0285C50.7566 40.0645 50.6832 40.0952 50.6392 40.1512C48.9366 42.2659 46.7899 43.7365 44.1979 44.5445C42.5792 45.0485 40.9379 45.4539 39.2312 45.5299C38.9366 45.5432 38.6419 45.5832 38.3459 45.6112C38.2872 45.7632 38.2379 45.8765 38.2019 45.9925C37.8912 47.0112 37.2019 47.7005 36.2633 48.1459C35.1366 48.6819 33.9592 48.7712 32.7739 48.3832C32.2805 48.2232 31.8019 47.9925 31.3552 47.7272C30.8099 47.4032 30.4285 46.9059 30.1685 46.3219C30.0899 46.1419 30.0153 45.9592 29.9246 45.7472C29.6953 45.7472 29.4739 45.7565 29.2539 45.7432C29.1005 45.7338 28.9752 45.5698 28.9979 45.4325C29.0206 45.2978 29.1059 45.2072 29.2405 45.1885C29.4352 45.1605 29.6312 45.1472 29.8685 45.1245C29.8979 44.9712 29.9259 44.8312 29.9539 44.6912C30.1285 43.8179 30.5926 43.1352 31.3032 42.6112C32.9659 41.3872 35.4872 41.4485 37.0845 42.7565C37.6179 43.1925 38.0059 43.7298 38.1979 44.3992C38.2459 44.5658 38.2912 44.7338 38.3366 44.8978C39.4152 45.1445 42.9472 44.4818 44.5659 43.7312C44.5845 43.5978 44.4899 43.5712 44.3913 43.5499C43.3553 43.3205 42.4232 42.8618 41.5472 42.2752C41.4232 42.1925 41.2846 42.1192 41.1886 42.0098C41.1166 41.9258 41.0499 41.7792 41.0752 41.6872C41.1019 41.5925 41.2325 41.4859 41.3352 41.4619C42.4792 41.1925 43.6085 41.2045 44.7019 41.6819C45.2779 41.9312 45.8112 42.2459 46.2419 42.7139C46.3072 42.7845 46.3912 42.8379 46.4566 42.8925C47.6166 42.3485 49.6259 40.6539 50.0979 39.8125C49.3966 39.4872 48.6512 39.2952 47.9366 39.0192C47.2166 38.7432 46.4952 38.4712 45.7779 38.1859C45.0606 37.9005 44.3472 37.6085 43.6366 37.3072C42.9259 37.0072 42.2192 36.6992 41.5139 36.3832C40.8099 36.0672 40.1085 35.7472 39.4125 35.4125C38.7192 35.0779 38.0339 34.7232 37.3099 34.3605C37.1832 34.4685 37.0393 34.5632 36.9299 34.6899C36.2979 35.4219 35.5166 35.9419 34.6366 36.3192C32.7472 37.1285 30.7859 37.6339 28.7419 37.8859C26.4979 38.1632 24.3246 37.8978 22.1752 37.2672C22.1299 37.2525 22.0779 37.2579 21.9872 37.2512C21.9405 37.3005 21.8605 37.3592 21.8099 37.4365C21.1112 38.5005 20.0832 39.0739 18.8752 39.3272C17.2739 39.6605 15.7592 39.4085 14.3526 38.5472C13.9699 38.3139 13.5752 38.1059 13.2752 37.7605C12.7512 37.1592 12.4086 36.4872 12.4112 35.6698C12.4112 35.5218 12.4112 35.3725 12.4112 35.2512C12.0992 34.9432 11.5379 35.0405 11.3979 34.5352C11.7792 34.1418 12.2273 34.4779 12.5939 34.3912C12.6393 34.3605 12.6685 34.3512 12.6792 34.3312C13.5152 32.8885 14.8566 32.2698 16.4339 32.0685C17.5406 31.9258 18.6232 32.0845 19.6485 32.5325C20.0325 32.7005 20.4059 32.9165 20.7405 33.1698C21.8539 34.0152 22.4219 35.1139 22.1872 36.5832C22.7939 36.8059 23.4352 36.8685 24.0592 36.9872C24.6686 37.1019 25.2845 37.2165 25.9019 37.2619C26.5472 37.3072 27.1966 37.2805 27.8419 37.2658C28.4539 37.2512 29.0579 37.1565 29.6579 37.0405C29.6353 36.8112 29.4846 36.8325 29.3752 36.8125C28.2112 36.6018 27.2486 35.9979 26.3552 35.2592C26.2792 35.1965 26.2059 35.1272 26.1432 35.0512C25.9312 34.7939 26.0045 34.5005 26.3099 34.3952C26.4259 34.3552 26.5499 34.3192 26.6712 34.3098C28.2405 34.1872 29.7672 34.3232 31.1312 35.1952C31.6299 35.5152 32.0752 35.9178 32.5739 36.3045C34.0579 36.0618 35.6992 35.1672 36.6539 34.0392C36.4979 33.9285 36.3513 33.8085 36.1913 33.7139C31.7686 31.0979 27.5566 28.1805 23.5699 24.9352C23.2432 24.6698 22.9192 24.4019 22.5739 24.1192C21.6712 24.5592 20.7219 24.7672 19.7566 24.8325C18.8192 24.8965 17.8739 24.8458 16.8952 24.8458C16.8539 25.0045 16.8166 25.1419 16.7806 25.2805C16.6166 25.9285 16.2379 26.4565 15.7872 26.9232C15.4792 27.2419 15.1272 27.5379 14.7459 27.7632C13.9112 28.2579 13.0499 28.7072 12.1899 29.1579C11.9979 29.2592 11.7726 29.3125 11.5553 29.3472C11.3446 29.3819 11.1552 29.1752 11.2072 28.9712C11.2539 28.7818 11.3219 28.5832 11.4352 28.4299C11.6992 28.0699 11.9819 27.7192 12.2845 27.3912C13.1912 26.4125 14.2752 25.6645 15.4352 25.0205C15.5805 24.9405 15.7192 24.8485 15.9512 24.7072C15.1792 24.4512 14.4552 24.4152 13.7845 24.1832C13.1272 23.9565 12.4633 23.7392 11.8246 23.4658C11.1646 23.1832 10.5313 22.8378 9.85792 22.5072C9.76725 22.6672 9.69125 22.7899 9.62192 22.9179C8.96459 24.1459 7.90725 24.7459 6.54991 24.8619C5.63391 24.9392 4.7632 24.7512 3.94054 24.3579C2.78187 23.8032 1.91256 22.9512 1.25922 21.8432C0.616556 20.7525 0.455223 19.6125 0.72589 18.3658C0.560556 18.2445 0.401913 18.1325 0.249913 18.0125C0.0432466 17.8458 -0.0181206 17.6458 0.0818794 17.5005C0.179213 17.3605 0.380556 17.3379 0.62589 17.4525C0.755223 17.5139 0.875241 17.5938 1.01124 17.6738C1.10057 17.5725 1.16989 17.5032 1.22856 17.4259C2.12323 16.2419 3.35921 15.7912 4.77921 15.9392C6.88321 16.1578 8.44726 17.2525 9.46059 19.1125C9.84726 19.8258 10.0259 20.5979 10.0125 21.4125C10.0112 21.5352 10.0125 21.6579 10.0125 21.8205C10.1272 21.8925 10.2459 21.9765 10.3726 22.0432C10.5699 22.1472 10.7805 22.2298 10.9765 22.3378C12.9725 23.4418 15.1352 23.9699 17.3832 24.2165C18.7832 24.3685 20.1672 24.2592 21.5352 23.9312C21.6779 23.8965 21.8152 23.8325 21.9512 23.7832C22.0059 23.5125 21.7845 23.4312 21.6512 23.3125C20.1592 21.9899 18.7366 20.5938 17.3726 19.1418C15.4432 17.0885 13.6393 14.9312 11.9939 12.6432C11.9353 12.5632 11.8699 12.4872 11.8045 12.4058C11.7299 12.3965 11.6552 12.3672 11.5859 12.3805C10.5566 12.5738 9.59657 12.3378 8.71124 11.8338C6.71924 10.6978 5.5112 8.96719 4.97387 6.75386C4.9152 6.51252 4.89124 6.26185 4.84457 6.01785C4.60457 4.75518 4.81125 3.59383 5.61658 2.56583C5.66325 2.5085 5.69254 2.43918 5.74588 2.34585C5.60188 1.99518 5.44723 1.63116 5.30323 1.2645C5.2459 1.1165 5.26591 0.969849 5.37791 0.847183C5.56724 0.639183 5.85658 0.64185 6.01925 0.881851C6.20058 1.14852 6.34857 1.43786 6.53924 1.76186C6.6339 1.74453 6.75256 1.73783 6.86189 1.7005C7.72456 1.40717 8.57789 1.47517 9.42322 1.77384C10.0886 2.00718 10.6859 2.36318 11.2246 2.81518C12.6619 4.02585 13.6139 5.54052 14.0125 7.38185C14.1979 8.24185 14.2099 9.11117 13.9739 9.97117C13.7632 10.7392 13.3753 11.3885 12.7273 11.8698C12.6326 11.9405 12.5486 12.0245 12.4273 12.1299C14.1673 14.3845 15.9352 16.5658 17.8659 18.6125C18.0125 18.7672 18.1752 18.9072 18.4032 19.1232C18.3992 18.7605 18.2646 18.5459 18.1913 18.3165C17.8739 17.3032 17.7419 16.2752 17.9739 15.2245C18.0392 14.9352 18.1179 14.6418 18.2366 14.3712C18.3966 14.0045 18.7405 13.9845 19.0019 14.3018C19.0179 14.3205 19.0326 14.3419 19.0472 14.3619C19.6926 15.3765 20.2352 16.4299 20.4032 17.6472C20.5179 18.4765 20.4406 19.2832 20.2312 20.0859C20.1886 20.2539 20.1379 20.4192 20.0926 20.5765C20.1739 20.9525 20.4219 21.1979 20.6845 21.4285C21.7152 22.3312 22.7219 23.2632 23.7859 24.1219C25.2592 25.3099 26.7765 26.4432 28.2792 27.5925C28.4685 27.7392 28.6472 27.9232 28.9552 27.9725Z" fill="#DDD2DA"/>
</svg>
