<svg width="256" height="127" viewBox="0 0 256 127" fill="none" xmlns="http://www.w3.org/2000/svg">
<path d="M253.413 74.0465C252.099 74.7281 250.817 75.4911 249.358 75.8616C247.527 76.312 245.791 76.1319 244.188 75.0713C243.95 74.9149 243.966 74.4475 244.221 74.2895C247.087 72.5151 250.127 72.0681 253.352 73.0981C253.503 73.1456 253.672 73.3921 253.682 73.5535C253.694 73.715 253.557 73.9717 253.413 74.0465ZM245.979 81.3548C246.017 81.4262 245.978 81.5656 245.93 81.6489C245.895 81.7135 245.79 81.739 245.715 81.7815C245.612 81.77 245.495 81.7827 245.405 81.7423C243.503 80.8857 242.138 79.4733 241.22 77.6139C241.137 77.4473 241.154 77.0411 241.196 77.0309C241.461 76.9646 241.75 76.9358 242.02 76.9783C242.216 77.0089 242.402 77.1551 242.575 77.2723C244.094 78.3091 245.126 79.7589 245.979 81.3548ZM240.489 74.1196C240.429 74.1671 240.296 74.1671 240.221 74.1332C240.138 74.0975 240.038 74.004 240.025 73.9224C239.992 73.7184 239.96 73.4975 240.006 73.3021C240.355 71.8659 240.904 70.5164 241.855 69.3657C241.955 69.245 242.174 69.2213 242.336 69.1533C242.411 69.3334 242.485 69.5136 242.558 69.6903C242.296 71.3712 241.903 72.9876 240.489 74.1196ZM239.63 81.8681C239.615 82.1027 239.676 82.3814 239.565 82.5004C239.466 82.6074 239.127 82.6244 238.983 82.5361C237.386 81.5639 236.156 80.3249 236.095 78.2938C236.091 78.1918 236.117 78.0168 236.171 77.9964C236.359 77.9284 236.573 77.8655 236.762 77.8944C236.959 77.925 237.172 78.0304 237.321 78.1647C238.446 79.1827 239.235 80.4167 239.63 81.8681ZM235.492 75.3551C235.336 75.2617 235.072 75.192 235.043 75.0663C234.927 74.5598 234.762 74.0176 234.833 73.5196C235.015 72.2517 235.455 71.0653 236.383 70.1221C236.454 70.0472 236.617 69.9385 236.637 69.9572C236.781 70.0898 236.967 70.2342 237.015 70.4076C237.095 70.7067 237.142 71.0398 237.1 71.3424C236.922 72.6069 236.559 73.8204 235.956 74.9489C235.867 75.1189 235.651 75.2226 235.492 75.3551ZM218.886 84.7575C218.969 84.7184 219.098 84.746 219.192 84.7795C219.263 84.8067 219.313 84.8917 219.372 84.9495C219.336 85.1603 219.331 85.3829 219.258 85.5784C218.766 86.9245 217.915 88.0088 216.781 88.8654C216.654 88.9623 216.347 88.9742 216.228 88.8858C216.1 88.7873 216.017 88.517 216.044 88.3402C216.295 86.5981 217.339 85.4696 218.886 84.7575ZM220.674 93.8658C221.46 94.9875 222.036 96.2554 222.075 97.6797C222.08 97.8565 221.973 98.1063 221.838 98.1947C221.692 98.2899 221.413 98.3119 221.255 98.2355C218.955 97.1222 217.441 95.3172 216.613 92.8443C216.577 92.5842 216.538 92.2732 216.491 91.9622C216.45 91.6987 216.828 91.3775 217.094 91.437C218.608 91.7718 219.812 92.6335 220.674 93.8658ZM223.428 87.188C224.063 85.5512 225.181 84.3546 226.665 83.5201C226.807 83.5405 226.953 83.5189 226.99 83.5728C227.093 83.7224 227.254 83.9382 227.212 84.064C226.651 85.7007 225.716 87.0621 224.192 87.9442C224.038 88.0343 223.808 88.0173 223.616 88.0054C223.405 87.994 223.311 87.4922 223.428 87.188ZM230.108 95.6333C230.001 96.0175 230.005 96.2826 229.885 96.3625C229.735 96.4611 229.458 96.473 229.28 96.4067C226.785 95.4736 225.013 93.7383 223.85 91.3622C223.779 91.216 223.887 90.9612 223.958 90.7759C223.982 90.7113 224.155 90.6602 224.246 90.6755C227.263 91.1667 229.068 93.0363 230.108 95.6333ZM226.409 89.8529C226.772 89.8156 227.124 89.6439 227.473 89.4961C227.51 89.6099 227.535 89.717 227.593 89.8445C227.729 90.1334 227.893 90.407 228.042 90.6892C227.408 90.4189 226.775 90.1504 226.143 89.875C226.233 89.8661 226.321 89.8597 226.409 89.8529ZM229.072 88.4796C229.815 87.8491 230.647 87.3817 231.614 87.2814C233.838 87.052 236.038 87.1488 238.134 88.0394C238.28 88.1006 238.424 88.3606 238.419 88.5221C238.414 88.6921 238.266 88.9386 238.116 89.0117C237.359 89.3754 236.58 89.6932 236.469 89.7407C234.247 90.4444 232.682 90.611 231.092 90.3629C230.36 90.2507 229.664 90.0331 229.07 89.5385C228.723 89.2496 228.713 88.7873 229.072 88.4796ZM193.525 101.495C193.647 101.414 193.901 101.531 194.094 101.557C194.134 101.652 194.216 101.747 194.212 101.837C194.153 103.361 193.713 104.781 192.937 106.083C192.727 106.436 192.368 106.705 192.066 107C191.87 107.196 191.382 107.009 191.321 106.706C191.237 106.292 191.096 105.863 191.132 105.455C191.276 103.751 192.104 102.428 193.525 101.495ZM193.56 110.15C194.111 110.792 194.695 111.431 195.117 112.159C195.652 113.083 195.948 114.12 196.011 115.206C196.016 115.3 195.987 115.466 195.943 115.478C195.749 115.529 195.512 115.612 195.346 115.544C193.599 114.827 192.856 113.321 192.339 111.703C192.294 111.323 192.214 111.003 192.229 110.687C192.241 110.398 192.319 110.099 192.437 109.834C192.541 109.601 193.223 109.757 193.56 110.15ZM198.099 109.108C198.22 108.997 198.494 109.043 198.701 109.047C198.801 109.048 198.907 109.099 198.997 109.15C200.838 110.191 202.096 111.725 202.786 113.721C202.848 113.899 202.769 114.137 202.72 114.338C202.669 114.55 202.14 114.635 201.866 114.489C199.639 113.308 198.591 112.019 197.976 109.703C198.01 109.497 197.98 109.218 198.099 109.108ZM198.306 104.959C198.894 102.928 200.054 101.325 201.863 100.226C202.008 100.136 202.261 100.2 202.457 100.231C202.528 100.241 202.581 100.363 202.64 100.435C202.66 100.538 202.715 100.654 202.691 100.748C202.151 102.877 201.185 104.738 199.271 105.947C199.07 106.074 198.67 105.974 198.406 105.867C198.299 105.822 198.301 105.483 198.274 105.275C198.26 105.173 198.278 105.059 198.306 104.959ZM203.092 106.604C203.809 106.164 204.532 105.733 205.109 105.382C207.215 105.126 209.112 105.046 210.987 105.569C211.12 105.607 211.225 105.828 211.295 105.986C211.322 106.049 211.242 106.2 211.169 106.265C209.339 107.906 207.279 108.822 204.767 108.253C204.144 108.11 203.55 107.894 203.07 107.43C202.872 107.238 202.854 106.752 203.092 106.604ZM126.283 113.991C125.913 114.368 125.561 114.802 125.039 114.885C124.67 114.724 124.682 114.438 124.716 114.22C124.857 113.342 125.009 112.463 125.212 111.598C125.336 111.069 125.514 110.563 125.334 110.05C124.758 109.732 124.311 110.034 123.891 110.254C123.017 110.714 122.153 111.204 121.318 111.736C119.413 112.949 117.352 113.775 115.137 114.144C113.927 114.346 112.681 114.336 111.449 114.397C111.217 114.409 110.98 114.302 110.555 114.207C110.736 113.816 110.792 113.561 110.945 113.393C111.438 112.839 111.936 112.281 112.484 111.787C115.479 109.096 119.051 107.811 123.01 107.522C124.044 107.447 125.087 107.461 126.125 107.476C126.76 107.486 127.416 107.446 127.986 107.845C128.095 107.922 128.263 107.932 128.403 107.933C131.27 107.983 133.924 108.895 136.538 109.959C136.848 110.085 137.119 110.333 137.376 110.561C138.499 111.549 139.038 112.883 139.493 114.256C139.614 114.618 139.388 114.944 138.982 115.007C138.594 115.068 138.186 115.135 137.806 115.072C136.932 114.929 136.043 114.788 135.207 114.504C133.139 113.802 131.177 112.864 129.429 111.521C129.316 111.435 129.167 111.397 128.955 111.302C128.754 111.464 128.512 111.62 128.317 111.822C127.631 112.538 126.975 113.281 126.283 113.991ZM126.85 117.072C126.755 119.389 126.596 122.618 126.515 125.156C126.103 125.023 125.282 124.814 124.177 124.551C124.289 122.447 124.619 116.986 124.801 116.403C125.482 116.11 126.103 115.845 126.755 115.565C126.992 116.1 126.87 116.593 126.85 117.072ZM122.911 115.264C122.099 116.384 121.373 117.579 120.214 118.386C119.765 118.699 119.269 119.396 118.717 118.913C118.282 118.534 118.763 117.89 118.971 117.417C119.892 115.325 121.422 113.736 123.229 112.39C123.293 112.342 123.41 112.366 123.596 112.346C123.586 113.382 123.561 114.368 122.911 115.264ZM101.74 96.4339C101.374 95.8407 101.044 95.2288 100.657 94.6509C98.1609 90.9152 96.8161 86.7154 95.7627 82.4035C95.3731 80.8075 95.1309 79.1725 95.3138 77.5239C95.4002 76.7421 95.5459 75.9416 95.8237 75.2107C96.5824 73.2103 98.3557 72.2585 100.456 72.6256C101.042 72.7276 101.623 72.8448 102.21 72.9281C102.841 73.0164 103.384 72.8143 103.826 72.357C104.136 72.0358 104.433 71.6993 104.744 71.3814C105.483 70.6251 106.311 70.0031 107.347 69.726C107.574 69.6649 107.823 69.6836 108.12 69.6598C108.103 69.8722 108.138 70.0371 108.072 70.1305C106.267 72.7038 105.645 75.6424 105.444 78.7085C105.242 81.7644 105.713 84.7574 106.35 87.7284C107.041 90.9424 108.025 94.0663 109.287 97.1019C110.481 99.9759 112.137 102.559 114.244 104.838C115.047 105.709 115.965 106.47 116.832 107.283C116.341 107.832 116.214 107.889 115.814 107.6C114.412 106.579 113.016 105.546 111.634 104.499C111.319 104.262 111.019 103.984 110.782 103.669C109.619 102.124 108.359 100.634 107.356 98.9884C105.698 96.2707 104.404 93.3592 103.482 90.2999C102.566 87.2576 101.626 84.217 101.169 81.0574C101.062 80.3215 101.015 79.5754 100.932 78.836C100.905 78.593 100.883 78.3397 100.798 78.1153C100.756 78.0099 100.568 77.8995 100.449 77.9029C100.331 77.9068 100.131 78.0338 100.114 78.1341C100.048 78.5233 100.016 78.921 100.016 79.3153C100.012 80.8195 100.324 82.2811 100.651 83.7343C101.777 88.7414 103.264 93.621 105.7 98.176C106.904 100.428 108.435 102.435 110.068 104.371C111.099 105.593 112.462 106.443 113.756 107.362C114.153 107.645 114.549 107.928 114.927 108.199C114.764 108.697 114.446 108.792 114.08 108.698C113.846 108.639 113.619 108.511 113.419 108.372C108.779 105.131 104.739 101.293 101.74 96.4339ZM98.9434 69.2654C99.504 68.3154 100.215 67.4944 101.138 66.8809C101.716 66.5002 102.297 66.1211 102.903 65.7863C103.774 65.3087 104.6 64.7818 105.31 64.0731C106.064 63.3201 107 62.9496 108.231 62.7134C107.364 63.9779 106.621 65.0589 105.84 66.1976C105.576 66.133 105.268 66.0582 104.973 65.9869C104.683 66.4832 104.984 66.8077 105.176 67.134C105.576 67.8139 105.462 68.4547 105.085 69.0853C105.042 69.155 104.922 69.1787 104.751 69.2705C104.194 68.7249 103.613 68.1556 103.073 67.627C102.632 67.7341 102.588 67.9873 102.714 68.2202C103.042 68.8252 103.413 69.4099 103.801 70.0575C103.598 70.3141 103.393 70.5724 103.156 70.8715C102.072 70.416 101.696 69.0665 100.425 68.8303C100.173 69.8705 101.211 70.2767 101.406 71.1537C100.878 71.2829 100.375 71.0228 99.8681 71.045C99.3888 71.0637 98.9078 71.0335 98.4082 71.0229C98.371 70.304 98.6436 69.7753 98.9434 69.2654ZM111.289 62.1423C112.013 63.5581 112.579 65.0351 112.869 66.6225C112.879 66.6769 112.904 66.7295 112.918 66.7839C112.439 66.8961 111.959 67.0083 111.458 67.1239C111.284 66.3114 111.136 65.5365 110.943 64.7717C110.875 64.5014 110.765 64.1683 110.257 64.3399C109.944 65.4787 110.328 66.6395 110.393 67.8463C110.103 68.1046 109.813 68.3629 109.57 68.5805C108.574 68.4581 107.654 68.3459 106.722 68.2321C106.722 68.0876 106.692 67.9329 106.728 67.7969C107.19 66.0667 109.143 63.4748 111.289 62.1423ZM112.796 61.4251C113.81 61.1361 114.805 60.9373 115.865 61.0886C115.939 61.0988 116.012 61.1038 116.085 61.114C116.102 61.2329 116.11 61.3537 116.129 61.4727C116.486 63.8198 117.106 66.0939 117.913 68.317C117.515 68.0876 117.216 67.7715 116.84 67.6032C116.346 67.3823 115.867 67.1307 115.419 66.9115C115.052 65.4668 114.703 64.0798 114.339 62.6964C114.32 62.6284 114.181 62.5944 114.019 62.4975C113.931 62.6521 113.768 62.8069 113.772 62.9564C113.788 63.7502 113.843 64.5404 113.897 65.3325C113.926 65.7166 113.983 66.0973 114.032 66.5239C113.976 66.5376 113.926 66.5494 113.871 66.5613C113.665 64.9517 113.241 63.4 112.483 61.9621C112.422 61.8483 112.356 61.7394 112.296 61.6273C112.462 61.5593 112.63 61.4726 112.796 61.4251ZM119.117 61.442C121.083 61.6681 122.963 61.3808 124.767 60.548C125.512 60.2047 126.269 59.8937 127.023 59.5724C127.153 60.7214 127.18 61.8754 127.114 63.0311C127.038 62.868 126.955 62.7065 126.85 62.5502C126.836 62.5298 126.759 62.554 126.709 62.5565C126.643 62.6126 126.545 62.6585 126.518 62.7316C126.466 62.8676 126.428 63.0188 126.433 63.1633C126.474 64.6233 126.521 66.1003 126.571 67.6554C126.54 67.878 126.511 68.1024 126.482 68.3268C126.234 68.2231 126.032 68.1585 125.885 68.0447C125.256 67.5637 124.647 67.0571 124.023 66.5557C123.539 65.5445 123.81 64.2782 122.985 63.3757C122.966 63.3553 122.892 63.3872 122.721 63.4166C122.479 63.7973 122.567 64.2868 122.59 64.7593C122.612 65.2029 122.655 65.6447 122.689 66.1053C122.159 66.4266 121.635 66.6968 121.168 67.0419C120.736 67.3614 120.365 67.7625 119.984 68.1126C119.581 68.0344 119.681 67.7319 119.643 67.5178C119.466 66.5422 119.308 65.5614 119.125 64.5859C119.081 64.3513 118.998 64.0981 118.57 64.1083C118.268 64.5009 118.405 65.004 118.399 65.4714C118.393 65.7638 118.409 66.0561 118.419 66.3484C118.207 65.5819 117.994 64.8153 117.784 64.0488C117.528 63.1191 117.355 62.1843 117.225 61.2461C117.855 61.3107 118.487 61.3706 119.117 61.442ZM128.346 69.1277C128.557 68.8507 128.727 68.5362 128.974 68.2983C129.253 68.028 129.595 67.8258 129.91 67.5929C130.461 67.8377 131.083 67.3839 131.624 67.7782C131.863 67.9532 132.138 68.0774 132.395 68.2269C133.167 68.6807 133.902 68.6365 134.597 68.0604C134.978 67.7425 135.349 67.4128 135.743 67.112C137.833 65.5194 139.581 64.9075 142.706 66.8689C143.893 67.615 144.869 68.6043 145.667 69.7668C146.63 71.169 147.364 72.6833 147.906 74.2945C150.231 81.2103 149.918 88.0836 147.547 94.9161C147.352 95.477 147.094 96.0191 146.83 96.5528C145.69 98.8711 144.539 101.184 143.104 103.339C142.161 104.753 141.102 106.067 139.627 106.965C138.953 107.376 138.221 107.694 137.551 108.11C136.8 108.579 136.152 108.324 135.354 107.988C135.594 107.509 135.767 107.104 135.992 106.734C136.795 105.413 137.449 104.023 138.028 102.592C138.399 101.67 138.799 100.761 139.195 99.8501C141.334 94.9229 142.513 89.7713 142.904 84.4175C143.089 81.8868 143.258 79.3544 143.124 76.8202C143.048 75.384 142.818 73.9581 142.616 72.5321C142.561 72.1497 142.396 71.7655 142.198 71.4307C142.112 71.2811 141.819 71.2539 141.58 71.1553C141.334 71.8998 141.443 72.5422 141.526 73.1745C142.046 77.1431 141.903 81.0998 141.531 85.077C141.011 90.6313 139.514 95.8968 137.308 100.997C136.363 103.185 135.452 105.382 134.172 107.468C133.437 107.575 132.78 107.206 132.124 107.077C132.061 106.893 131.995 106.8 132.002 106.711C132.094 105.423 132.149 104.13 132.302 102.848C133.115 95.9851 133.99 89.1323 134.763 82.2675C135.125 79.0569 135.312 75.8293 135.562 72.6068C135.599 72.1309 135.71 71.6279 135.44 71.1945C135.064 71.0891 134.922 71.3066 134.873 71.5497C134.665 72.5694 134.417 73.5875 134.302 74.6209C133.767 79.4121 133.291 84.2119 132.758 89.0031C132.361 92.5604 131.911 96.1109 131.482 99.6631C131.22 101.835 130.927 104.004 130.928 106.198C130.928 106.387 130.867 106.575 130.832 106.781C130.596 106.781 130.397 106.812 130.21 106.775C129.733 106.676 129.262 106.547 128.701 106.408C128.547 105.157 128.437 103.928 128.334 102.697C127.59 93.7641 127.546 84.8191 127.853 75.8671C127.873 75.2723 127.88 74.674 127.853 74.0791C127.846 73.9125 127.693 73.7511 127.536 73.4452C127.341 73.8327 127.14 74.0723 127.104 74.3358C126.902 75.862 126.669 77.39 126.576 78.9231C126.23 84.5896 126.374 90.2561 126.72 95.9176C126.906 98.9429 127.189 101.963 127.419 104.987C127.448 105.367 127.424 105.753 127.424 106.18C126.994 106.18 126.657 106.191 126.322 106.176C125.944 106.159 125.676 105.953 125.502 105.622C125.41 105.445 125.317 105.27 125.231 105.092C122.409 99.2348 120.378 93.123 119.503 86.6661C119.228 84.6521 119.181 82.604 119.079 80.5695C119.012 79.2302 119.044 77.8859 119.008 76.5432C118.993 76.0486 118.934 75.5522 118.846 75.0645C118.819 74.9098 118.654 74.6991 118.514 74.6617C118.204 74.5784 118.075 74.8674 118.028 75.0951C117.94 75.5302 117.865 75.9789 117.868 76.4225C117.885 78.6099 117.809 80.8058 117.987 82.9813C118.459 88.7567 119.674 94.3841 121.764 99.7974C122.443 101.555 123.276 103.253 124.037 104.98C124.174 105.292 124.304 105.607 124.416 105.867C124.276 106.241 124.006 106.208 123.771 106.227C123.031 106.283 122.291 106.329 121.476 106.385C121.278 106.142 121.046 105.894 120.854 105.617C118.847 102.702 117.311 99.522 115.797 96.3386C114.293 93.1773 113.483 89.7934 112.855 86.3601C112.247 83.0272 111.976 79.6603 111.678 76.2934C111.62 75.6509 111.526 75.0118 111.421 74.3744C111.39 74.2011 111.263 74.0447 111.195 73.9121C110.779 73.885 110.679 74.1535 110.665 74.3779C110.611 75.2685 110.535 76.1642 110.589 77.0514C110.745 79.5328 110.963 82.0074 111.377 84.4634C111.964 87.9476 112.652 91.4115 113.961 94.707C115.374 98.2677 117.096 101.679 119.151 104.917C119.489 105.449 119.923 105.933 120.143 106.662C119.581 106.851 119.084 107.017 118.542 107.198C117.291 106.11 116.039 105.068 114.984 103.812C113.085 101.553 111.539 99.0802 110.452 96.3251C108.709 91.9112 107.508 87.3545 107.009 82.6329C106.692 79.6416 106.9 76.6774 107.845 73.7897C108.435 71.983 109.486 70.5214 110.948 69.3317C112.947 67.7051 114.86 67.6762 116.893 69.2772C117.243 69.5525 117.55 69.884 117.887 70.1747C118.15 70.4007 118.414 70.6301 118.705 70.8103C119.069 71.0364 119.506 70.9972 119.801 70.693C120.075 70.4108 120.275 70.0591 120.527 69.7548C120.969 69.2229 121.388 68.6602 121.889 68.1912C122.528 67.5946 123.009 67.5929 123.769 68.0688C124.062 68.2523 124.33 68.4767 124.601 68.6942C124.911 68.9424 125.202 69.2126 125.515 69.4557C126.818 70.4669 127.365 70.4025 128.346 69.1277ZM127.844 65.844C128.203 63.5971 128.246 61.3655 127.99 59.1526C128.146 59.0898 128.295 59.0149 128.451 58.9537C129.658 58.4812 130.908 58.2263 132.205 58.2076C131.938 61.114 132.295 63.9728 132.929 66.7993C132.805 66.7738 132.688 66.7448 132.58 66.6973C132.083 66.4763 131.602 66.2231 131.05 65.9494C130.93 64.894 130.818 63.8147 130.681 62.7371C130.639 62.4091 130.605 62.0352 130.056 61.9502C129.557 63.2691 129.994 64.6747 129.772 66.0055C129.148 66.4338 128.55 66.8452 127.883 67.304C127.807 67.0678 127.758 66.8264 127.715 66.5834C127.756 66.3369 127.803 66.0905 127.844 65.844ZM133.33 58.2654C134.815 58.4269 136.143 58.964 137.29 59.9565C138.685 61.1633 139.857 62.5773 140.943 64.0645C140.994 64.1342 140.979 64.2532 141.007 64.4351C139.785 64.1495 138.579 64.192 137.368 64.4979C137.046 63.7993 137.295 63.0074 136.75 62.4856C136.418 62.4006 136.306 62.6181 136.23 62.8646C136.023 63.5478 136.057 64.2328 136.275 65.0248C135.799 65.363 135.295 65.7216 134.656 66.1737C134.583 65.7913 134.529 65.5721 134.502 65.3494C134.368 64.1648 134.256 62.9784 134.104 61.7955C134.068 61.5218 133.962 61.1837 133.462 61.3417C133.396 61.6868 133.371 62.0352 133.347 62.3853C133.301 61.8125 133.249 61.2381 133.23 60.6619C133.205 59.8563 133.252 59.0591 133.33 58.2654ZM141.421 59.1747C141.361 60.2863 141.426 61.4046 141.549 62.5264C140.918 61.7428 140.303 60.9764 139.698 60.2268C140.223 59.7509 140.811 59.4076 141.421 59.1747ZM142.632 58.8807C143.895 58.7311 145.181 59.054 146.226 59.8987C146.842 60.395 147.44 60.9169 148.031 61.4454C148.861 62.1882 149.796 62.7015 150.844 62.9734C150.649 63.83 150.412 64.6798 150.114 65.516C149.457 65.9613 149.14 66.6462 148.722 67.2292C148.243 67.9023 147.996 68.7283 147.359 69.4473C146.718 68.8456 146.309 68.1912 145.865 67.5301C146.222 66.5307 146.586 65.5585 146.91 64.5727C147.017 64.2515 147.025 63.8963 147.054 63.553C147.059 63.4952 146.945 63.3932 146.869 63.3711C146.788 63.3456 146.637 63.3558 146.6 63.4102C146.349 63.7722 146.09 64.1343 145.894 64.5269C145.562 65.1829 145.272 65.8611 144.966 66.5341C143.578 65.7931 143.431 65.5212 143.609 64.2074C143.702 63.5173 143.787 62.8272 143.848 62.1355C143.868 61.9043 143.805 61.6647 143.765 61.2823C143.516 61.4455 143.302 61.5083 143.238 61.6409C143.072 61.9961 142.974 62.3836 142.838 62.7542C142.816 62.8153 142.789 62.88 142.764 62.9411C142.708 62.3683 142.637 61.7955 142.593 61.2228C142.532 60.4308 142.562 59.6523 142.632 58.8807ZM151.811 64.3637C151.918 63.9795 151.991 63.5904 152.077 63.2046C152.313 63.2317 152.548 63.252 152.775 63.3065C153.495 63.4764 154.225 63.6311 154.916 63.8827C156.337 64.3977 157.331 65.3885 157.941 66.7805C158.83 68.8082 158.906 70.897 158.525 73.1049C157.881 73.2969 157.275 73.4753 156.654 73.6606C156.125 73.1473 156.042 72.4862 155.786 71.9627C155.856 70.6489 156.816 69.5543 156.506 68.0892C155.566 68.6025 155.587 69.6648 154.95 70.3243C154.376 69.8467 153.82 69.3827 153.249 68.9085C153.381 67.9006 154.221 67.151 154.196 66.1653C153.871 65.9103 153.649 66.048 153.505 66.2401C152.975 66.9539 152.47 67.6881 151.886 68.5091H150.14C150.832 67.1868 151.412 65.8134 151.811 64.3637ZM146.546 100.125H146.547C146.594 100.198 146.647 100.272 146.686 100.351C146.706 100.389 146.697 100.442 146.701 100.487C146.66 100.455 146.6 100.43 146.586 100.391C146.559 100.306 146.559 100.214 146.546 100.125ZM160.532 75.3926C161.54 76.4191 162.155 77.6496 162.502 79.0127C162.983 80.9027 163.178 82.8335 163.042 84.7812C162.712 89.5232 161.066 93.7672 158.212 97.5556C155.835 100.715 153.017 103.409 149.853 105.766C147.503 107.522 144.874 108.605 142.047 109.264C141.871 109.305 141.682 109.29 141.495 109.293C141.583 108.896 141.98 108.867 142.249 108.715C144.327 107.549 146.342 106.3 148.145 104.72C149.567 103.47 150.846 102.106 151.977 100.583C154.14 97.6644 156.105 94.6305 157.665 91.3435C158.518 89.5436 159.319 87.7132 159.623 85.7382C159.894 83.9757 159.997 82.186 160.146 80.4065C160.173 80.0716 160.117 79.7045 160.005 79.3866C159.941 79.2065 159.684 79.0943 159.406 78.8615C159.128 79.9186 159.082 80.8484 158.972 81.7679C158.849 82.8029 158.769 83.8448 158.603 84.8747C158.32 86.6508 157.727 88.3352 156.957 89.9584C155.009 94.0595 152.555 97.8395 149.72 101.373C148.246 103.209 146.398 104.631 144.512 106.004C144.364 106.112 144.178 106.169 144.019 106.247C143.761 105.967 144.037 105.868 144.117 105.734C144.192 105.608 144.318 105.517 144.418 105.406C147.953 101.434 150.671 96.9556 152.497 91.9622C153.263 89.8682 153.856 87.7046 154.413 85.5444C155.065 83.017 155.146 80.437 154.719 77.8553C154.624 77.2724 154.448 76.6979 154.245 76.1438C154.184 75.979 153.906 75.8956 153.617 75.6985C153.576 76.0962 153.52 76.3359 153.534 76.5721C153.581 77.4151 153.607 78.2632 153.72 79.0977C153.978 80.9962 153.812 82.8692 153.427 84.7252C152.934 87.1115 152.226 89.4383 151.425 91.7379C150.419 94.6187 148.891 97.2293 147.276 99.7941C147.105 100.066 146.883 100.197 146.563 100.108C146.712 99.9317 146.908 99.7821 147.015 99.5867C148.944 96.0633 150.175 92.3191 150.682 88.3216C151.325 83.2432 150.812 78.304 149.113 73.4856C148.771 72.5117 148.349 71.565 147.968 70.6132C149.352 69.7838 151.273 69.6394 152.55 70.2427C153.153 70.5283 153.624 70.9634 153.932 71.5497C154.21 72.0766 154.447 72.6239 154.687 73.1678C154.85 73.5315 154.96 73.9173 155.139 74.2708C155.565 75.1155 156.047 75.3382 156.952 75.1274C157.385 75.0238 157.81 74.886 158.239 74.7637C159.13 74.5104 159.866 74.7127 160.532 75.3926ZM141.277 109.38C141.306 109.359 141.331 109.331 141.363 109.322C141.373 109.321 141.385 109.322 141.397 109.322C141.358 109.341 141.317 109.361 141.277 109.38ZM131.99 118.456C130.358 117.295 129.126 115.772 128.049 113.999C128.334 113.617 128.617 113.24 128.906 112.852C130.29 113.495 131.193 114.496 131.911 115.706C132.876 117.336 133.034 117.737 133.037 118.814C132.593 118.983 132.292 118.67 131.99 118.456ZM65.534 106.781C65.473 107.085 64.987 107.271 64.7871 107.075C64.4873 106.779 64.1266 106.513 63.9166 106.159C63.1426 104.857 62.7022 103.438 62.6429 101.913C62.6391 101.822 62.7208 101.727 62.7632 101.633C62.9546 101.608 63.207 101.49 63.3306 101.57C64.7499 102.503 65.5781 103.827 65.7255 105.53C65.7594 105.938 65.6187 106.366 65.534 106.781ZM64.5144 111.778C63.9996 113.396 63.256 114.904 61.5082 115.619C61.3439 115.687 61.1068 115.604 60.912 115.555C60.8679 115.543 60.8392 115.374 60.8443 115.281C60.9069 114.197 61.2016 113.158 61.7385 112.233C62.1603 111.506 62.7429 110.867 63.295 110.225C63.6321 109.832 64.3146 109.677 64.4179 109.91C64.5364 110.174 64.6127 110.474 64.6263 110.763C64.6398 111.078 64.5618 111.399 64.5144 111.778ZM54.9875 114.565C54.7148 114.71 54.1864 114.625 54.1339 114.414C54.0865 114.212 54.0069 113.974 54.0679 113.795C54.7589 111.8 56.0173 110.265 57.8583 109.225C57.9481 109.174 58.0548 109.123 58.1547 109.122C58.3613 109.118 58.6357 109.074 58.756 109.184C58.8779 109.295 58.8458 109.574 58.8796 109.779C58.2631 112.094 57.2164 113.384 54.9875 114.565ZM54.1644 100.822C54.1407 100.729 54.1949 100.615 54.2136 100.51C54.2745 100.438 54.3288 100.317 54.3982 100.306C54.5946 100.275 54.8453 100.212 54.991 100.3C56.8015 101.4 57.9617 103.003 58.5477 105.034C58.5765 105.136 58.5951 105.248 58.5816 105.35C58.5545 105.559 58.5562 105.897 58.4478 105.941C58.1853 106.049 57.7856 106.149 57.584 106.023C55.6702 104.815 54.703 102.954 54.1644 100.822ZM53.785 107.505C53.3057 107.971 52.7112 108.187 52.088 108.328C49.5763 108.899 47.5168 107.981 45.6859 106.339C45.6131 106.275 45.5318 106.125 45.5605 106.061C45.6282 105.902 45.7333 105.683 45.8671 105.646C47.742 105.121 49.6406 105.202 51.7441 105.459C52.3217 105.807 53.0465 106.239 53.763 106.681C54.0018 106.829 53.9815 107.313 53.785 107.505ZM40.6252 88.9606C40.5067 89.049 40.2018 89.0371 40.0748 88.9419C38.94 88.0853 38.0898 86.9992 37.5952 85.6548C37.5241 85.4576 37.519 85.235 37.4834 85.0259C37.5428 84.9664 37.5918 84.8815 37.663 84.856C37.7579 84.822 37.8865 84.7931 37.9695 84.8321C39.5159 85.5459 40.5608 86.6728 40.8115 88.4149C40.8369 88.5917 40.754 88.8637 40.6252 88.9606ZM40.2407 92.9207C39.4142 95.3919 37.9001 97.1987 35.5984 98.3119C35.4409 98.3884 35.1614 98.3664 35.0175 98.2712C34.8803 98.181 34.7753 97.9312 34.7803 97.7545C34.8193 96.3319 35.3951 95.0623 36.181 93.9405C37.0431 92.7083 38.2456 91.8466 39.7614 91.5118C40.0273 91.4522 40.4033 91.7735 40.3627 92.0386C40.317 92.348 40.2763 92.6589 40.2407 92.9207ZM33.2391 88.0819C33.0477 88.0921 32.8174 88.109 32.6633 88.0207C31.1373 87.1386 30.204 85.7773 29.6434 84.1388C29.5994 84.013 29.7603 83.7971 29.8636 83.6493C29.9026 83.5948 30.0482 83.6152 30.1905 83.5948C31.6742 84.4293 32.7903 85.6275 33.4254 87.2643C33.5457 87.5685 33.4492 88.07 33.2391 88.0819ZM27.5738 96.4814C27.3959 96.5493 27.1199 96.5359 26.9708 96.4372C26.8505 96.3591 26.854 96.0922 26.7456 95.708C27.7872 93.111 29.5943 91.2431 32.6091 90.7502C32.7022 90.7366 32.8733 90.7876 32.897 90.8506C32.9665 91.0375 33.0765 91.2925 33.0053 91.4386C31.8401 93.8147 30.0702 95.5483 27.5738 96.4814ZM27.7855 89.6132C27.191 90.1078 26.4932 90.3254 25.7632 90.4393C24.1712 90.6857 22.6079 90.5192 20.3875 89.8172C20.2757 89.7679 19.4967 89.4501 18.7396 89.0863C18.5888 89.0133 18.4415 88.7686 18.4364 88.5986C18.4313 88.4354 18.5753 88.1754 18.7193 88.1142C20.816 87.2253 23.0178 87.1284 25.2416 87.3579C26.2104 87.4582 27.0403 87.9239 27.7838 88.5561C28.1428 88.8621 28.1331 89.326 27.7855 89.6132ZM29.2607 89.9192C29.32 89.7917 29.3454 89.6863 29.3843 89.5725C29.7315 89.7186 30.0821 89.892 30.4445 89.9277C30.5343 89.9366 30.6223 89.943 30.7104 89.9515C30.0804 90.2268 29.4452 90.4937 28.8118 90.7656C28.9625 90.4835 29.1269 90.2082 29.2607 89.9192ZM21.8102 75.1427C21.7831 75.2667 21.5189 75.3364 21.3614 75.4316C21.2039 75.2973 20.9888 75.1954 20.899 75.0254C20.2944 73.8969 19.9336 72.6816 19.7558 71.4171C19.7135 71.1145 19.7609 70.7814 19.8405 70.484C19.8879 70.3089 20.0725 70.1662 20.2182 70.0319C20.2385 70.0149 20.3994 70.1237 20.4722 70.1967C21.3987 71.14 21.8407 72.3264 22.022 73.596C22.0931 74.094 21.9288 74.6345 21.8102 75.1427ZM17.8724 82.6108C17.7268 82.6992 17.3897 82.6822 17.2898 82.5751C17.1797 82.4562 17.2406 82.1774 17.2254 81.9428C17.62 80.4913 18.4093 79.2591 19.5339 78.2411C19.6829 78.1051 19.8946 78.0014 20.0928 77.9709C20.2825 77.9403 20.4959 78.0049 20.6839 78.0729C20.7398 78.0932 20.7617 78.2666 20.7601 78.3686C20.6991 80.3996 19.4696 81.6386 17.8724 82.6108ZM16.8291 73.9971C16.8177 74.0787 16.7173 74.1722 16.6326 74.2079C16.5581 74.2419 16.4243 74.2419 16.3668 74.1964C14.9525 73.0645 14.5596 71.4464 14.2954 69.7672C14.3682 69.5904 14.4427 69.4103 14.5173 69.2301C14.6815 69.2981 14.9 69.3203 15 69.4409C15.9501 70.5932 16.5005 71.941 16.8494 73.3789C16.8952 73.5726 16.863 73.7948 16.8291 73.9971ZM15.6351 77.6904C14.7171 79.5481 13.352 80.9605 11.45 81.8188C11.3586 81.8596 11.2451 81.846 11.1401 81.8562C11.0655 81.8137 10.9622 81.7882 10.925 81.7236C10.8776 81.6403 10.837 81.5009 10.8758 81.4295C11.7294 79.8335 12.7609 78.3838 14.2801 77.3487C14.4546 77.2298 14.6392 77.0853 14.8356 77.0547C15.1032 77.0123 15.3945 77.0394 15.6588 77.1057C15.7011 77.1159 15.7182 77.5221 15.6351 77.6904ZM7.49698 75.9381C6.03873 75.5676 4.75663 74.8027 3.44064 74.1212C3.29669 74.0481 3.1612 73.7915 3.17136 73.63C3.18279 73.4669 3.35088 73.2221 3.50331 73.1745C6.72806 72.1445 9.7682 72.5898 12.6339 74.366C12.8879 74.524 12.9049 74.9897 12.666 75.1461C11.0621 76.2066 9.32615 76.3868 7.49698 75.9381ZM35.0073 73.8339C35.0632 73.4226 35.0988 73.008 35.1309 72.719C35.4662 71.8233 35.5611 70.9531 36.225 70.3633C36.3571 70.2444 36.5908 70.224 36.7839 70.2002C36.8296 70.1951 36.9397 70.3599 36.9431 70.4517C36.9702 71.0721 37.038 71.6993 36.9736 72.3128C36.8923 73.0675 36.4554 73.6759 35.8964 74.1705C35.7728 74.281 35.5187 74.2759 35.3257 74.2741C35.0632 74.2703 34.97 74.1008 35.0073 73.8339ZM32.7987 75.9347C31.6098 76.5788 30.3734 76.6027 29.0778 76.2033C28.4206 75.9432 27.6771 75.7647 27.2147 75.1223C27.1097 74.9778 27.0843 74.7637 27.0691 74.5767C27.0652 74.5274 27.2283 74.4357 27.3265 74.4136C29.1438 74.0175 30.8951 74.2555 32.5904 74.9897C32.6835 75.0305 32.7903 75.0984 32.8343 75.1851C32.9207 75.35 32.9884 75.5336 33.0139 75.7154C33.0202 75.7783 32.8868 75.8854 32.7987 75.9347ZM31.664 69.2654C31.4624 69.0631 31.1999 68.764 31.2169 68.521C31.3083 67.2547 31.6318 66.0582 32.5887 65.1336C32.6599 65.0639 32.8174 64.9636 32.8479 64.9891C32.9834 65.0962 33.1392 65.2254 33.1883 65.3784C33.4135 66.0939 33.3729 66.8163 33.1747 67.5352C33.007 68.1505 32.7479 68.7164 32.2042 69.0869C32.045 69.194 31.7267 69.3283 31.664 69.2654ZM28.5527 70.5741C28.1445 70.6251 27.7076 70.7424 27.3214 70.6557C26.3899 70.4466 25.6142 69.9197 24.9706 69.211C24.9113 69.1481 24.9283 69.0173 24.9096 68.917C24.9435 68.8337 24.9858 68.6773 25.0129 68.679C26.3881 68.7928 27.6838 69.1277 28.717 70.1237C28.7694 70.1747 28.805 70.3056 28.7779 70.3667C28.7373 70.4534 28.6391 70.5639 28.5527 70.5741ZM28.341 65.2475C28.2868 65.3886 28.004 65.4446 27.8295 65.5364C27.6246 65.4786 27.396 65.465 27.2266 65.358C26.1951 64.7104 25.5617 63.7348 25.0959 62.6385C24.5929 61.4556 24.261 60.2217 24.1441 58.9402C24.1289 58.76 24.2085 58.5679 24.261 58.3861C24.3118 58.2076 24.8774 58.2926 25.145 58.5033C26.0698 59.2325 26.8658 60.0841 27.5247 61.063C28.131 61.9621 28.5426 62.9445 28.6154 64.0272C28.6442 64.43 28.49 64.86 28.341 65.2475ZM22.215 44.6276C22.1947 44.6956 22.1658 44.7415 22.1455 44.8061C21.0616 42.5915 19.9675 40.3837 18.8717 38.1759C18.7785 37.9906 18.6515 37.7985 18.4872 37.6796C18.3398 37.5725 18.0909 37.4757 17.9435 37.53C17.7945 37.5861 17.5861 37.8836 17.6268 37.9856C18.1434 39.2705 18.6955 40.5417 19.2527 41.8114C19.3747 42.0901 19.3391 42.2397 19.0596 42.2635C18.9665 42.2724 18.8344 42.2546 18.7802 42.1937C17.8605 41.1621 16.9595 40.1117 16.033 39.0834C15.5351 38.5311 15.0152 37.9957 14.4698 37.4909C14.3615 37.3889 14.087 37.4161 13.9075 37.4587C13.6331 37.5266 13.5789 37.9838 13.8059 38.2643C14.209 38.7589 14.6188 39.2483 15.027 39.7378C16.1211 41.0466 17.222 42.3502 18.3009 43.6725C18.3907 43.783 18.3399 44.0073 18.3533 44.179C18.1501 44.1569 17.9452 44.1365 17.7419 44.1143C16.7291 43.5262 15.7265 42.9246 14.7035 42.3569C14.4359 42.209 14.1141 42.1546 13.8092 42.0918C13.7314 42.0748 13.5738 42.1666 13.545 42.2447C13.4806 42.4164 13.4485 42.6101 13.4552 42.7954C13.4565 42.877 13.5653 42.979 13.65 43.0334C15.4199 44.1568 17.1914 45.2751 18.9596 46.4003C18.2432 46.3408 17.5471 46.2592 16.9459 46.2031C15.9635 45.8054 15.1336 45.5539 14.385 45.1528C11.516 43.6147 9.82906 41.3422 10.034 37.9175C10.1661 35.6944 11.8598 34.124 14.0802 34.3075C14.8102 34.3687 15.5571 34.5624 16.2362 34.8412C18.2669 35.6757 19.8471 37.0983 21.1513 38.8455C22.4588 40.5961 22.7993 42.5184 22.215 44.6276ZM19.3679 9.43531C19.2663 10.4075 19.1241 11.8963 18.9428 13.3818C18.9073 13.6843 18.7311 13.9716 18.6007 14.2571C18.5905 14.281 18.3975 14.2758 18.367 14.2316C18.1942 13.9733 17.9961 13.7149 17.8961 13.4243C17.2288 11.502 16.6005 9.56784 15.923 7.64896C15.7486 7.15608 15.4725 6.6921 15.1863 6.25019C15.132 6.16517 14.8204 6.22469 14.6358 6.26038C14.5647 6.27402 14.4597 6.41676 14.4681 6.48644C14.5275 6.90285 14.5698 7.32948 14.6985 7.72548C15.3251 9.65966 15.9755 11.587 16.6174 13.5161C16.7054 13.7795 16.6187 13.9563 16.3464 14.0056C16.2668 14.0192 16.1432 13.9733 16.0873 13.9104C15.0813 12.8039 14.0938 11.6805 13.0742 10.5859C12.7914 10.2834 12.4374 10.0301 12.075 9.82957C11.9412 9.75309 11.6838 9.87378 11.4958 9.94172C11.4602 9.95536 11.4534 10.1593 11.4945 10.2477C11.6232 10.5332 11.7367 10.8425 11.9331 11.0771C13.6014 13.0792 15.2832 15.0695 16.9684 17.0563C16.8211 17.0172 16.6737 16.9713 16.5281 16.9187C13.3829 15.7884 10.9644 13.822 9.59417 10.6998C8.74903 8.77068 8.63387 6.77873 9.21987 4.66609C9.30968 4.44684 9.41973 4.14603 9.54845 3.852C10.4969 1.69518 12.2753 0.809678 14.4957 1.5762C18.2573 2.87472 20.891 5.29666 21.8547 9.32646C22.5101 12.068 21.7394 14.32 19.868 16.2133C20.1034 13.8118 20.3168 11.4085 20.5251 9.00525C20.534 8.90328 20.5099 8.77579 20.4523 8.69591C20.3338 8.53614 20.1966 8.30839 20.0408 8.2829C19.9137 8.26416 19.7308 8.48517 19.6021 8.62624C19.5395 8.69762 19.5391 8.82683 19.3679 9.43531ZM34.1554 15.8293C33.9166 17.5238 33.6879 19.2217 33.4271 20.9145C33.3797 21.2154 33.2239 21.5128 33.0647 21.7797C32.9901 21.9055 32.5498 21.2544 32.482 20.753C32.3686 19.9066 32.272 19.0551 32.2026 18.2036C32.1416 17.4575 32.1552 16.7046 32.079 15.9601C32.0485 15.6627 31.8774 15.3738 31.7436 15.0916C31.703 15.0066 31.5743 14.9132 31.4896 14.9166C31.4066 14.9204 31.305 15.0271 31.2525 15.1137C31.1441 15.2922 30.9917 15.4826 30.9815 15.6746C30.8561 18.1102 31.0492 20.5032 31.8639 22.8028C31.6623 22.5835 31.471 22.3541 31.3101 22.1111C30.1753 20.391 29.4504 18.4875 29.176 16.4479C28.8 13.6299 29.486 11.1349 31.6386 9.15487C32.687 8.18948 33.8895 7.52832 35.3004 7.30056C36.5266 7.10511 37.6681 7.394 38.5556 8.26255C39.1585 8.85062 39.7039 9.54408 40.107 10.2817C41.511 12.8498 41.6398 15.5811 40.925 18.5045C40.7455 18.9957 40.5727 19.6194 40.2984 20.1973C39.4431 22.004 38.1728 23.3739 36.2319 24.0588C35.8948 24.1761 35.5646 24.2526 35.2428 24.2883C36.9026 22.2079 38.205 19.9474 38.4929 17.1839C38.5234 16.8966 38.3846 16.7675 38.1203 16.8066C38.0238 16.8202 37.9001 16.8155 37.8392 16.8728C37.6867 17.0173 37.5123 17.1703 37.4378 17.3555C37.16 18.0507 36.889 18.7526 36.6689 19.4665C36.3149 20.612 35.7221 21.6216 35.0192 22.5717C34.9599 22.6516 34.8431 22.7093 34.7448 22.7246C34.7042 22.7297 34.6059 22.5955 34.5992 22.519C34.4688 21.1151 34.7364 19.7537 34.9921 18.3838C35.2665 16.9136 35.4545 15.4282 35.6442 13.9444C35.6645 13.7965 35.4765 13.5518 35.3241 13.4736C35.2292 13.4261 34.9464 13.5654 34.8735 13.6929C34.7177 13.9682 34.628 14.2826 34.5416 14.5902C34.4281 15.0032 34.3451 15.4247 34.2486 15.8429C34.2164 15.8378 34.1859 15.8327 34.1554 15.8293ZM59.1726 79.5872C59.1184 79.7061 58.8373 79.8047 58.6747 79.7826C56.2087 79.4597 54.8199 77.7669 53.6682 75.7783C53.4514 75.4044 53.4277 74.9727 53.636 74.9574C53.8325 74.9421 54.0306 74.9846 54.2153 74.9999C55.5465 75.6984 56.7524 76.5584 57.8296 77.5901C58.2852 78.0269 58.7052 78.5096 59.0998 79.0042C59.2082 79.1401 59.2421 79.4291 59.1726 79.5872ZM58.2953 63.5309C57.7719 62.698 57.4586 61.7853 57.3858 60.8216C57.2825 59.4398 57.2384 58.0428 57.5941 57.0774C58.0412 55.6871 58.2614 54.6231 59.1353 53.8872C59.3352 53.7206 59.5147 53.724 59.6739 53.9534C60.4852 55.1211 60.8002 56.4791 61.0915 57.8303C61.5116 59.7747 61.2507 61.6562 60.3802 63.4442C60.1939 63.8283 59.9737 64.1767 59.53 64.3365C59.1726 64.4657 58.6713 64.1308 58.2953 63.5309ZM57.7618 69.8449C57.5822 69.9231 57.3807 69.9537 57.1436 70.0115C56.8912 69.8908 56.5779 69.7973 56.3289 69.6121C54.8605 68.5277 53.6783 67.2038 53.0381 65.4548C53.0025 65.358 52.989 65.1608 53.0111 65.1523C53.1923 65.0927 53.4396 64.9721 53.5683 65.0452C55.4296 66.1126 56.9438 67.5216 57.7991 69.5441C57.8346 69.6292 57.8104 69.8228 57.7618 69.8449ZM61.4574 67.9737C62.3516 66.7551 63.4711 65.7761 64.8328 65.1047C65.0954 64.9739 65.4307 64.9891 65.7322 64.9364C65.7169 65.2441 65.8017 65.6044 65.6696 65.8457C64.843 67.3601 63.7625 68.6655 62.3195 69.6342C62.057 69.8093 61.7606 69.952 61.4608 70.0472C61.2745 70.105 60.9713 70.1288 60.8629 70.0217C60.7528 69.9112 60.8138 69.6257 60.7884 69.2722C60.9713 68.9102 61.1491 68.3952 61.4574 67.9737ZM62.377 78.0218C63.085 75.9194 63.7286 75.0475 65.4934 73.7847C65.7931 73.5705 66.3029 73.5297 66.3521 73.7218C66.4012 73.919 66.4689 74.1553 66.4063 74.3303C65.8322 75.9484 64.9887 77.3965 63.6084 78.4655C63.3645 78.6542 63.0715 78.7816 62.7886 78.9108C62.7073 78.9465 62.5701 78.912 62.4838 78.8649C62.4126 78.8241 62.3415 78.7187 62.3398 78.6389C62.3309 78.4332 62.3618 78.2275 62.377 78.0218ZM72.1901 78.8682C72.2545 78.2377 72.3917 77.6157 72.4882 77.0395C72.7643 76.2916 73.0184 75.5948 73.2809 74.9013C73.6637 73.8985 74.3039 73.0573 75 72.2601C75.1168 72.1276 75.3929 72.0358 75.5622 72.0732C75.7164 72.1054 75.8891 72.323 75.9433 72.4929C76.7326 74.9591 76.3447 77.3063 75.1558 79.5481C74.8001 80.216 74.2293 80.6868 73.5028 80.9571C73.2656 81.0438 72.8117 80.9027 72.6813 80.6767C72.3595 80.1158 72.1258 79.5192 72.1901 78.8682ZM70.5236 92.0233C70.4016 92.1406 70.2357 92.212 70.0612 92.3173C68.791 92.0403 67.7138 91.4523 67.0549 90.2472C67.0092 90.164 66.9771 89.9974 67.0228 89.9498C67.1413 89.8274 67.326 89.6507 67.4496 89.6762C68.7419 89.9362 69.7801 90.6007 70.5016 91.7242C70.5508 91.8023 70.5711 91.9774 70.5236 92.0233ZM70.3136 86.5471C70.2492 86.6168 70.1052 86.6814 70.0239 86.6577C68.337 86.1495 66.977 85.2146 66.1471 83.6085C66.098 83.5167 66.0693 83.4063 66.0608 83.3009C66.0506 83.199 66.0439 83.0358 66.0998 82.9984C66.2488 82.8998 66.4334 82.8557 66.6451 82.7741C68.3642 83.2279 69.6565 84.2289 70.3543 85.9421C70.3915 86.0339 70.4067 86.1444 70.4 86.2447C70.3949 86.3501 70.378 86.4774 70.3136 86.5471ZM73.1505 86.5522C73.4824 85.9846 73.9736 85.6039 74.5359 85.303C75.6639 84.698 76.8765 84.3835 78.1451 84.268C78.4059 84.2441 78.5668 84.3479 78.5922 84.6113C78.6024 84.7047 78.5719 84.8237 78.516 84.9002C77.5489 86.231 76.2448 87.0638 74.6578 87.4275C74.27 87.5176 73.8398 87.4161 73.7924 87.4139C73.1589 87.232 73.0167 86.7783 73.1505 86.5522ZM74.4106 92.1219C75.2523 91.2364 76.2651 90.713 77.493 90.6552C77.5811 90.6513 77.6709 90.7333 77.7589 90.7758C77.9554 90.9543 77.9723 91.148 77.8047 91.3537C77.0053 92.3344 75.9078 92.6675 74.712 92.778C74.6155 92.7869 74.4919 92.7423 74.4173 92.6811C74.2039 92.5044 74.2221 92.319 74.4106 92.1219ZM92.9292 111.6C92.9003 112.308 92.2585 112.759 91.5505 112.56C89.3284 112.04 87.9091 110.616 87.4755 108.302C87.2638 107.165 87.2266 105.992 87.147 104.833C87.1355 104.668 87.2875 104.425 87.4349 104.334C87.5772 104.245 87.8685 104.225 87.9972 104.313C89.3962 105.284 90.641 106.433 91.6267 107.82C92.1094 108.499 92.5007 109.269 92.8004 110.05C92.9783 110.515 92.9478 111.081 92.9292 111.6ZM164.055 109.973C164.355 109.193 164.744 108.425 165.229 107.745C166.214 106.358 167.457 105.207 168.856 104.238C168.987 104.148 169.278 104.171 169.42 104.259C169.568 104.349 169.72 104.592 169.708 104.759C169.627 105.918 169.591 107.089 169.378 108.228C168.946 110.539 167.527 111.965 165.305 112.483C164.597 112.684 163.955 112.233 163.928 111.525C163.906 111.006 163.875 110.439 164.055 109.973ZM182.438 92.6046C182.362 92.6658 182.24 92.71 182.143 92.7014C180.948 92.5927 179.85 92.2596 179.051 91.2772C178.883 91.0715 178.898 90.8778 179.096 90.6993C179.184 90.6569 179.276 90.5753 179.361 90.5804C180.59 90.6381 181.603 91.1616 182.445 92.0471C182.633 92.2443 182.651 92.4278 182.438 92.6046ZM184.174 80.6002C184.044 80.8279 183.59 80.969 183.351 80.8806C182.626 80.6121 182.054 80.1412 181.7 79.4716C180.512 77.2315 180.123 74.8826 180.912 72.4165C180.968 72.2465 181.141 72.0306 181.291 71.9983C181.462 71.961 181.738 72.051 181.855 72.1853C182.551 72.9824 183.192 73.8221 183.574 74.8265C183.837 75.5183 184.089 76.2169 184.367 76.963C184.464 77.5392 184.602 78.1629 184.663 78.7917C184.73 79.4444 184.496 80.0393 184.174 80.6002ZM183.063 87.3391C183.016 87.3404 182.585 87.4428 182.198 87.3528C180.611 86.9891 179.306 86.1546 178.339 84.8238C178.283 84.7473 178.253 84.6283 178.261 84.5348C178.289 84.2714 178.449 84.1677 178.71 84.1915C179.979 84.3088 181.192 84.6232 182.32 85.2266C182.88 85.5274 183.373 85.9081 183.705 86.4775C183.837 86.7035 183.695 87.1556 183.063 87.3391ZM186.501 85.8656C187.197 84.154 188.489 83.153 190.21 82.6975C190.422 82.7791 190.607 82.8249 190.756 82.9218C190.812 82.9592 190.803 83.1224 190.795 83.2261C190.786 83.3297 190.756 83.4402 190.708 83.5337C189.878 85.1382 188.52 86.0746 186.831 86.5811C186.75 86.6066 186.606 86.542 186.542 86.4724C186.477 86.4027 186.46 86.2752 186.454 86.1698C186.447 86.0695 186.464 85.959 186.501 85.8656ZM186.354 91.6494C187.075 90.5259 188.113 89.8597 189.406 89.5997C189.528 89.5742 189.714 89.7527 189.831 89.875C189.877 89.9209 189.846 90.0875 189.799 90.1725C189.142 91.3775 188.064 91.9655 186.794 92.2409C186.62 92.1354 186.452 92.0658 186.332 91.9468C186.284 91.9026 186.303 91.7259 186.354 91.6494ZM194.372 78.7883C194.285 78.8377 194.146 78.8716 194.065 78.8342C193.784 78.7051 193.491 78.5776 193.247 78.389C191.867 77.3216 191.023 75.8735 190.449 74.2538C190.386 74.0787 190.454 73.8424 190.503 73.6453C190.552 73.4532 191.062 73.4957 191.36 73.7099C193.127 74.9727 193.769 75.8447 194.478 77.9454C194.494 78.1511 194.524 78.3584 194.516 78.5624C194.514 78.6423 194.443 78.7492 194.372 78.7883ZM195.991 69.9469C195.884 70.054 195.581 70.0301 195.393 69.9707C195.093 69.8755 194.798 69.7328 194.536 69.5578C193.093 68.589 192.012 67.2854 191.186 65.771C191.054 65.528 191.138 65.1676 191.123 64.8617C191.425 64.9127 191.76 64.899 192.023 65.0282C193.383 65.6996 194.504 66.6786 195.398 67.8989C195.706 68.3187 195.884 68.8337 196.067 69.1974C196.042 69.5493 196.103 69.8364 195.991 69.9469ZM196.473 63.3694C195.605 61.5797 195.344 59.6982 195.764 57.7555C196.055 56.4026 196.37 55.0446 197.181 53.8787C197.341 53.6475 197.52 53.6441 197.72 53.8124C198.594 54.5483 198.812 55.6106 199.26 57.0026C199.617 57.968 199.573 59.3633 199.468 60.7469C199.395 61.7088 199.082 62.6233 198.56 63.4561C198.184 64.0561 197.683 64.3909 197.325 64.26C196.882 64.102 196.66 63.7518 196.473 63.3694ZM199.056 69.4677C199.912 67.4451 201.426 66.0361 203.287 64.9704C203.414 64.8974 203.661 65.018 203.844 65.0775C203.866 65.0839 203.853 65.2832 203.817 65.3784C203.177 67.1273 201.997 68.4512 200.526 69.5373C200.277 69.7209 199.964 69.816 199.712 69.935C199.475 69.8773 199.271 69.8483 199.092 69.7684C199.043 69.7464 199.021 69.5526 199.056 69.4677ZM197.756 78.9295C198.15 78.4332 198.569 77.9521 199.026 77.5136C200.103 76.4836 201.309 75.6236 202.64 74.9234C202.825 74.9081 203.025 74.8674 203.219 74.881C203.428 74.8963 203.404 75.328 203.187 75.7036C202.035 77.6922 200.647 79.3833 198.181 79.7079C198.016 79.7299 197.737 79.6314 197.683 79.5107C197.613 79.3544 197.647 79.0654 197.756 78.9295ZM222.312 14.5155C222.227 14.2078 222.138 13.8917 221.982 13.618C221.909 13.4906 221.626 13.3495 221.531 13.3988C221.377 13.4769 221.191 13.72 221.21 13.8696C221.401 15.3517 221.589 16.8389 221.863 18.3073C222.119 19.6789 222.385 21.0403 222.256 22.4425C222.25 22.519 222.15 22.655 222.111 22.6482C222.012 22.6345 221.895 22.5751 221.836 22.4969C221.133 21.5451 220.541 20.5355 220.187 19.3917C219.965 18.6778 219.695 17.9759 219.416 17.2807C219.341 17.0938 219.169 16.9408 219.016 16.7981C218.955 16.7403 218.832 16.7454 218.735 16.7318C218.471 16.6927 218.332 16.8201 218.362 17.1074C218.65 19.8727 219.953 22.1315 221.613 24.2118C221.291 24.1761 220.961 24.1013 220.624 23.9824C218.681 23.2991 217.412 21.9275 216.557 20.1225C216.283 19.5446 216.11 18.9192 215.932 18.428C215.216 15.5063 215.343 12.775 216.748 10.2069C217.151 9.46927 217.697 8.77414 218.3 8.18607C219.187 7.31926 220.329 7.02861 221.555 7.22576C222.964 7.45181 224.168 8.113 225.217 9.07839C227.369 11.0601 228.055 13.5552 227.678 16.3714C227.405 18.411 226.68 20.3163 225.544 22.0346C225.384 22.2776 225.193 22.5088 224.99 22.7263C225.806 20.4284 225.998 18.0337 225.874 15.5981C225.864 15.4061 225.711 15.2157 225.603 15.039C225.549 14.9523 225.449 14.8452 225.366 14.8418C225.281 14.8379 225.151 14.9319 225.112 15.0152C224.978 15.2973 224.807 15.5862 224.776 15.8854C224.699 16.6298 224.714 17.381 224.653 18.1271C224.583 18.9804 224.485 19.8302 224.372 20.6783C224.306 21.1797 223.864 21.8306 223.789 21.7048C223.632 21.4363 223.474 21.1406 223.428 20.838C223.167 19.1452 222.939 17.449 222.7 15.7528C222.669 15.7579 222.639 15.763 222.607 15.7664C222.51 15.35 222.427 14.9285 222.312 14.5155ZM236.815 8.20817C236.657 8.23201 236.52 8.45971 236.403 8.62118C236.346 8.69932 236.322 8.82854 236.331 8.92881C236.541 11.3338 236.752 13.737 236.988 16.1386C235.116 14.2435 234.346 11.9932 235.001 9.25002C235.965 5.22192 238.597 2.79828 242.36 1.50147C244.581 0.734936 246.357 1.61872 247.307 3.77724C247.436 4.06957 247.548 4.3704 247.634 4.59136C248.222 6.70229 248.107 8.69596 247.262 10.625C245.891 13.7472 243.473 15.712 240.326 16.8439C240.182 16.8966 240.035 16.9425 239.887 16.9799C241.573 14.993 243.254 13.0028 244.923 11.0023C245.119 10.7661 245.233 10.4567 245.361 10.1712C245.402 10.0829 245.395 9.8789 245.36 9.867C245.172 9.79727 244.915 9.67834 244.781 9.75317C244.418 9.95543 244.064 10.2087 243.782 10.5112C242.762 11.6041 241.775 12.7292 240.768 13.834C240.711 13.8968 240.589 13.9445 240.508 13.9292C240.237 13.8799 240.149 13.7031 240.237 13.4414C240.88 11.5106 241.531 9.58492 242.156 7.65075C242.284 7.25304 242.328 6.82645 242.386 6.41003C242.396 6.34031 242.291 6.19929 242.222 6.18569C242.035 6.15 241.722 6.09048 241.668 6.1755C241.383 6.6174 241.106 7.07968 240.931 7.57427C240.255 9.49314 239.625 11.4273 238.96 13.3496C238.86 13.6385 238.662 13.8969 238.489 14.1552C238.458 14.1994 238.265 14.2062 238.253 14.1807C238.125 13.8952 237.949 13.6079 237.911 13.3071C237.73 11.8216 237.588 10.331 237.486 9.35887C237.317 8.75039 237.318 8.62124 237.252 8.55155C237.124 8.41049 236.942 8.18777 236.815 8.20817ZM235.702 38.7708C237.006 37.0218 238.588 35.5993 240.619 34.7648C241.298 34.486 242.045 34.2939 242.775 34.2328C244.994 34.0475 246.687 35.6197 246.821 37.8428C247.026 41.2675 245.339 43.5399 242.47 45.0763C241.722 45.4791 240.892 45.7307 239.909 46.1267C239.308 46.1828 238.61 46.2661 237.894 46.3239C239.664 45.2005 241.435 44.0821 243.204 42.9569C243.288 42.9043 243.397 42.8006 243.4 42.719C243.405 42.5354 243.375 42.34 243.31 42.1683C243.281 42.0918 243.124 42.0001 243.044 42.0171C242.741 42.0799 242.419 42.1343 242.153 42.2805C241.129 42.8482 240.124 43.4498 239.113 44.0396C238.908 44.0617 238.705 44.082 238.5 44.1042C238.515 43.9308 238.465 43.7065 238.554 43.5961C239.633 42.2755 240.734 40.9718 241.827 39.6631C242.236 39.1719 242.648 38.6842 243.049 38.1879C243.275 37.9091 243.222 37.4519 242.948 37.3839C242.768 37.3397 242.494 37.3142 242.385 37.4161C241.84 37.9209 241.318 38.4563 240.821 39.0087C239.896 40.0369 238.995 41.0856 238.075 42.119C238.021 42.1785 237.887 42.1972 237.796 42.1888C237.514 42.1633 237.479 42.0154 237.603 41.7367C238.16 40.467 238.712 39.1957 239.229 37.9108C239.269 37.8088 239.061 37.5096 238.912 37.4553C238.764 37.4008 238.515 37.4961 238.368 37.6032C238.204 37.7221 238.075 37.9142 237.984 38.1011C236.886 40.3072 235.792 42.5167 234.71 44.7296C234.689 44.6668 234.659 44.6209 234.64 44.5529C234.056 42.4436 234.396 40.5214 235.702 38.7708ZM220.957 74.094C220.4 73.6012 219.961 72.991 219.882 72.2363C219.817 71.6245 219.886 70.9956 219.912 70.3752C219.916 70.2851 220.026 70.1186 220.071 70.1254C220.263 70.1475 220.496 70.1696 220.632 70.2886C221.293 70.8783 221.387 71.7486 221.724 72.6443C221.757 72.9315 221.794 73.3462 221.848 73.7575C221.885 74.026 221.792 74.1943 221.53 74.1977C221.337 74.2015 221.084 74.2066 220.957 74.094ZM224.019 75.1087C224.063 75.0236 224.172 74.954 224.265 74.9149C225.96 74.1807 227.712 73.9427 229.529 74.3387C229.627 74.3591 229.79 74.4526 229.786 74.5002C229.771 74.6872 229.744 74.9013 229.641 75.0458C229.177 75.6899 228.433 75.8684 227.778 76.1268C226.482 76.5279 225.246 76.5041 224.057 75.8582C223.967 75.8089 223.833 75.7036 223.841 75.6407C223.865 75.4571 223.935 75.2735 224.019 75.1087ZM224.651 69.0104C224.107 68.6399 223.848 68.074 223.679 67.4587C223.482 66.7415 223.442 66.0191 223.667 65.3036C223.715 65.1489 223.872 65.0197 224.006 64.9143C224.038 64.8888 224.196 64.9874 224.267 65.0571C225.222 65.9817 225.546 67.18 225.639 68.4462C225.656 68.6892 225.393 68.9883 225.19 69.1906C225.129 69.2518 224.809 69.1192 224.651 69.0104ZM229.331 60.9866C229.99 60.0076 230.784 59.1577 231.71 58.4269C231.978 58.2161 232.544 58.1328 232.594 58.3096C232.645 58.4915 232.726 58.6836 232.71 58.8637C232.594 60.1469 232.261 61.3808 231.759 62.5638C231.294 63.6583 230.66 64.6356 229.629 65.2831C229.459 65.3902 229.231 65.4039 229.026 65.4616C228.851 65.3682 228.57 65.3138 228.514 65.171C228.364 64.7852 228.213 64.3535 228.238 63.9524C228.313 62.8697 228.724 61.8857 229.331 60.9866ZM228.138 70.0472C229.171 69.0512 230.465 68.7181 231.841 68.6042C231.87 68.6004 231.91 68.7589 231.946 68.8422C231.927 68.9407 231.942 69.0716 231.885 69.1362C231.241 69.8433 230.464 70.3701 229.532 70.5809C229.146 70.6659 228.713 70.5487 228.301 70.4993C228.216 70.4878 228.118 70.3786 228.077 70.2903C228.05 70.2291 228.086 70.0982 228.138 70.0472ZM255.679 72.6629C255.322 72.442 254.969 72.1785 254.577 72.0527C251.636 71.1111 248.7 71.0126 245.973 72.1615C245.08 72.4113 244.367 72.6238 243.649 72.8073C243.429 72.8618 243.253 72.6917 243.29 72.4232C243.456 71.2607 243.696 70.1066 243.81 68.939C243.859 68.4291 243.673 67.8938 243.578 67.372C243.544 67.1918 242.929 66.9402 242.751 67.0371C242.38 67.236 241.938 67.3703 241.661 67.6592C239.659 69.7685 238.663 72.3077 238.588 75.2089C238.584 75.3313 238.61 75.4604 238.639 75.5879C238.082 75.7409 237.526 75.899 236.969 76.0519C236.963 75.8684 237.016 75.6542 237.137 75.3262C237.426 74.5223 237.755 73.7268 237.994 72.9076C238.388 71.553 238.522 70.1764 238.126 68.7912C238.097 68.6892 238.068 68.5872 238.04 68.4835C237.894 67.9618 237.21 67.7187 236.756 68.0026C235.521 68.7725 234.803 69.9486 234.236 71.2352C233.517 72.86 233.316 74.5189 233.949 76.2304C234.022 76.4293 234.095 76.6298 234.169 76.8286C231.634 77.5306 229.097 78.2206 226.565 78.9396C223.991 79.6704 221.443 80.4913 218.879 81.2596C218.683 81.3191 218.457 81.2988 218.249 81.2835C218.215 81.2822 218.141 81.0659 218.176 81.0166C218.488 80.5951 218.791 80.1617 219.15 79.7826C220.212 78.6592 221.228 77.4983 222.221 76.3188C222.758 76.6043 223.293 76.8916 223.85 77.1279C226.743 78.3516 230.03 77.2876 231.643 74.6464C231.902 74.2232 231.616 73.4635 231.141 73.3326C229.476 72.8686 227.793 72.7802 226.094 73.1133C225.574 73.2153 225.058 73.3326 224.539 73.438C225.059 72.7598 225.571 72.0749 226.069 71.3797C227.835 72.0358 229.915 71.9746 231.571 70.9871C232.769 70.275 233.794 69.3351 234.483 68.1011C234.605 67.8819 234.515 67.4893 234.412 67.219C234.364 67.0915 234.041 66.9777 233.866 67.0066C232.716 67.1953 231.573 67.4247 230.428 67.6423C230.442 67.7 230.457 67.7612 230.472 67.819C229.649 68.0502 228.826 68.2813 228.005 68.5125C228.306 68.023 228.619 67.5403 228.909 67.0423C228.934 66.9948 228.933 66.9419 228.951 66.8927C228.955 66.894 228.958 66.894 228.962 66.8965C229.361 66.7299 229.663 66.6263 229.94 66.4818C231.448 65.7017 232.339 64.3845 232.947 62.865C233.626 61.1671 233.965 59.3791 234.114 57.5605C234.131 57.3566 234.029 57.1458 233.99 56.9385C233.951 56.7396 233.473 56.3555 233.279 56.4013C232.871 56.4982 232.417 56.534 232.064 56.7396C230.074 57.8954 228.592 59.5423 227.59 61.6175C227.115 62.6033 226.961 63.6588 227.043 64.7431C227.092 65.4077 227.376 66.006 227.884 66.4207C227.911 66.4427 227.949 66.4512 227.979 66.4716C227.651 66.9628 227.332 67.4608 227.004 67.952C226.978 67.9893 226.951 68.0234 226.927 68.0608C226.628 66.6331 225.998 65.3431 225.242 64.1176C224.975 63.6825 224.522 63.3562 224.13 63.0078C223.84 62.7512 223.191 62.9109 223.02 63.2661C222.085 65.2088 221.97 67.1651 223.113 69.0499C223.566 69.7978 224.216 70.3909 224.961 70.8464C224.416 71.5976 223.852 72.3302 223.283 73.0628C223.13 72.7568 222.981 72.4441 222.895 72.1178C222.559 70.8515 221.813 69.808 221.13 68.7304C220.786 68.1882 220.165 67.884 219.828 68.0114C219.269 68.2256 219.054 68.7236 218.876 69.2199C218.469 70.362 218.513 71.5246 218.887 72.9149C219.156 74.0536 219.878 75.0853 221.121 75.7346C219.343 77.8217 217.461 79.8222 215.42 81.6883C214.385 82.6367 213.296 83.444 211.999 84.027C209.855 84.9924 207.777 86.1073 205.67 87.1594C205.301 87.343 204.997 87.7083 204.513 87.5928C204.396 86.9826 204.886 86.6852 205.184 86.2909C206.479 84.5811 207.868 82.9358 209.057 81.1563C211.618 77.3203 214.424 73.6593 216.999 69.8351C218.74 67.2517 220.605 64.7669 222.574 62.3585C224.612 59.8686 226.656 57.3871 228.702 54.9022C230.541 52.6689 232.387 50.4391 234.228 48.2041C234.657 47.6823 235.116 47.3169 235.87 47.4868C236.386 47.6041 236.933 47.6398 237.463 47.6245C240.951 47.5242 243.95 46.2648 246.238 43.5981C248.04 41.4991 248.443 39.0108 247.739 36.3475C247.099 33.9358 244.392 32.5896 242.207 33.0451C238.495 33.8167 235.859 36.0042 233.988 39.2012C233.329 40.3263 232.99 41.5772 233.177 42.9131C233.295 43.7612 233.334 44.6331 233.566 45.4506C233.832 46.3922 233.592 47.1231 232.994 47.82C232.645 48.2245 232.323 48.6544 231.981 49.0674C228.428 53.3624 224.871 57.6574 221.312 61.9506C221.179 62.1121 221.014 62.2531 220.842 62.3738C220.781 62.4146 220.642 62.3802 220.562 62.3364C220.496 62.2991 220.41 62.1818 220.427 62.1308C220.562 61.7263 220.686 61.3133 220.876 60.9326C223.568 55.5567 225.943 50.0346 228.343 44.5244C231.9 36.356 235.416 28.1723 238.288 19.7286C238.358 19.5264 238.422 19.319 238.518 19.127C238.712 18.7412 238.955 18.4063 239.404 18.2636C240.321 17.9729 241.247 17.7027 242.136 17.3407C244.717 16.2869 246.633 14.4513 247.935 12.0141C249.363 9.33378 249.67 6.52088 248.598 3.61622C247.544 0.762567 245.078 -0.600557 242.224 0.250954C237.414 1.68714 233.807 5.40082 233.485 11.324C233.456 11.8492 233.57 12.3897 233.681 12.9114C234.003 14.4258 234.737 15.7804 235.87 16.773C237.247 17.9764 237.292 19.2052 236.6 20.7467C236.029 22.0146 235.644 23.3658 235.153 24.6711C231.414 34.6258 227.054 44.3188 222.733 54.0236C221.426 56.9606 219.883 59.7921 218.45 62.6713C218.318 62.9364 218.162 63.0078 218.001 62.8446C217.942 62.7835 217.891 62.6526 217.915 62.5778C218.482 60.7337 219.065 58.8947 219.637 57.0506C222.72 47.1265 224.144 36.9781 223.707 26.5798C223.68 25.9017 223.807 25.3119 224.398 24.8887C226.917 23.0871 227.938 20.3966 228.688 17.5531C229.137 15.8501 229.01 14.1352 228.592 12.4543C227.74 9.02103 224.815 6.41551 221.395 5.95322C220.049 5.77135 218.869 6.11637 217.802 6.96107C216.943 7.63922 216.248 8.45334 215.761 9.41702C213.481 13.9278 213.718 18.3162 216.548 22.5109C217.343 23.687 218.474 24.5267 219.815 25.0213C220.516 25.2796 221.262 25.4258 221.951 25.7096C222.197 25.8099 222.381 26.1447 222.515 26.4115C222.605 26.5849 222.552 26.8314 222.561 27.0455C222.761 32.8548 222.337 38.6234 221.402 44.3562C220.03 52.7727 217.363 60.8119 214.221 68.7015C213.308 70.9909 212.219 73.2141 211.154 75.4406C210.691 76.4025 210.129 77.3254 209.538 78.2177C207.158 81.7954 204.565 85.2083 201.646 88.3645C197.56 92.7767 193.206 96.8949 188.528 100.666C188.279 100.867 188.012 101.042 187.741 101.207C187.664 101.253 187.539 101.232 187.439 101.224C187.202 101.198 187.121 101.03 187.265 100.77C188.201 99.0822 189.168 97.4115 190.086 95.7119C192.591 91.0754 194.737 86.2875 196.211 81.2074C196.234 81.1258 196.25 81.0442 196.272 80.9643C198.478 81.3637 200.423 80.689 202.159 79.0522C203.654 77.6415 204.647 75.8688 205.287 73.9092C205.317 73.8139 205.281 73.6984 205.293 73.5947C205.336 73.2718 204.799 72.7093 204.482 72.767C204.17 72.8231 203.832 72.8435 203.557 72.9846C201.376 74.1148 199.31 75.4167 197.582 77.1996C197.413 77.3747 197.245 77.5497 197.077 77.7265C197.492 75.7634 197.772 73.7817 197.951 71.7863C199.137 71.6997 200.302 71.2323 201.418 70.3808C203.627 68.6998 204.951 66.4393 205.791 63.8474C205.852 63.657 205.873 63.3749 205.774 63.2288C205.61 62.9823 205.361 62.7069 205.1 62.6424C204.826 62.5761 204.46 62.6729 204.196 62.8157C202.306 63.8355 200.636 65.1459 199.237 66.7878C198.876 67.211 198.525 67.663 198.163 68.1321C198.167 67.9383 198.185 67.748 198.188 67.5543C198.193 67.126 198.183 66.6824 198.068 66.2778C198.026 66.1334 197.916 66.0093 197.794 65.8887C197.96 65.8479 198.119 65.785 198.246 65.6694C199.564 64.4763 200.353 63.0061 200.602 61.2402C200.83 59.629 200.729 58.0245 200.338 56.4642C199.945 54.904 199.243 53.461 198.236 52.1897C197.897 51.7614 197.143 51.7648 196.82 52.1625C196.686 52.3257 196.523 52.4719 196.415 52.652C195.23 54.6066 194.569 56.7277 194.389 59.0086C194.313 59.9774 194.323 60.9309 194.616 61.9098C194.925 63.3732 195.565 64.6922 196.784 65.6847C196.923 65.7986 197.094 65.8597 197.272 65.8954C197.22 65.9583 197.167 66.023 197.159 66.0927C197.077 66.7674 197.028 67.4489 197.006 68.1288C196.871 67.9503 196.739 67.7752 196.62 67.5917C195.165 65.3397 193.051 63.9749 190.599 63.0775C190.32 62.9755 189.969 62.9908 189.671 63.0486C189.512 63.0808 189.344 63.2984 189.271 63.4718C189.193 63.6537 189.166 63.8983 189.219 64.0887C190.035 67.1259 191.832 69.4766 194.54 70.9756C195.285 71.3886 196.034 71.6283 196.778 71.7337C196.585 73.7885 196.271 75.8161 195.826 77.8166C195.641 77.4019 195.458 76.9872 195.28 76.5708C194.303 74.2933 192.579 72.7789 190.386 71.7473C190.196 71.6589 189.984 71.6232 189.784 71.5552C189.397 71.4226 188.858 71.8101 188.907 72.2044C188.985 72.8367 189.083 73.4638 189.144 73.8938C189.347 74.4955 189.476 74.9017 189.622 75.3046C190.547 77.8557 192.23 79.5944 194.811 80.57C194.908 80.6057 195.001 80.6261 195.096 80.6583C194.511 82.7267 193.81 84.7697 192.985 86.7854C191.111 91.3693 188.795 95.7255 186.192 99.927C185.518 101.016 184.703 102.021 183.936 103.053C183.821 103.209 183.614 103.301 183.452 103.423C183.227 103.595 183.123 103.53 183.198 103.246C183.445 102.318 183.696 101.389 183.963 100.466C184.605 98.2511 185.073 96.0161 185.337 93.7573C185.877 93.6927 186.409 93.6247 186.917 93.5771C189.383 92.8514 190.967 91.4254 191.664 89.0664C191.864 88.3899 191.299 87.7185 190.636 87.846C188.592 88.2454 186.875 89.1547 185.557 90.6979C185.582 89.8549 185.548 89.0069 185.51 88.1554C185.62 88.1315 185.728 88.1044 185.838 88.0789C187.923 87.6285 189.148 87.0421 190.396 85.9288C191.378 85.0552 192.032 83.9776 192.406 82.7199C192.588 82.1097 192.093 81.4503 191.424 81.3466C190.772 81.2463 190.144 81.3024 189.544 81.5472C188.145 82.1183 186.89 82.9001 186.018 84.1867C185.779 84.5386 185.571 84.9107 185.34 85.2694C185.32 85.2999 185.296 85.3187 185.274 85.3458C185.118 84.3414 184.891 83.3522 184.527 82.3919C184.505 82.3358 184.451 82.2916 184.402 82.2441C184.587 82.1574 184.754 82.0435 184.859 81.8888C185.955 80.2691 186.185 78.5338 185.582 76.7662C184.912 74.249 183.631 72.1738 181.966 70.3212C181.391 69.6788 180.518 69.8538 180.18 70.6594C178.953 73.5777 178.957 76.5095 180.232 79.3921C180.857 80.8045 181.938 81.8344 183.443 82.3494C183.552 82.3851 183.674 82.3987 183.796 82.397C183.789 82.4241 183.758 82.4547 183.758 82.4802C183.83 83.3062 183.928 84.1271 184.021 84.9497C182.129 83.4949 179.926 82.9289 177.531 82.9119C177.162 82.9081 176.623 83.2535 176.565 83.6189C176.52 83.9181 176.474 84.2903 176.606 84.5316C177.568 86.2788 179.043 87.472 180.855 88.242C181.853 88.6652 182.895 88.8181 183.973 88.5156C184.087 88.4833 184.204 88.4646 184.317 88.4357C184.366 89.5489 184.361 90.6519 184.3 91.7448C184.216 91.7346 184.119 91.7487 184.058 91.699C183.643 91.3675 183.238 91.0207 182.825 90.6893C181.613 89.7205 180.208 89.2651 178.682 89.2039C178.271 89.187 177.849 89.3246 177.441 89.4231C177.07 89.5133 176.787 90.1489 176.941 90.4667C178.09 92.8462 180.097 93.8999 182.612 93.9475C183.118 93.9577 183.623 93.9271 184.124 93.8829C183.636 97.945 182.42 101.874 180.662 105.705C180.158 106.807 179.36 107.623 178.344 108.297C174.685 110.723 170.995 113.097 167.13 115.181C165.436 116.095 163.714 116.954 162 117.829C161.915 117.871 161.707 117.868 161.7 117.843C161.653 117.688 161.57 117.465 161.641 117.368C162.33 116.411 163.06 115.487 163.748 114.53C163.905 114.307 164.075 114.066 164.083 113.792C164.308 113.859 164.535 113.898 164.754 113.864C165.067 113.819 165.379 113.758 165.65 113.712C168.239 112.944 169.921 111.36 170.51 108.7C170.905 106.921 170.975 105.123 170.876 103.312C170.865 103.11 170.744 102.913 170.671 102.714C170.602 102.524 170.067 102.269 169.862 102.332C169.662 102.391 169.43 102.391 169.257 102.495C166.85 103.938 164.876 105.83 163.422 108.245C162.862 109.174 162.589 110.213 162.608 111.29C162.617 111.807 162.777 112.336 162.957 112.827C163.031 113.033 163.17 113.208 163.333 113.362C163.185 113.444 163.038 113.554 162.903 113.721C162.091 114.717 161.317 115.749 160.457 116.702C158.338 119.053 133.373 124.109 130.338 125.08C129.659 125.297 128.988 125.538 128.319 125.787C128.086 125.702 127.85 125.623 127.618 125.542C127.544 122.217 127.766 120.332 128.02 116.639C128.025 116.569 128.131 116.507 128.25 116.376C128.445 116.592 128.618 116.818 128.822 117.01C129.691 117.82 130.528 118.672 131.456 119.408C132.149 119.959 133.009 120.543 133.871 119.828C134.654 119.18 134.315 118.278 134.01 117.477C133.817 116.969 133.556 116.486 133.343 115.985C133.258 115.784 133.001 115.592 133.316 115.281C133.655 115.398 134.017 115.538 134.386 115.648C135.143 115.878 135.895 116.163 136.671 116.287C137.445 116.413 138.256 116.464 139.032 116.376C140.466 116.213 141.093 115.188 140.69 113.816C140.578 113.437 140.395 113.078 140.246 112.71C140.08 112.303 139.918 111.894 139.76 111.501C139.882 111.406 139.95 111.314 140.036 111.292C140.275 111.229 140.519 111.188 140.763 111.149C144.48 110.541 147.929 109.295 150.991 107.016C152.829 105.646 154.519 104.128 156.123 102.498C159.004 99.5715 161.397 96.3372 162.913 92.4603C164.279 88.9625 164.833 85.378 164.567 81.6524C164.435 79.8032 164.061 78.0135 163.168 76.3615C162.543 75.2024 161.72 74.2302 160.608 73.5163C160.369 73.3634 160.133 73.207 159.917 73.0659C160.262 71.2355 160.228 69.5069 159.812 67.7971C159.092 64.8414 157.332 62.8716 154.343 62.1187C153.696 61.9555 153.033 61.8485 152.373 61.7601C152.717 59.7018 152.822 57.6215 152.657 55.5156C152.608 54.8919 152.693 54.387 153.132 53.8823C153.814 53.1021 154.023 52.1231 153.896 51.0915C153.741 49.8338 152.746 48.8446 151.567 48.7545C150.391 48.6662 149.116 49.4242 148.545 50.5544C147.993 51.6507 148.188 52.6501 149.087 53.6987C149.658 54.3616 150.402 54.7202 151.142 54.9871C151.209 55.1485 151.264 55.2352 151.281 55.3304C151.316 55.5242 151.34 55.723 151.355 55.9201C151.494 57.8135 151.414 59.6627 151.13 61.4728C150.293 61.2043 149.533 60.7777 148.86 60.1386C148.284 59.593 147.653 59.1069 147.045 58.597C146.503 58.1432 145.878 57.8594 145.204 57.6606C144.382 57.4192 143.593 57.3767 142.822 57.4498C143.07 56.0017 143.452 54.5689 143.852 53.1294C144.286 52.8353 144.64 52.6449 144.934 52.3883C146.108 51.3617 146.252 49.5738 145.283 48.3535C144.445 47.298 143.041 47.1331 141.979 47.9659C140.69 48.9738 140.507 50.6802 141.579 51.9125C141.894 52.2762 142.277 52.5838 142.56 52.8523C142.577 53.024 142.595 53.075 142.584 53.1209C142.489 53.5067 142.401 53.8942 142.286 54.2732C141.942 55.4086 141.733 56.5524 141.586 57.6996C140.98 57.8849 140.38 58.1296 139.799 58.49C139.43 58.7194 139.069 58.9625 138.697 59.2055C138.434 59.0168 138.227 58.8843 138.036 58.7313C136.635 57.613 135.123 57.0045 133.512 56.8226C133.694 55.7247 133.949 54.6267 134.273 53.5135C134.981 53.4115 135.545 53.2687 135.922 52.7282C136.617 51.7339 136.641 50.2094 135.955 49.2083C135.43 48.4418 134.645 48.1631 133.746 48.401C132.408 48.7545 131.238 50.84 132.394 52.2609C132.64 52.5651 132.921 52.837 133.212 53.1532C133.089 53.6563 132.955 54.1322 132.858 54.6166C132.716 55.3321 132.56 56.0442 132.425 56.7614C131.746 56.7652 131.048 56.838 130.337 56.9773C129.463 57.1473 128.621 57.4107 127.793 57.7115C127.659 56.9841 127.508 56.2549 127.298 55.5309C126.978 54.4295 126.793 53.3911 127.191 52.2218C127.589 51.0542 126.854 49.7267 125.82 49.2219C125.4 49.0179 124.969 48.9347 124.539 49.1591C123.579 49.6622 123.071 50.5035 123.044 51.5589C123.017 52.5855 123.531 53.3708 124.477 53.7991C124.873 53.9792 125.318 54.0489 125.92 54.2188C126.165 55.2964 126.392 56.3603 126.653 57.4158C126.707 57.6402 126.736 57.868 126.78 58.0957C126.741 58.111 126.7 58.1228 126.661 58.1399C125.799 58.5172 124.941 58.9047 124.089 59.3024C122.803 59.9007 121.46 60.1863 120.046 60.0775C119.055 60.001 118.064 59.911 117.075 59.8124C116.93 57.9836 116.957 56.1411 117.121 54.292C117.151 53.9537 117.251 53.624 117.321 53.2824C117.563 53.2094 117.748 53.1515 117.932 53.0954C118.83 52.8235 119.291 52.1913 119.518 51.299C119.861 49.9461 119.573 48.736 118.789 47.6295C118.188 46.7814 117.328 46.4516 116.316 46.6216C115.31 46.7881 114.779 47.5088 114.594 48.4419C114.47 49.0623 114.523 49.7183 114.503 50.359C114.464 51.5556 114.873 52.5006 116.145 53.0462C116.106 53.6615 116.108 54.1577 116.039 54.6438C115.798 56.34 115.774 58.0329 115.92 59.724C114.394 59.5846 112.953 59.7868 111.605 60.3851C110.963 59.2175 110.319 58.0516 109.665 56.8907C109.378 56.3757 109.052 55.8811 108.776 55.4324C108.93 54.9616 109.1 54.5928 109.169 54.207C109.554 52.0774 107.635 50.1721 105.599 50.6412C104.649 50.8588 104.147 51.4281 104.054 52.3935C103.895 54.037 105.098 55.7027 106.712 56.0426C107.044 56.114 107.394 56.0987 107.846 56.1309C108.072 56.5014 108.256 56.7955 108.429 57.0946C109.164 58.3694 109.899 59.6457 110.629 60.9221C110.506 60.997 110.377 61.0462 110.257 61.1278C109.828 61.4134 109.408 61.5374 108.881 61.5391C107.189 61.5493 105.692 62.1017 104.415 63.2642C103.834 63.7928 103.16 64.2211 102.503 64.6613C101.968 65.0182 101.382 65.2987 100.848 65.659C98.7802 67.0544 97.3254 68.8441 97.2661 71.5193C97.029 71.6842 96.7885 71.8525 96.5446 72.0173C95.3878 72.8026 94.6273 73.8903 94.2497 75.2211C94.0363 75.9791 93.9024 76.7728 93.8262 77.5597C93.6687 79.2084 93.8618 80.8503 94.2395 82.4462C95.3065 86.9587 96.6835 91.359 99.2799 95.2732C99.6355 95.8103 99.9573 96.3712 100.289 96.9253C102.11 99.9795 104.391 102.651 107.02 105.029C108.641 106.494 110.323 107.883 112.177 109.05C112.443 109.217 112.848 109.31 112.814 109.819C112.462 110.114 112.062 110.412 111.708 110.753C111.137 111.302 110.575 111.863 110.048 112.455C109.791 112.747 109.577 113.102 109.423 113.463C109.042 114.351 109.412 115.167 110.334 115.483C110.705 115.609 111.107 115.686 111.498 115.703C112.189 115.73 112.885 115.721 113.576 115.677C115.319 115.565 116.989 115.103 118.644 114.569C118.847 114.503 119.07 114.496 119.445 114.433C119.035 115.093 118.674 115.57 118.423 116.1C118.086 116.814 117.788 117.554 117.558 118.306C117.377 118.896 117.424 119.512 117.966 119.938C118.552 120.399 119.186 120.264 119.785 119.957C120.136 119.778 120.483 119.564 120.773 119.301C121.433 118.703 122.055 118.062 122.698 117.445C122.898 117.253 122.993 116.904 123.411 116.959C123.43 117.083 123.476 117.217 123.467 117.346C123.364 118.83 123.076 122.297 122.942 124.259C115.141 122.432 98.1299 118.701 96.3955 116.777C95.5368 115.823 94.7628 114.792 93.9516 113.796C93.8161 113.631 93.667 113.52 93.5214 113.439C93.6823 113.282 93.8211 113.109 93.8974 112.902C94.0752 112.412 94.2395 111.882 94.2463 111.367C94.2632 110.288 93.9922 109.251 93.4316 108.321C91.9801 105.904 90.0036 104.013 87.5969 102.57C87.4242 102.468 87.1921 102.468 86.9906 102.407C86.7873 102.345 86.2505 102.6 86.181 102.789C86.1099 102.99 85.9896 103.185 85.9778 103.387C85.8778 105.197 85.9489 106.996 86.3436 108.775C86.9347 111.437 88.6148 113.019 91.2044 113.789C91.4737 113.835 91.7854 113.894 92.1004 113.94C92.3189 113.972 92.5458 113.935 92.7711 113.867C92.78 114.142 92.9489 114.382 93.1081 114.605C93.7924 115.562 94.524 116.486 95.2134 117.443C95.2828 117.542 95.1998 117.764 95.154 117.919C95.1451 117.943 94.9389 117.948 94.8543 117.904C93.1403 117.028 91.4161 116.17 89.7241 115.257C85.8575 113.172 82.1686 110.799 78.5086 108.372C77.4941 107.699 76.6964 106.883 76.1917 105.782C74.432 101.951 73.2176 98.0216 72.7298 93.9595C73.2312 94.002 73.7359 94.0344 74.2406 94.0242C76.7557 93.9766 78.7644 92.9211 79.9127 90.5416C80.0651 90.2238 79.784 89.5898 79.413 89.4997C79.0049 89.3994 78.5815 89.2635 78.1716 89.2805C76.6439 89.3417 75.2399 89.7971 74.0289 90.7642C73.6139 91.0957 73.2108 91.4441 72.7959 91.7738C72.7349 91.8231 72.6384 91.8095 72.552 91.8197C72.4927 90.7268 72.4859 89.6238 72.5368 88.5105C72.6502 88.5395 72.7671 88.5599 72.8789 88.5905C73.9577 88.8931 75.001 88.7418 75.9986 88.3169C77.8108 87.5486 79.2843 86.3538 80.248 84.6066C80.3801 84.3669 80.3344 83.993 80.287 83.6956C80.2311 83.3302 79.6926 82.9852 79.3233 82.9869C76.9268 83.0056 74.7267 83.5698 72.8332 85.0264C72.9263 84.2021 73.0229 83.3812 73.094 82.5568C73.0978 82.5297 73.0669 82.5007 73.0568 82.4736C73.1804 82.4736 73.3007 82.46 73.4091 82.4243C74.9147 81.911 75.997 80.881 76.622 79.4669C77.8973 76.5844 77.9007 73.6525 76.6744 70.736C76.3357 69.9287 75.4635 69.7552 74.8876 70.396C73.2227 72.2503 71.9406 74.3256 71.2716 76.8427C70.6687 78.6103 70.899 80.3439 71.9931 81.9637C72.0982 82.1183 72.2675 82.2322 72.4504 82.3206C72.403 82.3681 72.3471 82.4124 72.3268 82.4685C71.961 83.427 71.7357 84.4179 71.5799 85.4207C71.5579 85.3952 71.5342 85.3764 71.5139 85.3442C71.2818 84.9873 71.0735 84.6151 70.8347 84.2633C69.9641 82.9767 68.7091 82.1948 67.3102 81.622C66.7106 81.379 66.0822 81.3229 65.4302 81.4215C64.7595 81.5251 64.2649 82.1846 64.4479 82.7965C64.8221 84.0525 65.4759 85.1301 66.4565 86.0054C67.7048 87.1169 68.931 87.705 71.0159 88.1554C71.126 88.1792 71.2344 88.2064 71.3428 88.2302C71.3056 89.0817 71.2717 89.9299 71.2971 90.7746C69.9794 89.2313 68.262 88.322 66.2178 87.9226C65.5555 87.7934 64.9898 88.4665 65.1897 89.1412C65.8858 91.5003 67.4711 92.928 69.937 93.652C70.4435 93.6996 70.977 93.7676 71.5172 93.8339C71.7798 96.0909 72.2489 98.326 72.8908 100.541C73.1584 101.465 73.4091 102.393 73.6564 103.323C73.7309 103.607 73.6275 103.67 73.4023 103.498C73.2397 103.376 73.0331 103.285 72.9162 103.129C72.1507 102.097 71.336 101.093 70.6602 100.002C68.0588 95.8003 65.7435 91.4459 63.8686 86.862C63.0438 84.8446 62.3426 82.8016 61.7566 80.7332C61.8531 80.7009 61.9446 80.6822 62.0411 80.6449C64.6223 79.6693 66.3058 77.9322 67.2323 75.3794C67.3762 74.9783 67.5066 74.5704 67.7099 73.9704C67.7709 73.5404 67.8691 72.9116 67.947 72.281C67.9944 71.885 67.4575 71.4992 67.0697 71.63C66.8698 71.698 66.6581 71.7337 66.4701 71.8238C64.2751 72.8555 62.551 74.3699 61.5737 76.6474C61.3942 77.0638 61.213 77.4767 61.0284 77.8914C60.5829 75.8927 60.2696 73.8634 60.0748 71.8102C60.82 71.7031 61.5686 71.4635 62.3138 71.0522C65.022 69.5514 66.819 67.2008 67.6354 64.1636C67.6862 63.9733 67.6591 63.7285 67.5829 63.5467C67.5101 63.3733 67.3407 63.1557 67.1815 63.1234C66.8851 63.0657 66.5345 63.0504 66.2568 63.1524C63.8009 64.0498 61.6872 65.4163 60.2341 67.6666C60.1155 67.8502 59.9817 68.0269 59.8462 68.2053C59.8242 67.5238 59.7751 66.8423 59.6955 66.1675C59.6866 66.0978 59.6345 66.035 59.582 65.9704C59.7599 65.9347 59.9309 65.8735 60.0698 65.7613C61.2892 64.7687 61.9295 63.4498 62.236 61.9864C62.5307 61.0074 62.5392 60.0523 62.463 59.0835C62.2834 56.8026 61.6229 54.6814 60.439 52.7269C60.3307 52.5484 60.1663 52.4023 60.0342 52.2374C59.7091 51.8397 58.9571 51.838 58.6166 52.2664C57.6106 53.536 56.9077 54.979 56.5165 56.5392C56.1252 58.1012 56.0253 59.7039 56.2523 61.3151C56.5013 63.0827 57.2905 64.5529 58.6082 65.7443C58.7352 65.86 58.8944 65.9228 59.0604 65.9636C58.9368 66.0843 58.8267 66.2084 58.786 66.3528C58.6708 66.7573 58.6606 67.2027 58.6657 67.6293C58.6695 67.823 58.686 68.0133 58.6911 68.2071C58.3287 67.738 57.9781 67.2876 57.6157 66.8627C56.2184 65.2225 54.5484 63.9105 52.6566 62.8924C52.3924 62.7496 52.0265 62.651 51.7538 62.719C51.493 62.7836 51.244 63.0589 51.0814 63.3037C50.9815 63.4498 51.0018 63.732 51.0628 63.9241C51.9011 66.516 53.2273 68.7747 55.4341 70.4557C56.552 71.3072 57.7172 71.7746 58.9011 71.8613C59.0823 73.8566 59.3601 75.8384 59.775 77.8015C59.609 77.6264 59.4414 77.4497 59.272 77.2763C57.5445 75.4934 55.4782 74.1897 53.295 73.0595C53.0223 72.9184 52.6836 72.898 52.3703 72.842C52.0536 72.7859 51.5167 73.3468 51.5607 73.6697C51.5743 73.7733 51.5353 73.8889 51.5671 73.9858C52.2073 75.9438 53.1998 77.7165 54.6936 79.1272C56.4313 80.7639 58.3739 81.4403 60.5808 81.0392C60.6045 81.1208 60.6198 81.2024 60.6434 81.284C62.1169 86.3642 64.2628 91.152 66.7677 95.7886C67.6857 97.4865 68.6528 99.1572 69.5894 100.845C69.7334 101.105 69.652 101.275 69.4149 101.299C69.3133 101.309 69.1897 101.329 69.1135 101.283C68.8408 101.117 68.5732 100.942 68.3259 100.743C63.648 96.9715 59.2936 92.8516 55.2101 88.4394C52.2868 85.2832 49.6955 81.872 47.3159 78.2926C46.7248 77.402 46.1608 76.4792 45.7002 75.5155C44.6348 73.289 43.5441 71.0676 42.6329 68.7765C39.4911 60.8868 36.8253 52.8493 35.4517 44.4311C34.5168 38.6983 34.0934 32.9314 34.2933 27.1221C34.2996 26.908 34.251 26.6615 34.3373 26.4865C34.4711 26.2196 34.6558 25.8848 34.903 25.7845C35.5924 25.5024 36.3376 25.3562 37.0388 25.0962C38.3818 24.6016 39.5132 23.762 40.3059 22.5858C43.1343 18.3929 43.3714 14.0044 41.0934 9.49195C40.6056 8.52826 39.9095 7.71584 39.0525 7.036C37.9855 6.19299 36.805 5.84629 35.4569 6.02814C32.039 6.49044 29.1141 9.09763 28.2605 12.5292C27.8438 14.2101 27.7168 15.925 28.1656 17.6297C28.9159 20.4715 29.9372 23.1637 32.4557 24.9653C33.0467 25.3885 33.1738 25.9783 33.145 26.6547C32.7097 37.0547 34.1324 47.2031 37.2166 57.1272C37.789 58.9696 38.37 60.8103 38.939 62.6544C38.961 62.7292 38.912 62.8601 38.8526 62.9196C38.6917 63.0827 38.5359 63.0114 38.4038 62.7462C36.971 59.8671 35.428 57.0355 34.1205 54.0985C29.7983 44.3937 25.4405 34.7025 21.7008 24.7478C21.2097 23.4425 20.8235 22.0912 20.2544 20.8216C19.5617 19.2818 19.6075 18.0512 20.9844 16.8479C22.1175 15.8553 22.8508 14.5024 23.1743 12.9864C23.2827 12.4663 23.3962 11.9241 23.3674 11.3989C23.0473 5.47574 19.4381 1.7621 14.6298 0.325916C11.7759 -0.525594 9.30993 0.837494 8.25647 3.69286C7.18437 6.59582 7.48924 9.40869 8.92039 12.089C10.2211 14.528 12.1367 16.3618 14.7178 17.4156C15.6053 17.7793 16.5334 18.0478 17.448 18.3385C17.8986 18.4829 18.1407 18.8161 18.3372 19.2036C18.4321 19.394 18.4964 19.6013 18.5642 19.8036C21.4383 28.2473 24.9544 36.431 28.5111 44.601C30.911 50.1112 33.2839 55.6333 35.9785 61.0092C36.1682 61.3882 36.2918 61.8029 36.4273 62.2057C36.4426 62.2567 36.3562 62.3757 36.2901 62.4114C36.2123 62.4556 36.0716 62.4895 36.0124 62.4487C35.8396 62.3298 35.6736 62.187 35.5398 62.0255C31.9814 57.734 28.4264 53.439 24.8731 49.1424C24.531 48.7294 24.2092 48.3011 23.8586 47.8949C23.2607 47.1997 23.0219 46.4689 23.2878 45.5256C23.5198 44.7097 23.5605 43.8361 23.6773 42.988C23.8619 41.6521 23.5249 40.4012 22.8661 39.2778C20.9929 36.0808 18.3592 33.8917 14.6467 33.12C12.4619 32.6662 9.75369 34.0107 9.11517 36.4242C8.40891 39.0858 8.81369 41.574 10.6157 43.6747C12.9039 46.3397 15.9034 47.5992 19.3907 47.6994C19.9208 47.7147 20.4678 47.679 20.9844 47.5617C21.7381 47.3935 22.1971 47.7572 22.6256 48.279C24.4666 50.514 26.3127 52.7439 28.152 54.9789C30.198 57.462 32.2423 59.9452 34.2797 62.4352C36.2478 64.8435 38.1142 67.3266 39.8536 69.9118C42.428 73.7359 45.2344 77.3952 47.7969 81.2312C48.9859 83.0124 50.3747 84.6577 51.6703 86.3675C51.9684 86.7601 52.4579 87.0576 52.3394 87.6678C51.8583 87.785 51.5535 87.4196 51.1843 87.2343C49.0773 86.1823 46.9992 85.069 44.855 84.1036C43.556 83.519 42.4703 82.7117 41.4338 81.765C39.3929 79.8988 37.5113 77.8966 35.7329 75.8095C36.9744 75.1619 37.6959 74.1302 37.9668 72.9898C38.3411 71.5995 38.3852 70.4386 37.9783 69.2965C37.8004 68.7985 37.5836 68.3005 37.0247 68.0881C36.6894 67.9589 36.0678 68.2632 35.724 68.807C35.0398 69.8829 34.2928 70.9265 33.9592 72.1927C33.8712 72.5207 33.7255 72.8334 33.5714 73.1377C33.0023 72.4068 32.4366 71.6726 31.8912 70.923C32.6381 70.4658 33.2885 69.8727 33.7407 69.1266C34.8856 67.24 34.7671 65.2837 33.8338 63.3427C33.6628 62.9858 33.0141 62.8278 32.7245 63.0844C32.3315 63.4328 31.8793 63.7592 31.61 64.1926C30.8564 65.418 30.228 66.7097 29.9265 68.1357L29.8503 68.0286C29.5217 67.5374 29.2033 67.0378 28.8748 66.5466C28.9036 66.5262 28.9425 66.5194 28.9696 66.4955C29.476 66.0825 29.7623 65.4843 29.8114 64.8197C29.8927 63.7354 29.7386 62.6799 29.2627 61.6941C28.2617 59.6172 26.778 57.9702 24.788 56.8145C24.4357 56.6088 23.9852 56.5732 23.5736 56.4763C23.3805 56.432 22.9029 56.8145 22.864 57.0151C22.8233 57.2224 22.7234 57.4331 22.7404 57.6354C22.8894 59.4557 23.2281 61.242 23.9073 62.9399C24.5153 64.4611 25.4062 65.7783 26.9136 66.5584C27.1913 66.7012 27.4911 66.8049 27.8908 66.9732C27.8946 66.9719 27.8997 66.9693 27.9022 66.968C27.9209 67.0173 27.9175 67.0717 27.9445 67.1176C28.2325 67.6156 28.5458 68.0983 28.8507 68.5878C28.0275 68.3583 27.2044 68.1255 26.3813 67.896C26.3965 67.8365 26.4101 67.7771 26.4254 67.7176C25.2804 67.5017 24.1355 67.2723 22.9855 67.0836C22.8127 67.0547 22.4893 67.1686 22.4402 67.296C22.3385 67.5663 22.2488 67.9572 22.3707 68.1765C23.0583 69.4104 24.0847 70.3503 25.2804 71.0625C26.9385 72.0499 29.0183 72.1111 30.7848 71.4568C31.2828 72.1519 31.7943 72.8352 32.3142 73.5133C31.796 73.4097 31.2794 73.2923 30.7594 73.1904C29.0607 72.8555 27.3771 72.9456 25.7123 73.4079C25.238 73.5387 24.9518 74.3002 25.2093 74.7217C26.8216 77.3647 30.1107 78.4286 33.0035 77.2032C33.5607 76.9686 34.096 76.6814 34.6311 76.3941C35.6253 77.5737 36.6415 78.7362 37.7052 79.8597C38.0625 80.2387 38.3657 80.6721 38.6756 81.0936C38.7112 81.1429 38.6366 81.3571 38.6045 81.3588C38.3945 81.3741 38.1709 81.3944 37.9728 81.3349C35.4102 80.5667 32.8613 79.7457 30.2886 79.0166C27.7582 78.2977 25.2194 77.606 22.6823 76.904C22.7569 76.7052 22.8296 76.5063 22.9042 76.3074C23.5376 74.5959 23.3361 72.9354 22.618 71.3106C22.0489 70.0257 21.3324 68.8495 20.0978 68.0779C19.6438 67.794 18.9596 68.0387 18.814 68.5606C18.7851 68.6625 18.7564 68.7645 18.7276 68.8682C18.3296 70.2517 18.465 71.63 18.8597 72.9829C19.0968 73.8038 19.4271 74.5976 19.7167 75.4015C19.8352 75.7295 19.8928 75.9437 19.8827 76.1272C19.3271 75.9743 18.7699 75.8179 18.2144 75.6632C18.2432 75.5374 18.2686 75.4083 18.2669 75.2843C18.1923 72.383 17.1931 69.8438 15.1929 67.7362C14.9168 67.4456 14.4731 67.3114 14.1038 67.1125C13.9243 67.0173 13.3095 67.2671 13.2756 67.449C13.1807 67.9708 12.9945 68.5061 13.0436 69.016C13.1554 70.182 13.3976 71.3377 13.5618 72.5002C13.6008 72.7671 13.4247 72.9388 13.2045 72.8827C12.4847 72.6992 11.7733 72.4883 10.8808 72.2368C8.15226 71.0879 5.21711 71.1882 2.2769 72.1281C1.88397 72.2539 1.53169 72.5173 1.17432 72.7382C0.898257 72.9099 0.838982 73.6748 1.0609 73.9161C1.20316 74.0725 1.31326 74.2713 1.48093 74.3886C3.5218 75.8299 5.80825 76.6967 8.22852 77.227C9.07196 77.4122 9.92048 77.4139 10.7775 77.2796C11.0739 77.2337 11.4854 77.2337 11.5413 77.6314C11.5803 77.9067 11.4787 78.2518 11.3245 78.4931C10.7504 79.3939 10.1 80.2472 9.53941 81.1565C9.32431 81.5049 9.25149 81.9519 9.15326 82.3632C9.03474 82.8595 9.58514 83.4849 10.0831 83.4271C10.5031 83.3778 10.9452 83.3541 11.3296 83.201C13.3688 82.3852 15.0252 81.0867 16.1786 79.1815C16.6714 78.369 17.1779 77.5651 17.6707 76.7527C17.7774 76.7816 17.8825 76.8225 17.9892 76.8513C18.3262 76.938 18.6598 77.0246 18.9969 77.1113C17.957 77.9628 17.2473 79.0744 16.58 80.2165C15.9821 81.2397 15.6028 82.3512 15.5011 83.5512C15.4452 84.197 16.1447 84.8191 16.7477 84.6253C17.0492 84.5284 17.3693 84.452 17.6402 84.2939C19.9352 82.9529 21.7271 81.2193 22.2216 78.4404C22.2505 78.2823 22.3064 78.1311 22.347 77.9765C24.1287 78.4336 25.841 78.8688 27.367 79.2614C31.7943 80.7145 35.6931 81.8872 39.5157 83.2724C44.5561 85.1012 49.3255 87.5283 53.9441 90.2494C54.3032 90.4619 54.5979 90.7882 54.9095 91.0754C54.9569 91.1197 54.9638 91.2573 54.9333 91.327C54.8943 91.4204 54.8012 91.5564 54.7283 91.5581C54.3066 91.5644 53.873 91.5955 53.4632 91.5156C49.7134 90.7746 45.928 90.3072 42.1325 89.8976C42.1439 89.7208 42.1596 89.5441 42.1579 89.3639C42.141 87.4077 41.3737 85.8457 39.9324 84.6067C39.0432 83.8436 38.0745 83.1739 36.8584 83.0125C36.5315 82.97 35.9557 83.3966 35.9743 83.728C35.9981 84.1495 36.0133 84.5778 36.103 84.9857C36.5027 86.8026 37.5359 88.2439 38.8011 89.5475C37.5274 89.4166 36.2538 89.2874 34.9784 89.1582C35.0174 88.0246 34.6905 86.9267 34.1011 85.8117C34.0503 85.7165 33.9995 85.6213 33.9419 85.5312C32.7462 83.66 31.0728 82.3921 29.0235 81.6035C28.534 81.4148 27.9023 81.9604 27.9683 82.4754C28.2088 84.3331 28.9134 85.9885 30.1108 87.4196C30.5173 87.904 30.9882 88.3339 31.4234 88.7945C31.2371 88.7758 31.0508 88.7572 30.8645 88.7368C30.3903 88.6892 29.9177 88.6944 29.4909 88.9204C29.474 88.5482 29.3148 88.2286 28.9812 87.9142C28.1038 87.0899 27.0622 86.5239 25.9173 86.2961C22.6909 85.6588 19.5847 86.1313 16.6309 87.5844C16.0584 87.8666 16.0144 88.8235 16.5445 89.2042C19.5389 91.3525 22.8348 92.2041 26.4847 91.5361C27.003 91.4409 27.5195 91.3423 28.0395 91.2437C27.2689 92.5252 26.4474 93.7779 25.7564 95.0985C25.4736 95.6406 25.4346 96.3256 25.3584 96.9545C25.3008 97.427 25.9427 97.9657 26.4118 97.9572C27.3993 97.9368 28.3054 97.6479 29.1573 97.1669C31.4658 95.8667 33.09 93.9819 34.3128 91.6126C34.5398 91.1724 34.6939 90.7423 34.8057 90.3208C36.0031 90.4245 37.1971 90.5503 38.3912 90.6846C37.9102 90.9582 37.4156 91.2131 36.96 91.5258C35.6068 92.4606 34.66 93.7184 34.1045 95.2735C33.6709 96.4819 33.3322 97.7125 33.2882 99.0059C33.2662 99.6314 33.9724 100.208 34.5821 100.06C34.8887 99.9849 35.2139 99.9408 35.4967 99.8082C38.6622 98.321 40.7437 95.9024 41.6109 92.8447C41.7531 92.2108 41.8785 91.6567 41.9767 91.1315C45.989 91.6584 49.9962 92.2279 54.0035 92.787C54.5336 92.8601 55.0518 93.0011 55.5735 93.1201C58.5679 93.8084 58.5713 93.8051 60.834 95.9092C66.5756 101.246 72.7389 106.041 79.2561 110.383C79.4153 110.489 79.5135 110.689 79.6219 110.857C79.6333 110.876 79.5187 111.029 79.4712 111.026C79.0512 110.993 78.6125 111.004 78.2196 110.879C74.3241 109.646 70.3271 108.838 66.3401 107.992C66.4367 107.735 66.5434 107.48 66.6891 107.229C67.126 106.474 67.0346 105.524 66.8415 104.71C66.3232 102.517 65.1309 100.819 62.9156 100.026C62.8174 99.99 62.7072 99.9916 62.6039 99.9696C61.9959 99.8319 61.293 100.418 61.3235 101.059C61.4336 103.338 61.9535 105.481 63.278 107.394C63.2831 107.402 63.2844 107.405 63.2894 107.412C62.3291 107.251 61.3654 107.117 60.4 106.998C60.3289 106.763 60.2307 106.527 60.0799 106.291C59.8631 105.957 59.9106 105.461 59.8056 105.046C58.9943 101.802 56.8789 99.662 54.0013 98.1749C53.9133 98.1273 53.7947 98.1426 53.6965 98.112C53.2358 97.9743 52.5719 98.5182 52.5854 99.0094C52.6159 100.204 52.9259 101.336 53.3696 102.431C53.6491 103.122 54.0132 103.78 54.2994 104.472C54.3689 104.639 54.288 104.875 54.247 105.075C54.2419 105.101 54.059 105.118 53.9692 105.094C53.4543 104.96 52.9445 104.81 52.4331 104.667C49.5995 103.612 46.7745 104.001 43.9596 104.783C43.8596 104.81 43.7767 104.892 43.6802 104.939C43.3516 105.106 43.1822 105.796 43.4007 106.071C43.4651 106.153 43.4887 106.274 43.565 106.34C45.1028 107.693 46.7576 108.879 48.7696 109.384C51.4372 110.052 53.8049 109.625 55.6019 107.457C55.6883 107.545 55.7882 107.618 55.8983 107.637C56.1083 107.674 56.3149 107.729 56.525 107.756C56.8264 107.795 57.1262 107.837 57.4277 107.878C57.4239 107.898 57.4277 107.931 57.4175 107.938C56.9196 108.34 56.3979 108.711 55.9017 109.114C54.0759 110.591 53.0072 112.503 52.6515 114.828C52.5008 115.82 53.2274 116.461 54.2249 116.167C54.6331 116.048 55.0549 115.939 55.4275 115.742C57.9121 114.432 59.6481 112.515 60.2476 109.688C60.3509 109.195 60.4644 108.708 60.5068 108.221C61.44 108.33 62.3715 108.461 63.2946 108.621C63.1964 108.711 63.1049 108.798 62.9558 108.918C60.749 110.722 59.7429 113.101 59.5465 115.883C59.4668 117.015 60.4136 117.608 61.4688 117.116C63.6197 116.111 65.0865 114.527 65.8012 111.447C65.7419 111.753 65.8859 111.335 65.8961 110.915C65.9097 110.31 65.9418 109.717 66.0366 109.136C66.7751 109.287 67.5118 109.442 68.2486 109.596C73.3787 110.676 78.4631 111.976 83.3256 114.01C85.5951 114.96 87.9714 115.645 90.1274 116.874C94.7935 119.534 122.25 124.718 127.215 126.708C127.512 126.826 127.83 126.887 128.142 126.968C128.455 127.051 128.811 126.962 129.019 126.807C129.228 126.754 129.439 126.712 129.636 126.632C134.602 124.643 162.056 119.459 166.724 116.799C168.878 115.569 171.256 114.884 173.525 113.936C178.388 111.901 183.472 110.599 188.603 109.522C189.338 109.367 190.076 109.211 190.814 109.061C190.909 109.642 190.942 110.235 190.955 110.839C190.965 111.26 191.109 111.677 191.048 111.372C191.765 114.452 193.231 116.035 195.382 117.041C196.437 117.534 197.384 116.939 197.305 115.807C197.108 113.025 196.102 110.645 193.895 108.842C193.746 108.721 193.653 108.636 193.555 108.546C194.48 108.386 195.409 108.255 196.344 108.147C196.387 108.633 196.498 109.12 196.603 109.613C197.203 112.438 198.939 114.357 201.422 115.668C201.795 115.863 202.218 115.972 202.626 116.092C203.624 116.386 204.35 115.744 204.198 114.753C203.842 112.426 202.775 110.516 200.949 109.037C200.451 108.634 199.93 108.266 199.432 107.863C199.423 107.854 199.427 107.822 199.423 107.802C199.723 107.761 200.024 107.72 200.326 107.681C200.536 107.654 200.742 107.598 200.952 107.562C201.061 107.542 201.161 107.469 201.249 107.382C203.046 109.551 205.413 109.975 208.081 109.307C210.093 108.804 211.746 107.616 213.286 106.265C213.36 106.199 213.386 106.077 213.45 105.995C213.668 105.721 213.499 105.031 213.169 104.865C213.074 104.815 212.991 104.734 212.891 104.707C210.076 103.925 207.253 103.537 204.418 104.591C203.904 104.735 203.395 104.883 202.881 105.018C202.792 105.043 202.607 105.026 202.602 105.001C202.563 104.8 202.482 104.564 202.551 104.396C202.837 103.706 203.202 103.048 203.481 102.356C203.923 101.26 204.235 100.128 204.265 98.9347C204.277 98.4435 203.615 97.8996 203.156 98.0373C203.056 98.0679 202.937 98.0526 202.848 98.0984C199.972 99.5873 197.855 101.727 197.043 104.972C196.94 105.385 196.987 105.883 196.771 106.216C196.618 106.45 196.52 106.687 196.449 106.923C195.483 107.042 194.52 107.176 193.561 107.336C193.566 107.33 193.568 107.326 193.573 107.319C194.897 105.407 195.417 103.262 195.527 100.984C195.558 100.344 194.853 99.7574 194.247 99.8933C194.143 99.9172 194.033 99.9154 193.935 99.9494C191.718 100.745 190.527 102.443 190.007 104.635C189.816 105.449 189.725 106.399 190.162 107.154C190.307 107.404 190.414 107.661 190.509 107.917C186.524 108.764 182.525 109.571 178.631 110.803C178.236 110.929 177.798 110.917 177.379 110.949C177.332 110.954 177.217 110.8 177.229 110.783C177.337 110.615 177.435 110.412 177.594 110.307C184.112 105.966 190.275 101.171 196.017 95.8346C198.279 93.7305 198.283 93.7339 201.275 93.0438C201.797 92.9249 202.317 92.7855 202.845 92.7107C206.854 92.1515 210.862 91.5822 214.874 91.0553C214.97 91.5805 215.097 92.1345 215.238 92.7685C216.107 95.8278 218.19 98.2464 221.354 99.7335C221.635 99.8661 221.96 99.9103 222.268 99.9851C222.878 100.133 223.584 99.5568 223.562 98.9296C223.518 97.6362 223.18 96.4074 222.746 95.199C222.191 93.6438 221.242 92.3844 219.889 91.4513C219.435 91.1369 218.94 90.8837 218.458 90.6083C219.652 90.4757 220.847 90.35 222.045 90.2463C222.157 90.6678 222.311 91.0961 222.538 91.5363C223.761 93.9072 225.385 95.7905 227.692 97.0924C228.545 97.5734 229.451 97.8623 230.437 97.881C230.908 97.8912 231.548 97.3507 231.492 96.8799C231.416 96.251 231.377 95.5644 231.092 95.0239C230.403 93.7016 229.582 92.449 228.813 91.1692C229.329 91.2661 229.848 91.3663 230.368 91.4615C234.016 92.1278 237.313 91.2762 240.306 89.1279C240.836 88.7472 240.792 87.7903 240.218 87.5082C237.266 86.0567 234.16 85.5842 230.932 86.2216C229.787 86.4476 228.745 87.0136 227.869 87.8396C227.538 88.1524 227.377 88.4736 227.36 88.8458C226.931 88.6197 226.46 88.6147 225.986 88.6622C225.8 88.681 225.614 88.7014 225.427 88.72C225.862 88.2594 226.333 87.8293 226.738 87.3433C227.937 85.9122 228.642 84.2568 228.882 82.4008C228.948 81.8858 228.317 81.3402 227.827 81.5288C225.778 82.3175 224.103 83.5854 222.909 85.4567C222.851 85.545 222.8 85.6419 222.75 85.7354C222.158 86.852 221.832 87.9483 221.871 89.082C220.597 89.2129 219.323 89.342 218.05 89.4729C219.316 88.1676 220.348 86.7263 220.748 84.9111C220.837 84.5015 220.853 84.0732 220.876 83.6534C220.893 83.3203 220.319 82.8937 219.992 82.9378C218.774 83.0993 217.807 83.7673 216.918 84.5321C215.477 85.7694 214.708 87.3331 214.691 89.2893C214.69 89.4678 214.705 89.6445 214.716 89.823C210.923 90.2326 207.136 90.6983 203.387 91.4393C202.978 91.5209 202.542 91.4903 202.121 91.4836C202.049 91.4823 201.956 91.3442 201.917 91.2524C201.887 91.1811 201.892 91.0451 201.941 90.9992C202.251 90.712 202.546 90.3873 202.905 90.1749C207.525 87.4521 212.296 85.025 217.335 83.1979C221.158 81.8127 225.055 80.6383 229.484 79.1851C231.01 78.7942 232.722 78.3574 234.502 77.9019C234.544 78.0566 234.6 78.2079 234.629 78.3642C235.125 81.1448 236.914 82.8784 239.21 84.2194C239.48 84.3775 239.8 84.454 240.103 84.5508C240.706 84.7429 241.405 84.1209 241.349 83.475C241.248 82.2768 240.867 81.1635 240.269 80.1403C239.602 78.9982 238.894 77.8883 237.854 77.0368C238.191 76.9484 238.524 76.8634 238.861 76.775C238.968 76.7479 239.073 76.7053 239.18 76.6765C239.673 77.4889 240.179 78.2929 240.672 79.107C241.825 81.0123 243.482 82.3091 245.521 83.1249C245.905 83.2778 246.348 83.3033 246.768 83.3509C247.265 83.4104 247.814 82.7832 247.696 82.2887C247.597 81.8774 247.526 81.4304 247.311 81.0802C246.751 80.1709 246.1 79.3194 245.526 78.4186C245.372 78.1773 245.269 77.8306 245.308 77.5569C245.365 77.1575 245.777 77.1575 246.073 77.2051C246.93 77.3394 247.779 77.336 248.62 77.1525C251.042 76.6205 253.327 75.7536 255.37 74.3141C255.536 74.1968 255.646 73.9962 255.79 73.8416C256.012 73.6002 255.952 72.8337 255.676 72.6637" fill="#917492"/>
</svg>
