<svg width="335" height="173" viewBox="0 0 335 173" fill="none" xmlns="http://www.w3.org/2000/svg">
<path d="M195.978 1.37284C193.95 1.97911 192.173 2.81535 190.856 4.00698C189.435 5.19861 188.724 6.85016 188.724 8.87803C188.724 10.9059 189.435 12.3275 190.731 13.2892C192.048 14.3553 193.47 14.8362 195.037 14.8362C196.814 14.8362 198.487 14.2508 199.783 13.1637C201.1 12.0975 201.706 10.6759 201.706 9.00346C201.706 7.93726 201.456 6.9756 200.87 5.9094C200.264 4.8223 199.428 4.1115 198.361 3.52614C198.487 3.17074 198.968 2.81535 199.553 2.68991C200.159 2.56448 200.975 2.45995 201.936 2.45995C205.637 2.45995 208.961 3.63067 211.699 5.9094C214.438 8.16723 215.755 11.0313 215.755 14.4808C215.755 16.5086 215.044 18.4111 213.602 20.3135C212.18 22.2159 209.442 24.1393 205.511 25.9163C202.543 27.2333 199.323 28.5295 195.748 29.6166C192.048 30.6828 188.598 31.749 185.149 32.7106C181.679 33.6514 178.835 34.4876 176.452 35.3239C171.079 37.1218 166.919 39.505 164.18 42.2437C161.442 45.0869 159.999 48.5572 159.999 52.7175C159.999 56.0624 160.731 58.6756 162.278 60.7035C163.825 62.7314 165.728 64.2784 167.985 65.2192C170.243 66.1808 172.522 66.6617 174.78 66.6617C176.912 66.6617 179.065 66.3063 181.323 65.47C183.477 64.7592 185.254 63.5676 186.801 62.0206C188.243 60.4526 188.954 58.6756 188.954 56.4178C188.954 54.5154 188.348 52.9475 187.281 51.7558C186.09 50.5851 184.543 49.9788 182.64 49.9788C180.863 49.9788 179.295 50.5851 177.999 51.6513C176.682 52.7175 176.097 54.2645 176.097 56.1669C176.097 58.1948 176.682 59.6373 177.999 60.4526C179.191 61.4143 180.382 62.0206 181.679 62.2505C181.449 63.0868 180.487 63.7976 178.835 64.153C177.038 64.6338 175.616 64.8638 174.55 64.8638C172.982 64.8638 171.435 64.5084 169.783 63.7976C167.985 63.0868 166.564 62.0206 165.372 60.5781C164.18 59.1565 163.574 57.3586 163.574 55.3307C163.574 52.8429 164.661 50.6896 166.668 49.0172C168.696 47.4701 171.079 46.0485 174.069 44.9823C175.971 44.2715 178.48 43.4353 181.574 42.3482L187.637 40.4458C190.856 41.6374 193.114 43.1844 194.787 44.9823C196.814 47.2402 198.131 49.6234 198.717 51.8813C199.323 54.2645 199.679 56.1669 199.679 57.714C199.679 61.1843 198.842 64.153 197.17 66.7662C195.497 69.5048 193.24 71.7836 190.375 73.686C187.407 75.5884 184.062 77.01 180.382 77.9717C176.557 79.0379 172.522 79.5187 168.341 79.5187C162.383 79.5187 157.031 78.4525 152.264 76.4247C147.372 74.3968 143.567 71.5327 140.703 67.7279C137.86 63.923 136.418 59.261 136.418 53.7837C136.418 48.2018 137.86 43.8952 140.703 40.8012C143.567 37.8326 147.268 35.5747 151.909 34.2577C152.85 34.6131 154.167 35.1984 155.839 35.8047C157.512 36.5155 159.059 36.8709 160.606 36.8709C161.672 36.8709 162.508 36.6409 163.114 36.2855C163.7 35.9301 163.93 35.3239 163.93 34.6131C163.93 32.8361 162.383 31.8744 159.163 31.8744C158.452 31.8744 157.386 31.8744 155.964 31.9998C154.522 32.1044 153.1 32.3552 151.783 32.5852C149.4 30.3274 147.853 28.0695 147.017 25.7908C146.181 23.533 145.721 21.2752 145.721 19.0173C145.721 14.3553 147.017 10.9059 149.651 8.39719C152.139 6.01392 155.484 4.8223 159.539 4.8223C162.027 4.8223 164.055 5.19861 165.728 5.9094C167.275 6.74564 168.236 7.58186 168.592 8.64806C166.794 8.77349 165.247 9.48429 164.055 10.6759C162.863 11.9721 162.278 13.4146 162.278 15.1916C162.278 17.094 162.863 18.5365 164.18 19.6027C165.477 20.6689 166.919 21.1497 168.466 21.1497C170.139 21.1497 171.686 20.5644 173.107 19.4773C174.424 18.4111 175.135 16.864 175.135 14.8362C175.135 13.5191 174.78 12.223 174.173 10.6759C173.463 9.23342 172.271 7.93726 170.724 6.62019C169.428 5.554 167.86 4.71777 165.853 4.00697C163.825 3.4007 161.316 3.0453 158.348 3.0453C155.003 3.0453 152.139 3.40071 149.651 4.23694C147.142 5.07317 144.989 6.13937 143.337 7.58187C141.665 9.00346 140.348 10.5505 139.512 12.3275C138.675 14.1254 138.215 16.0278 138.215 17.9302C138.215 20.9198 139.282 23.7629 141.31 26.5225C143.337 29.2612 146.306 31.519 150.236 33.296C148.689 33.6514 146.787 34.3831 144.278 35.4493C141.79 36.5155 139.407 38.0625 136.898 40.0904C134.39 42.1182 132.362 44.6269 130.71 47.5956C129.038 50.6896 128.202 54.3899 128.202 58.6756C128.202 64.7592 129.979 70.1111 133.553 74.5222C137.128 78.9333 141.895 82.3828 147.728 84.7661C153.581 87.1493 159.999 88.341 166.794 88.341C174.55 88.341 181.093 86.8985 186.445 84.1598C191.818 81.4211 195.978 77.9717 198.842 73.5606C201.706 69.1494 203.128 64.6338 203.128 59.8673C203.128 55.1007 201.936 50.8151 199.428 46.8848C197.421 43.8952 194.431 41.512 190.271 39.735L191.107 39.505C194.431 38.4179 197.651 37.4772 200.619 36.3901C203.609 35.3239 205.992 34.3831 207.769 33.5469C210.989 31.9998 213.602 29.7211 215.881 26.9824C218.013 24.2438 219.1 20.9198 219.1 16.864C219.1 11.7421 217.428 7.81182 214.083 4.94773C210.759 2.20907 206.577 0.787476 201.706 0.787476C199.783 0.787476 197.881 1.01744 195.853 1.49827L195.978 1.37284Z" fill="#7C5A7B" stroke="#7C5A7B" stroke-width="0.996478"/>
<path d="M45.2938 37.4136C44.8074 38.1048 44.2442 38.6424 43.6042 39.0264C42.9898 39.3848 42.2474 39.564 41.377 39.564C39.2266 39.564 37.9082 38.5912 37.4218 36.6456L36.2314 31.8456C35.873 30.412 35.3354 29.452 34.6186 28.9656C33.9274 28.4792 32.8906 28.236 31.5082 28.236H29.3194V34.956C29.3194 35.9288 29.3962 36.6328 29.5498 37.068C29.7034 37.5032 29.985 37.7976 30.3946 37.9512C30.8298 38.1048 31.5082 38.2072 32.4298 38.2584V39.0264C31.2522 38.9496 29.6266 38.9112 27.553 38.9112C25.3514 38.9112 23.713 38.9496 22.6378 39.0264V38.2584C23.5594 38.2072 24.225 38.1048 24.6346 37.9512C25.0698 37.7976 25.3642 37.5032 25.5178 37.068C25.6714 36.6328 25.7482 35.9288 25.7482 34.956V19.7496C25.7482 18.7768 25.6714 18.0728 25.5178 17.6376C25.3642 17.2024 25.0698 16.908 24.6346 16.7544C24.225 16.6008 23.5594 16.4984 22.6378 16.4472V15.6792C23.713 15.756 25.2746 15.7944 27.3226 15.7944L31.2394 15.756C31.6746 15.7304 32.1738 15.7176 32.737 15.7176C35.6042 15.7176 37.793 16.2552 39.3034 17.3304C40.8394 18.4056 41.6074 19.8008 41.6074 21.516C41.6074 23.0008 41.0058 24.3576 39.8026 25.5864C38.625 26.8152 36.6794 27.596 33.9658 27.9288C34.4778 27.98 34.913 28.0312 35.2714 28.0824C36.6282 28.2872 37.7034 28.6968 38.497 29.3112C39.2906 29.9256 39.8538 30.9112 40.1866 32.268L41.0314 35.7624C41.2362 36.6584 41.4538 37.2984 41.6842 37.6824C41.9402 38.0408 42.2602 38.22 42.6442 38.22C43.2842 38.22 43.9882 37.7848 44.7562 36.9144L45.2938 37.4136ZM31.777 16.4472C31.0858 16.4472 30.561 16.5368 30.2026 16.716C29.8698 16.8952 29.6394 17.2152 29.5114 17.676C29.3834 18.1368 29.3194 18.828 29.3194 19.7496V27.468H31.8922C34.145 27.468 35.681 26.9944 36.5002 26.0472C37.345 25.0744 37.7674 23.7048 37.7674 21.9384C37.7674 20.0952 37.2938 18.7256 36.3466 17.8296C35.425 16.908 33.9018 16.4472 31.777 16.4472ZM66.1075 35.8008C66.7987 37.388 67.6819 38.2072 68.7571 38.2584V39.0264C67.7331 38.9496 66.3635 38.9112 64.6483 38.9112C62.4467 38.9112 60.8083 38.9496 59.7331 39.0264V38.2584C60.6803 38.2072 61.3715 38.0792 61.8067 37.8744C62.2675 37.6696 62.4979 37.324 62.4979 36.8376C62.4979 36.428 62.3187 35.8264 61.9603 35.0328L60.0019 30.6552H50.6707L49.3651 33.5352C48.9299 34.5336 48.7123 35.3528 48.7123 35.9928C48.7123 36.6584 48.9427 37.1832 49.4035 37.5672C49.8899 37.9256 50.6579 38.156 51.7075 38.2584V39.0264C50.9395 38.9496 49.7747 38.9112 48.2131 38.9112C46.6515 38.9112 45.5379 38.9496 44.8723 39.0264V38.2584C45.5635 38.0792 46.1523 37.6952 46.6387 37.1064C47.1251 36.492 47.5859 35.6856 48.0211 34.6872L56.5075 15.4872H57.1219L66.1075 35.8008ZM59.6947 29.8872L55.3555 20.1336L50.9779 29.8872H59.6947ZM98.6905 40.14C98.1529 42.1624 97.2313 43.6856 95.9257 44.7096C94.6201 45.7336 92.8793 46.2456 90.7033 46.2456C89.3465 46.2456 87.9769 46.028 86.5945 45.5928C85.2377 45.1832 83.4969 44.556 81.3721 43.7112C78.9657 42.764 77.2633 42.1624 76.2649 41.9064C75.1641 42.2904 74.1017 42.4824 73.0777 42.4824C71.9001 42.4824 71.3113 42.2264 71.3113 41.7144C71.3113 41.1768 72.0025 40.908 73.3849 40.908C74.2809 40.908 75.2409 41.0104 76.2649 41.2152C77.0841 40.9848 78.0313 40.6264 79.1065 40.14C79.7721 39.8328 80.2713 39.6152 80.6041 39.4872C77.4297 39.2056 74.9081 38.028 73.0393 35.9544C71.1705 33.8808 70.2361 31.0904 70.2361 27.5832C70.2361 25.1256 70.7353 22.9624 71.7337 21.0936C72.7577 19.1992 74.1657 17.74 75.9577 16.716C77.7497 15.6664 79.7849 15.1416 82.0633 15.1416C84.4185 15.1416 86.4793 15.6152 88.2457 16.5624C90.0377 17.484 91.4201 18.8536 92.3929 20.6712C93.3657 22.4632 93.8521 24.6136 93.8521 27.1224C93.8521 29.4264 93.4041 31.4872 92.5081 33.3048C91.6121 35.0968 90.3705 36.5432 88.7833 37.644C87.1961 38.7192 85.3657 39.3464 83.2921 39.5256C82.6777 39.6024 82.1401 39.7048 81.6793 39.8328C81.2441 39.9864 80.6553 40.2168 79.9129 40.524C78.9913 40.9336 78.2233 41.228 77.6089 41.4072C80.6553 41.9704 82.9081 42.3672 84.3673 42.5976C87.0553 43.0328 89.1161 43.2504 90.5497 43.2504C92.5721 43.2504 94.1721 42.9816 95.3497 42.444C96.5273 41.9064 97.4489 41.0616 98.1145 39.9096L98.6905 40.14ZM74.0761 27.4296C74.0761 29.708 74.4345 31.7176 75.1513 33.4584C75.8681 35.1992 76.8409 36.5432 78.0697 37.4904C79.2985 38.412 80.6681 38.8728 82.1785 38.8728C83.7401 38.8728 85.1097 38.3864 86.2873 37.4136C87.4905 36.4152 88.4121 35.0456 89.0521 33.3048C89.6921 31.5384 90.0121 29.5288 90.0121 27.276C90.0121 24.9976 89.6537 22.988 88.9369 21.2472C88.2201 19.5064 87.2473 18.1752 86.0185 17.2536C84.7897 16.3064 83.4201 15.8328 81.9097 15.8328C80.3481 15.8328 78.9657 16.332 77.7625 17.3304C76.5849 18.3032 75.6761 19.6728 75.0361 21.4392C74.3961 23.18 74.0761 25.1768 74.0761 27.4296ZM119.957 16.4472C119.061 16.4984 118.396 16.6392 117.96 16.8696C117.525 17.0744 117.231 17.4328 117.077 17.9448C116.924 18.4312 116.847 19.1608 116.847 20.1336V28.62C116.847 30.3864 116.719 31.8968 116.463 33.1512C116.232 34.38 115.836 35.4552 115.272 36.3768C114.658 37.3496 113.762 38.1304 112.584 38.7192C111.432 39.2824 110.114 39.564 108.629 39.564C105.992 39.564 103.97 39.0008 102.562 37.8744C101.436 36.876 100.68 35.7368 100.296 34.4568C99.9124 33.1768 99.7204 31.2696 99.7204 28.7352V19.7496C99.7204 18.7768 99.6436 18.0728 99.49 17.6376C99.3364 17.2024 99.042 16.908 98.6068 16.7544C98.1972 16.6008 97.5316 16.4984 96.61 16.4472V15.6792C97.6852 15.756 99.3236 15.7944 101.525 15.7944C103.573 15.7944 105.199 15.756 106.402 15.6792V16.4472C105.48 16.4984 104.802 16.6008 104.367 16.7544C103.957 16.908 103.676 17.2024 103.522 17.6376C103.368 18.0728 103.292 18.7768 103.292 19.7496V29.388C103.292 31.2824 103.42 32.8568 103.676 34.1112C103.932 35.34 104.469 36.3384 105.288 37.1064C106.133 37.8488 107.362 38.22 108.975 38.22C111.535 38.22 113.34 37.4136 114.389 35.8008C115.439 34.188 115.964 31.9352 115.964 29.0424V20.1336C115.964 18.7512 115.708 17.804 115.196 17.292C114.709 16.78 113.8 16.4984 112.469 16.4472V15.6792C113.391 15.756 114.696 15.7944 116.386 15.7944C117.922 15.7944 119.112 15.756 119.957 15.6792V16.4472ZM141.431 34.4952C141.431 35.8264 141.52 37.3368 141.699 39.0264C140.035 38.9496 137.232 38.9112 133.29 38.9112C128.554 38.9112 124.97 38.9496 122.538 39.0264V38.2584C123.459 38.2072 124.125 38.1048 124.535 37.9512C124.97 37.7976 125.264 37.5032 125.418 37.068C125.571 36.6328 125.648 35.9288 125.648 34.956V19.7496C125.648 18.7768 125.571 18.0728 125.418 17.6376C125.264 17.2024 124.97 16.908 124.535 16.7544C124.125 16.6008 123.459 16.4984 122.538 16.4472V15.6792C124.97 15.756 128.554 15.7944 133.29 15.7944C136.874 15.7944 139.421 15.756 140.931 15.6792C140.752 17.2152 140.663 18.5976 140.663 19.8264C140.663 20.8248 140.701 21.6184 140.778 22.2072H139.895C139.715 20.108 139.267 18.6488 138.551 17.8296C137.859 16.9848 136.72 16.5624 135.133 16.5624H132.33C131.408 16.5624 130.73 16.6392 130.295 16.7928C129.885 16.9208 129.603 17.2024 129.45 17.6376C129.296 18.0728 129.219 18.7768 129.219 19.7496V26.892H132.407C133.226 26.892 133.853 26.6872 134.288 26.2776C134.723 25.8424 135.018 25.3816 135.171 24.8952C135.325 24.3832 135.466 23.7432 135.594 22.9752H136.477C136.4 23.8456 136.362 24.7928 136.362 25.8168V27.276C136.362 28.2744 136.439 29.708 136.592 31.5768H135.709C135.555 30.348 135.261 29.388 134.826 28.6968C134.391 28.0056 133.584 27.66 132.407 27.66H129.219V34.956C129.219 35.9288 129.296 36.6328 129.45 37.068C129.603 37.5032 129.885 37.7976 130.295 37.9512C130.73 38.0792 131.408 38.1432 132.33 38.1432H135.133C136.413 38.1432 137.424 37.9384 138.167 37.5288C138.909 37.1192 139.472 36.4664 139.856 35.5704C140.24 34.6488 140.509 33.3688 140.663 31.7304H141.546C141.469 32.4216 141.431 33.3432 141.431 34.4952ZM155.167 16.4472C154.246 16.4984 153.567 16.6008 153.132 16.7544C152.723 16.908 152.441 17.2024 152.287 17.6376C152.134 18.0728 152.057 18.7768 152.057 19.7496V34.956C152.057 35.9288 152.134 36.6328 152.287 37.068C152.441 37.5032 152.723 37.7976 153.132 37.9512C153.567 38.0792 154.246 38.1432 155.167 38.1432H157.587C159.353 38.1432 160.723 37.6184 161.695 36.5688C162.694 35.5192 163.295 33.7784 163.5 31.3464H164.383C164.307 32.14 164.268 33.1896 164.268 34.4952C164.268 35.8264 164.358 37.3368 164.537 39.0264C162.873 38.9496 160.07 38.9112 156.127 38.9112C151.391 38.9112 147.807 38.9496 145.375 39.0264V38.2584C146.297 38.2072 146.963 38.1048 147.372 37.9512C147.807 37.7976 148.102 37.5032 148.255 37.068C148.409 36.6328 148.486 35.9288 148.486 34.956V19.7496C148.486 18.7768 148.409 18.0728 148.255 17.6376C148.102 17.2024 147.807 16.908 147.372 16.7544C146.963 16.6008 146.297 16.4984 145.375 16.4472V15.6792C146.451 15.756 148.089 15.7944 150.291 15.7944C152.339 15.7944 153.964 15.756 155.167 15.6792V16.4472Z" fill="#DDD2DA"/>
<path d="M204.241 51.8472C203.319 51.8984 202.641 52.0008 202.205 52.1544C201.796 52.308 201.514 52.6024 201.361 53.0376C201.207 53.4728 201.13 54.1768 201.13 55.1496V70.356C201.13 71.3288 201.207 72.0328 201.361 72.468C201.514 72.9032 201.796 73.1976 202.205 73.3512C202.641 73.5048 203.319 73.6072 204.241 73.6584V74.4264C203.063 74.3496 201.437 74.3112 199.364 74.3112C197.162 74.3112 195.524 74.3496 194.449 74.4264V73.6584C195.37 73.6072 196.036 73.5048 196.445 73.3512C196.881 73.1976 197.175 72.9032 197.329 72.468C197.482 72.0328 197.559 71.3288 197.559 70.356V53.4984L188.305 74.6184H187.69L178.781 53.5368V69.972C178.781 70.9704 178.858 71.7128 179.012 72.1992C179.191 72.6856 179.524 73.044 180.01 73.2744C180.497 73.4792 181.252 73.6072 182.276 73.6584V74.4264C181.354 74.3496 180.049 74.3112 178.359 74.3112C176.823 74.3112 175.633 74.3496 174.788 74.4264V73.6584C175.684 73.6072 176.349 73.4792 176.785 73.2744C177.22 73.044 177.514 72.6856 177.668 72.1992C177.821 71.6872 177.898 70.9448 177.898 69.972V55.1496C177.898 54.1768 177.821 53.4728 177.668 53.0376C177.514 52.6024 177.22 52.308 176.785 52.1544C176.375 52.0008 175.709 51.8984 174.788 51.8472V51.0792C175.633 51.156 176.823 51.1944 178.359 51.1944C179.588 51.1944 180.676 51.156 181.623 51.0792L189.341 69.78L197.559 51.1944H199.364C201.437 51.1944 203.063 51.156 204.241 51.0792V51.8472ZM217.242 51.8472C216.321 51.8984 215.642 52.0008 215.207 52.1544C214.798 52.308 214.516 52.6024 214.362 53.0376C214.209 53.4728 214.132 54.1768 214.132 55.1496V70.356C214.132 71.3288 214.209 72.0328 214.362 72.468C214.516 72.9032 214.798 73.1976 215.207 73.3512C215.642 73.5048 216.321 73.6072 217.242 73.6584V74.4264C216.065 74.3496 214.439 74.3112 212.366 74.3112C210.164 74.3112 208.526 74.3496 207.45 74.4264V73.6584C208.372 73.6072 209.038 73.5048 209.447 73.3512C209.882 73.1976 210.177 72.9032 210.33 72.468C210.484 72.0328 210.561 71.3288 210.561 70.356V55.1496C210.561 54.1768 210.484 53.4728 210.33 53.0376C210.177 52.6024 209.882 52.308 209.447 52.1544C209.038 52.0008 208.372 51.8984 207.45 51.8472V51.0792C208.526 51.156 210.164 51.1944 212.366 51.1944C214.414 51.1944 216.039 51.156 217.242 51.0792V51.8472ZM232.029 50.5416C233.463 50.5416 234.615 50.7464 235.485 51.156C236.381 51.5656 237.329 52.1928 238.327 53.0376C238.66 53.2936 238.916 53.4216 239.095 53.4216C239.581 53.4216 239.901 52.6408 240.055 51.0792H240.938C240.836 52.5384 240.785 55.0984 240.785 58.7592H239.901C239.697 57.7864 239.441 56.9288 239.133 56.1864C238.852 55.444 238.468 54.7912 237.981 54.228C237.137 53.2552 236.253 52.5128 235.332 52.0008C234.41 51.4888 233.284 51.2328 231.953 51.2328C230.417 51.2328 229.085 51.7064 227.959 52.6536C226.833 53.5752 225.962 54.9064 225.348 56.6472C224.733 58.388 224.426 60.436 224.426 62.7912C224.426 66.708 225.143 69.588 226.577 71.4312C228.01 73.2744 230.148 74.196 232.989 74.196C234.09 74.196 235.076 74.0936 235.946 73.8888C236.407 73.7864 236.714 73.62 236.868 73.3896C237.047 73.1592 237.137 72.8392 237.137 72.4296V69.1272C237.137 68.052 237.034 67.2712 236.829 66.7848C236.625 66.2984 236.266 65.9656 235.754 65.7864C235.242 65.6072 234.41 65.492 233.258 65.4408V64.6728C234.641 64.7496 236.445 64.788 238.673 64.788C240.413 64.788 241.745 64.7496 242.666 64.6728V65.4408C242.077 65.492 241.655 65.5944 241.399 65.748C241.143 65.9016 240.964 66.196 240.861 66.6312C240.759 67.0664 240.708 67.7704 240.708 68.7432V74.4264H239.94C239.889 73.812 239.697 73.5048 239.364 73.5048C239.21 73.5048 238.929 73.5944 238.519 73.7736C238.109 73.9528 237.828 74.068 237.674 74.1192C236.036 74.6824 234.359 74.964 232.644 74.964C228.804 74.964 225.834 73.94 223.735 71.892C221.636 69.8184 220.586 66.9256 220.586 63.2136C220.586 60.6536 221.073 58.4264 222.045 56.532C223.018 54.612 224.362 53.14 226.077 52.116C227.818 51.0664 229.802 50.5416 232.029 50.5416ZM268.207 51.8472C267.311 51.8984 266.646 52.0392 266.21 52.2696C265.775 52.4744 265.481 52.8328 265.327 53.3448C265.174 53.8312 265.097 54.5608 265.097 55.5336V64.02C265.097 65.7864 264.969 67.2968 264.713 68.5512C264.482 69.78 264.086 70.8552 263.522 71.7768C262.908 72.7496 262.012 73.5304 260.834 74.1192C259.682 74.6824 258.364 74.964 256.879 74.964C254.242 74.964 252.22 74.4008 250.812 73.2744C249.686 72.276 248.93 71.1368 248.546 69.8568C248.162 68.5768 247.97 66.6696 247.97 64.1352V55.1496C247.97 54.1768 247.894 53.4728 247.74 53.0376C247.586 52.6024 247.292 52.308 246.857 52.1544C246.447 52.0008 245.782 51.8984 244.86 51.8472V51.0792C245.935 51.156 247.574 51.1944 249.775 51.1944C251.823 51.1944 253.449 51.156 254.652 51.0792V51.8472C253.73 51.8984 253.052 52.0008 252.617 52.1544C252.207 52.308 251.926 52.6024 251.772 53.0376C251.618 53.4728 251.542 54.1768 251.542 55.1496V64.788C251.542 66.6824 251.67 68.2568 251.926 69.5112C252.182 70.74 252.719 71.7384 253.538 72.5064C254.383 73.2488 255.612 73.62 257.225 73.62C259.785 73.62 261.59 72.8136 262.639 71.2008C263.689 69.588 264.214 67.3352 264.214 64.4424V55.5336C264.214 54.1512 263.958 53.204 263.446 52.692C262.959 52.18 262.05 51.8984 260.719 51.8472V51.0792C261.641 51.156 262.946 51.1944 264.636 51.1944C266.172 51.1944 267.362 51.156 268.207 51.0792V51.8472ZM289.681 69.8952C289.681 71.2264 289.77 72.7368 289.949 74.4264C288.285 74.3496 285.482 74.3112 281.54 74.3112C276.804 74.3112 273.22 74.3496 270.788 74.4264V73.6584C271.709 73.6072 272.375 73.5048 272.785 73.3512C273.22 73.1976 273.514 72.9032 273.668 72.468C273.821 72.0328 273.898 71.3288 273.898 70.356V55.1496C273.898 54.1768 273.821 53.4728 273.668 53.0376C273.514 52.6024 273.22 52.308 272.785 52.1544C272.375 52.0008 271.709 51.8984 270.788 51.8472V51.0792C273.22 51.156 276.804 51.1944 281.54 51.1944C285.124 51.1944 287.671 51.156 289.181 51.0792C289.002 52.6152 288.913 53.9976 288.913 55.2264C288.913 56.2248 288.951 57.0184 289.028 57.6072H288.145C287.965 55.508 287.517 54.0488 286.801 53.2296C286.109 52.3848 284.97 51.9624 283.383 51.9624H280.58C279.658 51.9624 278.98 52.0392 278.545 52.1928C278.135 52.3208 277.853 52.6024 277.7 53.0376C277.546 53.4728 277.469 54.1768 277.469 55.1496V62.292H280.657C281.476 62.292 282.103 62.0872 282.538 61.6776C282.973 61.2424 283.268 60.7816 283.421 60.2952C283.575 59.7832 283.716 59.1432 283.844 58.3752H284.727C284.65 59.2456 284.612 60.1928 284.612 61.2168V62.676C284.612 63.6744 284.689 65.108 284.842 66.9768H283.959C283.805 65.748 283.511 64.788 283.076 64.0968C282.641 63.4056 281.834 63.06 280.657 63.06H277.469V70.356C277.469 71.3288 277.546 72.0328 277.7 72.468C277.853 72.9032 278.135 73.1976 278.545 73.3512C278.98 73.4792 279.658 73.5432 280.58 73.5432H283.383C284.663 73.5432 285.674 73.3384 286.417 72.9288C287.159 72.5192 287.722 71.8664 288.106 70.9704C288.49 70.0488 288.759 68.7688 288.913 67.1304H289.796C289.719 67.8216 289.681 68.7432 289.681 69.8952ZM303.417 51.8472C302.496 51.8984 301.817 52.0008 301.382 52.1544C300.973 52.308 300.691 52.6024 300.537 53.0376C300.384 53.4728 300.307 54.1768 300.307 55.1496V70.356C300.307 71.3288 300.384 72.0328 300.537 72.468C300.691 72.9032 300.973 73.1976 301.382 73.3512C301.817 73.4792 302.496 73.5432 303.417 73.5432H305.837C307.603 73.5432 308.973 73.0184 309.945 71.9688C310.944 70.9192 311.545 69.1784 311.75 66.7464H312.633C312.557 67.54 312.518 68.5896 312.518 69.8952C312.518 71.2264 312.608 72.7368 312.787 74.4264C311.123 74.3496 308.32 74.3112 304.377 74.3112C299.641 74.3112 296.057 74.3496 293.625 74.4264V73.6584C294.547 73.6072 295.213 73.5048 295.622 73.3512C296.057 73.1976 296.352 72.9032 296.505 72.468C296.659 72.0328 296.736 71.3288 296.736 70.356V55.1496C296.736 54.1768 296.659 53.4728 296.505 53.0376C296.352 52.6024 296.057 52.308 295.622 52.1544C295.213 52.0008 294.547 51.8984 293.625 51.8472V51.0792C294.701 51.156 296.339 51.1944 298.541 51.1944C300.589 51.1944 302.214 51.156 303.417 51.0792V51.8472Z" fill="#DDD2DA"/>
<path d="M82.4434 123.058C81.8088 123.094 81.3373 123.194 81.029 123.357C80.7208 123.502 80.5122 123.756 80.4034 124.119C80.2946 124.463 80.2402 124.98 80.2402 125.669V139.187H79.6146L68.7346 124.119V135.896C68.7346 136.603 68.789 137.129 68.8978 137.474C69.0248 137.818 69.2605 138.072 69.605 138.235C69.9496 138.38 70.4845 138.471 71.2098 138.507V139.051C70.557 138.997 69.6322 138.97 68.4354 138.97C67.3474 138.97 66.5042 138.997 65.9058 139.051V138.507C66.5405 138.471 67.012 138.38 67.3202 138.235C67.6285 138.072 67.837 137.818 67.9458 137.474C68.0546 137.111 68.109 136.585 68.109 135.896V125.397C68.109 124.708 68.0546 124.209 67.9458 123.901C67.837 123.593 67.6285 123.384 67.3202 123.275C67.0301 123.167 66.5586 123.094 65.9058 123.058V122.514C66.5042 122.568 67.3474 122.595 68.4354 122.595C69.4146 122.595 70.2488 122.568 70.9378 122.514L79.6146 134.591V125.669C79.6146 124.962 79.5512 124.436 79.4242 124.091C79.3154 123.747 79.0888 123.502 78.7442 123.357C78.3997 123.194 77.8648 123.094 77.1394 123.058V122.514C77.7922 122.568 78.717 122.595 79.9138 122.595C81.0018 122.595 81.845 122.568 82.4434 122.514V123.058ZM95.6042 122.133C97.2725 122.133 98.7322 122.468 99.9834 123.139C101.253 123.792 102.232 124.762 102.921 126.05C103.61 127.319 103.955 128.842 103.955 130.619C103.955 132.36 103.592 133.902 102.867 135.243C102.159 136.567 101.171 137.601 99.9018 138.344C98.6325 139.07 97.1909 139.432 95.577 139.432C93.9087 139.432 92.4399 139.106 91.1706 138.453C89.9194 137.782 88.9493 136.812 88.2602 135.543C87.5711 134.255 87.2266 132.723 87.2266 130.946C87.2266 129.205 87.5802 127.673 88.2874 126.349C89.0127 125.007 90.0101 123.974 91.2794 123.248C92.5487 122.505 93.9903 122.133 95.6042 122.133ZM95.4954 122.623C94.3893 122.623 93.4101 122.976 92.5578 123.683C91.7237 124.372 91.0799 125.343 90.6266 126.594C90.1733 127.827 89.9466 129.241 89.9466 130.837C89.9466 132.451 90.2005 133.874 90.7082 135.107C91.2159 136.34 91.905 137.292 92.7754 137.963C93.6458 138.616 94.6159 138.943 95.6858 138.943C96.7919 138.943 97.7621 138.598 98.5962 137.909C99.4485 137.202 100.101 136.232 100.555 134.999C101.008 133.747 101.235 132.324 101.235 130.728C101.235 129.114 100.981 127.691 100.473 126.458C99.9653 125.225 99.2762 124.282 98.4058 123.629C97.5354 122.958 96.5653 122.623 95.4954 122.623ZM122.777 122.595C123.539 122.595 124.146 122.568 124.6 122.514V123.058C124.092 123.185 123.684 123.439 123.376 123.819C123.067 124.182 122.714 124.817 122.315 125.723L116.358 139.187H115.923L109.558 124.799C109.068 123.674 108.443 123.094 107.681 123.058V122.514C108.425 122.568 109.395 122.595 110.592 122.595C112.151 122.595 113.312 122.568 114.073 122.514V123.058C113.402 123.094 112.904 123.185 112.577 123.33C112.269 123.475 112.115 123.72 112.115 124.064C112.115 124.354 112.242 124.78 112.496 125.343L117.174 135.896L121.227 126.866C121.68 125.887 121.907 125.116 121.907 124.554C121.907 124.046 121.725 123.683 121.363 123.466C121.018 123.23 120.483 123.094 119.758 123.058V122.514C120.302 122.568 121.308 122.595 122.777 122.595Z" fill="#DDD2DA"/>
<path d="M134.9 129.551C134.9 130.474 134.153 131.22 133.231 131.22C132.31 131.22 131.563 130.474 131.563 129.551C131.563 128.63 132.31 127.883 133.231 127.883C134.153 127.883 134.9 128.63 134.9 129.551Z" fill="#DDD2DA"/>
<path d="M155.463 138.823C155.463 140.528 155.844 141.706 156.606 142.359C157.403 142.976 158.763 143.284 160.686 143.284V144.426C156.769 144.281 154.266 144.209 153.178 144.209C152.163 144.209 149.806 144.263 146.106 144.372L144.801 144.426V143.284C146.723 143.284 148.155 142.958 149.098 142.305C150.078 141.652 150.567 140.491 150.567 138.823V125.658C150.567 123.918 150.386 122.648 150.023 121.85C149.661 121.016 149.044 120.472 148.174 120.218C147.339 119.928 146.034 119.783 144.257 119.783V118.586C146.904 118.514 149.08 118.278 150.785 117.879C152.526 117.48 154.085 116.791 155.463 115.812V138.823ZM185.118 117.607C184.574 118.877 183.631 120.817 182.289 123.428C180.874 126.148 179.732 128.505 178.862 130.5C177.991 132.458 177.248 134.725 176.631 137.3C176.015 139.839 175.706 142.541 175.706 145.406C175.706 146.131 175.743 147.001 175.815 148.017C175.888 148.815 175.924 149.377 175.924 149.703C175.924 150.537 175.688 151.208 175.217 151.716C174.745 152.224 174.129 152.478 173.367 152.478C172.569 152.478 171.953 152.187 171.518 151.607C171.119 151.027 170.919 150.302 170.919 149.431C170.919 146.639 171.336 143.882 172.17 141.162C173.041 138.442 174.074 135.94 175.271 133.655C176.504 131.334 178.1 128.56 180.058 125.332L182.615 121.034H169.722C168.743 121.034 168 121.125 167.492 121.306C167.021 121.451 166.694 121.723 166.513 122.122C166.331 122.485 166.186 123.047 166.078 123.809H165.153C165.153 120.218 165.08 117.68 164.935 116.193C165.769 116.374 168.471 116.465 173.041 116.465H185.118V117.607Z" fill="#917492"/>
<path d="M199.437 129.551C199.437 130.474 198.69 131.22 197.767 131.22C196.847 131.22 196.1 130.474 196.1 129.551C196.1 128.63 196.847 127.883 197.767 127.883C198.69 127.883 199.437 128.63 199.437 129.551Z" fill="#DDD2DA"/>
<path d="M212.873 124.663C214.143 124.663 215.14 124.962 215.865 125.56C216.591 126.159 216.953 127.002 216.953 128.09C216.953 128.833 216.754 129.559 216.355 130.266C215.974 130.955 215.503 131.59 214.941 132.17C214.397 132.75 213.671 133.448 212.765 134.264C212.021 134.953 211.468 135.479 211.105 135.842C210.743 136.186 210.416 136.558 210.126 136.957H215.648C216.137 136.957 216.5 136.921 216.736 136.848C216.99 136.758 217.162 136.622 217.253 136.44C217.343 136.241 217.416 135.951 217.47 135.57H217.933C217.933 137.238 217.969 138.444 218.041 139.187C217.642 139.097 216.292 139.051 213.989 139.051H207.624V138.589C207.932 138.263 208.458 137.746 209.201 137.039C210.235 136.078 211.096 135.216 211.785 134.455C212.474 133.675 213.064 132.795 213.553 131.816C214.061 130.837 214.315 129.794 214.315 128.688C214.315 126.73 213.408 125.751 211.595 125.751C210.108 125.751 208.893 126.603 207.95 128.307L207.515 128.063C207.986 127.083 208.657 126.276 209.528 125.642C210.398 124.989 211.513 124.663 212.873 124.663ZM230.268 124.663C231.538 124.663 232.671 124.962 233.668 125.56C234.666 126.14 235.445 126.975 236.007 128.063C236.57 129.151 236.851 130.402 236.851 131.816C236.851 133.267 236.56 134.572 235.98 135.733C235.4 136.875 234.584 137.782 233.532 138.453C232.499 139.106 231.311 139.432 229.969 139.432C228.718 139.432 227.594 139.142 226.596 138.562C225.599 137.963 224.81 137.12 224.23 136.032C223.668 134.944 223.387 133.684 223.387 132.251C223.387 130.819 223.668 129.531 224.23 128.389C224.81 127.228 225.617 126.322 226.651 125.669C227.702 124.998 228.908 124.663 230.268 124.663ZM230.023 125.152C229.244 125.152 228.546 125.433 227.929 125.995C227.331 126.539 226.859 127.346 226.515 128.416C226.188 129.468 226.025 130.719 226.025 132.17C226.025 134.473 226.415 136.177 227.195 137.283C227.974 138.39 228.981 138.943 230.214 138.943C230.994 138.943 231.683 138.662 232.281 138.099C232.898 137.537 233.369 136.73 233.695 135.679C234.04 134.609 234.212 133.348 234.212 131.898C234.212 129.613 233.822 127.918 233.043 126.811C232.263 125.705 231.256 125.152 230.023 125.152ZM247.638 124.663C248.908 124.663 249.905 124.962 250.63 125.56C251.356 126.159 251.718 127.002 251.718 128.09C251.718 128.833 251.519 129.559 251.12 130.266C250.739 130.955 250.268 131.59 249.706 132.17C249.162 132.75 248.436 133.448 247.53 134.264C246.786 134.953 246.233 135.479 245.87 135.842C245.508 136.186 245.181 136.558 244.891 136.957H250.413C250.902 136.957 251.265 136.921 251.501 136.848C251.755 136.758 251.927 136.622 252.018 136.44C252.108 136.241 252.181 135.951 252.235 135.57H252.698C252.698 137.238 252.734 138.444 252.806 139.187C252.407 139.097 251.057 139.051 248.754 139.051H242.389V138.589C242.697 138.263 243.223 137.746 243.966 137.039C245 136.078 245.861 135.216 246.55 134.455C247.239 133.675 247.829 132.795 248.318 131.816C248.826 130.837 249.08 129.794 249.08 128.688C249.08 126.73 248.173 125.751 246.36 125.751C244.873 125.751 243.658 126.603 242.715 128.307L242.28 128.063C242.751 127.083 243.422 126.276 244.293 125.642C245.163 124.989 246.278 124.663 247.638 124.663ZM269.195 137.719C268.959 137.664 268.052 137.619 266.475 137.583V142.887H264.299V137.583H257.2V137.011L266.04 124.663H266.475V135.76H266.801C267.291 135.76 267.653 135.724 267.889 135.651C268.143 135.561 268.315 135.425 268.406 135.243C268.497 135.044 268.569 134.754 268.624 134.373H269.086C269.086 135.896 269.122 137.011 269.195 137.719ZM264.299 135.76V127.981L258.804 135.76H264.299Z" fill="#DDD2DA"/>
<path d="M138.088 168.476V167.783L142.045 163.907C142.408 163.553 142.68 163.245 142.861 162.982C143.042 162.71 143.165 162.456 143.228 162.22C143.292 161.985 143.324 161.763 143.324 161.554C143.324 161.001 143.133 160.566 142.752 160.248C142.381 159.931 141.828 159.772 141.093 159.772C140.531 159.772 140.032 159.859 139.597 160.031C139.171 160.203 138.804 160.471 138.496 160.833L137.802 160.235C138.174 159.8 138.65 159.464 139.23 159.228C139.81 158.993 140.458 158.875 141.175 158.875C141.818 158.875 142.376 158.979 142.848 159.188C143.319 159.387 143.682 159.682 143.936 160.072C144.198 160.462 144.33 160.919 144.33 161.445C144.33 161.754 144.285 162.057 144.194 162.356C144.112 162.656 143.958 162.973 143.732 163.308C143.514 163.635 143.192 164.007 142.766 164.424L139.135 167.987L138.863 167.606H144.765V168.476H138.088ZM147.136 162.751C146.937 162.751 146.765 162.678 146.62 162.533C146.484 162.388 146.416 162.211 146.416 162.003C146.416 161.785 146.484 161.608 146.62 161.472C146.765 161.336 146.937 161.268 147.136 161.268C147.336 161.268 147.504 161.336 147.64 161.472C147.785 161.608 147.857 161.785 147.857 162.003C147.857 162.211 147.785 162.388 147.64 162.533C147.504 162.678 147.336 162.751 147.136 162.751ZM147.136 168.544C146.937 168.544 146.765 168.472 146.62 168.327C146.484 168.182 146.416 168.005 146.416 167.796C146.416 167.579 146.484 167.402 146.62 167.266C146.765 167.13 146.937 167.062 147.136 167.062C147.336 167.062 147.504 167.13 147.64 167.266C147.785 167.402 147.857 167.579 147.857 167.796C147.857 168.005 147.785 168.182 147.64 168.327C147.504 168.472 147.336 168.544 147.136 168.544ZM152.534 168.558C151.845 168.558 151.193 168.449 150.576 168.232C149.969 168.005 149.479 167.706 149.107 167.334L149.583 166.559C149.892 166.876 150.304 167.139 150.821 167.348C151.347 167.556 151.918 167.66 152.534 167.66C153.323 167.66 153.926 167.488 154.343 167.144C154.769 166.799 154.982 166.337 154.982 165.756C154.982 165.176 154.774 164.714 154.357 164.369C153.949 164.025 153.301 163.852 152.412 163.852H151.732V163.132L154.67 159.446L154.806 159.827H149.502V158.956H155.622V159.65L152.684 163.336L152.208 163.023H152.575C153.718 163.023 154.57 163.277 155.132 163.784C155.703 164.292 155.989 164.945 155.989 165.743C155.989 166.278 155.862 166.758 155.608 167.184C155.354 167.611 154.969 167.946 154.452 168.191C153.944 168.436 153.305 168.558 152.534 168.558ZM161.571 168.558C160.837 168.558 160.184 168.368 159.613 167.987C159.041 167.597 158.593 167.044 158.266 166.328C157.94 165.602 157.777 164.732 157.777 163.716C157.777 162.701 157.94 161.835 158.266 161.119C158.593 160.394 159.041 159.84 159.613 159.46C160.184 159.07 160.837 158.875 161.571 158.875C162.305 158.875 162.958 159.07 163.529 159.46C164.101 159.84 164.549 160.394 164.876 161.119C165.211 161.835 165.379 162.701 165.379 163.716C165.379 164.732 165.211 165.602 164.876 166.328C164.549 167.044 164.101 167.597 163.529 167.987C162.958 168.368 162.305 168.558 161.571 168.558ZM161.571 167.66C162.133 167.66 162.623 167.511 163.04 167.212C163.457 166.903 163.783 166.459 164.019 165.879C164.255 165.29 164.373 164.569 164.373 163.716C164.373 162.864 164.255 162.148 164.019 161.568C163.783 160.978 163.457 160.534 163.04 160.235C162.623 159.927 162.133 159.772 161.571 159.772C161.027 159.772 160.542 159.927 160.116 160.235C159.69 160.534 159.359 160.978 159.123 161.568C158.887 162.148 158.769 162.864 158.769 163.716C158.769 164.569 158.887 165.29 159.123 165.879C159.359 166.459 159.69 166.903 160.116 167.212C160.542 167.511 161.027 167.66 161.571 167.66ZM172 168.476V158.956H175.563C176.37 158.956 177.064 159.088 177.644 159.351C178.224 159.605 178.668 159.976 178.977 160.466C179.294 160.947 179.453 161.531 179.453 162.22C179.453 162.891 179.294 163.472 178.977 163.961C178.668 164.442 178.224 164.814 177.644 165.076C177.064 165.339 176.37 165.471 175.563 165.471H172.558L173.006 164.995V168.476H172ZM173.006 165.076L172.558 164.587H175.536C176.488 164.587 177.209 164.383 177.698 163.975C178.197 163.558 178.446 162.973 178.446 162.22C178.446 161.459 178.197 160.87 177.698 160.452C177.209 160.035 176.488 159.827 175.536 159.827H172.558L173.006 159.351V165.076ZM182.037 168.476V158.956H182.866L187.218 166.382H186.783L191.094 158.956H191.924V168.476H190.958V160.466H191.19L187.218 167.266H186.742L182.744 160.466H183.002V168.476H182.037Z" fill="#DDD2DA"/>
</svg>
