<svg width="182" height="165" viewBox="0 0 182 165" fill="none" xmlns="http://www.w3.org/2000/svg">
<path d="M31.2925 31.984C30.6845 32.848 29.9805 33.52 29.1805 34C28.4125 34.448 27.4845 34.672 26.3965 34.672C23.7085 34.672 22.0605 33.456 21.4525 31.024L19.9645 25.024C19.5165 23.232 18.8445 22.032 17.9485 21.424C17.0845 20.816 15.7885 20.512 14.0605 20.512H11.3245V28.912C11.3245 30.128 11.4205 31.008 11.6125 31.552C11.8045 32.096 12.1565 32.464 12.6685 32.656C13.2125 32.848 14.0605 32.976 15.2125 33.04V34C13.7405 33.904 11.7085 33.856 9.11654 33.856C6.36454 33.856 4.31654 33.904 2.97254 34V33.04C4.12454 32.976 4.95654 32.848 5.46854 32.656C6.01254 32.464 6.38054 32.096 6.57254 31.552C6.76454 31.008 6.86054 30.128 6.86054 28.912V9.904C6.86054 8.688 6.76454 7.808 6.57254 7.264C6.38054 6.72 6.01254 6.352 5.46854 6.16C4.95654 5.968 4.12454 5.84 2.97254 5.776V4.816C4.31654 4.912 6.26854 4.96 8.82854 4.96L13.7245 4.912C14.2685 4.88 14.8925 4.864 15.5965 4.864C19.1805 4.864 21.9165 5.536 23.8045 6.88C25.7245 8.224 26.6845 9.968 26.6845 12.112C26.6845 13.968 25.9325 15.664 24.4285 17.2C22.9565 18.736 20.5245 19.712 17.1325 20.128C17.7725 20.192 18.3165 20.256 18.7645 20.32C20.4605 20.576 21.8045 21.088 22.7965 21.856C23.7885 22.624 24.4925 23.856 24.9085 25.552L25.9645 29.92C26.2205 31.04 26.4925 31.84 26.7805 32.32C27.1005 32.768 27.5005 32.992 27.9805 32.992C28.7805 32.992 29.6605 32.448 30.6205 31.36L31.2925 31.984ZM14.3965 5.776C13.5325 5.776 12.8765 5.888 12.4285 6.112C12.0125 6.336 11.7245 6.736 11.5645 7.312C11.4045 7.888 11.3245 8.752 11.3245 9.904V19.552H14.5405C17.3565 19.552 19.2765 18.96 20.3005 17.776C21.3565 16.56 21.8845 14.848 21.8845 12.64C21.8845 10.336 21.2925 8.624 20.1085 7.504C18.9565 6.352 17.0525 5.776 14.3965 5.776ZM57.3097 29.968C58.1737 31.952 59.2777 32.976 60.6217 33.04V34C59.3417 33.904 57.6297 33.856 55.4857 33.856C52.7337 33.856 50.6857 33.904 49.3417 34V33.04C50.5257 32.976 51.3897 32.816 51.9337 32.56C52.5097 32.304 52.7977 31.872 52.7977 31.264C52.7977 30.752 52.5737 30 52.1257 29.008L49.6777 23.536H38.0137L36.3817 27.136C35.8377 28.384 35.5657 29.408 35.5657 30.208C35.5657 31.04 35.8537 31.696 36.4297 32.176C37.0377 32.624 37.9977 32.912 39.3097 33.04V34C38.3497 33.904 36.8937 33.856 34.9417 33.856C32.9897 33.856 31.5977 33.904 30.7657 34V33.04C31.6297 32.816 32.3657 32.336 32.9737 31.6C33.5817 30.832 34.1577 29.824 34.7017 28.576L45.3097 4.576H46.0777L57.3097 29.968ZM49.2937 22.576L43.8697 10.384L38.3977 22.576H49.2937ZM98.0384 35.392C97.3664 37.92 96.2144 39.824 94.5824 41.104C92.9504 42.384 90.7744 43.024 88.0544 43.024C86.3584 43.024 84.6464 42.752 82.9184 42.208C81.2224 41.696 79.0464 40.912 76.3904 39.856C73.3824 38.672 71.2544 37.92 70.0064 37.6C68.6304 38.08 67.3024 38.32 66.0224 38.32C64.5504 38.32 63.8144 38 63.8144 37.36C63.8144 36.688 64.6784 36.352 66.4064 36.352C67.5264 36.352 68.7264 36.48 70.0064 36.736C71.0304 36.448 72.2144 36 73.5584 35.392C74.3904 35.008 75.0144 34.736 75.4304 34.576C71.4624 34.224 68.3104 32.752 65.9744 30.16C63.6384 27.568 62.4704 24.08 62.4704 19.696C62.4704 16.624 63.0944 13.92 64.3424 11.584C65.6224 9.216 67.3824 7.392 69.6224 6.112C71.8624 4.8 74.4064 4.144 77.2544 4.144C80.1984 4.144 82.7744 4.736 84.9824 5.92C87.2224 7.072 88.9504 8.784 90.1664 11.056C91.3824 13.296 91.9904 15.984 91.9904 19.12C91.9904 22 91.4304 24.576 90.3104 26.848C89.1904 29.088 87.6384 30.896 85.6544 32.272C83.6704 33.616 81.3824 34.4 78.7904 34.624C78.0224 34.72 77.3504 34.848 76.7744 35.008C76.2304 35.2 75.4944 35.488 74.5664 35.872C73.4144 36.384 72.4544 36.752 71.6864 36.976C75.4944 37.68 78.3104 38.176 80.1344 38.464C83.4944 39.008 86.0704 39.28 87.8624 39.28C90.3904 39.28 92.3904 38.944 93.8624 38.272C95.3344 37.6 96.4864 36.544 97.3184 35.104L98.0384 35.392ZM67.2704 19.504C67.2704 22.352 67.7184 24.864 68.6144 27.04C69.5104 29.216 70.7264 30.896 72.2624 32.08C73.7984 33.232 75.5104 33.808 77.3984 33.808C79.3504 33.808 81.0624 33.2 82.5344 31.984C84.0384 30.736 85.1904 29.024 85.9904 26.848C86.7904 24.64 87.1904 22.128 87.1904 19.312C87.1904 16.464 86.7424 13.952 85.8464 11.776C84.9504 9.6 83.7344 7.936 82.1984 6.784C80.6624 5.6 78.9504 5.008 77.0624 5.008C75.1104 5.008 73.3824 5.632 71.8784 6.88C70.4064 8.096 69.2704 9.808 68.4704 12.016C67.6704 14.192 67.2704 16.688 67.2704 19.504ZM124.622 5.776C123.502 5.84 122.67 6.016 122.126 6.304C121.582 6.56 121.214 7.008 121.022 7.648C120.83 8.256 120.734 9.168 120.734 10.384V20.992C120.734 23.2 120.574 25.088 120.254 26.656C119.966 28.192 119.47 29.536 118.766 30.688C117.998 31.904 116.878 32.88 115.406 33.616C113.966 34.32 112.318 34.672 110.462 34.672C107.166 34.672 104.638 33.968 102.878 32.56C101.47 31.312 100.526 29.888 100.046 28.288C99.5658 26.688 99.3258 24.304 99.3258 21.136V9.904C99.3258 8.688 99.2298 7.808 99.0378 7.264C98.8458 6.72 98.4778 6.352 97.9338 6.16C97.4218 5.968 96.5898 5.84 95.4378 5.776V4.816C96.7818 4.912 98.8298 4.96 101.582 4.96C104.142 4.96 106.174 4.912 107.678 4.816V5.776C106.526 5.84 105.678 5.968 105.134 6.16C104.622 6.352 104.27 6.72 104.078 7.264C103.886 7.808 103.79 8.688 103.79 9.904V21.952C103.79 24.32 103.95 26.288 104.27 27.856C104.59 29.392 105.262 30.64 106.286 31.6C107.342 32.528 108.878 32.992 110.894 32.992C114.094 32.992 116.35 31.984 117.662 29.968C118.974 27.952 119.63 25.136 119.63 21.52V10.384C119.63 8.656 119.31 7.472 118.67 6.832C118.062 6.192 116.926 5.84 115.262 5.776V4.816C116.414 4.912 118.046 4.96 120.158 4.96C122.078 4.96 123.566 4.912 124.622 4.816V5.776ZM151.464 28.336C151.464 30 151.576 31.888 151.8 34C149.72 33.904 146.216 33.856 141.288 33.856C135.368 33.856 130.888 33.904 127.848 34V33.04C129 32.976 129.832 32.848 130.344 32.656C130.888 32.464 131.256 32.096 131.448 31.552C131.64 31.008 131.736 30.128 131.736 28.912V9.904C131.736 8.688 131.64 7.808 131.448 7.264C131.256 6.72 130.888 6.352 130.344 6.16C129.832 5.968 129 5.84 127.848 5.776V4.816C130.888 4.912 135.368 4.96 141.288 4.96C145.768 4.96 148.952 4.912 150.84 4.816C150.616 6.736 150.504 8.464 150.504 10C150.504 11.248 150.552 12.24 150.648 12.976H149.544C149.32 10.352 148.76 8.528 147.864 7.504C147 6.448 145.576 5.92 143.592 5.92H140.088C138.936 5.92 138.088 6.016 137.544 6.208C137.032 6.368 136.68 6.72 136.488 7.264C136.296 7.808 136.2 8.688 136.2 9.904V18.832H140.184C141.208 18.832 141.992 18.576 142.536 18.064C143.08 17.52 143.448 16.944 143.64 16.336C143.832 15.696 144.008 14.896 144.168 13.936H145.272C145.176 15.024 145.128 16.208 145.128 17.488V19.312C145.128 20.56 145.224 22.352 145.416 24.688H144.312C144.12 23.152 143.752 21.952 143.208 21.088C142.664 20.224 141.656 19.792 140.184 19.792H136.2V28.912C136.2 30.128 136.296 31.008 136.488 31.552C136.68 32.096 137.032 32.464 137.544 32.656C138.088 32.816 138.936 32.896 140.088 32.896H143.592C145.192 32.896 146.456 32.64 147.384 32.128C148.312 31.616 149.016 30.8 149.496 29.68C149.976 28.528 150.312 26.928 150.504 24.88H151.608C151.512 25.744 151.464 26.896 151.464 28.336ZM168.634 5.776C167.482 5.84 166.634 5.968 166.09 6.16C165.578 6.352 165.226 6.72 165.034 7.264C164.842 7.808 164.746 8.688 164.746 9.904V28.912C164.746 30.128 164.842 31.008 165.034 31.552C165.226 32.096 165.578 32.464 166.09 32.656C166.634 32.816 167.482 32.896 168.634 32.896H171.658C173.866 32.896 175.578 32.24 176.794 30.928C178.042 29.616 178.794 27.44 179.05 24.4H180.154C180.058 25.392 180.01 26.704 180.01 28.336C180.01 30 180.122 31.888 180.346 34C178.266 33.904 174.762 33.856 169.834 33.856C163.914 33.856 159.434 33.904 156.394 34V33.04C157.546 32.976 158.378 32.848 158.89 32.656C159.434 32.464 159.802 32.096 159.994 31.552C160.186 31.008 160.282 30.128 160.282 28.912V9.904C160.282 8.688 160.186 7.808 159.994 7.264C159.802 6.72 159.434 6.352 158.89 6.16C158.378 5.968 157.546 5.84 156.394 5.776V4.816C157.738 4.912 159.786 4.96 162.538 4.96C165.098 4.96 167.13 4.912 168.634 4.816V5.776Z" fill="#DDD2DA"/>
<path d="M106.528 60.0241C105.27 60.4003 104.167 60.9193 103.349 61.6589C102.467 62.3985 102.026 63.4235 102.026 64.6821C102.026 65.9407 102.467 66.823 103.272 67.4198C104.089 68.0815 104.971 68.38 105.944 68.38C107.047 68.38 108.085 68.0167 108.89 67.342C109.707 66.6802 110.083 65.7979 110.083 64.7599C110.083 64.0982 109.928 63.5014 109.564 62.8396C109.188 62.1649 108.669 61.7238 108.007 61.3605C108.085 61.1399 108.384 60.9193 108.747 60.8415C109.123 60.7636 109.629 60.6988 110.226 60.6988C112.523 60.6988 114.586 61.4254 116.285 62.8396C117.985 64.2409 118.803 66.0185 118.803 68.1594C118.803 69.418 118.361 70.5987 117.466 71.7794C116.584 72.9601 114.884 74.1538 112.445 75.2567C110.602 76.0741 108.604 76.8786 106.386 77.5533C104.089 78.215 101.948 78.8767 99.8072 79.4736C97.6534 80.0574 95.8888 80.5764 94.4096 81.0954C91.0751 82.2113 88.493 83.6904 86.7933 85.3902C85.0936 87.1547 84.1983 89.3086 84.1983 91.8906C84.1983 93.9666 84.6524 95.5885 85.6126 96.8471C86.5727 98.1056 87.7535 99.0658 89.1548 99.6497C90.5561 100.247 91.9703 100.545 93.3716 100.545C94.6951 100.545 96.0315 100.324 97.4328 99.8054C98.7692 99.3642 99.8721 98.6246 100.832 97.6645C101.728 96.6914 102.169 95.5885 102.169 94.1872C102.169 93.0065 101.792 92.0333 101.131 91.2938C100.391 90.5672 99.4309 90.1909 98.2502 90.1909C97.1473 90.1909 96.1742 90.5672 95.3698 91.2289C94.5523 91.8906 94.1891 92.8508 94.1891 94.0315C94.1891 95.2901 94.5523 96.1853 95.3698 96.6914C96.1093 97.2882 96.8489 97.6645 97.6534 97.8072C97.5106 98.3262 96.9138 98.7674 95.8888 98.9879C94.7729 99.2864 93.8906 99.4291 93.2289 99.4291C92.2558 99.4291 91.2956 99.2085 90.2706 98.7674C89.1548 98.3262 88.2725 97.6645 87.5329 96.7692C86.7933 95.8869 86.417 94.7711 86.417 93.5125C86.417 91.9685 87.0917 90.632 88.3373 89.594C89.5959 88.6339 91.0751 87.7516 92.9305 87.0899C94.1112 86.6487 95.6682 86.1297 97.5885 85.455L101.351 84.2743C103.349 85.0139 104.751 85.974 105.789 87.0899C107.047 88.4912 107.865 89.9703 108.228 91.3716C108.604 92.8508 108.825 94.0315 108.825 94.9916C108.825 97.1455 108.306 98.9879 107.268 100.61C106.23 102.31 104.829 103.724 103.051 104.905C101.209 106.085 99.1325 106.968 96.8489 107.564C94.4745 108.226 91.9703 108.525 89.3753 108.525C85.6775 108.525 82.3559 107.863 79.3976 106.604C76.3614 105.346 74 103.568 72.2224 101.207C70.4578 98.8452 69.5625 95.9518 69.5625 92.5523C69.5625 89.088 70.4578 86.4152 72.2224 84.4949C74 82.6524 76.2966 81.2511 79.177 80.4337C79.7609 80.6543 80.5783 81.0176 81.6163 81.3939C82.6543 81.835 83.6144 82.0556 84.5746 82.0556C85.2363 82.0556 85.7553 81.9129 86.1316 81.6923C86.4949 81.4717 86.6376 81.0954 86.6376 80.6543C86.6376 79.5514 85.6775 78.9546 83.6793 78.9546C83.2382 78.9546 82.5764 78.9546 81.6941 79.0324C80.7989 79.0973 79.9166 79.253 79.0992 79.3957C77.62 77.9944 76.6599 76.5931 76.1409 75.1788C75.6219 73.7775 75.3364 72.3762 75.3364 70.9749C75.3364 68.0815 76.1409 65.9407 77.7757 64.3837C79.3197 62.9045 81.3957 62.1649 83.9129 62.1649C85.4569 62.1649 86.7155 62.3985 87.7535 62.8396C88.7136 63.3586 89.3105 63.8776 89.531 64.5394C88.4152 64.6172 87.455 65.0584 86.7155 65.7979C85.9759 66.6024 85.6126 67.4977 85.6126 68.6005C85.6126 69.7813 85.9759 70.6765 86.7933 71.3382C87.5978 72 88.493 72.2984 89.4532 72.2984C90.4912 72.2984 91.4513 71.9351 92.3336 71.2604C93.1511 70.5987 93.5922 69.6385 93.5922 68.38C93.5922 67.5625 93.3716 66.7581 92.9954 65.7979C92.5542 64.9027 91.8146 64.0982 90.8545 63.2808C90.05 62.6191 89.0769 62.1001 87.8313 61.6589C86.5727 61.2826 85.0157 61.0621 83.1733 61.0621C81.0973 61.0621 79.3197 61.2826 77.7757 61.8016C76.2187 62.3206 74.8823 62.9824 73.8573 63.8776C72.8193 64.7599 72.0018 65.7201 71.4828 66.823C70.9638 67.9388 70.6784 69.1195 70.6784 70.3002C70.6784 72.1557 71.3401 73.9203 72.5987 75.633C73.8573 77.3327 75.6997 78.734 78.139 79.8369C77.1789 80.0574 75.9981 80.5116 74.4411 81.1733C72.8971 81.835 71.418 82.7952 69.861 84.0537C68.304 85.3123 67.0454 86.8693 66.0204 88.7117C64.9824 90.632 64.4634 92.9286 64.4634 95.5885C64.4634 99.3642 65.5663 102.686 67.785 105.424C70.0037 108.161 72.962 110.302 76.582 111.781C80.215 113.26 84.1983 114 88.4152 114C93.2289 114 97.2901 113.105 100.612 111.405C103.946 109.705 106.528 107.564 108.306 104.827C110.083 102.089 110.966 99.2863 110.966 96.328C110.966 93.3698 110.226 90.7099 108.669 88.2706C107.424 86.4152 105.568 84.936 102.986 83.8332L103.505 83.6904C105.568 83.0157 107.566 82.4319 109.409 81.7572C111.264 81.0954 112.743 80.5116 113.846 79.9926C115.844 79.0324 117.466 77.6181 118.88 75.9184C120.204 74.2187 120.879 72.1557 120.879 69.6385C120.879 66.4597 119.841 64.0204 117.765 62.2428C115.702 60.5431 113.107 59.6608 110.083 59.6608C108.89 59.6608 107.709 59.8035 106.45 60.1019L106.528 60.0241Z" fill="#917492" stroke="#917492" stroke-width="0.830399"/>
<mask id="path-3-inside-1_37_61" fill="white">
<path d="M104.037 58.3633C102.778 58.7396 101.676 59.2586 100.858 59.9982C99.9759 60.7377 99.5347 61.7627 99.5347 63.0213C99.5347 64.2799 99.9759 65.1622 100.78 65.759C101.598 66.4208 102.48 66.7192 103.453 66.7192C104.556 66.7192 105.594 66.3559 106.398 65.6812C107.216 65.0195 107.592 64.1372 107.592 63.0992C107.592 62.4374 107.436 61.8406 107.073 61.1789C106.697 60.5042 106.178 60.063 105.516 59.6997C105.594 59.4792 105.892 59.2586 106.256 59.1807C106.632 59.1029 107.138 59.038 107.735 59.038C110.031 59.038 112.095 59.7646 113.794 61.1789C115.494 62.5802 116.311 64.3577 116.311 66.4986C116.311 67.7572 115.87 68.9379 114.975 70.1186C114.093 71.2994 112.393 72.4931 109.954 73.5959C108.111 74.4134 106.113 75.2178 103.894 75.8925C101.598 76.5542 99.4569 77.2159 97.316 77.8128C95.1622 78.3967 93.3976 78.9157 91.9184 79.4347C88.5838 80.5505 86.0018 82.0297 84.3021 83.7294C82.6024 85.494 81.7071 87.6478 81.7071 90.2298C81.7071 92.3058 82.1612 93.9277 83.1214 95.1863C84.0815 96.4449 85.2623 97.405 86.6635 97.9889C88.0648 98.5857 89.4791 98.8842 90.8804 98.8842C92.2039 98.8842 93.5403 98.6636 94.9416 98.1446C96.278 97.7034 97.3809 96.9639 98.341 96.0037C99.2363 95.0306 99.6774 93.9277 99.6774 92.5264C99.6774 91.3457 99.3012 90.3726 98.6395 89.633C97.8999 88.9064 96.9397 88.5301 95.759 88.5301C94.6561 88.5301 93.683 88.9064 92.8786 89.5681C92.0611 90.2298 91.6978 91.19 91.6978 92.3707C91.6978 93.6293 92.0611 94.5246 92.8786 95.0306C93.6181 95.6274 94.3577 96.0037 95.1622 96.1464C95.0194 96.6654 94.4226 97.1066 93.3976 97.3272C92.2817 97.6256 91.3994 97.7683 90.7377 97.7683C89.7646 97.7683 88.8044 97.5477 87.7794 97.1066C86.6635 96.6654 85.7812 96.0037 85.0417 95.1084C84.3021 94.2261 83.9258 93.1103 83.9258 91.8517C83.9258 90.3077 84.6005 88.9713 85.8461 87.9333C87.1047 86.9731 88.5838 86.0908 90.4393 85.4291C91.62 84.988 93.177 84.469 95.0973 83.7943L98.86 82.6135C100.858 83.3531 102.259 84.3133 103.297 85.4291C104.556 86.8304 105.373 88.3096 105.737 89.7108C106.113 91.19 106.334 92.3707 106.334 93.3309C106.334 95.4847 105.815 97.3272 104.777 98.949C103.739 100.649 102.337 102.063 100.56 103.244C98.7173 104.424 96.6413 105.307 94.3577 105.904C91.9833 106.565 89.4791 106.864 86.8841 106.864C83.1863 106.864 79.8647 106.202 76.9064 104.943C73.8702 103.685 71.5088 101.907 69.7312 99.5459C67.9666 97.1844 67.0713 94.291 67.0713 90.8916C67.0713 87.4273 67.9666 84.7544 69.7312 82.8341C71.5088 80.9917 73.8053 79.5904 76.6858 78.7729C77.2697 78.9935 78.0871 79.3568 79.1251 79.7331C80.1631 80.1742 81.1232 80.3948 82.0834 80.3948C82.7451 80.3948 83.2641 80.2521 83.6404 80.0315C84.0037 79.8109 84.1464 79.4347 84.1464 78.9935C84.1464 77.8906 83.1863 77.2938 81.1881 77.2938C80.747 77.2938 80.0852 77.2938 79.2029 77.3716C78.3077 77.4365 77.4254 77.5922 76.6079 77.7349C75.1288 76.3336 74.1686 74.9323 73.6496 73.5181C73.1306 72.1168 72.8452 70.7155 72.8452 69.3142C72.8452 66.4208 73.6496 64.2799 75.2845 62.7229C76.8285 61.2437 78.9045 60.5042 81.4217 60.5042C82.9657 60.5042 84.2243 60.7377 85.2623 61.1789C86.2224 61.6979 86.8192 62.2169 87.0398 62.8786C85.924 62.9564 84.9638 63.3976 84.2243 64.1372C83.4847 64.9416 83.1214 65.8369 83.1214 66.9398C83.1214 68.1205 83.4847 69.0158 84.3021 69.6775C85.1066 70.3392 86.0018 70.6376 86.962 70.6376C88 70.6376 88.9601 70.2743 89.8424 69.5996C90.6598 68.9379 91.101 67.9778 91.101 66.7192C91.101 65.9018 90.8804 65.0973 90.5041 64.1372C90.063 63.2419 89.3234 62.4374 88.3633 61.62C87.5588 60.9583 86.5857 60.4393 85.3401 59.9981C84.0815 59.6219 82.5245 59.4013 80.6821 59.4013C78.6061 59.4013 76.8285 59.6219 75.2845 60.1409C73.7275 60.6599 72.3911 61.3216 71.3661 62.2169C70.3281 63.0992 69.5106 64.0593 68.9916 65.1622C68.4726 66.278 68.1872 67.4588 68.1872 68.6395C68.1872 70.4949 68.8489 72.2595 70.1075 73.9722C71.3661 75.6719 73.2085 77.0732 75.6478 78.1761C74.6876 78.3967 73.5069 78.8508 71.9499 79.5125C70.4059 80.1742 68.9268 81.1344 67.3698 82.393C65.8128 83.6515 64.5542 85.2085 63.5292 87.051C62.4912 88.9713 61.9722 91.2678 61.9722 93.9277C61.9722 97.7034 63.075 101.025 65.2938 103.763C67.5125 106.5 70.4708 108.641 74.0908 110.12C77.7238 111.6 81.7071 112.339 85.924 112.339C90.7377 112.339 94.7989 111.444 98.1205 109.744C101.455 108.044 104.037 105.904 105.815 103.166C107.592 100.428 108.474 97.6256 108.474 94.6673C108.474 91.709 107.735 89.0491 106.178 86.6098C104.932 84.7544 103.077 83.2753 100.495 82.1724L101.014 82.0297C103.077 81.355 105.075 80.7711 106.917 80.0964C108.773 79.4347 110.252 78.8508 111.355 78.3318C113.353 77.3716 114.975 75.9574 116.389 74.2577C117.713 72.5579 118.387 70.4949 118.387 67.9778C118.387 64.7989 117.349 62.3596 115.273 60.582C113.21 58.8823 110.615 58 107.592 58C106.398 58 105.218 58.1427 103.959 58.4411L104.037 58.3633Z"/>
</mask>
<path d="M104.037 58.3633C102.778 58.7396 101.676 59.2586 100.858 59.9982C99.9759 60.7377 99.5347 61.7627 99.5347 63.0213C99.5347 64.2799 99.9759 65.1622 100.78 65.759C101.598 66.4208 102.48 66.7192 103.453 66.7192C104.556 66.7192 105.594 66.3559 106.398 65.6812C107.216 65.0195 107.592 64.1372 107.592 63.0992C107.592 62.4374 107.436 61.8406 107.073 61.1789C106.697 60.5042 106.178 60.063 105.516 59.6997C105.594 59.4792 105.892 59.2586 106.256 59.1807C106.632 59.1029 107.138 59.038 107.735 59.038C110.031 59.038 112.095 59.7646 113.794 61.1789C115.494 62.5802 116.311 64.3577 116.311 66.4986C116.311 67.7572 115.87 68.9379 114.975 70.1186C114.093 71.2994 112.393 72.4931 109.954 73.5959C108.111 74.4134 106.113 75.2178 103.894 75.8925C101.598 76.5542 99.4569 77.2159 97.316 77.8128C95.1622 78.3967 93.3976 78.9157 91.9184 79.4347C88.5838 80.5505 86.0018 82.0297 84.3021 83.7294C82.6024 85.494 81.7071 87.6478 81.7071 90.2298C81.7071 92.3058 82.1612 93.9277 83.1214 95.1863C84.0815 96.4449 85.2623 97.405 86.6635 97.9889C88.0648 98.5857 89.4791 98.8842 90.8804 98.8842C92.2039 98.8842 93.5403 98.6636 94.9416 98.1446C96.278 97.7034 97.3809 96.9639 98.341 96.0037C99.2363 95.0306 99.6774 93.9277 99.6774 92.5264C99.6774 91.3457 99.3012 90.3726 98.6395 89.633C97.8999 88.9064 96.9397 88.5301 95.759 88.5301C94.6561 88.5301 93.683 88.9064 92.8786 89.5681C92.0611 90.2298 91.6978 91.19 91.6978 92.3707C91.6978 93.6293 92.0611 94.5246 92.8786 95.0306C93.6181 95.6274 94.3577 96.0037 95.1622 96.1464C95.0194 96.6654 94.4226 97.1066 93.3976 97.3272C92.2817 97.6256 91.3994 97.7683 90.7377 97.7683C89.7646 97.7683 88.8044 97.5477 87.7794 97.1066C86.6635 96.6654 85.7812 96.0037 85.0417 95.1084C84.3021 94.2261 83.9258 93.1103 83.9258 91.8517C83.9258 90.3077 84.6005 88.9713 85.8461 87.9333C87.1047 86.9731 88.5838 86.0908 90.4393 85.4291C91.62 84.988 93.177 84.469 95.0973 83.7943L98.86 82.6135C100.858 83.3531 102.259 84.3133 103.297 85.4291C104.556 86.8304 105.373 88.3096 105.737 89.7108C106.113 91.19 106.334 92.3707 106.334 93.3309C106.334 95.4847 105.815 97.3272 104.777 98.949C103.739 100.649 102.337 102.063 100.56 103.244C98.7173 104.424 96.6413 105.307 94.3577 105.904C91.9833 106.565 89.4791 106.864 86.8841 106.864C83.1863 106.864 79.8647 106.202 76.9064 104.943C73.8702 103.685 71.5088 101.907 69.7312 99.5459C67.9666 97.1844 67.0713 94.291 67.0713 90.8916C67.0713 87.4273 67.9666 84.7544 69.7312 82.8341C71.5088 80.9917 73.8053 79.5904 76.6858 78.7729C77.2697 78.9935 78.0871 79.3568 79.1251 79.7331C80.1631 80.1742 81.1232 80.3948 82.0834 80.3948C82.7451 80.3948 83.2641 80.2521 83.6404 80.0315C84.0037 79.8109 84.1464 79.4347 84.1464 78.9935C84.1464 77.8906 83.1863 77.2938 81.1881 77.2938C80.747 77.2938 80.0852 77.2938 79.2029 77.3716C78.3077 77.4365 77.4254 77.5922 76.6079 77.7349C75.1288 76.3336 74.1686 74.9323 73.6496 73.5181C73.1306 72.1168 72.8452 70.7155 72.8452 69.3142C72.8452 66.4208 73.6496 64.2799 75.2845 62.7229C76.8285 61.2437 78.9045 60.5042 81.4217 60.5042C82.9657 60.5042 84.2243 60.7377 85.2623 61.1789C86.2224 61.6979 86.8192 62.2169 87.0398 62.8786C85.924 62.9564 84.9638 63.3976 84.2243 64.1372C83.4847 64.9416 83.1214 65.8369 83.1214 66.9398C83.1214 68.1205 83.4847 69.0158 84.3021 69.6775C85.1066 70.3392 86.0018 70.6376 86.962 70.6376C88 70.6376 88.9601 70.2743 89.8424 69.5996C90.6598 68.9379 91.101 67.9778 91.101 66.7192C91.101 65.9018 90.8804 65.0973 90.5041 64.1372C90.063 63.2419 89.3234 62.4374 88.3633 61.62C87.5588 60.9583 86.5857 60.4393 85.3401 59.9981C84.0815 59.6219 82.5245 59.4013 80.6821 59.4013C78.6061 59.4013 76.8285 59.6219 75.2845 60.1409C73.7275 60.6599 72.3911 61.3216 71.3661 62.2169C70.3281 63.0992 69.5106 64.0593 68.9916 65.1622C68.4726 66.278 68.1872 67.4588 68.1872 68.6395C68.1872 70.4949 68.8489 72.2595 70.1075 73.9722C71.3661 75.6719 73.2085 77.0732 75.6478 78.1761C74.6876 78.3967 73.5069 78.8508 71.9499 79.5125C70.4059 80.1742 68.9268 81.1344 67.3698 82.393C65.8128 83.6515 64.5542 85.2085 63.5292 87.051C62.4912 88.9713 61.9722 91.2678 61.9722 93.9277C61.9722 97.7034 63.075 101.025 65.2938 103.763C67.5125 106.5 70.4708 108.641 74.0908 110.12C77.7238 111.6 81.7071 112.339 85.924 112.339C90.7377 112.339 94.7989 111.444 98.1205 109.744C101.455 108.044 104.037 105.904 105.815 103.166C107.592 100.428 108.474 97.6256 108.474 94.6673C108.474 91.709 107.735 89.0491 106.178 86.6098C104.932 84.7544 103.077 83.2753 100.495 82.1724L101.014 82.0297C103.077 81.355 105.075 80.7711 106.917 80.0964C108.773 79.4347 110.252 78.8508 111.355 78.3318C113.353 77.3716 114.975 75.9574 116.389 74.2577C117.713 72.5579 118.387 70.4949 118.387 67.9778C118.387 64.7989 117.349 62.3596 115.273 60.582C113.21 58.8823 110.615 58 107.592 58C106.398 58 105.218 58.1427 103.959 58.4411L104.037 58.3633Z" stroke="#DDD2DA" stroke-width="1.2" mask="url(#path-3-inside-1_37_61)"/>
<path d="M42.226 135.776C41.074 135.84 40.226 135.968 39.682 136.16C39.17 136.352 38.818 136.72 38.626 137.264C38.434 137.808 38.338 138.688 38.338 139.904V158.912C38.338 160.128 38.434 161.008 38.626 161.552C38.818 162.096 39.17 162.464 39.682 162.656C40.226 162.848 41.074 162.976 42.226 163.04V164C40.754 163.904 38.722 163.856 36.13 163.856C33.378 163.856 31.33 163.904 29.986 164V163.04C31.138 162.976 31.97 162.848 32.482 162.656C33.026 162.464 33.394 162.096 33.586 161.552C33.778 161.008 33.874 160.128 33.874 158.912V137.84L22.306 164.24H21.538L10.402 137.888V158.432C10.402 159.68 10.498 160.608 10.69 161.216C10.914 161.824 11.33 162.272 11.938 162.56C12.546 162.816 13.49 162.976 14.77 163.04V164C13.618 163.904 11.986 163.856 9.87404 163.856C7.95404 163.856 6.46604 163.904 5.41004 164V163.04C6.53004 162.976 7.36204 162.816 7.90604 162.56C8.45004 162.272 8.81804 161.824 9.01004 161.216C9.20204 160.576 9.29804 159.648 9.29804 158.432V139.904C9.29804 138.688 9.20204 137.808 9.01004 137.264C8.81804 136.72 8.45004 136.352 7.90604 136.16C7.39404 135.968 6.56204 135.84 5.41004 135.776V134.816C6.46604 134.912 7.95404 134.96 9.87404 134.96C11.41 134.96 12.77 134.912 13.954 134.816L23.602 158.192L33.874 134.96H36.13C38.722 134.96 40.754 134.912 42.226 134.816V135.776ZM58.4782 135.776C57.3262 135.84 56.4782 135.968 55.9342 136.16C55.4222 136.352 55.0702 136.72 54.8782 137.264C54.6862 137.808 54.5902 138.688 54.5902 139.904V158.912C54.5902 160.128 54.6862 161.008 54.8782 161.552C55.0702 162.096 55.4222 162.464 55.9342 162.656C56.4782 162.848 57.3262 162.976 58.4782 163.04V164C57.0062 163.904 54.9742 163.856 52.3822 163.856C49.6302 163.856 47.5822 163.904 46.2382 164V163.04C47.3902 162.976 48.2222 162.848 48.7342 162.656C49.2782 162.464 49.6462 162.096 49.8382 161.552C50.0302 161.008 50.1262 160.128 50.1262 158.912V139.904C50.1262 138.688 50.0302 137.808 49.8382 137.264C49.6462 136.72 49.2782 136.352 48.7342 136.16C48.2222 135.968 47.3902 135.84 46.2382 135.776V134.816C47.5822 134.912 49.6302 134.96 52.3822 134.96C54.9422 134.96 56.9742 134.912 58.4782 134.816V135.776ZM76.9619 134.144C78.7539 134.144 80.1939 134.4 81.2819 134.912C82.4019 135.424 83.5859 136.208 84.8339 137.264C85.2499 137.584 85.5699 137.744 85.7939 137.744C86.4019 137.744 86.8019 136.768 86.9939 134.816H88.0979C87.9699 136.64 87.9059 139.84 87.9059 144.416H86.8019C86.5459 143.2 86.2259 142.128 85.8419 141.2C85.4899 140.272 85.0099 139.456 84.4019 138.752C83.3459 137.536 82.2419 136.608 81.0899 135.968C79.9379 135.328 78.5299 135.008 76.8659 135.008C74.9459 135.008 73.2819 135.6 71.8739 136.784C70.4659 137.936 69.3779 139.6 68.6099 141.776C67.8419 143.952 67.4579 146.512 67.4579 149.456C67.4579 154.352 68.3539 157.952 70.1459 160.256C71.9379 162.56 74.6099 163.712 78.1619 163.712C79.5379 163.712 80.7699 163.584 81.8579 163.328C82.4339 163.2 82.8179 162.992 83.0099 162.704C83.2339 162.416 83.3459 162.016 83.3459 161.504V157.376C83.3459 156.032 83.2179 155.056 82.9619 154.448C82.7059 153.84 82.2579 153.424 81.6179 153.2C80.9779 152.976 79.9379 152.832 78.4979 152.768V151.808C80.2259 151.904 82.4819 151.952 85.2659 151.952C87.4419 151.952 89.1059 151.904 90.2579 151.808V152.768C89.5219 152.832 88.9939 152.96 88.6739 153.152C88.3539 153.344 88.1299 153.712 88.0019 154.256C87.8739 154.8 87.8099 155.68 87.8099 156.896V164H86.8499C86.7859 163.232 86.5459 162.848 86.1299 162.848C85.9379 162.848 85.5859 162.96 85.0739 163.184C84.5619 163.408 84.2099 163.552 84.0179 163.616C81.9699 164.32 79.8739 164.672 77.7299 164.672C72.9299 164.672 69.2179 163.392 66.5939 160.832C63.9699 158.24 62.6579 154.624 62.6579 149.984C62.6579 146.784 63.2659 144 64.4819 141.632C65.6979 139.232 67.3779 137.392 69.5219 136.112C71.6979 134.8 74.1779 134.144 76.9619 134.144ZM122.184 135.776C121.064 135.84 120.232 136.016 119.688 136.304C119.144 136.56 118.776 137.008 118.584 137.648C118.392 138.256 118.296 139.168 118.296 140.384V150.992C118.296 153.2 118.136 155.088 117.816 156.656C117.528 158.192 117.032 159.536 116.328 160.688C115.56 161.904 114.44 162.88 112.968 163.616C111.528 164.32 109.88 164.672 108.024 164.672C104.728 164.672 102.2 163.968 100.44 162.56C99.0323 161.312 98.0883 159.888 97.6083 158.288C97.1283 156.688 96.8883 154.304 96.8883 151.136V139.904C96.8883 138.688 96.7923 137.808 96.6003 137.264C96.4083 136.72 96.0403 136.352 95.4963 136.16C94.9843 135.968 94.1523 135.84 93.0003 135.776V134.816C94.3443 134.912 96.3923 134.96 99.1443 134.96C101.704 134.96 103.736 134.912 105.24 134.816V135.776C104.088 135.84 103.24 135.968 102.696 136.16C102.184 136.352 101.832 136.72 101.64 137.264C101.448 137.808 101.352 138.688 101.352 139.904V151.952C101.352 154.32 101.512 156.288 101.832 157.856C102.152 159.392 102.824 160.64 103.848 161.6C104.904 162.528 106.44 162.992 108.456 162.992C111.656 162.992 113.912 161.984 115.224 159.968C116.536 157.952 117.192 155.136 117.192 151.52V140.384C117.192 138.656 116.872 137.472 116.232 136.832C115.624 136.192 114.488 135.84 112.824 135.776V134.816C113.976 134.912 115.608 134.96 117.72 134.96C119.64 134.96 121.128 134.912 122.184 134.816V135.776ZM149.026 158.336C149.026 160 149.138 161.888 149.362 164C147.282 163.904 143.778 163.856 138.85 163.856C132.93 163.856 128.45 163.904 125.41 164V163.04C126.562 162.976 127.394 162.848 127.906 162.656C128.45 162.464 128.818 162.096 129.01 161.552C129.202 161.008 129.298 160.128 129.298 158.912V139.904C129.298 138.688 129.202 137.808 129.01 137.264C128.818 136.72 128.45 136.352 127.906 136.16C127.394 135.968 126.562 135.84 125.41 135.776V134.816C128.45 134.912 132.93 134.96 138.85 134.96C143.33 134.96 146.514 134.912 148.402 134.816C148.178 136.736 148.066 138.464 148.066 140C148.066 141.248 148.114 142.24 148.21 142.976H147.106C146.882 140.352 146.322 138.528 145.426 137.504C144.562 136.448 143.138 135.92 141.154 135.92H137.65C136.498 135.92 135.65 136.016 135.106 136.208C134.594 136.368 134.242 136.72 134.05 137.264C133.858 137.808 133.762 138.688 133.762 139.904V148.832H137.746C138.77 148.832 139.554 148.576 140.098 148.064C140.642 147.52 141.01 146.944 141.202 146.336C141.394 145.696 141.57 144.896 141.73 143.936H142.834C142.738 145.024 142.69 146.208 142.69 147.488V149.312C142.69 150.56 142.786 152.352 142.978 154.688H141.874C141.682 153.152 141.314 151.952 140.77 151.088C140.226 150.224 139.218 149.792 137.746 149.792H133.762V158.912C133.762 160.128 133.858 161.008 134.05 161.552C134.242 162.096 134.594 162.464 135.106 162.656C135.65 162.816 136.498 162.896 137.65 162.896H141.154C142.754 162.896 144.018 162.64 144.946 162.128C145.874 161.616 146.578 160.8 147.058 159.68C147.538 158.528 147.874 156.928 148.066 154.88H149.17C149.074 155.744 149.026 156.896 149.026 158.336ZM166.197 135.776C165.045 135.84 164.197 135.968 163.653 136.16C163.141 136.352 162.789 136.72 162.597 137.264C162.405 137.808 162.309 138.688 162.309 139.904V158.912C162.309 160.128 162.405 161.008 162.597 161.552C162.789 162.096 163.141 162.464 163.653 162.656C164.197 162.816 165.045 162.896 166.197 162.896H169.221C171.429 162.896 173.141 162.24 174.357 160.928C175.605 159.616 176.357 157.44 176.613 154.4H177.717C177.621 155.392 177.573 156.704 177.573 158.336C177.573 160 177.685 161.888 177.909 164C175.829 163.904 172.325 163.856 167.397 163.856C161.477 163.856 156.997 163.904 153.957 164V163.04C155.109 162.976 155.941 162.848 156.453 162.656C156.997 162.464 157.365 162.096 157.557 161.552C157.749 161.008 157.845 160.128 157.845 158.912V139.904C157.845 138.688 157.749 137.808 157.557 137.264C157.365 136.72 156.997 136.352 156.453 136.16C155.941 135.968 155.109 135.84 153.957 135.776V134.816C155.301 134.912 157.349 134.96 160.101 134.96C162.661 134.96 164.693 134.912 166.197 134.816V135.776Z" fill="#DDD2DA"/>
</svg>
